<svg width="202" height="202" viewBox="0 0 202 202" fill="none" xmlns="http://www.w3.org/2000/svg">
<rect x="180" y="180" width="20" height="20" transform="rotate(180 180 180)" stroke="#EECB87" stroke-width="4"/>
<path d="M200 140V142H202V140H200ZM180 140H178V142H180V140ZM200 140V138H180V140V142H200V140ZM180 140H182V0H180H178V140H180ZM200 0H198V140H200H202V0H200Z" fill="#EECB87"/>
<path d="M140 200L142 200L142 202L140 202L140 200ZM140 180L140 178L142 178L142 180L140 180ZM140 200L138 200L138 180L140 180L142 180L142 200L140 200ZM140 180L140 182L-9.34175e-08 182L-1.03797e-07 180L-1.14177e-07 178L140 178L140 180ZM0 200L-1.03797e-08 198L140 198L140 200L140 202L1.03797e-08 202L0 200Z" fill="#EECB87"/>
<rect x="180" y="160" width="20" height="20" transform="rotate(180 180 160)" stroke="#EECB87" stroke-width="4"/>
<rect x="160" y="180" width="20" height="20" transform="rotate(180 160 180)" stroke="#EECB87" stroke-width="4"/>
</svg>
