<svg width="202" height="202" viewBox="0 0 202 202" fill="none" xmlns="http://www.w3.org/2000/svg">
<rect width="20" height="20" transform="matrix(-1 0 0 1 180 22)" stroke="#EECB87" stroke-width="4"/>
<path d="M200 62V60H202V62H200ZM180 62H178V60H180V62ZM200 62V64H180V62V60H200V62ZM180 62H182V202H180H178V62H180ZM200 202H198V62H200H202V202H200Z" fill="#EECB87"/>
<path d="M140 2L142 2L142 1.03797e-08L140 0L140 2ZM140 22L140 24L142 24L142 22L140 22ZM140 2L138 2L138 22L140 22L142 22L142 2L140 2ZM140 22L140 20L-9.34175e-08 20L-1.03797e-07 22L-1.14177e-07 24L140 24L140 22ZM0 2L-1.03797e-08 4L140 4L140 2L140 0L1.03797e-08 -7.26581e-07L0 2Z" fill="#EECB87"/>
<rect width="20" height="20" transform="matrix(-1 0 0 1 180 42)" stroke="#EECB87" stroke-width="4"/>
<rect width="20" height="20" transform="matrix(-1 0 0 1 160 22)" stroke="#EECB87" stroke-width="4"/>
</svg>
