<svg width="250" height="251" viewBox="0 0 250 251" fill="none" xmlns="http://www.w3.org/2000/svg">
<path d="M60.3774 207.43C60.3774 207.43 57.3512 214.258 61.956 219.909C66.5701 225.551 78.4883 230.8 86.1287 226.671C93.7691 222.543 94.7031 211.176 94.7031 211.176C94.7031 211.176 68.5689 192.551 60.3868 207.44L60.3774 207.43Z" fill="url(#paint0_linear_53_252)"/>
<path d="M207.628 185.266C208.337 187.461 209.075 190.954 208.188 194.914C206.189 203.769 196.438 212.866 186.743 210.289C178.271 208.038 174.301 195.437 174.301 195.437C186.808 182.389 198.082 174.459 201.267 176.719C201.977 177.224 203.789 179.307 205.246 181.352C206.348 182.912 207.132 184.304 207.628 185.266Z" fill="url(#paint1_linear_53_252)"/>
<path d="M141.918 212.549C144.851 218.041 144.085 221.74 143.628 223.206C140.816 232.219 124.788 237.59 115.046 230.986C106.995 225.522 107.06 214.473 107.088 213.324C122.659 204.142 135.66 199.556 138.117 202.601C138.659 203.274 139.845 205.768 140.695 208.14C141.339 209.943 141.713 211.493 141.928 212.549H141.918Z" fill="url(#paint2_linear_53_252)"/>
<path d="M65.2719 98.0273C109.835 57.948 169.669 60.4044 196.569 90.1814C215.838 111.515 221.974 151.006 205.395 178.494C198.175 190.468 188.779 196.801 181.746 201.434C149.876 222.422 91.9945 234.798 58.5655 203.554C57.3419 202.415 31.133 177.149 36.2328 144.458C38.5585 129.542 49.823 115.111 51.5042 112.841C56.4826 106.153 61.517 101.268 65.2719 98.0179V98.0273Z" fill="url(#paint3_linear_53_252)"/>
<path d="M76.5643 125.207C76.5643 125.207 63.8615 117.446 48.6835 125.207C46.8434 126.151 45.2462 126.347 43.8639 125.973C36.8306 124.059 33.3934 95.9349 43.0326 90.9659C50.8504 86.9402 64.1137 99.7084 64.9169 100.493C74.1358 109.534 76.0599 120.818 76.5643 125.198V125.207Z" fill="url(#paint4_linear_53_252)"/>
<path d="M45.5076 90.2467C45.5076 90.2467 63.8613 85.6793 82.5699 98.7371C101.279 111.795 76.5735 125.208 76.5735 125.208C76.1998 121.257 75.0323 114.793 70.9319 108.171C62.6844 94.8515 48.9074 91.078 45.5169 90.2467H45.5076Z" fill="url(#paint5_linear_53_252)"/>
<path d="M109.601 125.208C114.206 122.789 121.827 119.538 131.691 118.8C139.284 118.231 153.5 117.175 161.458 125.899C171.303 136.687 167.735 158.188 154.817 167.93C148.933 172.376 142.339 173.441 138.322 173.703C154.63 165.24 159.207 145.205 109.601 125.208Z" fill="url(#paint6_linear_53_252)"/>
<path d="M96.5338 132.586C96.7487 133.334 97.2531 133.987 97.8602 134.557C100.074 136.687 105.155 138.985 110.516 142.001C119.847 146.802 126.563 153.845 131.439 162.709C137.585 173.731 145.234 176.897 153.753 166.015C161.3 156.572 163.467 140.965 154.528 131.764C146.43 123.181 133.213 121.229 121.734 121.77C114.635 122.013 95.9267 125.45 96.5058 132.493L96.5245 132.577L96.5338 132.586Z" fill="url(#paint7_linear_53_252)"/>
<path d="M78.7402 195.353C83.0977 187.554 78.6277 176.76 68.7562 171.245C58.8847 165.73 47.3498 167.583 42.9924 175.383C38.6349 183.183 43.105 193.976 52.9765 199.491C62.848 205.006 74.3828 203.153 78.7402 195.353Z" fill="url(#paint8_linear_53_252)"/>
<path d="M95.9079 173.693C98.482 173.693 100.569 170.168 100.569 165.819C100.569 161.471 98.482 157.945 95.9079 157.945C93.3338 157.945 91.2471 161.471 91.2471 165.819C91.2471 170.168 93.3338 173.693 95.9079 173.693Z" fill="#C65E01"/>
<path d="M60.8725 158.459C63.4466 158.459 65.5333 154.934 65.5333 150.585C65.5333 146.237 63.4466 142.711 60.8725 142.711C58.2984 142.711 56.2117 146.237 56.2117 150.585C56.2117 154.934 58.2984 158.459 60.8725 158.459Z" fill="#C65E01"/>
<path d="M75.1818 194.606C72.8094 204.096 61.9839 208.607 51.0184 204.675C40.0529 200.743 33.085 189.861 35.4668 180.371C37.8392 170.882 48.6646 166.37 59.6302 170.303C70.5957 174.235 77.5636 185.116 75.1818 194.606Z" fill="url(#paint9_linear_53_252)"/>
<path d="M47.7686 192.012C50.2822 191.457 51.741 188.385 51.027 185.151C50.3131 181.918 47.6966 179.746 45.1831 180.301C42.6695 180.856 41.2106 183.927 41.9246 187.161C42.6386 190.395 45.255 192.567 47.7686 192.012Z" fill="#C65E01"/>
<path d="M62.9402 196.154C65.4538 195.599 66.9126 192.527 66.1987 189.294C65.4847 186.06 62.8683 183.888 60.3547 184.443C57.8411 184.998 56.3823 188.069 57.0962 191.303C57.8102 194.537 60.4267 196.709 62.9402 196.154Z" fill="#C65E01"/>
<path d="M156.685 88.4066L120.688 105.789L109.601 102.099L106.92 101.203L144.618 83.9419L156.685 88.4066Z" fill="url(#paint10_linear_53_252)"/>
<path d="M144.618 83.9419V87.3511L153.332 90.6202L156.686 88.4066L144.618 83.9419Z" fill="url(#paint11_linear_53_252)"/>
<path d="M144.618 87.3511L111.581 102.753L106.92 101.203L144.618 83.9419V87.3511Z" fill="url(#paint12_linear_53_252)"/>
<path d="M129.897 60.4138C140.395 60.4138 148.905 50.6953 148.905 38.7069C148.905 26.7185 140.395 17 129.897 17C119.4 17 110.89 26.7185 110.89 38.7069C110.89 50.6953 119.4 60.4138 129.897 60.4138Z" fill="url(#paint13_linear_53_252)"/>
<path d="M133.708 60.4138C144.206 60.4138 152.716 50.6953 152.716 38.7069C152.716 26.7185 144.206 17 133.708 17C123.211 17 114.701 26.7185 114.701 38.7069C114.701 50.6953 123.211 60.4138 133.708 60.4138Z" fill="url(#paint14_linear_53_252)"/>
<defs>
<linearGradient id="paint0_linear_53_252" x1="60.7491" y1="202.877" x2="98.5204" y2="222.204" gradientUnits="userSpaceOnUse">
<stop stop-color="#C67320"/>
<stop offset="0.23" stop-color="#C67320"/>
<stop offset="0.45" stop-color="#F0AE49"/>
<stop offset="0.63" stop-color="#FFD8A4"/>
<stop offset="0.79" stop-color="#F0AE49"/>
<stop offset="0.94" stop-color="#C67320"/>
</linearGradient>
<linearGradient id="paint1_linear_53_252" x1="205.377" y1="178.257" x2="169.231" y2="201.91" gradientUnits="userSpaceOnUse">
<stop stop-color="#C67320"/>
<stop offset="0.23" stop-color="#C67320"/>
<stop offset="0.45" stop-color="#F0AE49"/>
<stop offset="0.63" stop-color="#FFD8A4"/>
<stop offset="0.79" stop-color="#F0AE49"/>
<stop offset="0.94" stop-color="#C67320"/>
</linearGradient>
<linearGradient id="paint2_linear_53_252" x1="143.946" y1="209.701" x2="100.068" y2="218.519" gradientUnits="userSpaceOnUse">
<stop stop-color="#C67320"/>
<stop offset="0.23" stop-color="#C67320"/>
<stop offset="0.45" stop-color="#F0AE49"/>
<stop offset="0.63" stop-color="#FFD8A4"/>
<stop offset="0.79" stop-color="#F0AE49"/>
<stop offset="0.94" stop-color="#C67320"/>
</linearGradient>
<linearGradient id="paint3_linear_53_252" x1="26.5469" y1="117.436" x2="212.709" y2="169.481" gradientUnits="userSpaceOnUse">
<stop stop-color="#C65E01"/>
<stop offset="0.25" stop-color="#FFC37C"/>
<stop offset="0.61" stop-color="#F09B24"/>
<stop offset="1" stop-color="#C65E01"/>
</linearGradient>
<linearGradient id="paint4_linear_53_252" x1="28.3122" y1="108.171" x2="67.7844" y2="108.171" gradientUnits="userSpaceOnUse">
<stop offset="0.06" stop-color="#FFC37C"/>
<stop offset="0.59" stop-color="#F09B24"/>
<stop offset="1" stop-color="#C65E01"/>
</linearGradient>
<linearGradient id="paint5_linear_53_252" x1="35.7002" y1="107.34" x2="79.7679" y2="107.34" gradientUnits="userSpaceOnUse">
<stop offset="0.06" stop-color="#FFC37C"/>
<stop offset="0.59" stop-color="#F09B24"/>
<stop offset="1" stop-color="#C65E01"/>
</linearGradient>
<linearGradient id="paint6_linear_53_252" x1="102.969" y1="140.563" x2="166.922" y2="149.838" gradientUnits="userSpaceOnUse">
<stop offset="0.06" stop-color="#FFC37C"/>
<stop offset="0.59" stop-color="#F09B24"/>
<stop offset="1" stop-color="#C65E01"/>
</linearGradient>
<linearGradient id="paint7_linear_53_252" x1="167.208" y1="173.105" x2="126.048" y2="118.124" gradientUnits="userSpaceOnUse">
<stop offset="0.06" stop-color="#FFC37C"/>
<stop offset="0.59" stop-color="#F09B24"/>
<stop offset="1" stop-color="#C65E01"/>
</linearGradient>
<linearGradient id="paint8_linear_53_252" x1="83.8165" y1="199.424" x2="84.8472" y2="162.812" gradientUnits="userSpaceOnUse">
<stop offset="0.06" stop-color="#EBB472"/>
<stop offset="0.59" stop-color="#DC8F21"/>
<stop offset="1" stop-color="#B25501"/>
</linearGradient>
<linearGradient id="paint9_linear_53_252" x1="70.1131" y1="213.96" x2="51.1607" y2="174.846" gradientUnits="userSpaceOnUse">
<stop offset="0.06" stop-color="#FFC37C"/>
<stop offset="0.59" stop-color="#F09B24"/>
<stop offset="1" stop-color="#C65E01"/>
</linearGradient>
<linearGradient id="paint10_linear_53_252" x1="145.365" y1="108.049" x2="124.938" y2="88.1077" gradientUnits="userSpaceOnUse">
<stop offset="0.06" stop-color="#EBB472"/>
<stop offset="0.59" stop-color="#DC8F21"/>
<stop offset="1" stop-color="#B25501"/>
</linearGradient>
<linearGradient id="paint11_linear_53_252" x1="142.918" y1="85.5858" x2="156.583" y2="89.406" gradientUnits="userSpaceOnUse">
<stop offset="0.25" stop-color="#FFC37C"/>
<stop offset="0.61" stop-color="#F09B24"/>
<stop offset="1" stop-color="#C65E01"/>
</linearGradient>
<linearGradient id="paint12_linear_53_252" x1="135.417" y1="101.987" x2="122.173" y2="89.0604" gradientUnits="userSpaceOnUse">
<stop stop-color="#C65E01"/>
<stop offset="0.25" stop-color="#FFC37C"/>
<stop offset="0.61" stop-color="#F09B24"/>
<stop offset="1" stop-color="#C65E01"/>
</linearGradient>
<linearGradient id="paint13_linear_53_252" x1="107.929" y1="32.5703" x2="148.905" y2="44.0215" gradientUnits="userSpaceOnUse">
<stop stop-color="#EE8416"/>
<stop offset="0.43" stop-color="#FFC87D"/>
<stop offset="0.72" stop-color="#FBAE3B"/>
</linearGradient>
<linearGradient id="paint14_linear_53_252" x1="111.917" y1="38.4921" x2="167.903" y2="39.0431" gradientUnits="userSpaceOnUse">
<stop stop-color="#C95300"/>
<stop offset="0.43" stop-color="#FFB065"/>
<stop offset="0.72" stop-color="#F18D22"/>
</linearGradient>
</defs>
</svg>
