<svg width="250" height="251" viewBox="0 0 250 251" fill="none" xmlns="http://www.w3.org/2000/svg">
<path d="M126.998 128.406L132.07 140.406C135.175 140.709 139.368 140.813 144.218 140.029C149.135 139.238 153.128 137.803 156.004 136.524C156.662 132.147 157.328 127.77 157.986 123.385L149.882 129.5L141.638 120.635L136.61 131.607L126.998 128.406Z" fill="url(#paint0_linear_53_149)"/>
<path d="M156.47 139.667C153.446 140.887 149.468 142.181 144.699 142.957C141.475 143.482 137.312 143.859 132.491 143.556C132.351 142.706 132.218 141.855 132.077 141.005C135.279 141.256 139.471 141.279 144.299 140.495C149.128 139.711 153.106 138.358 156.056 137.108C156.197 137.959 156.33 138.809 156.47 139.659V139.667Z" fill="url(#paint1_linear_53_149)"/>
<path d="M157.187 144.125C154.178 145.405 150.096 146.802 145.12 147.578C140.432 148.31 136.343 148.273 133.201 148.015C132.994 146.728 132.78 145.434 132.573 144.148C135.804 144.34 139.885 144.295 144.529 143.563C149.394 142.795 153.453 141.493 156.551 140.251C156.758 141.538 156.973 142.831 157.18 144.118L157.187 144.125Z" fill="url(#paint2_linear_53_149)"/>
<path d="M157.601 146.639C154.792 147.926 150.865 149.375 146 150.181C141.017 151.002 136.728 150.869 133.615 150.536C133.512 149.893 133.408 149.249 133.305 148.606C136.425 148.917 140.647 149.02 145.549 148.222C150.451 147.423 154.422 145.989 157.283 144.709C157.387 145.353 157.49 145.996 157.594 146.639H157.601Z" fill="url(#paint3_linear_53_149)"/>
<path d="M132.07 151.15C135.545 151.541 140.351 151.726 145.956 150.817C151.575 149.907 156.093 148.207 159.265 146.735C159.494 148.14 159.723 149.538 159.945 150.943C156.744 152.466 152.1 154.248 146.273 155.142C140.817 155.985 136.136 155.771 132.75 155.357C132.521 153.952 132.291 152.554 132.07 151.15Z" fill="url(#paint4_linear_53_149)"/>
<path d="M140.625 202.937C143.331 201.333 147.989 199.041 154.207 198.124C159.938 197.273 164.699 197.932 167.679 198.582C167.857 199.684 168.034 200.793 168.219 201.895C165.032 201.348 160.293 200.904 154.666 201.762C148.625 202.678 143.967 204.734 141.024 206.309C140.891 205.185 140.765 204.061 140.632 202.937H140.625Z" fill="url(#paint5_linear_53_149)"/>
<path d="M141.113 206.893C144.092 205.34 148.691 203.374 154.614 202.449C160.285 201.562 165.069 201.961 168.315 202.479C168.544 203.884 168.766 205.281 168.996 206.686C165.794 206.132 160.966 205.681 155.22 206.583C149.283 207.522 144.706 209.54 141.8 211.093C141.571 209.688 141.342 208.291 141.12 206.886L141.113 206.893Z" fill="url(#paint6_linear_53_149)"/>
<path d="M140.846 212.624C143.952 210.908 148.884 208.653 155.317 207.573C161.601 206.524 166.881 206.997 170.341 207.581C170.763 210.169 171.184 212.764 171.605 215.352C167.531 216.853 162.393 218.361 156.344 219.286C150.924 220.114 146.089 220.269 142.074 220.143C141.667 217.637 141.261 215.13 140.854 212.624H140.846Z" fill="url(#paint7_linear_53_149)"/>
<path d="M135.279 156.503C138.052 156.836 141.808 157.006 146.155 156.37C151.08 155.645 155.014 154.144 157.727 152.865C157.35 158.596 157.379 165.879 158.666 174.167C160.137 183.639 162.792 191.425 165.239 197.185C162.378 196.719 158.06 196.364 152.958 197.274C148.381 198.087 144.788 199.625 142.355 200.897C142.843 194.612 142.865 186.301 141.179 176.748C139.745 168.592 137.46 161.775 135.279 156.51V156.503Z" fill="url(#paint8_linear_53_149)"/>
<path d="M141.216 121.869C142.621 121.869 143.76 120.731 143.76 119.326C143.76 117.921 142.621 116.782 141.216 116.782C139.811 116.782 138.673 117.921 138.673 119.326C138.673 120.731 139.811 121.869 141.216 121.869Z" fill="url(#paint9_linear_53_149)"/>
<path d="M126.191 129.914C127.596 129.914 128.735 128.775 128.735 127.37C128.735 125.966 127.596 124.827 126.191 124.827C124.787 124.827 123.648 125.966 123.648 127.37C123.648 128.775 124.787 129.914 126.191 129.914Z" fill="url(#paint10_linear_53_149)"/>
<path d="M158.001 125.951C159.405 125.951 160.544 124.812 160.544 123.407C160.544 122.003 159.405 120.864 158.001 120.864C156.596 120.864 155.457 122.003 155.457 123.407C155.457 124.812 156.596 125.951 158.001 125.951Z" fill="url(#paint11_linear_53_149)"/>
<path d="M160.803 93.41L167.945 101.514C170.467 100.937 173.787 99.9094 177.402 98.0239C181.062 96.1088 183.82 93.935 185.75 92.1678C185.122 88.5521 184.486 84.9365 183.857 81.3208L179.096 88.2564L170.282 83.4503L169.21 93.3952H160.81L160.803 93.41Z" fill="url(#paint12_linear_53_149)"/>
<path d="M186.933 94.5192C184.878 96.2789 182.09 98.3345 178.541 100.198C176.145 101.455 172.973 102.845 169.099 103.88L168.101 101.98C170.681 101.336 173.986 100.25 177.58 98.3714C181.173 96.4934 183.939 94.3787 185.935 92.6189C186.268 93.2548 186.601 93.8833 186.933 94.5192Z" fill="url(#paint13_linear_53_149)"/>
<path d="M188.671 97.8316C186.645 99.6283 183.798 101.802 180.094 103.717C176.596 105.529 173.373 106.571 170.837 107.192C170.334 106.231 169.831 105.277 169.328 104.316C171.916 103.621 175.118 102.512 178.578 100.715C182.201 98.8298 185.055 96.7373 187.162 94.9553C187.665 95.9165 188.168 96.8704 188.671 97.8316Z" fill="url(#paint14_linear_53_149)"/>
<path d="M189.654 99.7022C187.784 101.447 185.077 103.621 181.469 105.536C177.765 107.495 174.363 108.508 171.827 109.07C171.576 108.59 171.324 108.109 171.073 107.636C173.609 107.059 176.959 106.031 180.597 104.116C184.242 102.201 186.985 100.028 188.9 98.2751C189.151 98.7558 189.403 99.2364 189.654 99.7096V99.7022Z" fill="url(#paint15_linear_53_149)"/>
<path d="M170.77 109.965C173.602 109.359 177.432 108.242 181.602 106.054C185.78 103.858 188.885 101.344 190.992 99.3474C191.54 100.39 192.087 101.433 192.634 102.475C190.519 104.508 187.332 107.133 182.992 109.374C178.925 111.466 175.191 112.531 172.411 113.093C171.864 112.05 171.317 111.008 170.77 109.965Z" fill="url(#paint16_linear_53_149)"/>
<path d="M191.111 148.429C192.819 146.455 195.873 143.43 200.523 141.072C204.805 138.898 208.723 138.166 211.23 137.892C211.659 138.713 212.095 139.534 212.524 140.355C209.877 140.761 206.032 141.656 201.832 143.815C197.322 146.129 194.201 148.961 192.301 150.98C191.902 150.129 191.503 149.279 191.111 148.429Z" fill="url(#paint17_linear_53_149)"/>
<path d="M192.53 151.409C194.46 149.405 197.558 146.647 201.972 144.369C206.194 142.181 210.062 141.234 212.753 140.791C213.3 141.833 213.847 142.876 214.394 143.918C211.733 144.325 207.814 145.242 203.54 147.46C199.118 149.76 196.05 152.547 194.172 154.536C193.625 153.494 193.077 152.451 192.53 151.409Z" fill="url(#paint18_linear_53_149)"/>
<path d="M193.824 155.985C195.813 153.819 199.096 150.75 203.873 148.207C208.538 145.73 212.812 144.717 215.688 144.266C216.701 146.196 217.714 148.118 218.72 150.048C215.918 152.296 212.272 154.839 207.755 157.154C203.71 159.231 199.946 160.621 196.76 161.575C195.784 159.712 194.8 157.849 193.824 155.985Z" fill="url(#paint19_linear_53_149)"/>
<path d="M174.696 113.322C176.966 112.856 179.961 111.998 183.214 110.357C186.896 108.494 189.595 106.283 191.392 104.56C192.604 109.167 194.534 114.882 197.728 121.063C201.374 128.125 205.507 133.545 208.945 137.434C206.579 137.818 203.089 138.676 199.311 140.732C195.924 142.573 193.506 144.732 191.931 146.366C190.66 141.294 188.493 134.757 184.663 127.689C181.395 121.655 177.802 116.893 174.703 113.329L174.696 113.322Z" fill="url(#paint20_linear_53_149)"/>
<path d="M169.594 84.6406C170.758 84.6406 171.702 83.6971 171.702 82.5333C171.702 81.3695 170.758 80.426 169.594 80.426C168.43 80.426 167.487 81.3695 167.487 82.5333C167.487 83.6971 168.43 84.6406 169.594 84.6406Z" fill="url(#paint21_linear_53_149)"/>
<path d="M159.901 94.9184C161.064 94.9184 162.008 93.975 162.008 92.8112C162.008 91.6473 161.064 90.7039 159.901 90.7039C158.737 90.7039 157.793 91.6473 157.793 92.8112C157.793 93.975 158.737 94.9184 159.901 94.9184Z" fill="url(#paint22_linear_53_149)"/>
<path d="M183.865 83.4355C185.028 83.4355 185.972 82.4921 185.972 81.3282C185.972 80.1644 185.028 79.2209 183.865 79.2209C182.701 79.2209 181.757 80.1644 181.757 81.3282C181.757 82.4921 182.701 83.4355 183.865 83.4355Z" fill="url(#paint23_linear_53_149)"/>
<path d="M84.5927 52.2102L83.2617 74.0596C87.7129 76.8397 93.9388 80.1226 101.828 82.5701C109.821 85.0545 116.897 85.8752 122.184 86.097C126.45 80.0043 130.717 73.9043 134.983 67.8116L118.221 70.9615L112.439 51.4561L96.6746 64.2107L84.6001 52.2102H84.5927Z" fill="url(#paint24_linear_53_149)"/>
<path d="M120.528 91.1842C115.063 90.7628 108.113 89.7424 100.357 87.3394C95.1217 85.7201 88.5706 83.1839 81.5315 79.1246C81.9603 77.7419 82.3892 76.3592 82.818 74.9766C87.4467 77.7419 93.7389 80.9213 101.591 83.3466C109.444 85.7718 116.431 86.7109 121.814 87.0362C121.385 88.4189 120.956 89.8016 120.528 91.1842Z" fill="url(#paint25_linear_53_149)"/>
<path d="M118.287 98.4232C112.808 98.1052 105.621 97.1588 97.5542 94.6079C89.9531 92.2048 83.8309 89.0919 79.291 86.3635C79.9417 84.271 80.5849 82.1711 81.2356 80.0786C85.9529 82.7774 92.1271 85.772 99.669 88.1381C107.566 90.6225 114.649 91.6946 120.232 92.1382C119.581 94.2308 118.938 96.3307 118.287 98.4232Z" fill="url(#paint26_linear_53_149)"/>
<path d="M117.015 102.519C111.832 102.349 104.83 101.602 96.9182 99.1772C88.7996 96.6928 82.4557 93.2842 78.0193 90.4523C78.3446 89.4023 78.6698 88.3598 78.9952 87.3098C83.4612 90.1048 89.7387 93.4173 97.7095 95.8869C105.68 98.3491 112.734 99.1624 117.991 99.3768C117.666 100.427 117.341 101.469 117.015 102.519Z" fill="url(#paint27_linear_53_149)"/>
<path d="M75.2317 90.2305C80.1635 93.4173 87.2617 97.2844 96.3785 100.109C105.517 102.941 113.577 103.762 119.455 103.917C118.753 106.194 118.043 108.479 117.341 110.756C111.388 110.653 103.063 109.869 93.6279 106.867C84.7921 104.057 77.9083 100.235 73.1169 97.0773C73.8194 94.8 74.5293 92.5152 75.2317 90.2379V90.2305Z" fill="url(#paint28_linear_53_149)"/>
<path d="M49.4192 174.552C54.6912 174.167 63.4087 174.189 73.4572 177.458C82.7145 180.467 89.384 185.007 93.3842 188.209C92.8296 190.005 92.2751 191.802 91.7131 193.599C87.3359 190.397 80.5259 186.183 71.4164 183.269C61.6341 180.134 53.0942 179.742 47.4895 179.92C48.1328 178.13 48.776 176.341 49.4192 174.559V174.552Z" fill="url(#paint29_linear_53_149)"/>
<path d="M47.1937 180.859C52.8353 180.748 61.2203 181.221 70.8251 184.26C80.0159 187.166 86.9218 191.336 91.4173 194.545C90.7149 196.823 90.0052 199.107 89.3027 201.385C84.8959 198.161 77.9676 193.872 68.6511 190.937C59.0167 187.905 50.6172 187.528 45.0791 187.698C45.7815 185.421 46.4913 183.136 47.1937 180.859Z" fill="url(#paint30_linear_53_149)"/>
<path d="M42.506 189.281C48.4582 189.015 57.5677 189.303 68.0524 192.49C78.2931 195.603 85.8792 200.261 90.6558 203.729C89.3544 207.943 88.0458 212.158 86.7445 216.365C79.4983 215.581 70.6329 214.014 60.8358 210.886C52.0665 208.084 44.665 204.697 38.7202 201.511C39.9846 197.436 41.2417 193.355 42.506 189.281Z" fill="url(#paint31_linear_53_149)"/>
<path d="M76.06 100.678C79.9862 103.259 85.5021 106.312 92.5265 108.597C100.482 111.192 107.522 111.873 112.557 111.969C107.699 120.317 102.309 131.289 98.0572 144.724C93.1993 160.082 91.3731 173.775 90.752 184.267C86.7962 181.435 80.563 177.672 72.2003 175.217C64.7102 173.021 58.1443 172.651 53.5378 172.755C58.965 163.66 65.213 151.164 69.8195 135.541C73.7531 122.202 75.4167 110.231 76.06 100.671V100.678Z" fill="url(#paint32_linear_53_149)"/>
<path d="M112.779 53.4526C115.143 53.4526 117.06 51.5359 117.06 49.1715C117.06 46.8071 115.143 44.8904 112.779 44.8904C110.414 44.8904 108.498 46.8071 108.498 49.1715C108.498 51.5359 110.414 53.4526 112.779 53.4526Z" fill="url(#paint33_linear_53_149)"/>
<path d="M84.1636 54.3399C86.528 54.3399 88.4447 52.4231 88.4447 50.0587C88.4447 47.6943 86.528 45.7776 84.1636 45.7776C81.7991 45.7776 79.8826 47.6943 79.8826 50.0587C79.8826 52.4231 81.7991 54.3399 84.1636 54.3399Z" fill="url(#paint34_linear_53_149)"/>
<path d="M134.983 72.1372C137.347 72.1372 139.264 70.2205 139.264 67.8561C139.264 65.4917 137.347 63.575 134.983 63.575C132.618 63.575 130.702 65.4917 130.702 67.8561C130.702 70.2205 132.618 72.1372 134.983 72.1372Z" fill="url(#paint35_linear_53_149)"/>
<defs>
<linearGradient id="paint0_linear_53_149" x1="132.137" y1="131.389" x2="162.778" y2="128.423" gradientUnits="userSpaceOnUse">
<stop offset="0.04" stop-color="#C16D08"/>
<stop offset="0.26" stop-color="#EE9414"/>
<stop offset="0.52" stop-color="#FFCEA1"/>
<stop offset="0.76" stop-color="#EE9414"/>
</linearGradient>
<linearGradient id="paint1_linear_53_149" x1="134.763" y1="142.279" x2="158.488" y2="138.818" gradientUnits="userSpaceOnUse">
<stop stop-color="#C16D08"/>
<stop offset="0.18" stop-color="#EE9414"/>
<stop offset="0.6" stop-color="#FFCEA1"/>
<stop offset="0.8" stop-color="#EE9414"/>
</linearGradient>
<linearGradient id="paint2_linear_53_149" x1="135.941" y1="146.564" x2="159.679" y2="141.05" gradientUnits="userSpaceOnUse">
<stop offset="0.04" stop-color="#C16D08"/>
<stop offset="0.18" stop-color="#EE9414"/>
<stop offset="0.56" stop-color="#FFCEA1"/>
<stop offset="0.8" stop-color="#EE9414"/>
</linearGradient>
<linearGradient id="paint3_linear_53_149" x1="138.761" y1="148.351" x2="162.504" y2="146.838" gradientUnits="userSpaceOnUse">
<stop offset="0.04" stop-color="#C16D08"/>
<stop offset="0.18" stop-color="#EE9414"/>
<stop offset="0.52" stop-color="#FFCEA1"/>
<stop offset="0.8" stop-color="#EE9414"/>
</linearGradient>
<linearGradient id="paint4_linear_53_149" x1="137.921" y1="151.946" x2="165.451" y2="150.212" gradientUnits="userSpaceOnUse">
<stop offset="0.04" stop-color="#C16D08"/>
<stop offset="0.18" stop-color="#EE9414"/>
<stop offset="0.52" stop-color="#FFCEA1"/>
<stop offset="0.8" stop-color="#EE9414"/>
</linearGradient>
<linearGradient id="paint5_linear_53_149" x1="145.648" y1="202.199" x2="172.926" y2="200.822" gradientUnits="userSpaceOnUse">
<stop offset="0.04" stop-color="#C16D08"/>
<stop offset="0.18" stop-color="#EE9414"/>
<stop offset="0.52" stop-color="#FFCEA1"/>
<stop offset="0.8" stop-color="#EE9414"/>
</linearGradient>
<linearGradient id="paint6_linear_53_149" x1="146.668" y1="206.746" x2="174.194" y2="204.988" gradientUnits="userSpaceOnUse">
<stop offset="0.04" stop-color="#C16D08"/>
<stop offset="0.18" stop-color="#EE9414"/>
<stop offset="0.52" stop-color="#FFCEA1"/>
<stop offset="0.8" stop-color="#EE9414"/>
</linearGradient>
<linearGradient id="paint7_linear_53_149" x1="147.408" y1="215.385" x2="177.538" y2="208.463" gradientUnits="userSpaceOnUse">
<stop offset="0.04" stop-color="#C16D08"/>
<stop offset="0.18" stop-color="#EE9414"/>
<stop offset="0.45" stop-color="#FFCEA1"/>
<stop offset="0.8" stop-color="#EE9414"/>
</linearGradient>
<linearGradient id="paint8_linear_53_149" x1="138.676" y1="178.319" x2="173.515" y2="173.781" gradientUnits="userSpaceOnUse">
<stop offset="0.04" stop-color="#C16D08"/>
<stop offset="0.21" stop-color="#EE9414"/>
<stop offset="0.48" stop-color="#FFCEA1"/>
<stop offset="0.8" stop-color="#EE9414"/>
</linearGradient>
<linearGradient id="paint9_linear_53_149" x1="138.437" y1="119.922" x2="146.613" y2="118.016" gradientUnits="userSpaceOnUse">
<stop offset="0.04" stop-color="#C16D08"/>
<stop offset="0.18" stop-color="#EE9414"/>
<stop offset="0.52" stop-color="#FFCEA1"/>
<stop offset="0.8" stop-color="#EE9414"/>
</linearGradient>
<linearGradient id="paint10_linear_53_149" x1="123.413" y1="127.97" x2="131.589" y2="126.064" gradientUnits="userSpaceOnUse">
<stop offset="0.04" stop-color="#C16D08"/>
<stop offset="0.18" stop-color="#EE9414"/>
<stop offset="0.52" stop-color="#FFCEA1"/>
<stop offset="0.8" stop-color="#EE9414"/>
</linearGradient>
<linearGradient id="paint11_linear_53_149" x1="155.218" y1="124.005" x2="163.394" y2="122.099" gradientUnits="userSpaceOnUse">
<stop offset="0.04" stop-color="#C16D08"/>
<stop offset="0.18" stop-color="#EE9414"/>
<stop offset="0.52" stop-color="#FFCEA1"/>
<stop offset="0.8" stop-color="#EE9414"/>
</linearGradient>
<linearGradient id="paint12_linear_53_149" x1="165.841" y1="94.3297" x2="189.159" y2="83.9491" gradientUnits="userSpaceOnUse">
<stop offset="0.04" stop-color="#C16D08"/>
<stop offset="0.26" stop-color="#EE9414"/>
<stop offset="0.52" stop-color="#FFCEA1"/>
<stop offset="0.76" stop-color="#EE9414"/>
</linearGradient>
<linearGradient id="paint13_linear_53_149" x1="170.767" y1="102.208" x2="188.514" y2="93.2542" gradientUnits="userSpaceOnUse">
<stop stop-color="#C16D08"/>
<stop offset="0.18" stop-color="#EE9414"/>
<stop offset="0.6" stop-color="#FFCEA1"/>
<stop offset="0.8" stop-color="#EE9414"/>
</linearGradient>
<linearGradient id="paint14_linear_53_149" x1="172.821" y1="105.265" x2="190.037" y2="94.6898" gradientUnits="userSpaceOnUse">
<stop offset="0.04" stop-color="#C16D08"/>
<stop offset="0.18" stop-color="#EE9414"/>
<stop offset="0.56" stop-color="#FFCEA1"/>
<stop offset="0.8" stop-color="#EE9414"/>
</linearGradient>
<linearGradient id="paint15_linear_53_149" x1="175.507" y1="105.929" x2="193.779" y2="98.4978" gradientUnits="userSpaceOnUse">
<stop offset="0.04" stop-color="#C16D08"/>
<stop offset="0.18" stop-color="#EE9414"/>
<stop offset="0.52" stop-color="#FFCEA1"/>
<stop offset="0.8" stop-color="#EE9414"/>
</linearGradient>
<linearGradient id="paint16_linear_53_149" x1="175.789" y1="108.978" x2="196.98" y2="100.381" gradientUnits="userSpaceOnUse">
<stop offset="0.04" stop-color="#C16D08"/>
<stop offset="0.18" stop-color="#EE9414"/>
<stop offset="0.52" stop-color="#FFCEA1"/>
<stop offset="0.8" stop-color="#EE9414"/>
</linearGradient>
<linearGradient id="paint17_linear_53_149" x1="195.067" y1="146.455" x2="216.153" y2="138.203" gradientUnits="userSpaceOnUse">
<stop offset="0.04" stop-color="#C16D08"/>
<stop offset="0.18" stop-color="#EE9414"/>
<stop offset="0.52" stop-color="#FFCEA1"/>
<stop offset="0.8" stop-color="#EE9414"/>
</linearGradient>
<linearGradient id="paint18_linear_53_149" x1="197.068" y1="149.763" x2="218.249" y2="141.146" gradientUnits="userSpaceOnUse">
<stop offset="0.04" stop-color="#C16D08"/>
<stop offset="0.18" stop-color="#EE9414"/>
<stop offset="0.52" stop-color="#FFCEA1"/>
<stop offset="0.8" stop-color="#EE9414"/>
</linearGradient>
<linearGradient id="paint19_linear_53_149" x1="199.921" y1="156.367" x2="221.785" y2="142.998" gradientUnits="userSpaceOnUse">
<stop offset="0.04" stop-color="#C16D08"/>
<stop offset="0.18" stop-color="#EE9414"/>
<stop offset="0.45" stop-color="#FFCEA1"/>
<stop offset="0.8" stop-color="#EE9414"/>
</linearGradient>
<linearGradient id="paint20_linear_53_149" x1="183.315" y1="129.513" x2="209.512" y2="116.796" gradientUnits="userSpaceOnUse">
<stop offset="0.04" stop-color="#C16D08"/>
<stop offset="0.21" stop-color="#EE9414"/>
<stop offset="0.48" stop-color="#FFCEA1"/>
<stop offset="0.8" stop-color="#EE9414"/>
</linearGradient>
<linearGradient id="paint21_linear_53_149" x1="167.781" y1="83.6622" x2="173.711" y2="80.019" gradientUnits="userSpaceOnUse">
<stop offset="0.04" stop-color="#C16D08"/>
<stop offset="0.18" stop-color="#EE9414"/>
<stop offset="0.52" stop-color="#FFCEA1"/>
<stop offset="0.8" stop-color="#EE9414"/>
</linearGradient>
<linearGradient id="paint22_linear_53_149" x1="158.083" y1="93.9384" x2="164.019" y2="90.29" gradientUnits="userSpaceOnUse">
<stop offset="0.04" stop-color="#C16D08"/>
<stop offset="0.18" stop-color="#EE9414"/>
<stop offset="0.52" stop-color="#FFCEA1"/>
<stop offset="0.8" stop-color="#EE9414"/>
</linearGradient>
<linearGradient id="paint23_linear_53_149" x1="182.051" y1="82.4611" x2="187.976" y2="78.8126" gradientUnits="userSpaceOnUse">
<stop offset="0.04" stop-color="#C16D08"/>
<stop offset="0.18" stop-color="#EE9414"/>
<stop offset="0.52" stop-color="#FFCEA1"/>
<stop offset="0.8" stop-color="#EE9414"/>
</linearGradient>
<linearGradient id="paint24_linear_53_149" x1="90.2121" y1="60.6468" x2="138.532" y2="79.0876" gradientUnits="userSpaceOnUse">
<stop offset="0.04" stop-color="#C16D08"/>
<stop offset="0.26" stop-color="#EE9414"/>
<stop offset="0.52" stop-color="#FFCEA1"/>
<stop offset="0.76" stop-color="#EE9414"/>
</linearGradient>
<linearGradient id="paint25_linear_53_149" x1="86.0197" y1="78.9915" x2="124.306" y2="91.517" gradientUnits="userSpaceOnUse">
<stop stop-color="#C16D08"/>
<stop offset="0.18" stop-color="#EE9414"/>
<stop offset="0.6" stop-color="#FFCEA1"/>
<stop offset="0.8" stop-color="#EE9414"/>
</linearGradient>
<linearGradient id="paint26_linear_53_149" x1="84.5925" y1="86.3192" x2="124.431" y2="95.7613" gradientUnits="userSpaceOnUse">
<stop offset="0.04" stop-color="#C16D08"/>
<stop offset="0.18" stop-color="#EE9414"/>
<stop offset="0.56" stop-color="#FFCEA1"/>
<stop offset="0.8" stop-color="#EE9414"/>
</linearGradient>
<linearGradient id="paint27_linear_53_149" x1="87.5058" y1="91.1251" x2="124.365" y2="106.579" gradientUnits="userSpaceOnUse">
<stop offset="0.04" stop-color="#C16D08"/>
<stop offset="0.18" stop-color="#EE9414"/>
<stop offset="0.52" stop-color="#FFCEA1"/>
<stop offset="0.8" stop-color="#EE9414"/>
</linearGradient>
<linearGradient id="paint28_linear_53_149" x1="83.5499" y1="95.9017" x2="126.265" y2="113.869" gradientUnits="userSpaceOnUse">
<stop offset="0.04" stop-color="#C16D08"/>
<stop offset="0.18" stop-color="#EE9414"/>
<stop offset="0.52" stop-color="#FFCEA1"/>
<stop offset="0.8" stop-color="#EE9414"/>
</linearGradient>
<linearGradient id="paint29_linear_53_149" x1="57.6193" y1="177.288" x2="99.7061" y2="195.595" gradientUnits="userSpaceOnUse">
<stop offset="0.04" stop-color="#C16D08"/>
<stop offset="0.18" stop-color="#EE9414"/>
<stop offset="0.52" stop-color="#FFCEA1"/>
<stop offset="0.8" stop-color="#EE9414"/>
</linearGradient>
<linearGradient id="paint30_linear_53_149" x1="55.756" y1="184.896" x2="98.4934" y2="202.812" gradientUnits="userSpaceOnUse">
<stop offset="0.04" stop-color="#C16D08"/>
<stop offset="0.18" stop-color="#EE9414"/>
<stop offset="0.52" stop-color="#FFCEA1"/>
<stop offset="0.8" stop-color="#EE9414"/>
</linearGradient>
<linearGradient id="paint31_linear_53_149" x1="50.4175" y1="198.449" x2="100.919" y2="210.539" gradientUnits="userSpaceOnUse">
<stop offset="0.04" stop-color="#C16D08"/>
<stop offset="0.18" stop-color="#EE9414"/>
<stop offset="0.45" stop-color="#FFCEA1"/>
<stop offset="0.8" stop-color="#EE9414"/>
</linearGradient>
<linearGradient id="paint32_linear_53_149" x1="64.9764" y1="136.147" x2="120.786" y2="155.357" gradientUnits="userSpaceOnUse">
<stop offset="0.04" stop-color="#C16D08"/>
<stop offset="0.21" stop-color="#EE9414"/>
<stop offset="0.48" stop-color="#FFCEA1"/>
<stop offset="0.8" stop-color="#EE9414"/>
</linearGradient>
<linearGradient id="paint33_linear_53_149" x1="108.261" y1="48.1068" x2="121.984" y2="51.3528" gradientUnits="userSpaceOnUse">
<stop offset="0.04" stop-color="#C16D08"/>
<stop offset="0.18" stop-color="#EE9414"/>
<stop offset="0.52" stop-color="#FFCEA1"/>
<stop offset="0.8" stop-color="#EE9414"/>
</linearGradient>
<linearGradient id="paint34_linear_53_149" x1="79.6386" y1="48.9866" x2="93.3691" y2="52.2325" gradientUnits="userSpaceOnUse">
<stop offset="0.04" stop-color="#C16D08"/>
<stop offset="0.18" stop-color="#EE9414"/>
<stop offset="0.52" stop-color="#FFCEA1"/>
<stop offset="0.8" stop-color="#EE9414"/>
</linearGradient>
<linearGradient id="paint35_linear_53_149" x1="130.458" y1="66.784" x2="144.188" y2="70.0298" gradientUnits="userSpaceOnUse">
<stop offset="0.04" stop-color="#C16D08"/>
<stop offset="0.18" stop-color="#EE9414"/>
<stop offset="0.52" stop-color="#FFCEA1"/>
<stop offset="0.8" stop-color="#EE9414"/>
</linearGradient>
</defs>
</svg>
