<svg width="250" height="251" viewBox="0 0 250 251" fill="none" xmlns="http://www.w3.org/2000/svg">
<path d="M51.1131 85.1716C51.4913 84.9789 51.9124 85.821 52.3548 87.0627C56.3583 98.4166 62.7953 108.75 70.8308 117.685C97.5991 147.143 139.361 160.132 178.411 158.59C179.888 158.433 184.113 158.462 182.079 160.553C181.408 161.124 180.395 161.587 179.517 161.916C172.88 164.392 166.136 166.205 159.314 167.81C158.344 168.089 156.795 169.095 158.422 169.801C159.421 170.201 161.084 170.18 162.269 170.13C176.47 169.494 190.614 168.845 204.558 165.898C206.614 165.705 214.592 162.872 214.999 164.863C215.02 165.391 214.735 165.755 214.328 166.176C213.586 166.89 212.565 167.489 211.623 167.996C206.171 170.822 200.719 173.719 195.395 176.816C194.396 177.473 193.026 178.015 192.598 179.193C192.47 181.298 197.072 181.198 198.685 181.262C200.583 181.305 206.25 180.549 203.595 183.674C200.12 186.871 194.839 187.307 190.621 189.355C187.774 191.403 195.866 191.581 196.823 192.423C200.277 194.45 195.153 196.042 193.304 196.348C150.108 206.532 98.0273 204.241 65.5927 170.294C51.0774 155.243 41.3934 135.782 37.29 115.323C35.4489 106.16 34.6924 96.7681 35.1135 87.4338C35.142 86.9343 35.1777 86.499 35.2348 86.1921C35.3133 85.7496 35.4274 85.5712 35.5773 85.6997C35.9056 86.0208 36.0768 86.7487 36.398 87.1341C36.4836 87.2411 36.5764 87.3268 36.6977 87.284C37.026 87.184 37.2829 85.8995 37.5255 84.4651C37.9323 82.8023 38.2035 79.1914 38.9171 78.385C39.0455 78.335 39.174 78.4777 39.3167 78.7917C39.5094 79.2056 39.6307 79.7623 39.7735 80.2547C40.587 83.5017 41.4077 86.8486 42.2141 90.0814C42.2926 90.5167 42.5067 91.1304 42.5995 91.4944C42.6994 91.787 42.7636 91.9012 42.7993 91.8227C42.8349 91.7442 42.8421 91.473 42.8278 91.0448C42.471 85.243 42.5852 79.3198 43.4986 73.5679C43.5771 73.1469 43.6628 72.8043 43.7555 72.576C43.8983 72.2192 44.0624 72.1478 44.2479 72.3762C44.5691 72.7687 44.7332 73.5108 44.9401 74.096C46.239 78.5634 47.5378 83.0878 48.8295 87.5765C49.015 88.1903 49.3147 89.4534 49.6787 89.8316C50.2425 89.7817 50.2211 85.6997 51.0846 85.2002L51.1131 85.1859V85.1716Z" fill="url(#paint0_linear_53_92)"/>
<path d="M195.724 58.9956C195.652 58.596 195.659 58.2035 195.859 57.8895C195.895 57.8324 196.016 57.6468 196.245 57.5255C196.53 57.3685 196.887 57.3685 197.579 57.5898C198.871 58.0108 199.513 58.232 200.034 58.1535C200.933 58.0179 201.804 57.0902 201.911 56.1197C202.011 55.2348 201.461 54.5782 200.698 53.6933C199.377 52.159 197.893 51.424 197.436 51.2099C196.344 50.6961 193.19 49.226 191.834 50.5176C191.142 51.1742 190.892 52.3089 191.392 53.1153C191.692 53.6005 192.205 53.9145 192.591 54.3356C192.976 54.7566 193.219 55.4346 192.883 55.8913C192.398 56.5478 190.964 56.6049 190.25 56.5693C185.925 56.3623 181.865 58.9885 179.16 62.3711C176.456 65.7537 174.843 69.8571 173.116 73.8249C164.759 93.043 152.749 110.777 137.284 124.914C133.395 128.475 129.256 131.836 126.066 136.039C124.603 137.966 123.304 140.236 123.461 142.648C123.682 146.023 126.601 148.549 129.477 150.333C131.932 151.861 134.722 153.195 137.591 152.853C140.296 152.531 142.644 150.733 144.278 148.542C145.905 146.359 146.925 143.789 147.989 141.277C151.25 133.549 164.338 105.039 183.021 85.8996C186.725 82.103 190.657 78.435 193.568 73.9676C195.253 71.3914 196.473 68.5155 196.644 65.4183C196.737 63.7984 196.544 62.1855 196.187 60.6084C196.088 60.1517 195.831 59.5522 195.731 58.9813L195.724 58.9956Z" fill="url(#paint1_linear_53_92)"/>
<path d="M137.441 153.145C136.949 155.571 135.429 161.252 130.376 165.662C126.316 169.209 121.927 170.229 119.329 170.8C116.011 171.528 112.8 171.357 106.37 171.007C101.124 170.722 97.0211 170.172 94.6661 169.823C91.1336 169.302 86.6377 169.052 83.3835 167.575C86.2595 166.625 89.2996 166.39 92.1755 165.398C93.6884 164.877 97.1709 163.678 100.282 161.801C107.44 157.477 106.591 153.202 114.598 146.986C116.339 145.638 121.677 141.491 124.232 143.111C125.252 143.761 125.117 144.995 125.745 146.258C128.021 150.833 132.531 152.681 137.441 153.138V153.145Z" fill="url(#paint2_linear_53_92)"/>
<path d="M123.219 169.266C123.219 169.266 105.506 173.491 83.248 167.518C86.388 169.409 91.0124 171.749 96.9284 173.277C111.272 176.973 126.708 174.169 126.872 171.678C126.908 171.136 126.23 170.351 123.219 169.266Z" fill="#C97924"/>
<path d="M153.048 130.345C153.048 130.345 147.325 142.919 146.818 144.004C144.306 149.427 142.165 151.732 138.997 152.724C135.393 153.852 130.861 152.76 127.943 149.727C125.745 147.443 125.167 144.789 124.988 143.654C125.409 144.596 126.68 147.101 129.563 148.792C130.348 149.256 132.781 150.633 135.964 150.276C138.933 149.941 140.895 148.293 142.037 147.301C145.255 144.51 145.434 142.005 148.659 136.61C150.244 133.963 151.814 131.865 153.055 130.352L153.048 130.345Z" fill="url(#paint3_linear_53_92)"/>
<path d="M193.205 50.011C193.554 50.011 194.032 50.0324 194.596 50.118C195.174 50.2037 197.194 50.5676 199.306 52.2161C200.676 53.2866 202.146 54.4712 201.982 55.9627C201.882 56.8476 201.247 57.497 200.812 57.8538C201.062 57.5113 201.611 56.6549 201.411 55.6844C201.297 55.1206 200.983 54.7566 200.719 54.4641C199.642 53.2794 198.664 52.2018 196.78 51.2384C195.974 50.8245 194.768 50.3178 193.198 50.0181L193.205 50.011Z" fill="url(#paint4_linear_53_92)"/>
<path d="M191.835 50.5176C191.556 50.8673 191.071 51.6094 191.164 52.5015C191.256 53.4007 191.884 54.0215 192.612 54.728C193.098 55.199 193.547 55.513 193.818 55.6843C194.254 55.9626 196.809 57.1044 196.116 56.7975C195.417 56.3337 194.846 55.9198 194.432 55.6129C193.24 54.728 192.834 54.3141 192.612 54.0715C192.12 53.5434 191.87 53.2722 191.699 52.8369C191.328 51.8806 191.649 50.9386 191.827 50.5176H191.835Z" fill="#FCAF75"/>
<path d="M191.685 56.5764C189.665 56.4408 186.347 56.5764 183.15 58.4818C180.695 59.9447 179.26 61.843 178.133 63.4486C176.62 65.611 175.45 68.0016 174.372 70.4137C173.901 71.4699 173.444 72.5332 173.016 73.6108C172.595 74.667 171.946 75.9015 171.81 77.0291C172.374 76.4011 172.745 75.4163 173.166 74.6741C173.944 73.2968 174.508 72.2977 174.6 72.1264C177.933 66.1533 181.294 63.1204 181.294 63.1204C183.721 60.9295 186.168 58.7173 189.629 58.5174C191.556 58.4104 193.512 58.9385 193.69 58.4247C193.84 57.9965 192.655 57.183 191.678 56.5835L191.685 56.5764Z" fill="#FFC49C"/>
<defs>
<linearGradient id="paint0_linear_53_92" x1="-95.2606" y1="29.2078" x2="370.667" y2="306.344" gradientUnits="userSpaceOnUse">
<stop offset="0.2" stop-color="white"/>
<stop offset="0.43" stop-color="#EE9414"/>
<stop offset="0.59" stop-color="#A3551C"/>
</linearGradient>
<linearGradient id="paint1_linear_53_92" x1="228.856" y1="24.1564" x2="128.907" y2="144.982" gradientUnits="userSpaceOnUse">
<stop offset="0.26" stop-color="#FFC29B"/>
<stop offset="0.54" stop-color="#EE9414"/>
<stop offset="0.95" stop-color="#A3551C"/>
</linearGradient>
<linearGradient id="paint2_linear_53_92" x1="100.64" y1="170.435" x2="143.068" y2="142.751" gradientUnits="userSpaceOnUse">
<stop stop-color="#A3551C"/>
<stop offset="0.91" stop-color="#DEC28B"/>
<stop offset="1" stop-color="#BF5F11"/>
</linearGradient>
<linearGradient id="paint3_linear_53_92" x1="135.678" y1="131.829" x2="145.577" y2="149.384" gradientUnits="userSpaceOnUse">
<stop stop-color="#BB7A38"/>
<stop offset="0.95" stop-color="#703313"/>
</linearGradient>
<linearGradient id="paint4_linear_53_92" x1="193.697" y1="45.6578" x2="200.669" y2="58.0251" gradientUnits="userSpaceOnUse">
<stop stop-color="#FFF1E6"/>
<stop offset="0.95" stop-color="#FDD3C4"/>
</linearGradient>
</defs>
</svg>
