<svg width="250" height="250" viewBox="0 0 250 250" fill="none" xmlns="http://www.w3.org/2000/svg">
<path d="M96.6559 58.1266C96.6559 58.1266 100.201 39.8049 112.951 33.2939C125.7 26.783 129.289 19.8159 153.315 30.5738C177.34 41.3317 181.087 39.5592 181.087 39.5592C181.087 39.5592 161.8 49.0623 160.668 56.67C159.545 64.2778 158.062 66.2345 159.782 72.3155C161.493 78.3964 174.962 96.1566 177.752 103.843C180.552 111.53 188.098 133.467 147.392 144.822C106.685 156.176 85.1169 148.919 77.4741 147.945C69.8312 146.98 61.2847 143.813 45.5602 156.913C45.5602 156.913 43.3139 136.433 36.5222 131.537C36.5222 131.537 36.4696 129.826 39.4179 129.606C42.3662 129.387 67.348 129.396 76.2193 131.317C85.0907 133.239 107.528 125.508 114.039 118.638C114.039 118.638 66.6108 135.792 52.4395 113.224C52.4395 113.224 45.1126 103.291 65.7948 102.799C65.7948 102.799 41.0763 98.2713 41.5764 88.2505C42.0766 78.2297 71.0684 88.0048 71.0684 88.0048C71.0684 88.0048 28.5283 75.334 37.5049 58.6268C37.5049 58.6268 42.4364 51.098 57.6344 59.9518C72.8411 68.8056 74.3678 70.1393 74.3678 70.1393C74.3678 70.1393 50.8425 56.1786 46.9026 48.527C42.9627 40.8754 36.1097 27.5289 45.9463 24.8263C47.2888 24.5455 49.2808 24.3173 51.5008 24.8438C56.4059 26.0196 59.1347 30.0911 60.9862 32.5218C67.3479 40.8929 75.3067 45.7015 88.2232 53.5023C91.8296 55.6785 94.857 57.2316 96.6559 58.1179V58.1266Z" fill="url(#paint0_linear_53_304)"/>
<path d="M95.9452 57.3017C98.8146 39.2169 113.977 25.0456 132.08 22.378C138.871 21.3338 146.479 22.378 152.279 26.4495C154.219 27.7745 155.754 29.1609 157.386 30.3104C164.046 34.9699 172.11 37.6462 180.21 38.8922L183.342 39.3046L180.587 40.7349C172.391 45.096 163.546 52.0456 162.239 61.5663C161.116 71.1747 168.162 78.9842 173.707 86.4516C178.446 92.708 183.991 99.8419 185.562 108.239C188.353 123.622 175.971 137.117 163.318 143.918C144.821 154.781 122.55 158.142 101.491 155.132C91.3385 153.912 81.3177 151.122 71.4197 149.305C61.0654 147.182 49.86 152.57 43.3491 160.932L43.5861 158.01C43.9897 149.841 43.2964 140.408 37.6192 134.029C33.4073 130.255 38.2245 129.009 41.6554 128.755C53.2908 128.062 64.8825 129.474 76.4652 130.413L76.0001 132.274C75.9299 132.256 76.0877 132.291 76.0877 132.291C64.777 130.65 53.1768 129.115 41.7608 129.852C40.1638 130.097 38.2597 130.097 37.1804 131.221C37.1014 131.37 37.1014 131.501 37.1979 131.738C37.4085 132.221 37.9438 132.642 38.4791 133.195C44.5776 139.873 45.6306 149.463 45.5604 158.15L43.7879 157.475C45.4638 155.325 47.368 153.588 49.4651 151.982C55.7742 147.147 63.8909 144.321 71.8848 145.023C82.0811 145.752 91.9526 147.226 102.052 147.182C122.129 147.428 141.723 142.707 158.896 132.511C165.687 128.492 172.163 122.911 174.611 115.215C176.928 106.651 171.101 98.631 166.819 91.1198C162.914 84.5036 158.281 77.2205 157.149 69.1652C155.315 57.5123 163.344 47.9829 172.883 42.5688C175.032 41.2526 177.524 40.1733 179.727 38.9712C179.727 38.9712 180.104 40.8139 180.095 40.8139C173.558 40.9806 166.889 39.7521 160.791 37.2776C156.833 35.821 152.832 32.9692 149.48 30.7229C141.004 25.4931 130.228 27.4674 121.515 31.3985C110.152 36.2334 102.035 46.0875 97.8054 57.7668L95.9452 57.3017Z" fill="#9B5800"/>
<path d="M121.076 70.5955C103.658 64.2601 85.9331 56.7664 71.2265 45.1486C66.2688 41.3316 61.5566 37.2776 56.827 33.3553C54.5543 31.4511 52.2203 29.6962 49.8949 28.652C46.6395 27.0901 44.051 28.2045 43.7789 32.0303C43.5508 35.3822 44.6125 39.0852 45.7269 42.3143C50.5882 54.485 62.7851 61.2591 73.35 68.0069C74.3591 68.6475 73.4991 70.2006 72.4198 69.7005C66.2599 66.7609 60.9423 62.6982 55.072 59.7586C52.1763 58.2757 49.1404 57.0648 46.0166 56.7577C40.2164 56.1873 35.6095 59.785 37.9611 65.8396C39.488 69.4285 42.3223 72.3242 45.5251 74.6407C54.1156 80.5812 64.5928 83.8806 74.7013 86.5832C76.2545 86.9781 76.7897 89.0401 75.3506 89.9703C74.3679 90.4266 74.9118 90.137 74.6135 90.2511C74.4292 90.2862 74.3239 90.2774 74.1747 90.2774C71.6388 90.1019 69.0767 89.5754 66.5934 89.1367C61.7761 88.3382 56.8885 86.8026 52.1238 86.1708C49.5528 85.8724 46.1831 86.7236 44.3316 88.1451C43.9719 88.4873 43.8314 88.7155 43.849 88.8471C44.0596 90.8302 46.6308 92.8484 48.3945 93.9277C48.9473 94.2173 49.8949 94.6385 50.4652 94.9105C56.3092 97.5341 62.5921 99.2628 68.9801 100.728L67.5673 106.151C63.7678 105.151 59.7402 105.037 56.397 107.037C55.1773 107.792 54.1331 108.494 54.4578 110.091C57.0815 118.708 68.0587 120.743 75.9648 121.77C86.7315 122.858 97.7703 121.094 107.633 116.672C122.787 109.863 133.896 96.3934 139.17 80.5198C139.336 80.0196 139.88 79.7476 140.389 79.9143C140.854 80.0723 141.118 80.5461 141.03 81.0112C135.835 108.345 111.977 127.518 84.257 128.22C74.7539 128.509 63.8381 127.017 55.774 121.568C48.5699 116.479 44.3669 105.984 54.5544 101.421C59.0822 99.2189 64.5049 99.4295 69.1029 100.772C70.6122 101.176 71.4984 102.746 71.0684 104.247C70.6472 105.703 69.1469 106.555 67.6903 106.195C61.1443 104.545 54.5807 102.509 48.3506 99.4997C39.2599 95.4984 34.0038 85.2231 46.8677 82.2221C50.4654 81.2306 54.3701 82.0729 57.7659 82.9855C62.9694 84.3719 68.1027 85.6618 73.3851 86.5305L73.9466 86.6095L74.1835 86.6358H74.245C74.245 86.6358 74.1397 86.6446 74.0344 86.6622C72.9902 86.8464 71.9987 88.1539 72.9288 89.5315C73.5869 90.1896 73.2096 89.7948 73.4115 89.9703C73.5957 90.0668 73.5606 90.0405 73.5693 90.0492C73.6132 90.0668 73.5518 90.0492 73.5342 90.0405L73.2973 89.9615C61.2933 86.3287 43.5946 80.3531 36.8643 69.1389C34.9689 65.9624 34.1178 61.7944 36.2589 58.4249C46.1042 47.0527 63.5221 63.7161 73.2534 67.9631L72.3234 69.6566C69.726 68.0157 67.0585 66.4538 64.4173 64.8305C55.0019 59.1532 45.0776 52.4141 40.9535 41.6913C39.1722 36.8389 37.2768 30.7667 40.5147 26.002C46.0955 18.561 55.4493 24.4839 60.5299 28.9503C69.9979 36.9705 79.1063 45.0784 89.4079 51.3787C99.806 57.7492 110.845 63.2071 121.84 68.8581C122.857 69.4109 122.225 71.0079 121.076 70.6131V70.5955Z" fill="#9B5800"/>
<path d="M141.784 60.2498C144.065 59.6069 145.051 56.023 143.986 52.2448C142.921 48.4665 140.209 45.9248 137.928 46.5677C135.647 47.2105 134.661 50.7945 135.726 54.5728C136.791 58.351 139.503 60.8927 141.784 60.2498Z" fill="#472115"/>
<path d="M80.282 179.737C81.4315 178.034 83.3884 175.411 86.3279 172.769C91.9438 167.706 97.6912 165.653 99.648 164.942C107.387 162.134 136.643 151.087 148.901 144.874C177.691 130.291 179.218 108.687 193.582 110.425C204.516 111.75 216.116 125.772 214.914 137.793C212.685 160.09 166.67 173.068 143.899 191.916C134.659 199.559 124.358 208.369 124.358 208.369C121.883 210.484 119.883 212.212 118.619 213.292C113.012 216.521 107.405 219.75 101.807 222.979C102.131 218.644 102.202 209.79 97.7615 199.98C92.4966 188.327 83.9235 182.097 80.282 179.737Z" fill="url(#paint1_linear_53_304)"/>
<path d="M99.2676 225.26C105.481 223.509 107.25 210.496 103.219 196.195C99.1885 181.894 90.8843 171.72 84.6712 173.471C78.4581 175.222 76.6889 188.235 80.7196 202.536C84.7503 216.837 93.0545 227.011 99.2676 225.26Z" fill="url(#paint2_linear_53_304)"/>
<path d="M151.402 142.917C158.053 151.745 173.76 176.981 160.528 185.335C158.211 186.669 155.719 186.967 153.447 186.923L155.009 185.853C153.254 188.897 151.209 192.521 151.911 196.172L151.718 196.259C150.218 193.592 150.621 190.293 151.042 187.388C151.262 186.125 151.516 184.738 152.034 183.501C155.833 183.045 159.852 182.009 160.712 177.903C161.511 174.375 160.668 170.286 159.668 166.706C158.553 162.819 157.027 158.975 155.333 155.193C153.64 151.411 151.779 147.647 149.814 143.988L151.411 142.926L151.402 142.917Z" fill="white"/>
<path d="M84.6521 173.401C83.8887 175.928 83.178 179.535 83.5641 183.799C84.5468 194.601 91.8475 201.375 93.9535 203.192C93.155 202.112 90.7683 198.585 91.4177 194.189C91.5756 193.101 91.909 191.038 93.6026 189.406C94.1729 188.854 96.0506 187.046 98.3058 187.634C100.315 188.16 101.175 190.196 101.289 190.486C100.737 188.757 95.8313 173.963 86.9337 173.261C86.2229 173.208 85.4682 173.234 84.6609 173.392L84.6521 173.401Z" fill="url(#paint3_linear_53_304)"/>
<defs>
<linearGradient id="paint0_linear_53_304" x1="25.2992" y1="86.6447" x2="246.407" y2="101.421" gradientUnits="userSpaceOnUse">
<stop stop-color="#A3551C"/>
<stop offset="0.3" stop-color="#EE9414"/>
<stop offset="0.54" stop-color="#F2AF6B"/>
<stop offset="0.71" stop-color="#F9CEA7"/>
</linearGradient>
<linearGradient id="paint1_linear_53_304" x1="116.399" y1="131.475" x2="210.404" y2="227.989" gradientUnits="userSpaceOnUse">
<stop stop-color="#A3551C"/>
<stop offset="0.23" stop-color="#EE9414"/>
<stop offset="0.45" stop-color="#F2AF6B"/>
<stop offset="0.77" stop-color="#A3551C"/>
</linearGradient>
<linearGradient id="paint2_linear_53_304" x1="78.5694" y1="199.284" x2="105.385" y2="199.284" gradientUnits="userSpaceOnUse">
<stop stop-color="#A3551C"/>
<stop offset="0.47" stop-color="#EE9414"/>
<stop offset="0.91" stop-color="#F2AF6B"/>
</linearGradient>
<linearGradient id="paint3_linear_53_304" x1="83.4588" y1="188.213" x2="101.289" y2="188.213" gradientUnits="userSpaceOnUse">
<stop stop-color="#A3551C"/>
<stop offset="0.85" stop-color="#EE9414"/>
<stop offset="1" stop-color="#F2AF6B"/>
</linearGradient>
</defs>
</svg>
