<svg width="250" height="251" viewBox="0 0 250 251" fill="none" xmlns="http://www.w3.org/2000/svg">
<path d="M62.7182 197.246C60.7233 200.348 59.108 203.764 55.9824 206.195C53.1799 208.343 49.174 209.417 46.0726 210.758C44.6269 211.38 43.4558 211.695 42.6401 212.922C40.5483 216.912 43.4479 222.55 45.3701 226.426L44.5462 226.943C43.5367 225.53 42.5918 224.052 41.7518 222.501C39.1189 217.898 37.5764 211.073 43.4156 208.174C44.1667 207.754 48.3826 205.67 49.2387 205.242C52.2108 203.764 53.9473 202.084 55.3203 199.063C56.0148 197.626 56.6931 196.035 57.4119 194.444L62.7263 197.254L62.7182 197.246Z" fill="#A55E00"/>
<path d="M112.276 157.55L73.3874 202.092C67.9277 204.789 61.4424 204.256 56.6773 200.695C51.3872 196.737 49.1097 189.719 51.048 183.193C60.9659 166.701 70.8757 150.217 80.7936 133.725L112.276 157.55Z" fill="url(#paint0_linear_53_121)"/>
<path d="M121.038 158.407C145.972 158.407 166.185 138.193 166.185 113.259C166.185 88.3251 145.972 68.1121 121.038 68.1121C96.1039 68.1121 75.8909 88.3251 75.8909 113.259C75.8909 138.193 96.1039 158.407 121.038 158.407Z" fill="url(#paint1_linear_53_121)"/>
<path d="M166.202 30.6697C166.17 30.9604 164.417 31.2027 156.502 30.92C157.164 35.4509 157.875 39.9818 158.553 44.5126C158.828 46.3702 159.288 48.1955 159.603 50.045C159.935 51.9591 161.033 54.2286 160.056 56.1185C158.142 59.8579 150.437 63.0077 146.083 59.5187C144.371 58.1457 143.135 55.6824 143.41 53.1302C143.701 50.4892 145.599 48.2682 147.893 47.0648C148.942 46.5156 150.194 46.0633 151.398 46.1118C152.722 46.1603 153.926 46.9517 155.275 46.7902C155.485 46.766 155.824 46.7014 156.034 46.4429C156.236 46.1926 156.252 45.821 156.155 45.3849C155.775 43.6566 152.771 25.8884 153.554 25.6784C154.41 25.4523 155.258 25.2261 156.114 25C157.253 26.1307 159.014 27.641 161.469 28.8201C164.134 30.0962 166.242 30.3385 166.21 30.6616L166.202 30.6697Z" fill="url(#paint2_linear_53_121)"/>
<path d="M194.881 148.602C191.02 149.07 188.815 144.669 189.405 141.333L189.558 140.638C189.825 139.984 190.196 139.29 190.697 138.797C192.741 136.81 195.874 136.511 198.499 137.335C204.403 139.152 204.847 147.423 200.882 151.388C196.892 155.854 189.873 154.263 186.199 150.274C182.411 146.704 180.464 140.388 183.315 135.574C186.021 130.454 192.886 129.848 197.707 131.98C201.705 133.499 205.889 137.036 210.024 134.363C211.534 133.378 212.924 131.504 212.423 129.719C212.189 129.057 211.704 128.548 211.05 128.637C210.145 128.863 209.491 129.638 208.675 130.325C206.341 132.441 204.144 134.718 202.004 137.077C197.756 141.81 193.532 146.76 189.017 151.243C186.029 154.271 180.723 161.637 175.99 156.848C174.795 155.564 175.19 153.545 175.909 152.188L176.959 152.688C176.491 153.738 176.143 155.039 176.943 155.927C178.138 157.122 179.576 157.26 181.07 156.476C183.768 155.031 185.617 152.285 187.733 150.039C192.183 145.371 196.133 140.453 200.389 135.623C202.521 133.208 204.734 130.85 207.117 128.629C208.07 127.765 209.144 126.602 210.622 126.319C213.739 125.729 215.702 129.453 214.765 132.029C213.642 135.784 209.855 138.183 206.075 137.9C201.092 137.497 197.425 133.596 192.522 133.45C183.743 133.063 182.37 143.199 188.08 148.408C192.329 152.898 199.274 152.624 200.785 146.017C201.318 143.441 200.397 140.42 197.748 139.508C195.527 138.66 192.28 138.878 191.109 141.236C190.116 144.047 191.465 148.125 194.873 148.279L194.897 148.626L194.881 148.602Z" fill="url(#paint3_linear_53_121)"/>
<path d="M56.4349 62.4019L61.1273 69.7434L68.1295 80.7112L68.0891 80.7354C68.2264 80.8808 68.3316 81.0423 68.4446 81.2038C70.0438 83.7156 68.711 87.4308 65.4643 89.5064C62.2095 91.5901 58.2683 91.2428 56.6691 88.7311C55.07 86.2193 56.4026 82.5041 59.6574 80.4204C60.9496 79.5966 62.3549 79.1525 63.6713 79.0798L58.6963 71.286L42.1235 81.8823L49.1257 92.8501L49.0935 92.8662C49.2308 93.0116 49.3358 93.1731 49.4488 93.3346C51.048 95.8464 49.7073 99.5697 46.4525 101.637C43.2058 103.713 39.2644 103.366 37.6653 100.862C36.0661 98.3501 37.3987 94.6349 40.6454 92.5593C41.9457 91.7274 43.3429 91.2913 44.6675 91.2105L39.6925 83.4168L35 76.0753L37.431 74.5246L54.012 63.9365L56.4268 62.3857L56.4349 62.4019Z" fill="url(#paint4_linear_53_121)"/>
<mask id="mask0_53_121" style="mask-type:luminance" maskUnits="userSpaceOnUse" x="73" y="66" width="96" height="95">
<path d="M121.038 160.498C147.128 160.498 168.277 139.348 168.277 113.259C168.277 87.1697 147.128 66.02 121.038 66.02C94.949 66.02 73.7993 87.1697 73.7993 113.259C73.7993 139.348 94.949 160.498 121.038 160.498Z" fill="white"/>
</mask>
<g mask="url(#mask0_53_121)">
<path d="M75.5759 96.4521L70.8513 103.931C79.4931 112.443 90.9697 122.305 105.572 131.649C121.773 142.019 137.021 148.682 149.273 153.028L158.085 148.513C144.169 142.367 128.363 134.25 111.734 123.492C97.7054 114.414 85.6876 105.142 75.584 96.4521H75.5759Z" fill="url(#paint5_linear_53_121)"/>
</g>
<defs>
<linearGradient id="paint0_linear_53_121" x1="60.8286" y1="161.589" x2="111.282" y2="197.456" gradientUnits="userSpaceOnUse">
<stop stop-color="#A3551C"/>
<stop offset="0.16" stop-color="#EE9414"/>
<stop offset="0.27" stop-color="#F2AF6B"/>
<stop offset="0.47" stop-color="#EE9414"/>
<stop offset="0.78" stop-color="#A3551C"/>
</linearGradient>
<linearGradient id="paint1_linear_53_121" x1="86.9493" y1="91.0706" x2="367.54" y2="276.637" gradientUnits="userSpaceOnUse">
<stop stop-color="#B7630E"/>
<stop offset="0.04" stop-color="#D67A00"/>
<stop offset="0.19" stop-color="#F9C382"/>
<stop offset="0.29" stop-color="#E8932E"/>
<stop offset="0.37" stop-color="#B7630E"/>
</linearGradient>
<linearGradient id="paint2_linear_53_121" x1="142.005" y1="42.6957" x2="176.061" y2="43.4761" gradientUnits="userSpaceOnUse">
<stop stop-color="#A3551C"/>
<stop offset="0.27" stop-color="#EE9414"/>
<stop offset="0.57" stop-color="#F2AF6B"/>
<stop offset="0.84" stop-color="#EE9414"/>
<stop offset="0.99" stop-color="#A3551C"/>
</linearGradient>
<linearGradient id="paint3_linear_53_121" x1="179.618" y1="135.665" x2="211.405" y2="149.479" gradientUnits="userSpaceOnUse">
<stop stop-color="#A3551C"/>
<stop offset="0.27" stop-color="#EE9414"/>
<stop offset="0.57" stop-color="#F2AF6B"/>
<stop offset="0.84" stop-color="#EE9414"/>
<stop offset="0.99" stop-color="#A3551C"/>
</linearGradient>
<linearGradient id="paint4_linear_53_121" x1="32.1135" y1="94.0319" x2="76.4655" y2="66.3397" gradientUnits="userSpaceOnUse">
<stop stop-color="#A3551C"/>
<stop offset="0.27" stop-color="#EE9414"/>
<stop offset="0.57" stop-color="#F2AF6B"/>
<stop offset="0.84" stop-color="#EE9414"/>
<stop offset="0.99" stop-color="#A3551C"/>
</linearGradient>
<linearGradient id="paint5_linear_53_121" x1="200.858" y1="191.907" x2="36.5626" y2="69.4387" gradientUnits="userSpaceOnUse">
<stop offset="0.28" stop-color="#A8560C"/>
<stop offset="0.36" stop-color="#F0AE49"/>
<stop offset="0.43" stop-color="#FFD8A4"/>
<stop offset="0.5" stop-color="#F0AE49"/>
<stop offset="0.69" stop-color="#A8560C"/>
</linearGradient>
</defs>
</svg>
