<svg width="250" height="250" viewBox="0 0 250 250" fill="none" xmlns="http://www.w3.org/2000/svg">
<path d="M154.552 148.674L147.658 155.166C141.716 160.761 141.435 170.115 147.031 176.057L176.455 207.303C182.051 213.246 191.405 213.526 197.347 207.931L204.241 201.439C210.183 195.843 210.464 186.49 204.868 180.548L175.443 149.301C169.848 143.359 160.494 143.078 154.552 148.674Z" fill="url(#paint0_linear_53_19)"/>
<path d="M109.013 178.049C102.07 178.049 95.018 177.049 88.0411 174.957C49.4805 163.37 27.5324 122.575 39.1189 84.0148C50.7054 45.4541 91.5001 23.5147 130.061 35.0929C168.621 46.6795 190.569 87.4741 178.983 126.035C169.497 157.618 140.414 178.049 109.013 178.049ZM109.08 55.8904C87.9575 55.8904 68.3936 69.6358 62.0085 90.8834C54.2147 116.824 68.9775 144.273 94.918 152.067C99.611 153.476 104.362 154.151 109.03 154.151C130.152 154.151 149.716 140.405 156.101 119.158C163.895 93.2173 149.133 65.7681 123.192 57.9743C118.499 56.5655 113.748 55.8904 109.08 55.8904Z" fill="url(#paint1_linear_53_19)"/>
<path d="M109.055 155.351C136.852 155.351 159.386 132.817 159.386 105.021C159.386 77.2237 136.852 54.6899 109.055 54.6899C81.2584 54.6899 58.7244 77.2237 58.7244 105.021C58.7244 132.817 81.2584 155.351 109.055 155.351Z" fill="#EFEDE6"/>
<path d="M153.084 118.249C160.394 93.9257 146.599 68.2937 122.276 60.9833C97.9521 53.6729 72.3199 67.4684 65.0095 91.7918C75.054 71.778 97.8188 61.5668 118.975 67.2684C141.064 73.22 155.826 95.0177 153.075 118.249H153.084Z" fill="#AAA28D"/>
<path d="M75.5044 73.1619C57.7495 91.3169 58.0742 120.425 76.2292 138.18C94.3843 155.935 123.492 155.61 141.247 137.455C123.067 150.525 98.1603 149.008 82.0642 134.145C65.2596 118.624 62.2922 92.4672 75.5125 73.1619H75.5044Z" fill="#FFFEFD"/>
<path d="M171.064 143.031C154.393 172.172 117.233 185.693 85.4738 175.09C53.5566 165.287 30.917 131.603 35.6183 98.3438L36.6269 98.3771C37.1687 106.288 38.6108 114.015 41.2282 121.292C54.015 158.685 94.5011 180.591 132.562 168.53C147.249 164.129 160.578 155.034 170.639 142.739L171.056 143.031H171.064Z" fill="#773E00"/>
<defs>
<linearGradient id="paint0_linear_53_19" x1="160.566" y1="194.289" x2="262.444" y2="89.377" gradientUnits="userSpaceOnUse">
<stop stop-color="#A3551C"/>
<stop offset="0.14" stop-color="#F2AF6B"/>
<stop offset="0.29" stop-color="#EE9414"/>
<stop offset="0.41" stop-color="#A3551C"/>
</linearGradient>
<linearGradient id="paint1_linear_53_19" x1="106.371" y1="91.2751" x2="134.37" y2="234.59" gradientUnits="userSpaceOnUse">
<stop stop-color="#A3551C"/>
<stop offset="0.54" stop-color="#F2AF6B"/>
<stop offset="0.61" stop-color="#EE9414"/>
<stop offset="0.95" stop-color="#A3551C"/>
</linearGradient>
</defs>
</svg>
