<svg width="250" height="251" viewBox="0 0 250 251" fill="none" xmlns="http://www.w3.org/2000/svg">
<path d="M208.069 97.6288L142.299 77.2318C138.471 76.0447 134.405 78.1855 133.218 82.0135L104.702 173.963C103.515 177.791 105.656 181.856 109.484 183.043L175.254 203.44C179.082 204.627 183.147 202.487 184.334 198.659L212.85 106.709C214.037 102.881 211.897 98.8159 208.069 97.6288Z" fill="url(#paint0_linear_53_177)"/>
<path d="M201.703 112.893C201.682 112.951 201.631 112.98 201.536 112.98C201.428 112.98 201.108 112.893 200.571 112.726C200.085 112.574 199.773 112.465 199.642 112.392C199.533 112.334 199.483 112.233 199.497 112.095C199.533 111.565 199.526 111.275 199.468 111.224C199.425 111.18 198.967 111.028 198.111 110.767C197.53 110.585 197.219 110.506 197.175 110.527C197.102 110.564 196.979 110.723 196.812 111.014C196.66 111.275 196.536 111.405 196.435 111.398C196.311 111.391 195.92 111.282 195.259 111.079C194.737 110.919 194.49 110.789 194.526 110.687C194.555 110.6 195.274 109.627 196.696 107.777C198.227 105.774 199.069 104.678 199.207 104.475C199.287 104.359 199.352 104.308 199.41 104.323C199.504 104.352 199.642 104.403 199.831 104.482C200.02 104.562 200.158 104.613 200.252 104.642C200.346 104.671 200.484 104.707 200.665 104.751C200.847 104.794 200.985 104.831 201.072 104.86C201.137 104.882 201.181 104.954 201.195 105.085C201.253 105.491 201.355 106.87 201.515 109.214C201.674 111.572 201.74 112.799 201.711 112.893H201.703ZM199.519 107.117C199.403 107.247 199.178 107.53 198.851 107.98C198.503 108.452 198.314 108.735 198.285 108.829C198.263 108.887 198.358 108.96 198.561 109.025C198.663 109.061 198.837 109.119 199.076 109.199C199.301 109.272 199.432 109.279 199.475 109.236C199.49 109.221 199.497 109.199 199.504 109.17C199.541 109.061 199.555 108.72 199.555 108.169C199.555 107.632 199.541 107.284 199.512 107.124L199.519 107.117Z" fill="url(#paint1_linear_53_177)"/>
<path d="M185.782 161.405C183.264 169.511 174.664 174.039 166.558 171.528C163.148 170.476 160.376 168.343 158.489 165.621C158.242 165.273 158.017 164.91 157.807 164.54C156.472 172.232 153.968 177.443 150.71 178.277C146.893 179.242 144.411 177.537 144.411 177.537C144.207 177.399 142.604 176.267 142.023 174.308C141.755 173.379 140.47 170.549 147.335 162.893C147.741 162.435 148.17 161.971 148.612 161.507C148.155 161.739 147.691 161.942 147.212 162.123C144.113 163.299 140.615 163.488 137.212 162.428C129.106 159.917 124.57 151.311 127.089 143.212C128.141 139.801 130.274 137.022 132.996 135.135C133.097 135.063 133.206 134.997 133.315 134.925L135.956 133.531C139.403 132.479 143.126 131.129 147.03 129.38C155.499 125.592 162.255 121.064 167.386 116.979C169.548 123.212 172.611 130.382 177.023 137.915C179.294 141.804 181.638 145.295 183.939 148.408C184.403 149.293 184.868 150.171 185.332 151.057C185.376 151.173 185.426 151.289 185.47 151.405C186.645 154.504 186.834 158.002 185.782 161.405Z" fill="url(#paint2_linear_53_177)"/>
<path d="M196.007 119.395C195.949 120.309 195.731 123.038 194.2 122.537C194.04 122.487 193.888 122.392 193.793 122.254C193.394 121.703 194.171 121.108 194.49 120.752C194.875 120.324 195.39 119.852 195.622 119.315C195.862 118.778 196.007 119.395 196.007 119.395Z" fill="url(#paint3_linear_53_177)"/>
<path d="M192.015 117.762C192.153 117.313 192.436 116.95 192.792 116.703C192.806 116.696 192.821 116.681 192.835 116.674L193.184 116.492C193.641 116.355 194.127 116.173 194.642 115.948C195.76 115.447 196.645 114.852 197.32 114.315C197.603 115.135 198.009 116.079 198.59 117.073C198.888 117.588 199.2 118.045 199.504 118.452L199.686 118.8C199.686 118.8 199.7 118.829 199.708 118.844C199.86 119.25 199.889 119.715 199.751 120.157C199.417 121.224 198.285 121.819 197.218 121.492C196.768 121.355 196.406 121.072 196.159 120.716C195.818 120.223 195.695 119.584 195.891 118.96C195.702 119.577 195.237 120.041 194.679 120.252C194.272 120.404 193.808 120.433 193.358 120.295C192.291 119.961 191.696 118.829 192.023 117.762H192.015Z" fill="url(#paint4_linear_53_177)"/>
<path d="M108.673 46.8243L42.0238 64.1354C38.1447 65.1429 35.8168 69.1044 36.8243 72.9835L61.0258 166.161C62.0334 170.04 65.9948 172.368 69.8739 171.361L136.523 154.05C140.402 153.042 142.73 149.081 141.722 145.201L117.521 52.0238C116.513 48.1447 112.552 45.8168 108.673 46.8243Z" fill="url(#paint5_linear_53_177)"/>
<path d="M111.305 63.4958C111.319 63.5611 111.29 63.6119 111.21 63.6555C111.116 63.7135 110.797 63.8079 110.26 63.9457C109.766 64.0764 109.447 64.1417 109.295 64.1489C109.171 64.1489 109.077 64.0981 109.012 63.9748C108.765 63.5103 108.605 63.2636 108.533 63.2491C108.475 63.2418 108.003 63.3507 107.132 63.5756C106.544 63.728 106.24 63.8224 106.211 63.8659C106.167 63.9385 106.145 64.1417 106.16 64.4682C106.167 64.773 106.131 64.9472 106.044 64.998C105.935 65.056 105.543 65.1721 104.875 65.3463C104.345 65.4842 104.07 65.4987 104.041 65.4044C104.019 65.3173 104.12 64.1126 104.353 61.7904C104.607 59.2796 104.737 57.908 104.752 57.6613C104.759 57.5161 104.788 57.4436 104.846 57.4291C104.941 57.4073 105.086 57.3783 105.289 57.342C105.485 57.3057 105.637 57.2767 105.732 57.2549C105.826 57.2331 105.964 57.1896 106.138 57.1316C106.319 57.0735 106.45 57.03 106.537 57.0082C106.602 56.9937 106.675 57.03 106.762 57.1316C107.023 57.4509 107.843 58.5611 109.208 60.4769C110.586 62.4 111.283 63.4087 111.312 63.5031L111.305 63.4958ZM106.406 59.7295C106.37 59.9037 106.334 60.2593 106.298 60.8108C106.254 61.3986 106.24 61.7396 106.261 61.834C106.276 61.8993 106.392 61.9066 106.602 61.8558C106.711 61.834 106.885 61.7905 107.132 61.7324C107.357 61.6744 107.48 61.6163 107.488 61.551C107.488 61.5292 107.488 61.5074 107.48 61.4784C107.451 61.3623 107.292 61.072 106.994 60.6003C106.711 60.1432 106.515 59.8529 106.406 59.7368V59.7295Z" fill="url(#paint6_linear_53_177)"/>
<path d="M91.0654 113.125C91.0654 113.125 91.0654 113.162 91.0654 113.176C91.0509 113.154 91.0438 113.147 91.0293 113.125C91.0438 113.125 91.0509 113.125 91.0654 113.125Z" fill="url(#paint7_linear_53_177)"/>
<path d="M104.752 97.523C104.832 95.8757 104.672 94.1703 104.229 92.4867C101.907 83.539 92.8144 78.1617 83.932 80.4694C75.0424 82.7771 69.723 91.8989 72.0452 100.847C72.575 102.879 73.4531 104.729 74.5996 106.34C74.2441 106.405 73.8885 106.478 73.5329 106.572C64.832 108.829 59.6215 117.755 61.8929 126.5C64.1643 135.251 73.0613 140.513 81.7622 138.256C86.6534 136.986 90.4341 133.611 92.408 129.352C92.7128 131.354 92.9668 133.415 93.1845 135.527C93.3732 137.37 93.5255 139.206 93.6343 141.057C93.8085 143.902 92.8361 146.935 96.3266 147.98C97.5312 148.343 98.9682 148.502 100.216 148.306C102.618 147.929 105.383 146.093 106 143.626C106.435 141.891 104.745 140.026 104.004 138.597C103.119 136.884 102.343 135.121 101.588 133.35C100.804 131.529 100.078 129.729 99.4108 127.965C102.945 129.961 107.219 130.643 111.443 129.547C120.136 127.291 125.347 118.365 123.075 109.613C120.935 101.376 112.938 96.2313 104.752 97.5302V97.523ZM91.0583 113.176C91.0583 113.176 91.0365 113.147 91.022 113.125C91.0365 113.125 91.0438 113.125 91.0583 113.125C91.0583 113.14 91.0583 113.161 91.0583 113.176Z" fill="url(#paint8_linear_53_177)"/>
<path d="M109.033 71.2025L109.795 71.0066C110.013 71.979 110.347 73.0748 110.84 74.2359C110.942 74.4754 111.051 74.7221 111.174 74.9543C111.276 75.1503 111.508 75.4043 111.45 75.6437C111.363 75.9848 110.985 76.2315 110.659 76.2896C110.485 76.3186 110.289 76.2896 110.122 76.2461C109.643 76.1009 109.774 75.6873 109.752 75.2954C109.737 75.0414 109.716 74.7874 109.687 74.5407C109.556 73.278 109.309 72.1605 109.026 71.2098L109.033 71.2025Z" fill="url(#paint9_linear_53_177)"/>
<path d="M111.276 69.3231C111.29 69.0981 111.261 68.8659 111.203 68.6336C110.884 67.4072 109.636 66.6671 108.417 66.9864C107.197 67.3057 106.465 68.5538 106.784 69.7802C106.856 70.056 106.98 70.31 107.132 70.5349C107.081 70.5422 107.038 70.5567 106.987 70.564C105.797 70.876 105.079 72.0952 105.391 73.2998C105.703 74.4972 106.922 75.2229 108.112 74.9108C109.092 74.6569 109.752 73.7788 109.781 72.8063C110.296 73.561 111.247 73.9529 112.183 73.7134C113.373 73.4014 114.091 72.1823 113.779 70.9776C113.489 69.8456 112.386 69.1416 111.269 69.3231H111.276Z" fill="url(#paint10_linear_53_177)"/>
<defs>
<linearGradient id="paint0_linear_53_177" x1="75.9659" y1="114.654" x2="314.211" y2="188.54" gradientUnits="userSpaceOnUse">
<stop offset="0.2" stop-color="#A3551C"/>
<stop offset="0.31" stop-color="#EE9414"/>
<stop offset="0.49" stop-color="#FFE2C5"/>
<stop offset="0.58" stop-color="#EE9414"/>
<stop offset="0.87" stop-color="#A3551C"/>
</linearGradient>
<linearGradient id="paint1_linear_53_177" x1="195.469" y1="107.379" x2="202.65" y2="109.606" gradientUnits="userSpaceOnUse">
<stop offset="0.06" stop-color="#B44A00"/>
<stop offset="0.55" stop-color="#FB9300"/>
<stop offset="1" stop-color="#B44A00"/>
</linearGradient>
<linearGradient id="paint2_linear_53_177" x1="130.347" y1="134.917" x2="200.346" y2="168.763" gradientUnits="userSpaceOnUse">
<stop offset="0.06" stop-color="#B44A00"/>
<stop offset="0.55" stop-color="#FB9300"/>
<stop offset="1" stop-color="#B44A00"/>
</linearGradient>
<linearGradient id="paint3_linear_53_177" x1="194.05" y1="120.554" x2="196.743" y2="122.111" gradientUnits="userSpaceOnUse">
<stop offset="0.06" stop-color="#B44A00"/>
<stop offset="0.55" stop-color="#FB9300"/>
<stop offset="1" stop-color="#B44A00"/>
</linearGradient>
<linearGradient id="paint4_linear_53_177" x1="192.301" y1="116.615" x2="202.101" y2="119.655" gradientUnits="userSpaceOnUse">
<stop offset="0.06" stop-color="#B44A00"/>
<stop offset="0.55" stop-color="#FB9300"/>
<stop offset="1" stop-color="#B44A00"/>
</linearGradient>
<linearGradient id="paint5_linear_53_177" x1="5.36345" y1="130.887" x2="246.786" y2="68.181" gradientUnits="userSpaceOnUse">
<stop offset="0.2" stop-color="#A3551C"/>
<stop offset="0.31" stop-color="#EE9414"/>
<stop offset="0.49" stop-color="#FFE2C5"/>
<stop offset="0.58" stop-color="#EE9414"/>
<stop offset="0.87" stop-color="#A3551C"/>
</linearGradient>
<linearGradient id="paint6_linear_53_177" x1="103.078" y1="61.7276" x2="110.355" y2="59.8375" gradientUnits="userSpaceOnUse">
<stop offset="0.06" stop-color="#B44A00"/>
<stop offset="0.55" stop-color="#FB9300"/>
<stop offset="1" stop-color="#B44A00"/>
</linearGradient>
<linearGradient id="paint7_linear_53_177" x1="91.005" y1="113.043" x2="91.068" y2="113.027" gradientUnits="userSpaceOnUse">
<stop offset="0.06" stop-color="#B44A00"/>
<stop offset="0.55" stop-color="#FB9300"/>
<stop offset="1" stop-color="#B44A00"/>
</linearGradient>
<linearGradient id="paint8_linear_53_177" x1="60.8268" y1="122.396" x2="148.14" y2="99.7177" gradientUnits="userSpaceOnUse">
<stop offset="0.06" stop-color="#B44A00"/>
<stop offset="0.55" stop-color="#FB9300"/>
<stop offset="1" stop-color="#B44A00"/>
</linearGradient>
<linearGradient id="paint9_linear_53_177" x1="109.224" y1="73.7844" x2="111.556" y2="73.1787" gradientUnits="userSpaceOnUse">
<stop offset="0.06" stop-color="#B44A00"/>
<stop offset="0.55" stop-color="#FB9300"/>
<stop offset="1" stop-color="#B44A00"/>
</linearGradient>
<linearGradient id="paint10_linear_53_177" x1="104.98" y1="71.6777" x2="116.738" y2="68.6239" gradientUnits="userSpaceOnUse">
<stop offset="0.06" stop-color="#B44A00"/>
<stop offset="0.55" stop-color="#FB9300"/>
<stop offset="1" stop-color="#B44A00"/>
</linearGradient>
</defs>
</svg>
