<svg width="250" height="251" viewBox="0 0 250 251" fill="none" xmlns="http://www.w3.org/2000/svg">
<path d="M46.5127 164.083C46.5127 164.083 78.7853 195.549 89.6154 191.394C100.446 187.24 163.705 166.734 127.22 121.264C90.7341 75.793 71.7903 110.114 71.7903 110.114C68.9793 109.555 64.1563 109.039 58.8102 110.797C47.4063 114.552 42.8882 125.636 41.7115 128.52C34.7457 145.597 45.2779 162.194 46.52 164.083H46.5127Z" fill="url(#paint0_linear_53_230)"/>
<path d="M47.9076 165.412C45.7938 167.105 43.6002 168.957 41.3703 170.984C39.0604 173.076 36.9394 175.138 35 177.143C35.3559 180.877 36.6124 188.344 41.9876 195.615C50.2899 206.844 62.3476 209.379 65.195 209.895C70.6863 210.89 75.3278 210.425 78.2769 209.91C79.6424 208.813 82.6497 206.089 84.3494 201.447C85.9547 197.067 85.5479 193.269 85.2573 191.54C74.9211 187.094 68.333 182.627 64.534 179.7C61.9264 177.688 57.757 174.194 54.3285 171.194C51.641 168.848 49.4475 166.836 47.9148 165.412H47.9076Z" fill="url(#paint1_linear_53_230)"/>
<path d="M42.939 169.959C42.939 169.959 51.4593 176.134 50.5731 180.136C49.6797 184.138 42.6484 188.525 38.0142 173.787C38.1231 173.33 38.4646 172.197 39.5178 171.245C40.9052 169.989 42.5467 169.959 42.9462 169.959H42.939Z" stroke="#AF5B00" stroke-width="2.35343" stroke-miterlimit="10"/>
<path d="M46.1423 163.262C52.5997 168.862 58.7085 174.31 65.6817 179.017C70.7735 182.496 76.1341 185.576 81.6254 188.467C83.4922 189.462 85.3953 190.421 87.3202 191.511L87.1893 192.063C73.7588 192.419 61.0112 184.872 52.6361 174.731C49.8541 171.303 47.5007 167.533 45.9172 163.407L46.1277 163.255L46.1423 163.262Z" fill="#AF5B00"/>
<path d="M71.7903 110.114C71.7903 110.114 75.5093 101.369 84.4799 98.3686C89.8332 96.5818 94.4602 97.6277 97.7434 98.4195C109.59 101.289 116.985 109.475 122.926 116.223C130.72 125.077 135.841 130.895 137.512 140.44C137.701 141.5 140.948 161.635 129.021 169.037C123.798 172.277 118.154 171.528 116.622 171.303C106.99 169.894 98.8402 161.265 95.7313 149.418C95.666 146.774 95.2955 143.629 94.2786 140.229C91.039 129.435 83.3541 123.116 79.824 120.581C79.824 120.581 72.2116 118.097 71.7903 110.114Z" fill="url(#paint2_linear_53_230)"/>
<path d="M100.111 158.127C107.687 164.148 117.312 174.506 127.401 168.536C128.781 167.824 130.067 166.836 131.534 165.884L131.825 166.095C130.183 171.514 124.801 175.741 118.99 175.218C113.382 174.833 108.487 171.114 105.073 167.134C102.835 164.49 100.998 161.562 99.8137 158.323L100.111 158.127Z" fill="#AF5B00"/>
<path d="M75.1244 117.45C84.0151 121.198 92.5426 127.525 96.6175 136.568C98.9201 141.892 98.8111 148.284 95.1357 152.991C89.8477 160.161 79.7368 161.417 72.771 156.144C69.5895 153.921 67.8679 150.485 65.5871 147.5C63.5242 144.631 61.1708 141.987 58.6648 139.372L58.7884 139.212C61.9699 140.963 64.8898 143.236 67.5555 145.771C70.076 148.059 72.059 151.081 75.0299 152.766C83.5139 157.996 94.4747 151.713 93.1745 141.653C92.2157 135.159 87.6832 129.392 83.049 124.692C80.5866 122.179 77.8482 119.891 75.0299 117.617L75.1317 117.443L75.1244 117.45Z" fill="#AF5B00"/>
<path d="M200.648 111.291C200.648 111.291 185.91 145.641 176.293 145.888C166.676 146.142 111.704 150.507 125.229 104.092C138.747 57.6775 164.155 77.965 164.155 77.965C166.131 76.643 169.661 74.7181 174.317 74.3695C184.247 73.6286 191.227 80.6816 193.043 82.5193C203.8 93.393 200.997 109.453 200.648 111.291Z" fill="url(#paint3_linear_53_230)"/>
<path d="M200.001 112.758C202.159 113.383 204.425 114.109 206.779 114.952C209.212 115.823 211.493 116.731 213.614 117.646C214.529 120.617 215.931 126.741 214.122 134.012C211.326 145.248 202.892 151.016 200.873 152.316C196.98 154.822 193.275 155.941 190.856 156.478C189.462 156.071 186.295 154.938 183.52 151.924C180.905 149.076 180.005 146.033 179.678 144.616C186.186 137.934 189.811 132.421 191.793 128.971C193.159 126.603 195.237 122.6 196.914 119.215C198.229 116.564 199.268 114.327 199.994 112.751L200.001 112.758Z" fill="url(#paint4_linear_53_230)"/>
<path d="M205.253 114.654C205.253 114.654 200.684 122.085 202.638 124.866C204.592 127.648 211.369 128.782 210.251 116.019C210.025 115.707 209.401 114.944 208.289 114.545C206.829 114.022 205.558 114.523 205.253 114.647V114.654Z" stroke="#AF5B00" stroke-width="1.94667" stroke-miterlimit="10"/>
<path d="M178.152 145.357C182.758 139.968 187.05 134.767 190.689 128.811C194.401 122.891 197.227 116.797 200.539 110.513L200.997 110.615C201.36 121.692 195.745 132.501 187.566 139.757C184.784 142.161 181.69 144.195 178.276 145.524L178.152 145.35V145.357Z" fill="#AF5B00"/>
<path d="M164.155 77.9722C164.155 77.9722 158.526 72.4518 150.703 72.9966C146.032 73.3234 142.822 75.5897 140.556 77.2458C132.391 83.202 129.326 91.824 126.914 98.877C123.755 108.131 121.677 114.218 123.428 122.055C123.624 122.927 127.525 139.387 139.008 141.268C144.035 142.089 148.124 139.728 149.228 139.067C156.158 134.927 159.666 125.731 158.286 115.671C157.495 113.622 156.783 111.102 156.485 108.167C155.541 98.8698 159.427 91.5916 161.322 88.5263C161.322 88.5263 166.363 84.2044 164.155 77.9577V77.9722Z" fill="url(#paint5_linear_53_230)"/>
<path d="M157.981 123.792C158.126 130.83 155.294 139.292 148.655 142.822C144.369 145.067 138.907 143.534 135.929 139.902L136.081 139.648C137.505 139.91 138.805 140.258 140.091 140.367C149.759 141.718 153.783 130.772 157.698 123.733L157.988 123.792H157.981Z" fill="#AF5B00"/>
<path d="M164.061 84.742C160.16 92.0274 155.925 100.584 157.792 108.915C158.947 113.811 164.221 116.884 169.058 115.765C171.441 115.257 173.649 113.746 175.218 111.668C176.954 109.431 177.542 106.497 178.726 103.933C179.961 101.151 181.479 98.4776 183.36 96.1241L183.506 96.204C181.835 100.388 180.666 104.55 179.816 108.923C178.821 113.898 175.123 118.271 170.039 119.651C163.051 121.612 155.286 117.022 153.921 109.838C152.127 100.417 157.683 90.996 163.937 84.6257L164.068 84.7274L164.061 84.742Z" fill="#AF5B00"/>
<path d="M91.8453 100.468C90.3418 99.7195 80.1871 94.555 78.9523 93.9448C80.3469 93.5889 88.2425 91.6277 89.826 91.221L89.6081 91.7149C88.1989 89.0128 78.7125 70.7011 77.5503 68.4784C79.911 69.597 95.0122 76.7154 97.7361 78.0011L97.2422 78.2698L98.7167 67.3162L99.0363 64.9192L100.489 66.8586L107.687 76.4612L107.15 76.4394L112.525 69.7713L114.21 67.6794L114.464 70.3016L115.002 75.8656L114.297 76.0326L112.234 70.8391L114.174 71.3693L107.68 76.9406L107.39 77.1875L107.143 76.9188L98.9491 68.1588L100.722 67.7012L97.9686 78.4078L97.8668 78.8073L97.4747 78.6766L80.3105 73.0182L82.1919 71.0425L90.2763 91.4098L90.4215 91.7657L90.0583 91.9038L81.7633 95.0634L81.9303 93.4364L92.2158 99.8212L91.8599 100.453L91.8453 100.468Z" fill="#EE9414"/>
<path d="M107.259 60.8444C107.005 59.8202 105.377 52.8325 105.174 51.9972C105.915 52.5275 110.055 55.5274 110.891 56.1302L110.564 56.2247C111.297 54.4523 116.266 42.46 116.861 41C117.283 42.5907 119.977 52.7454 120.457 54.5831L120.13 54.4523C121.053 53.864 126.493 50.4137 127.285 49.9053C127.081 50.7551 125.483 57.7137 125.236 58.7452L125.026 58.4764L130.415 58.3602L132.108 58.3239L130.946 59.5078L128.483 62.0211L128.113 61.7523L129.776 58.658L130.306 59.8057L124.989 58.934L124.75 58.8977L124.779 58.6653L125.672 51.1691L126.609 51.8374L120.341 54.8518L120.108 54.9608L120.014 54.7211L115.779 44.167L117.493 44.2687L110.963 56.4135L110.847 56.6242L110.636 56.508L105.748 53.7986L106.598 53.2248L107.695 60.7645L107.244 60.8516L107.259 60.8444Z" fill="#EE9414"/>
<defs>
<linearGradient id="paint0_linear_53_230" x1="85.1795" y1="84.2816" x2="96.9136" y2="271.751" gradientUnits="userSpaceOnUse">
<stop offset="0.09" stop-color="#C16D08"/>
<stop offset="0.28" stop-color="#EE9414"/>
<stop offset="0.54" stop-color="#FFCEA1"/>
</linearGradient>
<linearGradient id="paint1_linear_53_230" x1="68.8191" y1="179.288" x2="44.3613" y2="208.735" gradientUnits="userSpaceOnUse">
<stop offset="0.09" stop-color="#C16D08"/>
<stop offset="0.57" stop-color="#EE9414"/>
<stop offset="0.97" stop-color="#FFCEA1"/>
</linearGradient>
<linearGradient id="paint2_linear_53_230" x1="71.7903" y1="134.462" x2="138.05" y2="134.462" gradientUnits="userSpaceOnUse">
<stop offset="0.09" stop-color="#C16D08"/>
<stop offset="0.57" stop-color="#EE9414"/>
<stop offset="0.97" stop-color="#FFCEA1"/>
</linearGradient>
<linearGradient id="paint3_linear_53_230" x1="145.71" y1="62.4051" x2="196.21" y2="209.754" gradientUnits="userSpaceOnUse">
<stop offset="0.09" stop-color="#C16D08"/>
<stop offset="0.28" stop-color="#EE9414"/>
<stop offset="0.54" stop-color="#FFCEA1"/>
</linearGradient>
<linearGradient id="paint4_linear_53_230" x1="188.392" y1="129.995" x2="216.477" y2="144.796" gradientUnits="userSpaceOnUse">
<stop offset="0.09" stop-color="#C16D08"/>
<stop offset="0.57" stop-color="#EE9414"/>
<stop offset="0.97" stop-color="#FFCEA1"/>
</linearGradient>
<linearGradient id="paint5_linear_53_230" x1="171.859" y1="96.5741" x2="121.092" y2="117.602" gradientUnits="userSpaceOnUse">
<stop offset="0.09" stop-color="#C16D08"/>
<stop offset="0.57" stop-color="#EE9414"/>
<stop offset="0.97" stop-color="#FFCEA1"/>
</linearGradient>
</defs>
</svg>
