<svg width="250" height="250" viewBox="0 0 250 250" fill="none" xmlns="http://www.w3.org/2000/svg">
<path d="M183.819 51.7893L96.4365 142.632L109.441 141.322L105.087 153.62L202.729 71.7478L215 42L183.819 51.7893Z" fill="url(#paint0_linear_53_2)"/>
<path d="M98.2449 158.825L90.4347 150.228L79.1101 149.346L70.9095 156.696L70.6313 167.972L78.4415 176.574L89.7661 177.451L97.9667 170.101L98.2449 158.825Z" fill="url(#paint1_linear_53_2)"/>
<path d="M93.1575 160.323L88.4125 155.096L81.3408 154.738L76.0824 159.451L75.7185 166.475L80.4635 171.701L87.5354 172.059L92.7939 167.347L93.1575 160.323Z" fill="url(#paint2_linear_53_2)"/>
<path d="M89.782 161.51L86.872 158.311L82.539 158.092L79.3186 160.981L79.094 165.287L82.004 168.486L86.3371 168.705L89.5574 165.817L89.782 161.51Z" fill="url(#paint3_linear_53_2)"/>
<path d="M88.7228 161.885L86.3905 159.317L82.9134 159.14L80.3296 161.457L80.1531 164.912L82.4856 167.48L85.9627 167.657L88.5462 165.34L88.7228 161.885Z" fill="url(#paint4_linear_53_2)"/>
<path d="M63.3401 140.252L74.0226 156.968L78.7942 152.689L63.3401 140.252Z" fill="url(#paint5_linear_53_2)"/>
<path d="M78.2592 158.686L78.2485 158.68L78.254 158.675L78.2592 158.686Z" fill="#BA6926"/>
<path d="M105.536 186.545L96.5383 171.444L91.2798 176.157L105.536 186.545Z" fill="url(#paint6_linear_53_2)"/>
<path d="M100.561 181.116L88.862 170.32L87.2144 166.576L90.932 168.464L100.561 181.116Z" fill="url(#paint7_linear_53_2)"/>
<path d="M76.232 181.784L65.1856 169.62C64.3297 168.577 64.3671 167.095 65.1856 166.191C66.1271 165.153 67.903 165.084 69.0103 166.191C72.6907 170.246 76.3766 174.301 80.057 178.355C80.4956 179.543 80.1104 180.864 79.1475 181.576C78.3183 182.191 77.1842 182.271 76.232 181.784Z" fill="url(#paint8_linear_53_2)"/>
<path d="M44.1999 206.696C41.5894 208.858 37.7754 208.333 35.9941 205.889C34.4427 203.765 34.7049 200.571 36.7965 198.539C46.8319 189.541 56.8727 180.543 66.9081 171.546L74.3115 179.698L44.1999 206.691V206.696Z" fill="url(#paint9_linear_53_2)"/>
<path d="M70.6313 167.972L75.526 173.364L72.22 167.469L73.4236 157.493L80.2761 151.362L90.4347 150.228L79.1101 149.346L70.9095 156.696L70.6313 167.972Z" fill="url(#paint10_linear_53_2)"/>
<path d="M114.501 142.969L107.831 135.625L98.1591 134.87L91.1568 141.151L90.916 150.785L97.5868 158.129L107.258 158.884L114.261 152.604L114.501 142.969Z" fill="url(#paint11_linear_53_2)"/>
<path d="M110.158 144.248L106.103 139.786L100.063 139.476L95.5701 143.504L95.2598 149.506L99.3146 153.968L105.354 154.278L109.848 150.25L110.158 144.248Z" fill="url(#paint12_linear_53_2)"/>
<path d="M107.274 145.264L104.787 142.531L101.085 142.344L98.3356 144.81L98.1431 148.49L100.625 151.223L104.332 151.411L107.082 148.945L107.274 145.264Z" fill="url(#paint13_linear_53_2)"/>
<path d="M106.37 145.585L104.375 143.392L101.406 143.242L99.2023 145.221L99.0471 148.169L101.037 150.362L104.011 150.512L106.215 148.533L106.37 145.585Z" fill="url(#paint14_linear_53_2)"/>
<path d="M90.916 150.785L95.0991 155.391L92.2748 150.357L93.3018 141.83L99.154 136.598L107.831 135.625L98.1591 134.87L91.1568 141.151L90.916 150.785Z" fill="url(#paint15_linear_53_2)"/>
<path d="M81.9665 160.569L78.2593 158.686L78.2541 158.675L67.6836 144.981L80.3189 156.824L80.3244 156.84L81.9665 160.569Z" fill="url(#paint16_linear_53_2)"/>
<path d="M80.3296 156.835L80.3243 156.84L80.3188 156.824L80.3296 156.835Z" fill="#BA6926"/>
<defs>
<linearGradient id="paint0_linear_53_2" x1="133.7" y1="69.2176" x2="205.927" y2="147.607" gradientUnits="userSpaceOnUse">
<stop offset="0.21" stop-color="#F0AE49"/>
<stop offset="0.33" stop-color="#FFE0BB"/>
<stop offset="0.46" stop-color="#A0681D"/>
</linearGradient>
<linearGradient id="paint1_linear_53_2" x1="65.4424" y1="163.399" x2="113.239" y2="163.399" gradientUnits="userSpaceOnUse">
<stop offset="0.07" stop-color="#A3551C"/>
<stop offset="0.24" stop-color="#EE9414"/>
<stop offset="0.49" stop-color="#F2AF6B"/>
<stop offset="0.7" stop-color="#EE9414"/>
<stop offset="0.9" stop-color="#A3551C"/>
</linearGradient>
<linearGradient id="paint2_linear_53_2" x1="75.7185" y1="163.399" x2="143.592" y2="163.399" gradientUnits="userSpaceOnUse">
<stop stop-color="#A3551C"/>
<stop offset="0.07" stop-color="#EE9414"/>
<stop offset="0.14" stop-color="#FCCE9A"/>
<stop offset="0.22" stop-color="#EE9414"/>
<stop offset="0.27" stop-color="#A3551C"/>
</linearGradient>
<linearGradient id="paint3_linear_53_2" x1="79.094" y1="163.399" x2="123.825" y2="163.399" gradientUnits="userSpaceOnUse">
<stop stop-color="#A3551C"/>
<stop offset="0.07" stop-color="#EE9414"/>
<stop offset="0.14" stop-color="#FCCE9A"/>
<stop offset="0.22" stop-color="#EE9414"/>
<stop offset="0.27" stop-color="#A3551C"/>
</linearGradient>
<linearGradient id="paint4_linear_53_2" x1="80.1531" y1="163.398" x2="111.565" y2="163.398" gradientUnits="userSpaceOnUse">
<stop offset="0.01" stop-color="#EE7C29"/>
<stop offset="0.07" stop-color="#FC9D15"/>
<stop offset="0.16" stop-color="#FFD09C"/>
<stop offset="0.3" stop-color="#FC9D15"/>
<stop offset="0.44" stop-color="#EE7C29"/>
</linearGradient>
<linearGradient id="paint5_linear_53_2" x1="67.3628" y1="149.988" x2="84.4754" y2="133.731" gradientUnits="userSpaceOnUse">
<stop stop-color="#A3551C"/>
<stop offset="0.09" stop-color="#F2AF6B"/>
<stop offset="0.16" stop-color="#FCCE9A"/>
<stop offset="0.24" stop-color="#EE9414"/>
<stop offset="0.32" stop-color="#A3551C"/>
</linearGradient>
<linearGradient id="paint6_linear_53_2" x1="96.3831" y1="182.812" x2="117.337" y2="165.624" gradientUnits="userSpaceOnUse">
<stop stop-color="#A3551C"/>
<stop offset="0.09" stop-color="#F2AF6B"/>
<stop offset="0.16" stop-color="#FCCE9A"/>
<stop offset="0.24" stop-color="#EE9414"/>
<stop offset="0.32" stop-color="#A3551C"/>
</linearGradient>
<linearGradient id="paint7_linear_53_2" x1="92.462" y1="175.167" x2="102.241" y2="166.089" gradientUnits="userSpaceOnUse">
<stop offset="0.04" stop-color="#A3551C"/>
<stop offset="0.16" stop-color="#F2AF6B"/>
<stop offset="0.24" stop-color="#EE9414"/>
<stop offset="0.34" stop-color="#A3551C"/>
</linearGradient>
<linearGradient id="paint8_linear_53_2" x1="68.2829" y1="177.408" x2="95.3079" y2="152.913" gradientUnits="userSpaceOnUse">
<stop offset="0.07" stop-color="#A3551C"/>
<stop offset="0.16" stop-color="#F2AF6B"/>
<stop offset="0.2" stop-color="#EE9414"/>
<stop offset="0.24" stop-color="#A3551C"/>
</linearGradient>
<linearGradient id="paint9_linear_53_2" x1="48.5704" y1="185.7" x2="74.3116" y2="212.998" gradientUnits="userSpaceOnUse">
<stop stop-color="#A3551C"/>
<stop offset="0.14" stop-color="#F2AF6B"/>
<stop offset="0.29" stop-color="#EE9414"/>
<stop offset="0.41" stop-color="#A3551C"/>
</linearGradient>
<linearGradient id="paint10_linear_53_2" x1="70.6313" y1="161.355" x2="90.4347" y2="161.355" gradientUnits="userSpaceOnUse">
<stop offset="0.07" stop-color="#A3551C"/>
<stop offset="0.24" stop-color="#EE9414"/>
<stop offset="0.49" stop-color="#FCC695"/>
<stop offset="0.61" stop-color="#EE9414"/>
<stop offset="0.9" stop-color="#A3551C"/>
</linearGradient>
<linearGradient id="paint11_linear_53_2" x1="86.4868" y1="146.88" x2="127.308" y2="146.88" gradientUnits="userSpaceOnUse">
<stop offset="0.07" stop-color="#A3551C"/>
<stop offset="0.24" stop-color="#EE9414"/>
<stop offset="0.49" stop-color="#F2AF6B"/>
<stop offset="0.7" stop-color="#EE9414"/>
<stop offset="0.9" stop-color="#A3551C"/>
</linearGradient>
<linearGradient id="paint12_linear_53_2" x1="95.2598" y1="146.88" x2="153.236" y2="146.88" gradientUnits="userSpaceOnUse">
<stop stop-color="#A3551C"/>
<stop offset="0.07" stop-color="#EE9414"/>
<stop offset="0.14" stop-color="#FCCE9A"/>
<stop offset="0.22" stop-color="#EE9414"/>
<stop offset="0.27" stop-color="#A3551C"/>
</linearGradient>
<linearGradient id="paint13_linear_53_2" x1="98.1431" y1="146.88" x2="136.348" y2="146.88" gradientUnits="userSpaceOnUse">
<stop stop-color="#A3551C"/>
<stop offset="0.07" stop-color="#EE9414"/>
<stop offset="0.14" stop-color="#FCCE9A"/>
<stop offset="0.22" stop-color="#EE9414"/>
<stop offset="0.27" stop-color="#A3551C"/>
</linearGradient>
<linearGradient id="paint14_linear_53_2" x1="99.0471" y1="146.88" x2="125.879" y2="146.88" gradientUnits="userSpaceOnUse">
<stop offset="0.01" stop-color="#EE7C29"/>
<stop offset="0.07" stop-color="#FC9D15"/>
<stop offset="0.16" stop-color="#FFD09C"/>
<stop offset="0.3" stop-color="#FC9D15"/>
<stop offset="0.44" stop-color="#EE7C29"/>
</linearGradient>
<linearGradient id="paint15_linear_53_2" x1="90.916" y1="145.13" x2="107.831" y2="145.13" gradientUnits="userSpaceOnUse">
<stop offset="0.07" stop-color="#A3551C"/>
<stop offset="0.24" stop-color="#EE9414"/>
<stop offset="0.49" stop-color="#FCC695"/>
<stop offset="0.61" stop-color="#EE9414"/>
<stop offset="0.9" stop-color="#A3551C"/>
</linearGradient>
<linearGradient id="paint16_linear_53_2" x1="73.2042" y1="154.24" x2="83.7959" y2="144.654" gradientUnits="userSpaceOnUse">
<stop offset="0.04" stop-color="#A3551C"/>
<stop offset="0.16" stop-color="#F2AF6B"/>
<stop offset="0.24" stop-color="#EE9414"/>
<stop offset="0.34" stop-color="#A3551C"/>
</linearGradient>
</defs>
</svg>
