<svg width="176" height="104" viewBox="0 0 176 104" fill="none" xmlns="http://www.w3.org/2000/svg">
<path d="M169.776 85.0571C181.435 76.9859 172.392 68.9894 166.413 66C170.001 70.484 170.097 72.726 169.776 74.9681C167.983 87.5233 142.125 90.6622 129.42 90.6622C131.214 91.559 131.662 93.2778 131.662 94.0252C128.075 95.8188 121.199 95.5199 118.21 95.1462C118.21 96.043 119.705 97.0145 120.452 97.3882C117.762 99.1818 110.363 100.378 107 100.751C123.815 102.993 155.203 95.1462 169.776 85.0571Z" fill="#FFC580"/>
<path d="M135.027 92.9023C132.336 95.5927 127.18 97.0126 124.938 97.3863C130.318 98.2831 135.4 95.5179 137.269 94.0233C140.856 94.0233 143.995 92.5286 145.116 91.7812C140.632 93.5749 136.521 93.2759 135.027 92.9023Z" fill="white"/>
<path d="M155.203 89.5375C162.677 87.2955 176.054 80.121 169.776 69.3594C175.008 73.4697 179.417 83.2599 155.203 89.5375Z" fill="white"/>
<path d="M97.3558 100.496C25.5269 108.256 4.0128 79.2478 2.23438 63.7734C5.4255 71.1783 12.2928 74.1861 15.3276 74.7644C14.7268 83.7123 29.6161 83.214 37.1358 81.8464C39.4746 92.7893 51.6792 90.3131 57.4891 87.7072C58.1122 96.7373 69.1183 89.9861 74.5434 85.4817C71.9866 96.0959 88.6863 99.9137 97.3558 100.496Z" fill="#FFC580"/>
<path d="M12.9585 75.7298C8.73485 74.5474 6.29923 71.912 5.60938 70.7422C11.3797 85.5108 33.0207 93.5554 43.12 95.7315C35.3447 92.513 33.6512 87.98 33.7764 86.1159C20.2531 86.1067 13.4982 79.1366 12.8083 77.9668C12.1184 76.7969 12.9585 75.7298 12.9585 75.7298Z" fill="white"/>
<path d="M54.1319 91.9802C49.728 93.4822 45.6173 92.9065 44.1124 92.431C54.0351 100.288 70.9952 100.228 78.2349 99.2163C73.9512 98.9287 71.0406 95.7372 70.1208 94.1774C60.4607 100.719 55.4365 95.4384 54.1319 91.9802Z" fill="white"/>
<path d="M86.6431 99.7859C85.3431 100.073 82.2992 100.393 80.5234 99.375L86.6431 99.7859Z" fill="white"/>
<path d="M124.489 77.4245L122 77L115.22 73.0035C115.22 73.0035 107.355 76.8155 107.283 78.5265C107.213 80.2383 105.436 83.3374 109.892 84.2587C114.346 85.1793 126.832 85.2706 127.341 84.0181C127.851 82.7656 127 81.5 126.218 80.4832C126.611 79.4724 124.489 77.4245 124.489 77.4245Z" fill="#C17B2E"/>
<path d="M115.5 73.1972L120.814 72.9262L126.711 76.3283L129.582 81.3215L127.344 84.0111L126.22 80.4762L126.154 79.6646L124.491 77.4175L121.466 77.4709L115.5 73.1972Z" fill="#DDA568"/>
<path d="M44.4428 70.6839C47.4016 70.2955 48.9952 70.0868 48.9952 70.0868C49.2347 72.021 51.3755 74.112 50.3907 75.7407C50.1956 76.0637 49.8353 76.2923 49.2505 76.4058C46.7155 76.8957 39.7059 82.3512 39.0185 79.9211C38.075 76.5896 35.2744 72.0524 36.9331 70.5969C37.1985 70.3627 37.5309 70.2559 39.6632 70.3262C41.6262 70.3911 43.2628 70.5443 44.4428 70.6839Z" fill="#DDA568"/>
<path d="M33.3471 77.3419L39.0143 79.9163L36.9304 70.5926L34.937 72.2995L33.3471 77.3419Z" fill="#C17B2E"/>
<path d="M121.137 4.74361L122.609 14.8486C124.717 15.0705 126.827 15.2947 128.936 15.5166C130.534 13.5093 132.131 11.5036 133.729 9.49624L131.443 3.32662C130.521 3.30925 129.592 3.28499 128.652 3.25329C127.073 3.20124 125.52 3.12859 123.997 3.03878C123.044 3.60668 122.092 4.1746 121.138 4.74023L121.137 4.74361Z" fill="#DDA568"/>
<path d="M121.132 4.74923L119.123 7.17373L116.542 11.9873L122.602 14.8537C122.433 12.8175 122.699 11.2895 123.002 10.229C123.308 9.16178 123.733 8.27211 123.332 7.50847C123.036 6.94709 122.541 6.91881 121.883 6.09236C121.484 5.59022 121.257 5.08726 121.131 4.74696L121.132 4.74923Z" fill="#C17B2E"/>
</svg>
