<svg width="57" height="104" viewBox="0 0 57 104" fill="none" xmlns="http://www.w3.org/2000/svg">
<path d="M27.801 2.40856L11.8825 24.9624L7.14425 83.2179L13.7944 98.623L24.0307 86.2953L36.2981 30.0199L27.801 2.40856Z" fill="#91CEB8"/>
<path d="M19.6071 30.7716L11.8311 25.1094L7.15863 83.1986L11.2023 87.2931L19.6071 30.7716Z" fill="#72B59B"/>
<path d="M36.2991 30.0107L19.7625 30.9334L11.1889 87.3031L24.0317 86.2861L36.2991 30.0107Z" fill="#C2F2DE"/>
<path d="M11.2007 87.301L13.8071 98.6116L24.0435 86.2839L11.2007 87.301Z" fill="#DEFFF2"/>
<path d="M45.0763 27.582L27.9556 41.1392L12.0497 85.2964L13.9959 98.9577L24.5489 91.9325L45.8987 51.2088L45.0763 27.582Z" fill="#B3FFE3"/>
<path d="M32.7294 47.6488L27.8653 41.2891L12.0454 85.3337L14.3333 89.5366L32.7294 47.6488Z" fill="#9DF9D5"/>
<path d="M45.8997 51.2465L32.8334 47.8105L14.3387 89.537L24.5499 91.9701L45.8997 51.2465Z" fill="#CCFFEA"/>
<path d="M14.3317 89.5285L13.9899 98.9869L24.5429 91.9617L14.3317 89.5285Z" fill="#DEFFF2"/>
</svg>
