<svg width="114" height="121" viewBox="0 0 114 121" fill="none" xmlns="http://www.w3.org/2000/svg">
<path d="M23.0386 0C22.9401 1.70138 23.0577 4.18873 24.3636 6.61295C27.2867 12.0485 33.1776 11.6098 36.7203 16.2562C39.4783 19.8767 40.1106 25.669 38.4869 29.6273C34.1467 40.1922 15.2509 33.9959 5.21999 46.2875C-0.337207 53.0993 -1.55095 63.6011 2.02993 71.0569C6.01434 79.3491 15.1365 82.2089 24.3636 85.1035C33.2379 87.8844 40.8064 88.2348 49.9572 88.5946C68.8783 89.3395 74.9503 86.5807 78.4231 90.9399C82.2772 95.7757 76.9488 101.862 81.95 110.728C82.7221 112.098 85.2068 116.378 90.1126 118.844C99.9179 123.768 113.997 118.717 114 118.717C96.0352 116.757 90.3509 111.783 88.7082 107.316C85.9821 99.9076 94.3957 93.9576 91.2183 83.1117C91.1008 82.714 88.1204 73.0771 79.3032 69.406C74.3338 67.3353 69.1103 67.8309 67.6106 67.9887C64.5603 68.3075 63.5372 68.9704 61.4338 69.406C52.839 71.1926 40.3203 66.3221 38.0453 57.9351C37.9277 57.4995 36.911 53.5223 38.9286 49.6492C41.4609 44.7818 45.8965 45.6309 51.727 41.2465C57.64 36.7989 62.441 28.8855 61.7102 21.0604C61.5418 19.2486 61.205 15.6533 58.5678 12.8156C54.4055 8.33958 48.467 9.99676 40.0343 8.14703C35.6972 7.19691 29.727 5.10413 23.045 0H23.0386Z" fill="#6CDDFF"/>
</svg>
