<svg width="84" height="72" viewBox="0 0 84 72" fill="none" xmlns="http://www.w3.org/2000/svg">
<path d="M76.0082 13.7812C76.0082 19.522 73.9415 35.1368 65.6749 44.7812" stroke="#C8923A" stroke-width="0.2"/>
<path d="M76.0082 32.7188C72.5638 36.1632 70.4971 40.9854 69.1193 46.4965" stroke="#C8923A" stroke-width="0.2"/>
<path d="M69.1254 24.1094C69.1254 32.7205 64.9921 39.2649 62.2365 44.776" stroke="#C8923A" stroke-width="0.2"/>
<path d="M77.7348 20.6641C77.7348 20.6641 65.6792 32.7196 65.6792 37.8863" stroke="#C8923A" stroke-width="0.2"/>
<path d="M60.5191 29.2812C62.2343 31.0035 63.6319 39.2701 62.2541 44.7812" stroke="#C8923A" stroke-width="0.2"/>
<path d="M75.9733 15.5C78.2697 9.75926 79.8631 -0.000128828 76.0086 0C72.1541 0.000128828 74.2566 10.3333 75.9733 15.5Z" fill="#C8923A"/>
<path d="M74.2827 34.4567C76.0049 30.4382 80.1383 23.09 82.8938 25.8456C83.4679 26.9975 82.5494 30.3325 74.2827 34.4567Z" fill="#C8923A"/>
<path d="M62.2348 32.5953C62.2348 30.8731 62.2348 19.0563 58.7903 20.6563C56.5982 21.6747 59.3644 29.1509 62.2348 32.5953Z" fill="#C8923A"/>
<path d="M69.1244 27.5582C70.8466 21.8174 73.2578 10.3359 69.1244 10.3359C64.9911 10.3359 67.4022 21.8174 69.1244 27.5582Z" fill="#C8923A"/>
<path d="M70.9959 28.4338C73.2922 23.8412 78.1536 16.2907 79.393 19.8856C79.8595 21.2386 77.7044 23.3316 70.9959 28.4338Z" fill="#C8923A"/>
<path d="M40.7622 64C25.915 69.9389 20.922 66.4745 22.1593 64C13.2395 66.9694 11.0746 71.7669 18.4627 71.4236C31.1094 70.8359 36.1099 67.8359 40.7622 64Z" fill="#5A7A52"/>
<path d="M30.2062 36.2121C-3.10284 13.7734 6.69804 5.2804 15.3589 2.80586C9.17261 1.56859 -2.82946 -0.13343 0.606985 13.7734C3.57643 25.6512 21.5453 33.7376 30.2062 36.2121Z" fill="#5A7A52"/>
<path d="M81.8299 17.4844C84.7993 38.2705 55.8472 48.4161 41 50.8906C55.8472 50.8906 66.9827 45.9416 70.6945 43.467C85.5417 34.5587 84.3044 22.4335 81.8299 17.4844Z" fill="#5A7A52"/>
</svg>
