<svg width="84" height="83" viewBox="0 0 84 83" fill="none" xmlns="http://www.w3.org/2000/svg">
<path d="M59.0082 49.7812C59.0082 55.522 56.9415 71.1368 48.6749 80.7812" stroke="#C8923A" stroke-width="0.2"/>
<path d="M59.0082 68.7188C55.5638 72.1632 53.4971 76.9854 52.1193 82.4965" stroke="#C8923A" stroke-width="0.2"/>
<path d="M52.1254 60.1094C52.1254 68.7205 47.9921 75.2649 45.2365 80.776" stroke="#C8923A" stroke-width="0.2"/>
<path d="M60.7348 56.6641C60.7348 56.6641 48.6792 68.7196 48.6792 73.8863" stroke="#C8923A" stroke-width="0.2"/>
<path d="M43.5191 65.2812C45.2343 67.0035 46.6319 75.2701 45.2541 80.7812" stroke="#C8923A" stroke-width="0.2"/>
<path d="M58.9733 51.5C61.2697 45.7593 62.8631 35.9999 59.0086 36C55.1541 36.0001 57.2566 46.3333 58.9733 51.5Z" fill="#C8923A"/>
<path d="M57.2827 70.4567C59.0049 66.4382 63.1383 59.09 65.8938 61.8456C66.4679 62.9975 65.5494 66.3325 57.2827 70.4567Z" fill="#C8923A"/>
<path d="M45.2348 68.5953C45.2348 66.8731 45.2348 55.0563 41.7903 56.6563C39.5982 57.6747 42.3644 65.1509 45.2348 68.5953Z" fill="#C8923A"/>
<path d="M52.1244 63.5582C53.8466 57.8174 56.2578 46.3359 52.1244 46.3359C47.9911 46.3359 50.4022 57.8174 52.1244 63.5582Z" fill="#C8923A"/>
<path d="M53.9959 64.4338C56.2922 59.8412 61.1536 52.2907 62.393 55.8856C62.8595 57.2386 60.7044 59.3316 53.9959 64.4338Z" fill="#C8923A"/>
<path d="M52.7622 71C37.915 76.9389 32.922 73.4745 34.1593 71C25.2395 73.9694 23.0746 78.7669 30.4627 78.4236C43.1094 77.8359 48.1099 74.8359 52.7622 71Z" fill="#5A7A52"/>
<path d="M30.2062 34.2121C-3.10284 11.7734 6.69804 3.2804 15.3589 0.805862C9.17261 -0.431407 -2.82946 -2.13343 0.606985 11.7734C3.57643 23.6512 21.5453 31.7376 30.2062 34.2121Z" fill="#5A7A52"/>
<path d="M81.8299 15.4844C84.7993 36.2705 55.8472 46.4161 41 48.8906C55.8472 48.8906 66.9827 43.9416 70.6945 41.467C85.5417 32.5587 84.3044 20.4335 81.8299 15.4844Z" fill="#5A7A52"/>
</svg>
