<svg width="784" height="240" viewBox="0 0 784 240" fill="none" xmlns="http://www.w3.org/2000/svg">
<rect width="692" height="172" transform="translate(46 34.5)" fill="#ECBD61"/>
<rect width="692" height="144" transform="translate(46 48.5)" fill="#FFF2E3"/>
<path d="M23.529 221.479C11.5136 221.479 6 227.551 6 227.551C6 227.551 11.5136 233.624 23.529 233.624C35.5443 233.624 41.0579 227.551 41.0579 227.551C41.0579 227.551 35.5443 221.479 23.529 221.479Z" fill="#443C31"/>
<path d="M8.38672 119.998V232.174C8.38672 232.174 13.1479 237.416 23.5351 237.416C33.9222 237.416 38.6834 232.174 38.6834 232.174V119.998" fill="#DCC2A5"/>
<path d="M41.0579 233.929V227.553C41.0579 227.553 35.5443 233.626 23.529 233.626C11.5136 233.626 6 227.553 6 227.553V233.929C6 233.929 11.5136 240.002 23.529 240.002C35.5443 240.002 41.0579 233.929 41.0579 233.929Z" fill="#6C5F51"/>
<path d="M41.0579 12.448C41.0579 12.448 35.5443 18.5209 23.529 18.5209C11.5136 18.5209 6 12.448 6 12.448C6 12.448 11.5136 6.375 23.529 6.375C35.5443 6.375 41.0579 12.448 41.0579 12.448Z" fill="#443C31"/>
<path d="M38.6834 7.82431V120H8.38672V7.82431C8.38672 7.82431 13.1479 2.58203 23.5351 2.58203C33.9222 2.58203 38.6834 7.82431 38.6834 7.82431Z" fill="#DCC2A5"/>
<path d="M45.6107 23.0234V216.977C45.6107 216.977 38.671 224.621 23.5339 224.621C8.39675 224.621 1.45703 216.977 1.45703 216.977V23.0234C1.45703 23.0234 8.39675 15.3789 23.5339 15.3789C38.671 15.3789 45.6107 23.0234 45.6107 23.0234Z" fill="#D49D31"/>
<path d="M47.0733 32.3196V207.683C47.0733 207.683 39.6732 215.833 23.5366 215.833C7.40012 215.833 0 207.683 0 207.683V32.3196C0 32.3196 7.40012 24.1699 23.5366 24.1699C39.6732 24.1699 47.0733 32.3196 47.0733 32.3196Z" fill="#EECB87"/>
<mask id="mask0_3841_31457" style="mask-type:luminance" maskUnits="userSpaceOnUse" x="0" y="24" width="48" height="192">
<path d="M47.0791 32.322V207.686C47.0791 207.686 39.679 215.836 23.5425 215.836C7.40598 215.836 0.00585938 207.686 0.00585938 207.686V32.322C0.00585938 32.322 7.40598 24.1724 23.5425 24.1724C39.679 24.1724 47.0791 32.322 47.0791 32.322Z" fill="white"/>
</mask>
<g mask="url(#mask0_3841_31457)">
<path d="M32.2592 36.8444C33.4158 37.1363 34.5051 37.7649 35.3697 38.7303C37.6268 41.2785 37.391 45.1737 34.8532 47.43C33.2811 48.822 31.1924 49.271 29.2947 48.7995C28.969 49.6863 28.4188 50.5058 27.6552 51.1793C26.2852 52.4029 24.511 52.8743 22.8154 52.6274C22.5459 53.0091 22.2427 53.3795 21.8721 53.705C20.9064 54.5582 19.7385 55.0409 18.5482 55.1756C18.4696 55.1868 18.391 55.1868 18.3236 55.198C18.2338 55.198 18.1328 55.2092 18.0429 55.2092C17.9194 55.2092 17.7846 55.2092 17.6611 55.2092C17.605 55.2092 17.5488 55.2092 17.4927 55.2092C17.313 55.2092 17.1446 55.1756 16.9761 55.1531C14.4383 54.7714 12.6865 52.9754 12.6865 52.9754C10.553 51.1344 8.84611 51.5722 7.75686 52.2906C7.75686 52.2906 7.70072 52.3355 7.6558 52.3692C7.63334 52.3917 7.59965 52.4029 7.56597 52.4366C7.52105 52.459 7.48736 52.4927 7.45367 52.5264C7.40876 52.56 7.36384 52.5937 7.33015 52.6274L7.28523 52.6723C6.64516 53.2897 5.66821 54.7378 6.1623 57.6339C6.1623 57.6339 6.20722 61.8771 -0.878479 62.9436C-0.878479 62.9436 -7.29042 63.1568 -6.18994 69.488C-6.18994 69.488 -8.98604 64.8519 -3.88793 61.7424C-3.88793 61.7424 0.648708 60.1484 -0.687581 56.0175C-0.687581 56.0175 -2.14739 52.8519 -1.59715 50.1578C-1.48486 49.5853 -1.22659 48.6873 -0.923396 48.0025C-0.923396 48.0025 1.37861 43.5909 6.15107 44.3093C6.15107 44.3093 10.4744 45.0839 11.6534 41.7387C11.6534 41.7387 12.0689 40.3018 10.9348 39.0334C9.8006 38.2813 8.26218 38.3486 7.20663 39.2916C6.82483 39.6283 6.5441 40.0437 6.38689 40.4815C6.06124 38.6517 6.66762 36.6985 8.16112 35.3739C8.43062 35.1381 8.71136 34.9361 9.00332 34.7565C7.98145 32.8369 8.36325 30.401 10.0701 28.8968C11.9791 27.213 14.8426 27.3028 16.6393 29.054C16.8189 28.8407 17.021 28.6274 17.2344 28.4366C19.7049 26.2364 23.5004 26.4609 25.7013 28.9417C25.9596 29.2336 26.1729 29.5366 26.3638 29.8622C28.1942 29.1774 30.339 29.6489 31.709 31.198C33.079 32.7471 33.3036 35.1045 32.2929 36.8669L32.2592 36.8444Z" fill="#CA8235"/>
<path d="M-3.05937 124.617C-3.05937 124.617 -2.35193 122.585 -1.26269 122.944C-1.26269 122.944 0.590152 122.608 5.30646 126.065C5.30646 126.065 10.2137 130.544 14.492 128.815C14.9412 130.701 16.3673 132.295 18.3662 132.856C19.9158 133.294 21.4991 133.013 22.768 132.228C22.4199 132.856 22.128 133.541 21.9258 134.26C20.5334 139.232 23.4306 144.385 28.4052 145.777C30.3703 146.327 32.3691 146.203 34.1433 145.552C35.9288 144.901 37.4897 143.711 38.5901 142.129C38.5901 142.129 41.4424 145.204 46.5742 143.184C46.5742 143.184 51.1894 141.017 53.6823 144.665C53.6823 144.665 55.6362 147.584 59.1959 148.471C60.4424 148.785 61.8797 148.841 63.5192 148.437C63.6764 148.404 63.8449 148.359 64.0133 148.303C65.9784 147.696 67.5955 146.136 68.1906 144.014C68.2018 143.97 68.2131 143.913 68.2243 143.868C69.0665 140.579 67.1238 137.212 63.8449 136.291C63.8 136.28 63.755 136.269 63.7101 136.258C63.4631 136.19 63.2273 136.145 62.9802 136.123C61.6664 136.033 60.4312 136.875 60.0606 138.188C60.0269 138.301 60.0044 138.424 59.982 138.536C59.8697 139.266 60.0606 139.996 60.4649 140.579C60.4649 140.445 60.4985 140.321 60.5322 140.187C60.813 139.199 61.8236 138.626 62.8118 138.907C63.2722 139.03 63.7663 139.345 64.0695 140.074C64.2379 140.478 64.3165 140.916 64.294 141.365C64.294 141.59 64.2491 141.825 64.1818 142.05C64.1144 142.274 64.0358 142.488 63.9235 142.679C63.2722 143.88 61.8573 144.52 60.4761 144.138C60.4536 144.138 60.4312 144.127 60.4087 144.115C60.4087 144.115 57.8933 143.97 56.2651 140.164C56.2651 140.164 55.0411 136.808 52.1552 135.999C52.1552 135.999 50.1339 135.393 47.6747 137.032C47.6747 137.032 44.7438 139.019 43.6883 133.698C43.7781 133.474 43.8567 133.238 43.9241 133.002C44.9347 129.399 42.8348 125.661 39.2302 124.651C38.68 124.493 38.1185 124.415 37.5683 124.404C38.1185 122.035 36.7149 119.622 34.3342 118.959C33.245 118.656 32.1333 118.768 31.1788 119.206C31.2799 118.948 31.3697 118.69 31.4371 118.42C32.6611 114.042 30.112 109.496 25.7326 108.273C21.3532 107.049 16.9176 109.541 15.6262 113.818C14.4359 114.626 13.5263 115.85 13.1108 117.332C12.729 118.679 12.8189 120.037 13.268 121.249C11.1232 121.743 9.6859 122.922 9.6859 122.922C9.6859 122.922 7.56356 124.841 3.47609 122.024C3.47609 122.024 -3.40748 117.814 -3.09306 124.639L-3.05937 124.617Z" fill="#CA8235"/>
<path d="M71.5606 50.8763C71.5606 50.8763 70.9767 49.2149 70.0896 49.5068C70.0896 49.5068 68.5736 49.2374 64.6995 52.0662C64.6995 52.0662 60.6682 55.7369 57.1646 54.3225C56.794 55.8716 55.6262 57.1738 53.9867 57.634C52.7066 57.9932 51.4152 57.7687 50.3709 57.1176C50.6628 57.634 50.8987 58.1953 51.0671 58.7902C52.2125 62.8651 49.8319 67.0971 45.7556 68.2421C44.1386 68.6911 42.5104 68.59 41.0505 68.0624C39.5907 67.5236 38.3106 66.547 37.401 65.2561C37.401 65.2561 35.0653 67.7818 30.8543 66.1204C30.8543 66.1204 27.07 64.3468 25.0263 67.3328C25.0263 67.3328 23.4205 69.7238 20.5009 70.4535C19.479 70.7116 18.2999 70.7566 16.9637 70.431C16.8289 70.3973 16.6942 70.3637 16.5594 70.3188C14.9536 69.8248 13.6173 68.5339 13.1345 66.794C13.1345 66.7603 13.112 66.7154 13.1008 66.6705C12.4158 63.9764 13.9991 61.2037 16.6942 60.4516C16.7278 60.4516 16.7728 60.4291 16.8065 60.4179C17.0086 60.3618 17.2107 60.3281 17.4016 60.3057C18.4796 60.2383 19.4903 60.9231 19.7934 62.0007C19.8159 62.0905 19.8384 62.1915 19.8496 62.2926C19.9394 62.8987 19.7934 63.4937 19.4566 63.9764C19.4566 63.8641 19.4341 63.7631 19.4004 63.6508C19.1758 62.8426 18.3336 62.3711 17.5251 62.5957C17.1546 62.6967 16.7391 62.9549 16.492 63.5498C16.3573 63.8754 16.2899 64.2346 16.3011 64.605C16.3011 64.7958 16.3348 64.9754 16.391 65.1663C16.4471 65.3571 16.5145 65.5255 16.6043 65.6827C17.1433 66.6705 18.3 67.1981 19.4341 66.8725C19.4566 66.8725 19.4678 66.8725 19.4903 66.8501C19.4903 66.8501 21.5565 66.7266 22.8927 63.6059C22.8927 63.6059 23.9034 60.8445 26.2615 60.1822C26.2615 60.1822 27.9235 59.6883 29.9335 61.0353C29.9335 61.0353 32.3366 62.663 33.2013 58.2963C33.1226 58.1055 33.0553 57.9146 33.0104 57.7238C32.1794 54.7715 33.9087 51.707 36.862 50.8763C37.3224 50.7528 37.7716 50.6855 38.232 50.6742C37.7828 48.7322 38.9394 46.7453 40.8821 46.2065C41.7804 45.9595 42.6788 46.0493 43.4648 46.4086C43.3862 46.1953 43.3076 45.982 43.2515 45.7575C42.2409 42.1653 44.3407 38.4385 47.9341 37.4282C51.5275 36.4179 55.1658 38.4722 56.2213 41.9745C57.1983 42.6368 57.9394 43.6359 58.2875 44.8595C58.602 45.9595 58.5234 47.0821 58.164 48.0699C59.927 48.474 61.1061 49.4394 61.1061 49.4394C61.1061 49.4394 62.8466 51.011 66.2042 48.6986C66.2042 48.6986 71.8526 45.2411 71.5943 50.8426L71.5606 50.8763Z" fill="#CA8235"/>
<path d="M10.4744 207.369C10.5754 207.582 10.6203 207.705 10.6203 207.705C12.4283 211.78 16.482 214.643 21.232 214.71C24.9153 214.755 28.2167 213.116 30.4176 210.501C32.2368 212.768 35.0216 214.25 38.1659 214.283C43.7356 214.362 48.3172 209.894 48.3958 204.327C48.4182 202.497 47.9578 200.768 47.1156 199.275C48.0926 198.602 48.9011 197.692 49.4513 196.637C51.5961 199.522 55.0211 201.408 58.8952 201.453C64.566 201.531 69.3721 197.647 70.6859 192.371C71.4271 192.562 72.1907 192.663 72.9879 192.675C78.5128 192.753 83.0606 188.33 83.1392 182.796C83.2179 177.262 78.7935 172.727 73.2575 172.648C72.1458 172.637 71.079 172.805 70.0796 173.12C69.0352 171.223 67.0252 169.932 64.7007 169.898C63.6901 169.887 62.7244 170.111 61.8709 170.527C61.3656 165.834 57.4241 162.141 52.5843 162.085C47.7445 162.029 43.9826 165.352 43.1517 169.797C39.7043 170.504 37.0991 173.535 37.0429 177.195C37.0429 177.711 37.1215 178.62 37.2226 179.103C34.1008 179.215 33.4832 180.203 33.1463 181.752C33.0902 180.248 31.9111 176.218 26.4312 176.139C19.8284 176.038 17.1221 180.158 17.0547 185.266C17.0323 186.792 17.998 189.307 20.2551 190.789C19.1995 188.993 20.8278 187.039 22.8715 186.815C29.8112 186.051 29.1375 193.82 28.2616 195.604C26.8018 199.747 22.0855 201.689 22.0855 201.689C17.5713 203.664 12.5967 201.509 9.9915 199.904C8.81242 199.185 8.10498 198.579 8.10498 198.579C8.10498 198.579 3.60202 195.155 -0.0587324 195.268C-3.96653 195.391 -6.15625 198.983 -6.15625 198.983C4.08488 194.459 9.5311 205.281 10.4519 207.357L10.4744 207.369Z" fill="#CA8235"/>
<path d="M-11.8594 170.717C-11.8594 170.717 -2.96576 166.867 8.14003 173.479C8.14003 173.479 14.9225 176.858 17.7299 173.984C17.7299 173.984 19.2571 172.267 14.2488 169.168C14.2488 169.168 8.73519 166.306 8.06143 165.049C8.06143 165.049 7.52242 164.274 8.79133 164.397C8.79133 164.397 10.6329 164.611 13.721 166.25C13.721 166.25 18.7742 168.91 21.1324 167.698C21.3569 167.765 21.5815 167.821 21.8173 167.855C24.3439 168.248 26.7245 166.508 27.1176 163.982C27.3422 162.568 26.893 161.198 26.0059 160.199C27.3309 159.559 28.3416 158.291 28.5774 156.719C28.9704 154.182 27.2411 151.814 24.7033 151.421C23.8386 151.286 22.9964 151.398 22.2441 151.713C21.312 150.433 19.8859 149.513 18.1903 149.254C14.799 148.727 11.6324 151.05 11.1046 154.441C10.6666 157.236 12.1714 159.896 14.6193 161.03C14.8439 162.164 14.5295 163.769 10.7452 163.544C10.7452 163.544 8.79133 163.41 6.04015 161.995C6.04015 161.995 -0.13597 158.886 -1.1803 162.141C-1.1803 162.141 -1.92143 164.285 3.34512 166.227C3.34512 166.227 8.84748 168.416 6.92727 169.786C6.92727 169.786 5.84925 170.818 2.31202 169.348C2.31202 169.348 -6.60406 166.497 -11.8369 170.74L-11.8594 170.717Z" fill="#CA8235"/>
<path d="M53.5087 107.734C44.9183 106.622 41.3474 96.3849 41.3474 96.3849C38.1695 90.2333 32.9815 91.6028 32.9815 91.6028C29.0063 92.5907 26.8728 92.0406 26.8728 92.0406C26.1653 91.9845 25.4579 91.8049 24.7729 91.4906C22.7067 90.5364 21.4266 88.5607 21.2694 86.4391C22.5607 86.4953 23.8296 86.1361 24.8964 85.4401C25.806 84.8339 26.5696 83.992 27.0637 82.9256C27.5128 81.949 27.6813 80.9274 27.6027 79.9396C27.4455 77.818 26.1766 75.8311 24.0991 74.8769C22.0217 73.9228 19.6748 74.2259 17.9455 75.5056C17.3279 74.0126 16.16 72.7441 14.5767 72.0144C11.2191 70.4541 7.23271 71.9246 5.67183 75.281C5.25635 76.1791 5.05422 77.122 5.05422 78.0537C2.34795 77.7619 -0.35831 79.1875 -1.55985 81.7918C-3.0758 85.0584 -1.64968 88.9312 1.61805 90.4466C2.62869 90.9181 3.69547 91.0977 4.7398 91.0416C4.29063 94.3531 6.01994 97.7095 9.2203 99.1912C11.8367 100.404 14.79 100.044 17.0022 98.5065C21.3929 98.9892 22.9088 101.56 22.9088 101.56C22.9088 101.56 25.8621 105.781 31.8923 104.187C31.8923 104.187 33.8574 103.457 36.8219 105.814C42.4478 111.012 46.8385 110.81 46.8385 110.81C54.7102 110.506 57.2032 111.382 57.2032 111.382C59.1234 111.73 58.8539 114.009 58.8539 114.009C61.6949 108.856 53.4863 107.745 53.4863 107.745L53.5087 107.734Z" fill="#CA8235"/>
</g>
<path d="M41.0579 6.07297V12.449C41.0579 12.449 35.5443 6.37605 23.529 6.37605C11.5136 6.37605 6 12.449 6 12.449V6.07297C6 6.07297 11.5136 0 23.529 0C35.5443 0 41.0579 6.07297 41.0579 6.07297Z" fill="#6C5F51"/>
<path d="M760.469 221.479C772.484 221.479 777.998 227.551 777.998 227.551C777.998 227.551 772.484 233.624 760.469 233.624C748.454 233.624 742.94 227.551 742.94 227.551C742.94 227.551 748.454 221.479 760.469 221.479Z" fill="#443C31"/>
<path d="M775.613 119.998V232.174C775.613 232.174 770.852 237.416 760.465 237.416C750.078 237.416 745.317 232.174 745.317 232.174V119.998" fill="#DCC2A5"/>
<path d="M742.94 233.929V227.553C742.94 227.553 748.454 233.626 760.469 233.626C772.484 233.626 777.998 227.553 777.998 227.553V233.929C777.998 233.929 772.484 240.002 760.469 240.002C748.454 240.002 742.94 233.929 742.94 233.929Z" fill="#6C5F51"/>
<path d="M742.94 12.448C742.94 12.448 748.454 18.5209 760.469 18.5209C772.484 18.5209 777.998 12.448 777.998 12.448C777.998 12.448 772.484 6.375 760.469 6.375C748.454 6.375 742.94 12.448 742.94 12.448Z" fill="#443C31"/>
<path d="M745.317 7.82431V120H775.613V7.82431C775.613 7.82431 770.852 2.58203 760.465 2.58203C750.078 2.58203 745.317 7.82431 745.317 7.82431Z" fill="#DCC2A5"/>
<path d="M738.389 23.0234V216.977C738.389 216.977 745.329 224.621 760.466 224.621C775.603 224.621 782.543 216.977 782.543 216.977V23.0234C782.543 23.0234 775.603 15.3789 760.466 15.3789C745.329 15.3789 738.389 23.0234 738.389 23.0234Z" fill="#D49D31"/>
<path d="M736.927 32.3196V207.683C736.927 207.683 744.327 215.833 760.463 215.833C776.6 215.833 784 207.683 784 207.683V32.3196C784 32.3196 776.6 24.1699 760.463 24.1699C744.327 24.1699 736.927 32.3196 736.927 32.3196Z" fill="#EECB87"/>
<mask id="mask1_3841_31457" style="mask-type:luminance" maskUnits="userSpaceOnUse" x="736" y="24" width="48" height="192">
<path d="M736.921 32.322V207.686C736.921 207.686 744.321 215.836 760.457 215.836C776.594 215.836 783.994 207.686 783.994 207.686V32.322C783.994 32.322 776.594 24.1724 760.457 24.1724C744.321 24.1724 736.921 32.322 736.921 32.322Z" fill="white"/>
</mask>
<g mask="url(#mask1_3841_31457)">
<path d="M751.741 36.8444C750.584 37.1363 749.495 37.7649 748.63 38.7303C746.373 41.2785 746.609 45.1737 749.147 47.43C750.719 48.822 752.808 49.271 754.705 48.7995C755.031 49.6863 755.581 50.5058 756.345 51.1793C757.715 52.4029 759.489 52.8743 761.185 52.6274C761.454 53.0091 761.757 53.3795 762.128 53.705C763.094 54.5582 764.261 55.0409 765.452 55.1756C765.53 55.1868 765.609 55.1868 765.676 55.198C765.766 55.198 765.867 55.2092 765.957 55.2092C766.081 55.2092 766.215 55.2092 766.339 55.2092C766.395 55.2092 766.451 55.2092 766.507 55.2092C766.687 55.2092 766.855 55.1756 767.024 55.1531C769.562 54.7714 771.313 52.9754 771.313 52.9754C773.447 51.1344 775.154 51.5722 776.243 52.2906C776.243 52.2906 776.299 52.3355 776.344 52.3692C776.367 52.3917 776.4 52.4029 776.434 52.4366C776.479 52.459 776.513 52.4927 776.546 52.5264C776.591 52.56 776.636 52.5937 776.67 52.6274L776.715 52.6723C777.355 53.2897 778.332 54.7378 777.838 57.6339C777.838 57.6339 777.793 61.8771 784.878 62.9436C784.878 62.9436 791.29 63.1568 790.19 69.488C790.19 69.488 792.986 64.8519 787.888 61.7424C787.888 61.7424 783.351 60.1484 784.688 56.0175C784.688 56.0175 786.147 52.8519 785.597 50.1578C785.485 49.5853 785.227 48.6873 784.923 48.0025C784.923 48.0025 782.621 43.5909 777.849 44.3093C777.849 44.3093 773.526 45.0839 772.347 41.7387C772.347 41.7387 771.931 40.3018 773.065 39.0334C774.199 38.2813 775.738 38.3486 776.793 39.2916C777.175 39.6283 777.456 40.0437 777.613 40.4815C777.939 38.6517 777.332 36.6985 775.839 35.3739C775.569 35.1381 775.289 34.9361 774.997 34.7565C776.019 32.8369 775.637 30.401 773.93 28.8968C772.021 27.213 769.157 27.3028 767.361 29.054C767.181 28.8407 766.979 28.6274 766.766 28.4366C764.295 26.2364 760.5 26.4609 758.299 28.9417C758.04 29.2336 757.827 29.5366 757.636 29.8622C755.806 29.1774 753.661 29.6489 752.291 31.198C750.921 32.7471 750.696 35.1045 751.707 36.8669L751.741 36.8444Z" fill="#CA8235"/>
<path d="M787.059 124.617C787.059 124.617 786.352 122.585 785.263 122.944C785.263 122.944 783.41 122.608 778.694 126.065C778.694 126.065 773.786 130.544 769.508 128.815C769.059 130.701 767.633 132.295 765.634 132.856C764.084 133.294 762.501 133.013 761.232 132.228C761.58 132.856 761.872 133.541 762.074 134.26C763.467 139.232 760.569 144.385 755.595 145.777C753.63 146.327 751.631 146.203 749.857 145.552C748.071 144.901 746.51 143.711 745.41 142.129C745.41 142.129 742.558 145.204 737.426 143.184C737.426 143.184 732.811 141.017 730.318 144.665C730.318 144.665 728.364 147.584 724.804 148.471C723.558 148.785 722.12 148.841 720.481 148.437C720.324 148.404 720.155 148.359 719.987 148.303C718.022 147.696 716.405 146.136 715.809 144.014C715.798 143.97 715.787 143.913 715.776 143.868C714.933 140.579 716.876 137.212 720.155 136.291C720.2 136.28 720.245 136.269 720.29 136.258C720.537 136.19 720.773 136.145 721.02 136.123C722.334 136.033 723.569 136.875 723.939 138.188C723.973 138.301 723.996 138.424 724.018 138.536C724.13 139.266 723.939 139.996 723.535 140.579C723.535 140.445 723.501 140.321 723.468 140.187C723.187 139.199 722.176 138.626 721.188 138.907C720.728 139.03 720.234 139.345 719.931 140.074C719.762 140.478 719.683 140.916 719.706 141.365C719.706 141.59 719.751 141.825 719.818 142.05C719.886 142.274 719.964 142.488 720.077 142.679C720.728 143.88 722.143 144.52 723.524 144.138C723.546 144.138 723.569 144.127 723.591 144.115C723.591 144.115 726.107 143.97 727.735 140.164C727.735 140.164 728.959 136.808 731.845 135.999C731.845 135.999 733.866 135.393 736.325 137.032C736.325 137.032 739.256 139.019 740.312 133.698C740.222 133.474 740.143 133.238 740.076 133.002C739.065 129.399 741.165 125.661 744.77 124.651C745.32 124.493 745.881 124.415 746.432 124.404C745.881 122.035 747.285 119.622 749.666 118.959C750.755 118.656 751.867 118.768 752.821 119.206C752.72 118.948 752.63 118.69 752.563 118.42C751.339 114.042 753.888 109.496 758.267 108.273C762.647 107.049 767.082 109.541 768.374 113.818C769.564 114.626 770.474 115.85 770.889 117.332C771.271 118.679 771.181 120.037 770.732 121.249C772.877 121.743 774.314 122.922 774.314 122.922C774.314 122.922 776.436 124.841 780.524 122.024C780.524 122.024 787.407 117.814 787.093 124.639L787.059 124.617Z" fill="#CA8235"/>
<path d="M712.439 50.8763C712.439 50.8763 713.023 49.2149 713.91 49.5068C713.91 49.5068 715.426 49.2374 719.301 52.0662C719.301 52.0662 723.332 55.7369 726.835 54.3225C727.206 55.8716 728.374 57.1738 730.013 57.634C731.293 57.9932 732.585 57.7687 733.629 57.1176C733.337 57.634 733.101 58.1953 732.933 58.7902C731.788 62.8651 734.168 67.0971 738.244 68.2421C739.861 68.6911 741.49 68.59 742.949 68.0624C744.409 67.5236 745.689 66.547 746.599 65.2561C746.599 65.2561 748.935 67.7818 753.146 66.1204C753.146 66.1204 756.93 64.3468 758.974 67.3328C758.974 67.3328 760.579 69.7238 763.499 70.4535C764.521 70.7116 765.7 70.7566 767.036 70.431C767.171 70.3973 767.306 70.3637 767.441 70.3188C769.046 69.8248 770.383 68.5339 770.866 66.794C770.866 66.7603 770.888 66.7154 770.899 66.6705C771.584 63.9764 770.001 61.2037 767.306 60.4516C767.272 60.4516 767.227 60.4291 767.194 60.4179C766.991 60.3618 766.789 60.3281 766.598 60.3057C765.52 60.2383 764.51 60.9231 764.207 62.0007C764.184 62.0905 764.162 62.1915 764.15 62.2926C764.061 62.8987 764.207 63.4937 764.543 63.9764C764.543 63.8641 764.566 63.7631 764.6 63.6508C764.824 62.8426 765.666 62.3711 766.475 62.5957C766.845 62.6967 767.261 62.9549 767.508 63.5498C767.643 63.8754 767.71 64.2346 767.699 64.605C767.699 64.7958 767.665 64.9754 767.609 65.1663C767.553 65.3571 767.486 65.5255 767.396 65.6827C766.857 66.6705 765.7 67.1981 764.566 66.8725C764.543 66.8725 764.532 66.8725 764.51 66.8501C764.51 66.8501 762.444 66.7266 761.107 63.6059C761.107 63.6059 760.097 60.8445 757.738 60.1822C757.738 60.1822 756.077 59.6883 754.066 61.0353C754.066 61.0353 751.663 62.663 750.799 58.2963C750.877 58.1055 750.945 57.9146 750.99 57.7238C751.821 54.7715 750.091 51.707 747.138 50.8763C746.678 50.7528 746.228 50.6855 745.768 50.6742C746.217 48.7322 745.061 46.7453 743.118 46.2065C742.22 45.9595 741.321 46.0493 740.535 46.4086C740.614 46.1953 740.692 45.982 740.749 45.7575C741.759 42.1653 739.659 38.4385 736.066 37.4282C732.473 36.4179 728.834 38.4722 727.779 41.9745C726.802 42.6368 726.061 43.6359 725.712 44.8595C725.398 45.9595 725.477 47.0821 725.836 48.0699C724.073 48.474 722.894 49.4394 722.894 49.4394C722.894 49.4394 721.153 51.011 717.796 48.6986C717.796 48.6986 712.147 45.2411 712.406 50.8426L712.439 50.8763Z" fill="#CA8235"/>
<path d="M773.526 207.369C773.425 207.582 773.38 207.705 773.38 207.705C771.572 211.78 767.518 214.643 762.768 214.71C759.085 214.755 755.783 213.116 753.582 210.501C751.763 212.768 748.978 214.25 745.834 214.283C740.264 214.362 735.683 209.894 735.604 204.327C735.582 202.497 736.042 200.768 736.884 199.275C735.907 198.602 735.099 197.692 734.549 196.637C732.404 199.522 728.979 201.408 725.105 201.453C719.434 201.531 714.628 197.647 713.314 192.371C712.573 192.562 711.809 192.663 711.012 192.675C705.487 192.753 700.939 188.33 700.861 182.796C700.782 177.262 705.206 172.727 710.743 172.648C711.854 172.637 712.921 172.805 713.92 173.12C714.965 171.223 716.975 169.932 719.299 169.898C720.31 169.887 721.276 170.111 722.129 170.527C722.634 165.834 726.576 162.141 731.416 162.085C736.256 162.029 740.017 165.352 740.848 169.797C744.296 170.504 746.901 173.535 746.957 177.195C746.957 177.711 746.878 178.62 746.777 179.103C749.899 179.215 750.517 180.203 750.854 181.752C750.91 180.248 752.089 176.218 757.569 176.139C764.172 176.038 766.878 180.158 766.945 185.266C766.968 186.792 766.002 189.307 763.745 190.789C764.8 188.993 763.172 187.039 761.128 186.815C754.189 186.051 754.863 193.82 755.738 195.604C757.198 199.747 761.915 201.689 761.915 201.689C766.429 203.664 771.403 201.509 774.008 199.904C775.188 199.185 775.895 198.579 775.895 198.579C775.895 198.579 780.398 195.155 784.059 195.268C787.967 195.391 790.156 198.983 790.156 198.983C779.915 194.459 774.469 205.281 773.548 207.357L773.526 207.369Z" fill="#CA8235"/>
<path d="M795.859 170.717C795.859 170.717 786.966 166.867 775.86 173.479C775.86 173.479 769.077 176.858 766.27 173.984C766.27 173.984 764.743 172.267 769.751 169.168C769.751 169.168 775.265 166.306 775.939 165.049C775.939 165.049 776.478 164.274 775.209 164.397C775.209 164.397 773.367 164.611 770.279 166.25C770.279 166.25 765.226 168.91 762.868 167.698C762.643 167.765 762.418 167.821 762.183 167.855C759.656 168.248 757.275 166.508 756.882 163.982C756.658 162.568 757.107 161.198 757.994 160.199C756.669 159.559 755.658 158.291 755.423 156.719C755.03 154.182 756.759 151.814 759.297 151.421C760.161 151.286 761.004 151.398 761.756 151.713C762.688 150.433 764.114 149.513 765.81 149.254C769.201 148.727 772.368 151.05 772.895 154.441C773.333 157.236 771.829 159.896 769.381 161.03C769.156 162.164 769.47 163.769 773.255 163.544C773.255 163.544 775.209 163.41 777.96 161.995C777.96 161.995 784.136 158.886 785.18 162.141C785.18 162.141 785.921 164.285 780.655 166.227C780.655 166.227 775.153 168.416 777.073 169.786C777.073 169.786 778.151 170.818 781.688 169.348C781.688 169.348 790.604 166.497 795.837 170.74L795.859 170.717Z" fill="#CA8235"/>
<path d="M730.491 107.734C739.082 106.622 742.653 96.3849 742.653 96.3849C745.831 90.2333 751.018 91.6028 751.018 91.6028C754.994 92.5907 757.127 92.0406 757.127 92.0406C757.835 91.9845 758.542 91.8049 759.227 91.4906C761.293 90.5364 762.573 88.5607 762.731 86.4391C761.439 86.4953 760.17 86.1361 759.104 85.4401C758.194 84.8339 757.43 83.992 756.936 82.9256C756.487 81.949 756.319 80.9274 756.397 79.9396C756.555 77.818 757.823 75.8311 759.901 74.8769C761.978 73.9228 764.325 74.2259 766.055 75.5056C766.672 74.0126 767.84 72.7441 769.423 72.0144C772.781 70.4541 776.767 71.9246 778.328 75.281C778.744 76.1791 778.946 77.122 778.946 78.0537C781.652 77.7619 784.358 79.1875 785.56 81.7918C787.076 85.0584 785.65 88.9312 782.382 90.4466C781.371 90.9181 780.305 91.0977 779.26 91.0416C779.709 94.3531 777.98 97.7095 774.78 99.1912C772.163 100.404 769.21 100.044 766.998 98.5065C762.607 98.9892 761.091 101.56 761.091 101.56C761.091 101.56 758.138 105.781 752.108 104.187C752.108 104.187 750.143 103.457 747.178 105.814C741.552 111.012 737.162 110.81 737.162 110.81C729.29 110.506 726.797 111.382 726.797 111.382C724.877 111.73 725.146 114.009 725.146 114.009C722.305 108.856 730.514 107.745 730.514 107.745L730.491 107.734Z" fill="#CA8235"/>
</g>
<path d="M742.94 6.07297V12.449C742.94 12.449 748.454 6.37605 760.469 6.37605C772.484 6.37605 777.998 12.449 777.998 12.449V6.07297C777.998 6.07297 772.484 0 760.469 0C748.454 0 742.94 6.07297 742.94 6.07297Z" fill="#6C5F51"/>
</svg>
