<svg width="366" height="93" viewBox="0 0 366 93" fill="none" xmlns="http://www.w3.org/2000/svg">
<rect width="318" height="72" transform="translate(24 11.0017)" fill="#FFF2E3"/>
<g clip-path="url(#clip0_3841_31499)">
<path d="M23.712 85.8247C19.0577 85.8247 16.9219 88.178 16.9219 88.178C16.9219 88.178 19.0577 90.5313 23.712 90.5313C28.3664 90.5313 30.5021 88.178 30.5021 88.178C30.5021 88.178 28.3664 85.8247 23.712 85.8247Z" fill="#443C31"/>
<path d="M17.8457 46.501V89.9691C17.8457 89.9691 19.69 92.0005 23.7137 92.0005C27.7373 92.0005 29.5816 89.9691 29.5816 89.9691V46.501" fill="#DCC2A5"/>
<path d="M30.5021 90.6489V88.1782C30.5021 88.1782 28.3664 90.5315 23.712 90.5315C19.0577 90.5315 16.9219 88.1782 16.9219 88.1782V90.6489C16.9219 90.6489 19.0577 93.0022 23.712 93.0022C28.3664 93.0022 30.5021 90.6489 30.5021 90.6489Z" fill="#6C5F51"/>
<path d="M30.5021 4.82569C30.5021 4.82569 28.3664 7.17896 23.712 7.17896C19.0577 7.17896 16.9219 4.82569 16.9219 4.82569C16.9219 4.82569 19.0577 2.47241 23.712 2.47241C28.3664 2.47241 30.5021 4.82569 30.5021 4.82569Z" fill="#443C31"/>
<path d="M29.5816 3.03383V46.502H17.8457V3.03383C17.8457 3.03383 19.69 1.00244 23.7137 1.00244C27.7373 1.00244 29.5816 3.03383 29.5816 3.03383Z" fill="#DCC2A5"/>
<path d="M32.2648 8.92295V84.0798C32.2648 84.0798 29.5766 87.0421 23.713 87.0421C17.8493 87.0421 15.1611 84.0798 15.1611 84.0798V8.92295C15.1611 8.92295 17.8493 5.96069 23.713 5.96069C29.5766 5.96069 32.2648 8.92295 32.2648 8.92295Z" fill="#D49D31"/>
<path d="M32.8323 12.5254V80.4789C32.8323 80.4789 29.9657 83.6369 23.715 83.6369C17.4642 83.6369 14.5977 80.4789 14.5977 80.4789V12.5254C14.5977 12.5254 17.4642 9.36743 23.715 9.36743C29.9657 9.36743 32.8323 12.5254 32.8323 12.5254Z" fill="#EECB87"/>
<path d="M30.5021 2.35498V4.8257C30.5021 4.8257 28.3664 2.47243 23.712 2.47243C19.0577 2.47243 16.9219 4.8257 16.9219 4.8257V2.35498C16.9219 2.35498 19.0577 0.00170898 23.712 0.00170898C28.3664 0.00170898 30.5021 2.35498 30.5021 2.35498Z" fill="#6C5F51"/>
</g>
<g clip-path="url(#clip1_3841_31499)">
<path d="M342.087 85.8247C346.741 85.8247 348.877 88.178 348.877 88.178C348.877 88.178 346.741 90.5313 342.087 90.5313C337.432 90.5313 335.297 88.178 335.297 88.178C335.297 88.178 337.432 85.8247 342.087 85.8247Z" fill="#443C31"/>
<path d="M347.951 46.501V89.9691C347.951 89.9691 346.107 92.0005 342.083 92.0005C338.06 92.0005 336.215 89.9691 336.215 89.9691V46.501" fill="#DCC2A5"/>
<path d="M335.297 90.6489V88.1782C335.297 88.1782 337.432 90.5315 342.087 90.5315C346.741 90.5315 348.877 88.1782 348.877 88.1782V90.6489C348.877 90.6489 346.741 93.0022 342.087 93.0022C337.432 93.0022 335.297 90.6489 335.297 90.6489Z" fill="#6C5F51"/>
<path d="M335.297 4.82569C335.297 4.82569 337.432 7.17896 342.087 7.17896C346.741 7.17896 348.877 4.82569 348.877 4.82569C348.877 4.82569 346.741 2.47241 342.087 2.47241C337.432 2.47241 335.297 4.82569 335.297 4.82569Z" fill="#443C31"/>
<path d="M336.215 3.03383V46.502H347.951V3.03383C347.951 3.03383 346.107 1.00244 342.083 1.00244C338.06 1.00244 336.215 3.03383 336.215 3.03383Z" fill="#DCC2A5"/>
<path d="M333.533 8.92295V84.0798C333.533 84.0798 336.221 87.0421 342.085 87.0421C347.949 87.0421 350.637 84.0798 350.637 84.0798V8.92295C350.637 8.92295 347.949 5.96069 342.085 5.96069C336.221 5.96069 333.533 8.92295 333.533 8.92295Z" fill="#D49D31"/>
<path d="M332.967 12.5254V80.4789C332.967 80.4789 335.833 83.6369 342.084 83.6369C348.335 83.6369 351.201 80.4789 351.201 80.4789V12.5254C351.201 12.5254 348.335 9.36743 342.084 9.36743C335.833 9.36743 332.967 12.5254 332.967 12.5254Z" fill="#EECB87"/>
<path d="M335.297 2.35498V4.8257C335.297 4.8257 337.432 2.47243 342.087 2.47243C346.741 2.47243 348.877 4.8257 348.877 4.8257V2.35498C348.877 2.35498 346.741 0.00170898 342.087 0.00170898C337.432 0.00170898 335.297 2.35498 335.297 2.35498Z" fill="#6C5F51"/>
</g>
<defs>
<clipPath id="clip0_3841_31499">
<rect width="36.7998" height="93" fill="white" transform="translate(10.001 0.00170898)"/>
</clipPath>
<clipPath id="clip1_3841_31499">
<rect width="36.7998" height="93" fill="white" transform="matrix(-1 0 0 1 355.797 0.00170898)"/>
</clipPath>
</defs>
</svg>
