<svg width="93" height="275" viewBox="0 0 93 275" fill="none" xmlns="http://www.w3.org/2000/svg">
<rect width="264" height="65" transform="translate(14.001 269.802) rotate(-90)" fill="#FFF2E3"/>
<g clip-path="url(#clip0_3841_31521)">
<path d="M85.8242 260.891C85.8242 265.545 88.1775 267.681 88.1775 267.681C88.1775 267.681 90.5308 265.545 90.5308 260.891C90.5308 256.236 88.1775 254.1 88.1775 254.1C88.1775 254.1 85.8242 256.236 85.8242 260.891Z" fill="#443C31"/>
<path d="M46.5 266.756L89.9681 266.756C89.9681 266.756 91.9995 264.912 91.9995 260.888C91.9995 256.865 89.9681 255.02 89.9681 255.02L46.5 255.02" fill="#DCC2A5"/>
<path d="M90.6485 254.1L88.1777 254.1C88.1777 254.1 90.531 256.236 90.531 260.891C90.531 265.545 88.1777 267.681 88.1777 267.681L90.6485 267.681C90.6485 267.681 93.0017 265.545 93.0017 260.891C93.0017 256.236 90.6485 254.1 90.6485 254.1Z" fill="#6C5F51"/>
<path d="M4.82495 254.1C4.82495 254.1 7.17823 256.236 7.17823 260.891C7.17823 265.545 4.82495 267.681 4.82495 267.681C4.82495 267.681 2.47168 265.545 2.47168 260.891C2.47168 256.236 4.82495 254.1 4.82495 254.1Z" fill="#443C31"/>
<path d="M3.03334 255.02L46.5015 255.02L46.5015 266.756L3.03334 266.756C3.03334 266.756 1.00195 264.912 1.00195 260.888C1.00195 256.865 3.03334 255.02 3.03334 255.02Z" fill="#DCC2A5"/>
<path d="M8.92221 252.337L84.0791 252.337C84.0791 252.337 87.0413 255.025 87.0413 260.889C87.0413 266.753 84.0791 269.441 84.0791 269.441L8.92222 269.441C8.92222 269.441 5.95996 266.753 5.95996 260.889C5.95996 255.025 8.92221 252.337 8.92221 252.337Z" fill="#D49D31"/>
<path d="M12.5252 251.771L80.4787 251.771C80.4787 251.771 83.6367 254.637 83.6367 260.888C83.6367 267.139 80.4787 270.005 80.4787 270.005L12.5252 270.005C12.5252 270.005 9.36719 267.139 9.36719 260.888C9.36719 254.637 12.5252 251.771 12.5252 251.771Z" fill="#EECB87"/>
<path d="M2.35425 254.1L4.82497 254.1C4.82497 254.1 2.4717 256.236 2.4717 260.891C2.4717 265.545 4.82497 267.681 4.82497 267.681L2.35425 267.681C2.35425 267.681 0.000976469 265.545 0.000976266 260.891C0.000976062 256.236 2.35425 254.1 2.35425 254.1Z" fill="#6C5F51"/>
</g>
<g clip-path="url(#clip1_3841_31521)">
<path d="M85.8252 13.7144C85.8252 9.0601 88.1785 6.92432 88.1785 6.92432C88.1785 6.92432 90.5317 9.0601 90.5317 13.7144C90.5317 18.3688 88.1785 20.5046 88.1785 20.5046C88.1785 20.5046 85.8252 18.3688 85.8252 13.7144Z" fill="#443C31"/>
<path d="M46.501 7.84863L89.9691 7.84863C89.9691 7.84863 92.0005 9.69297 92.0005 13.7166C92.0005 17.7402 89.9691 19.5846 89.9691 19.5846L46.501 19.5846" fill="#DCC2A5"/>
<path d="M90.6494 20.5046L88.1787 20.5046C88.1787 20.5046 90.532 18.3688 90.532 13.7144C90.532 9.0601 88.1787 6.92432 88.1787 6.92432L90.6494 6.92432C90.6494 6.92432 93.0027 9.0601 93.0027 13.7144C93.0027 18.3688 90.6494 20.5046 90.6494 20.5046Z" fill="#6C5F51"/>
<path d="M4.82593 20.5046C4.82593 20.5046 7.17921 18.3688 7.1792 13.7144C7.1792 9.0601 4.82593 6.92432 4.82593 6.92432C4.82593 6.92432 2.47266 9.0601 2.47266 13.7144C2.47266 18.3688 4.82593 20.5046 4.82593 20.5046Z" fill="#443C31"/>
<path d="M3.03431 19.5846L46.5025 19.5846L46.5025 7.84863L3.03431 7.84863C3.03431 7.84863 1.00293 9.69297 1.00293 13.7166C1.00293 17.7402 3.03431 19.5846 3.03431 19.5846Z" fill="#DCC2A5"/>
<path d="M8.92319 22.2677L84.0801 22.2677C84.0801 22.2677 87.0423 19.5795 87.0423 13.7159C87.0423 7.85227 84.0801 5.16406 84.0801 5.16406L8.92319 5.16406C8.92319 5.16406 5.96094 7.85228 5.96094 13.7159C5.96094 19.5795 8.92319 22.2677 8.92319 22.2677Z" fill="#D49D31"/>
<path d="M12.5262 22.8345L80.4797 22.8345C80.4797 22.8345 83.6377 19.9679 83.6377 13.7172C83.6377 7.46641 80.4797 4.59985 80.4797 4.59985L12.5262 4.59985C12.5262 4.59985 9.36816 7.46641 9.36816 13.7172C9.36816 19.9679 12.5262 22.8345 12.5262 22.8345Z" fill="#EECB87"/>
<path d="M2.35523 20.5046L4.82595 20.5046C4.82595 20.5046 2.47267 18.3688 2.47267 13.7144C2.47267 9.0601 4.82595 6.92432 4.82595 6.92432L2.35523 6.92432C2.35523 6.92432 0.00195322 9.0601 0.00195342 13.7144C0.00195363 18.3688 2.35523 20.5046 2.35523 20.5046Z" fill="#6C5F51"/>
</g>
<defs>
<clipPath id="clip0_3841_31521">
<rect width="36.7998" height="93" fill="white" transform="translate(0.000976562 274.601) rotate(-90)"/>
</clipPath>
<clipPath id="clip1_3841_31521">
<rect width="36.7998" height="93" fill="white" transform="matrix(4.37114e-08 1 1 -4.37114e-08 0.00195312 0.00366211)"/>
</clipPath>
</defs>
</svg>
