<svg width="48" height="240" viewBox="0 0 48 240" fill="none" xmlns="http://www.w3.org/2000/svg">
<path d="M23.529 221.477C11.5136 221.477 6 227.55 6 227.55C6 227.55 11.5136 233.622 23.529 233.622C35.5443 233.622 41.0579 227.55 41.0579 227.55C41.0579 227.55 35.5443 221.477 23.529 221.477Z" fill="#443C31"/>
<path d="M8.38672 120V232.176C8.38672 232.176 13.1479 237.418 23.5351 237.418C33.9222 237.418 38.6834 232.176 38.6834 232.176V120" fill="#DCC2A5"/>
<path d="M41.0579 233.931V227.555C41.0579 227.555 35.5443 233.628 23.529 233.628C11.5136 233.628 6 227.555 6 227.555V233.931C6 233.931 11.5136 240.004 23.529 240.004C35.5443 240.004 41.0579 233.931 41.0579 233.931Z" fill="#6C5F51"/>
<path d="M41.0579 12.448C41.0579 12.448 35.5443 18.5209 23.529 18.5209C11.5136 18.5209 6 12.448 6 12.448C6 12.448 11.5136 6.375 23.529 6.375C35.5443 6.375 41.0579 12.448 41.0579 12.448Z" fill="#443C31"/>
<path d="M38.6834 7.82041V119.996H8.38672V7.82041C8.38672 7.82041 13.1479 2.57812 23.5351 2.57812C33.9222 2.57812 38.6834 7.82041 38.6834 7.82041Z" fill="#DCC2A5"/>
<path d="M45.6107 23.0195V216.973C45.6107 216.973 38.671 224.617 23.5339 224.617C8.39675 224.617 1.45703 216.973 1.45703 216.973V23.0195C1.45703 23.0195 8.39675 15.375 23.5339 15.375C38.671 15.375 45.6107 23.0195 45.6107 23.0195Z" fill="#D49D31"/>
<path d="M47.0733 32.3215V207.685C47.0733 207.685 39.6732 215.835 23.5366 215.835C7.40012 215.835 0 207.685 0 207.685V32.3215C0 32.3215 7.40012 24.1719 23.5366 24.1719C39.6732 24.1719 47.0733 32.3215 47.0733 32.3215Z" fill="#EECB87"/>
<mask id="mask0_4281_16042" style="mask-type:luminance" maskUnits="userSpaceOnUse" x="0" y="24" width="48" height="192">
<path d="M47.0791 32.3215V207.685C47.0791 207.685 39.679 215.835 23.5425 215.835C7.40598 215.835 0.00585938 207.685 0.00585938 207.685V32.3215C0.00585938 32.3215 7.40598 24.1719 23.5425 24.1719C39.679 24.1719 47.0791 32.3215 47.0791 32.3215Z" fill="white"/>
</mask>
<g mask="url(#mask0_4281_16042)">
<path d="M32.2592 36.8432C33.4158 37.1351 34.5051 37.7637 35.3698 38.7291C37.6268 41.2772 37.391 45.1725 34.8532 47.4288C33.2811 48.8207 31.1924 49.2698 29.2947 48.7983C28.969 49.6851 28.4188 50.5046 27.6552 51.1781C26.2852 52.4017 24.511 52.8731 22.8154 52.6262C22.5459 53.0078 22.2427 53.3783 21.8721 53.7038C20.9064 54.5569 19.7385 55.0396 18.5482 55.1743C18.4696 55.1856 18.391 55.1856 18.3237 55.1968C18.2338 55.1968 18.1328 55.208 18.0429 55.208C17.9194 55.208 17.7846 55.208 17.6611 55.208C17.605 55.208 17.5488 55.208 17.4927 55.208C17.313 55.208 17.1446 55.1743 16.9761 55.1519C14.4383 54.7702 12.6865 52.9742 12.6865 52.9742C10.553 51.1332 8.84611 51.571 7.75686 52.2894C7.75686 52.2894 7.70072 52.3343 7.6558 52.368C7.63334 52.3904 7.59965 52.4017 7.56596 52.4353C7.52105 52.4578 7.48736 52.4915 7.45367 52.5251C7.40876 52.5588 7.36384 52.5925 7.33015 52.6262L7.28523 52.6711C6.64516 53.2885 5.66821 54.7365 6.1623 57.6327C6.1623 57.6327 6.20722 61.8759 -0.878479 62.9423C-0.878479 62.9423 -7.29042 63.1556 -6.18994 69.4868C-6.18994 69.4868 -8.98604 64.8507 -3.88793 61.7412C-3.88793 61.7412 0.648708 60.1472 -0.687581 56.0162C-0.687581 56.0162 -2.14739 52.8507 -1.59715 50.1566C-1.48486 49.5841 -1.22659 48.686 -0.923396 48.0013C-0.923396 48.0013 1.37861 43.5897 6.15107 44.3081C6.15107 44.3081 10.4744 45.0827 11.6534 41.7375C11.6534 41.7375 12.0689 40.3006 10.9348 39.0322C9.8006 38.28 8.26218 38.3474 7.20663 39.2903C6.82483 39.6271 6.5441 40.0424 6.38689 40.4802C6.06124 38.6505 6.66762 36.6973 8.16112 35.3727C8.43062 35.1369 8.71136 34.9349 9.00332 34.7553C7.98145 32.8357 8.36325 30.3998 10.0701 28.8956C11.9791 27.2118 14.8426 27.3016 16.6393 29.0527C16.8189 28.8394 17.021 28.6262 17.2344 28.4353C19.7049 26.2351 23.5004 26.4597 25.7013 28.9405C25.9596 29.2323 26.1729 29.5354 26.3638 29.861C28.1942 29.1762 30.339 29.6477 31.709 31.1968C33.079 32.7459 33.3036 35.1032 32.2929 36.8656L32.2592 36.8432Z" fill="#CA8235"/>
<path d="M-3.05937 124.617C-3.05937 124.617 -2.35193 122.585 -1.26269 122.944C-1.26269 122.944 0.590152 122.607 5.30646 126.065C5.30646 126.065 10.2137 130.544 14.492 128.815C14.9412 130.701 16.3673 132.295 18.3662 132.856C19.9158 133.294 21.4991 133.013 22.768 132.227C22.4199 132.856 22.128 133.541 21.9258 134.259C20.5334 139.232 23.4306 144.385 28.4052 145.777C30.3703 146.327 32.3691 146.203 34.1433 145.552C35.9288 144.901 37.4897 143.711 38.5901 142.128C38.5901 142.128 41.4424 145.204 46.5742 143.183C46.5742 143.183 51.1894 141.017 53.6823 144.665C53.6823 144.665 55.6362 147.584 59.1959 148.471C60.4424 148.785 61.8797 148.841 63.5192 148.437C63.6764 148.403 63.8449 148.358 64.0133 148.302C65.9784 147.696 67.5955 146.136 68.1906 144.014C68.2019 143.969 68.2131 143.913 68.2243 143.868C69.0665 140.579 67.1238 137.212 63.8449 136.291C63.8 136.28 63.755 136.269 63.7101 136.257C63.4631 136.19 63.2273 136.145 62.9802 136.123C61.6664 136.033 60.4312 136.875 60.0606 138.188C60.0269 138.3 60.0044 138.424 59.982 138.536C59.8697 139.266 60.0606 139.995 60.4649 140.579C60.4649 140.444 60.4985 140.321 60.5322 140.186C60.813 139.198 61.8236 138.626 62.8118 138.907C63.2722 139.03 63.7663 139.344 64.0695 140.074C64.2379 140.478 64.3165 140.916 64.294 141.365C64.294 141.589 64.2491 141.825 64.1818 142.05C64.1144 142.274 64.0358 142.488 63.9235 142.678C63.2722 143.879 61.8573 144.519 60.4761 144.138C60.4536 144.138 60.4312 144.126 60.4087 144.115C60.4087 144.115 57.8933 143.969 56.2651 140.164C56.2651 140.164 55.0411 136.807 52.1552 135.999C52.1552 135.999 50.1339 135.393 47.6747 137.032C47.6747 137.032 44.7438 139.019 43.6883 133.698C43.7781 133.473 43.8567 133.238 43.9241 133.002C44.9347 129.399 42.8348 125.661 39.2302 124.65C38.68 124.493 38.1185 124.415 37.5683 124.403C38.1185 122.035 36.7149 119.621 34.3342 118.959C33.245 118.656 32.1333 118.768 31.1788 119.206C31.2799 118.948 31.3697 118.69 31.4371 118.42C32.6611 114.042 30.112 109.496 25.7326 108.272C21.3532 107.049 16.9176 109.541 15.6262 113.818C14.4359 114.626 13.5263 115.85 13.1108 117.331C12.729 118.678 12.8189 120.037 13.268 121.249C11.1232 121.743 9.6859 122.922 9.6859 122.922C9.6859 122.922 7.56356 124.841 3.47609 122.024C3.47609 122.024 -3.40748 117.814 -3.09306 124.639L-3.05937 124.617Z" fill="#CA8235"/>
<path d="M71.5606 50.8775C71.5606 50.8775 70.9767 49.2161 70.0896 49.508C70.0896 49.508 68.5736 49.2386 64.6995 52.0674C64.6995 52.0674 60.6682 55.7381 57.1646 54.3237C56.794 55.8728 55.6262 57.175 53.9867 57.6352C52.7066 57.9944 51.4152 57.7699 50.3709 57.1189C50.6628 57.6352 50.8987 58.1965 51.0671 58.7914C52.2125 62.8663 49.8319 67.0983 45.7556 68.2433C44.1386 68.6923 42.5104 68.5913 41.0505 68.0637C39.5907 67.5248 38.3106 66.5482 37.401 65.2573C37.401 65.2573 35.0653 67.783 30.8543 66.1217C30.8543 66.1217 27.07 64.348 25.0263 67.334C25.0263 67.334 23.4205 69.725 20.5009 70.4547C19.479 70.7129 18.3 70.7578 16.9637 70.4322C16.8289 70.3986 16.6942 70.3649 16.5594 70.32C14.9536 69.8261 13.6173 68.5351 13.1345 66.7952C13.1345 66.7615 13.112 66.7166 13.1008 66.6717C12.4158 63.9776 13.9991 61.2049 16.6942 60.4528C16.7278 60.4528 16.7728 60.4304 16.8065 60.4191C17.0086 60.363 17.2107 60.3293 17.4016 60.3069C18.4796 60.2395 19.4903 60.9243 19.7934 62.0019C19.8159 62.0917 19.8384 62.1928 19.8496 62.2938C19.9394 62.9 19.7934 63.4949 19.4566 63.9776C19.4566 63.8654 19.4341 63.7643 19.4004 63.6521C19.1758 62.8438 18.3336 62.3724 17.5251 62.5969C17.1546 62.6979 16.7391 62.9561 16.492 63.551C16.3573 63.8766 16.2899 64.2358 16.3011 64.6062C16.3011 64.7971 16.3348 64.9767 16.391 65.1675C16.4471 65.3583 16.5145 65.5267 16.6043 65.6839C17.1433 66.6717 18.3 67.1993 19.4341 66.8738C19.4566 66.8738 19.4678 66.8738 19.4903 66.8513C19.4903 66.8513 21.5565 66.7278 22.8927 63.6072C22.8927 63.6072 23.9034 60.8457 26.2615 60.1834C26.2615 60.1834 27.9235 59.6895 29.9335 61.0365C29.9335 61.0365 32.3366 62.6642 33.2013 58.2975C33.1226 58.1067 33.0553 57.9159 33.0104 57.725C32.1794 54.7727 33.9087 51.7082 36.862 50.8775C37.3224 50.754 37.7716 50.6867 38.232 50.6755C37.7828 48.7335 38.9394 46.7465 40.8821 46.2077C41.7804 45.9608 42.6788 46.0506 43.4648 46.4098C43.3862 46.1965 43.3076 45.9832 43.2515 45.7587C42.2409 42.1666 44.3407 38.4397 47.9341 37.4294C51.5275 36.4191 55.1658 38.4734 56.2213 41.9757C57.1983 42.638 57.9394 43.6371 58.2875 44.8607C58.602 45.9608 58.5234 47.0833 58.164 48.0711C59.927 48.4753 61.1061 49.4407 61.1061 49.4407C61.1061 49.4407 62.8466 51.0122 66.2042 48.6998C66.2042 48.6998 71.8526 45.2423 71.5943 50.8438L71.5606 50.8775Z" fill="#CA8235"/>
<path d="M10.4744 207.37C10.5754 207.583 10.6203 207.707 10.6203 207.707C12.4283 211.782 16.482 214.644 21.232 214.712C24.9153 214.756 28.2167 213.118 30.4176 210.502C32.2368 212.77 35.0216 214.251 38.1659 214.285C43.7356 214.364 48.3172 209.896 48.3958 204.328C48.4182 202.498 47.9578 200.77 47.1156 199.277C48.0926 198.603 48.9011 197.694 49.4513 196.639C51.5961 199.523 55.021 201.409 58.8952 201.454C64.566 201.533 69.3721 197.649 70.6859 192.373C71.4271 192.564 72.1907 192.665 72.9879 192.676C78.5128 192.755 83.0606 188.332 83.1393 182.798C83.2178 177.263 78.7935 172.728 73.2575 172.65C72.1458 172.639 71.079 172.807 70.0796 173.121C69.0352 171.224 67.0252 169.933 64.7007 169.9C63.6901 169.888 62.7244 170.113 61.8709 170.528C61.3656 165.836 57.4241 162.143 52.5843 162.087C47.7445 162.031 43.9826 165.353 43.1517 169.799C39.7043 170.506 37.0991 173.537 37.0429 177.196C37.0429 177.712 37.1215 178.622 37.2226 179.104C34.1008 179.217 33.4832 180.205 33.1463 181.754C33.0902 180.249 31.9111 176.219 26.4312 176.141C19.8284 176.04 17.1221 180.16 17.0547 185.267C17.0323 186.794 17.998 189.308 20.2551 190.79C19.1995 188.994 20.8278 187.041 22.8715 186.816C29.8112 186.053 29.1375 193.821 28.2616 195.606C26.8018 199.748 22.0855 201.69 22.0855 201.69C17.5713 203.666 12.5967 201.51 9.9915 199.905C8.81242 199.187 8.10498 198.581 8.10498 198.581C8.10498 198.581 3.60202 195.157 -0.0587325 195.269C-3.96653 195.393 -6.15625 198.985 -6.15625 198.985C4.08488 194.461 9.5311 205.282 10.4519 207.359L10.4744 207.37Z" fill="#CA8235"/>
<path d="M-11.8594 170.717C-11.8594 170.717 -2.96576 166.867 8.14003 173.479C8.14003 173.479 14.9225 176.858 17.7299 173.984C17.7299 173.984 19.2571 172.267 14.2488 169.168C14.2488 169.168 8.73519 166.306 8.06143 165.049C8.06143 165.049 7.52242 164.274 8.79133 164.397C8.79133 164.397 10.6329 164.611 13.721 166.25C13.721 166.25 18.7742 168.91 21.1324 167.698C21.3569 167.765 21.5815 167.821 21.8173 167.855C24.3439 168.248 26.7245 166.508 27.1176 163.982C27.3422 162.568 26.893 161.198 26.0059 160.199C27.3309 159.559 28.3416 158.291 28.5774 156.719C28.9704 154.182 27.2411 151.814 24.7033 151.421C23.8386 151.286 22.9964 151.398 22.2441 151.713C21.312 150.433 19.8859 149.513 18.1903 149.254C14.799 148.727 11.6324 151.05 11.1046 154.441C10.6666 157.236 12.1714 159.896 14.6193 161.03C14.8439 162.164 14.5295 163.769 10.7452 163.544C10.7452 163.544 8.79133 163.41 6.04015 161.995C6.04015 161.995 -0.13597 158.886 -1.1803 162.141C-1.1803 162.141 -1.92143 164.285 3.34512 166.227C3.34512 166.227 8.84748 168.416 6.92727 169.786C6.92727 169.786 5.84925 170.818 2.31202 169.348C2.31202 169.348 -6.60406 166.497 -11.8369 170.74L-11.8594 170.717Z" fill="#CA8235"/>
<path d="M53.5087 107.734C44.9183 106.622 41.3474 96.3846 41.3474 96.3846C38.1695 90.2331 32.9815 91.6026 32.9815 91.6026C29.0063 92.5904 26.8728 92.0404 26.8728 92.0404C26.1653 91.9843 25.4579 91.8047 24.7729 91.4903C22.7067 90.5362 21.4266 88.5605 21.2694 86.4389C22.5607 86.495 23.8296 86.1358 24.8964 85.4398C25.806 84.8337 26.5696 83.9917 27.0637 82.9253C27.5128 81.9487 27.6813 80.9272 27.6027 79.9394C27.4455 77.8178 26.1766 75.8308 24.0991 74.8767C22.0217 73.9225 19.6748 74.2256 17.9455 75.5053C17.3279 74.0123 16.16 72.7439 14.5767 72.0142C11.2191 70.4539 7.23271 71.9244 5.67183 75.2808C5.25635 76.1788 5.05422 77.1218 5.05422 78.0535C2.34796 77.7616 -0.35831 79.1873 -1.55985 81.7916C-3.0758 85.0582 -1.64968 88.9309 1.61805 90.4464C2.62869 90.9178 3.69547 91.0975 4.7398 91.0413C4.29063 94.3528 6.01994 97.7092 9.2203 99.191C11.8367 100.403 14.79 100.044 17.0022 98.5062C21.3929 98.9889 22.9088 101.56 22.9088 101.56C22.9088 101.56 25.8621 105.78 31.8923 104.186C31.8923 104.186 33.8574 103.457 36.8219 105.814C42.4478 111.011 46.8385 110.809 46.8385 110.809C54.7103 110.506 57.2032 111.382 57.2032 111.382C59.1234 111.73 58.8539 114.009 58.8539 114.009C61.6949 108.856 53.4863 107.745 53.4863 107.745L53.5087 107.734Z" fill="#CA8235"/>
</g>
<path d="M41.0579 6.07297V12.449C41.0579 12.449 35.5443 6.37605 23.529 6.37605C11.5136 6.37605 6 12.449 6 12.449V6.07297C6 6.07297 11.5136 0 23.529 0C35.5443 0 41.0579 6.07297 41.0579 6.07297Z" fill="#6C5F51"/>
</svg>
