<svg width="37" height="93" viewBox="0 0 37 93" fill="none" xmlns="http://www.w3.org/2000/svg">
<g clip-path="url(#clip0_4281_16086)">
<path d="M13.7101 85.8203C9.0557 85.8203 6.91992 88.1736 6.91992 88.1736C6.91992 88.1736 9.0557 90.5269 13.7101 90.5269C18.3644 90.5269 20.5002 88.1736 20.5002 88.1736C20.5002 88.1736 18.3644 85.8203 13.7101 85.8203Z" fill="#443C31"/>
<path d="M7.8457 46.5V89.9681C7.8457 89.9681 9.69004 91.9995 13.7137 91.9995C17.7373 91.9995 19.5816 89.9681 19.5816 89.9681V46.5" fill="#DCC2A5"/>
<path d="M20.5002 90.6504V88.1797C20.5002 88.1797 18.3644 90.533 13.7101 90.533C9.0557 90.533 6.91992 88.1797 6.91992 88.1797V90.6504C6.91992 90.6504 9.0557 93.0037 13.7101 93.0037C18.3644 93.0037 20.5002 90.6504 20.5002 90.6504Z" fill="#6C5F51"/>
<path d="M20.5002 4.82202C20.5002 4.82202 18.3644 7.1753 13.7101 7.1753C9.0557 7.1753 6.91992 4.82202 6.91992 4.82202C6.91992 4.82202 9.0557 2.46875 13.7101 2.46875C18.3644 2.46875 20.5002 4.82202 20.5002 4.82202Z" fill="#443C31"/>
<path d="M19.5816 3.03138V46.4995H7.8457V3.03138C7.8457 3.03138 9.69004 1 13.7137 1C17.7373 1 19.5816 3.03138 19.5816 3.03138Z" fill="#DCC2A5"/>
<path d="M22.2638 8.92319V84.0801C22.2638 84.0801 19.5756 87.0423 13.712 87.0423C7.84837 87.0423 5.16016 84.0801 5.16016 84.0801V8.92319C5.16016 8.92319 7.84837 5.96094 13.712 5.96094C19.5756 5.96094 22.2638 8.92319 22.2638 8.92319Z" fill="#D49D31"/>
<path d="M22.8303 12.5252V80.4787C22.8303 80.4787 19.9638 83.6367 13.713 83.6367C7.46226 83.6367 4.5957 80.4787 4.5957 80.4787V12.5252C4.5957 12.5252 7.46226 9.36719 13.713 9.36719C19.9638 9.36719 22.8303 12.5252 22.8303 12.5252Z" fill="#EECB87"/>
<path d="M20.5002 2.35327V4.82399C20.5002 4.82399 18.3644 2.47072 13.7101 2.47072C9.0557 2.47072 6.91992 4.82399 6.91992 4.82399V2.35327C6.91992 2.35327 9.0557 0 13.7101 0C18.3644 0 20.5002 2.35327 20.5002 2.35327Z" fill="#6C5F51"/>
</g>
<defs>
<clipPath id="clip0_4281_16086">
<rect width="36.7998" height="93" fill="white"/>
</clipPath>
</defs>
</svg>
