<svg width="180" height="107" viewBox="0 0 180 107" fill="none" xmlns="http://www.w3.org/2000/svg">
<path d="M95.3956 18.4937L96.9656 27.6938V27.7138C99.9556 34.5238 106.766 39.2738 114.676 39.2738C125.356 39.2738 134.016 30.6138 134.016 19.9338C134.016 15.9037 132.776 12.1637 130.666 9.06375L125.166 3.69375C122.146 1.73375 118.546 0.59375 114.676 0.59375C104.476 0.59375 96.1256 8.48375 95.3956 18.4937Z" fill="#FA9632"/>
<path d="M95.3956 18.4937L96.9656 27.6938V27.7138C99.9556 34.5238 106.766 39.2738 114.676 39.2738C125.356 39.2738 134.016 30.6138 134.016 19.9338C134.016 15.9037 132.776 12.1637 130.666 9.06375L125.166 3.69375C122.146 1.73375 118.546 0.59375 114.676 0.59375C104.476 0.59375 96.1256 8.48375 95.3956 18.4937Z" fill="url(#paint0_linear_4555_24984)" fill-opacity="0.8"/>
<path d="M95.3956 18.4937L96.9656 27.6938V27.7138C99.9556 34.5238 106.766 39.2738 114.676 39.2738C125.356 39.2738 134.016 30.6138 134.016 19.9338C134.016 15.9037 132.776 12.1637 130.666 9.06375L125.166 3.69375C122.146 1.73375 118.546 0.59375 114.676 0.59375C104.476 0.59375 96.1256 8.48375 95.3956 18.4937Z" fill="url(#paint1_linear_4555_24984)" fill-opacity="0.8"/>
<path d="M95.3956 18.4937L96.9656 27.6938V27.7138C99.9556 34.5238 106.766 39.2738 114.676 39.2738C125.356 39.2738 134.016 30.6138 134.016 19.9338C134.016 15.9037 132.776 12.1637 130.666 9.06375L125.166 3.69375C122.146 1.73375 118.546 0.59375 114.676 0.59375C104.476 0.59375 96.1256 8.48375 95.3956 18.4937Z" fill="url(#paint2_radial_4555_24984)" fill-opacity="0.6"/>
<path d="M116.375 3.51562C105.694 3.51562 97.0352 12.1744 97.0352 22.8555C97.0352 24.2404 97.1823 25.5911 97.459 26.8936L101.136 49.1807L114.979 42.1445C115.44 42.1774 115.905 42.1953 116.375 42.1953C123.295 42.1953 129.366 38.5602 132.783 33.0957L147.195 25.7705L130.471 9.61523C126.943 5.86101 121.933 3.51567 116.375 3.51562Z" fill="#FFBB77"/>
<path d="M116.375 3.51562C105.694 3.51562 97.0352 12.1744 97.0352 22.8555C97.0352 24.2404 97.1823 25.5911 97.459 26.8936L101.136 49.1807L114.979 42.1445C115.44 42.1774 115.905 42.1953 116.375 42.1953C123.295 42.1953 129.366 38.5602 132.783 33.0957L147.195 25.7705L130.471 9.61523C126.943 5.86101 121.933 3.51567 116.375 3.51562Z" fill="url(#paint3_linear_4555_24984)" fill-opacity="0.6"/>
<path d="M116.375 3.51562C105.694 3.51562 97.0352 12.1744 97.0352 22.8555C97.0352 24.2404 97.1823 25.5911 97.459 26.8936L101.136 49.1807L114.979 42.1445C115.44 42.1774 115.905 42.1953 116.375 42.1953C123.295 42.1953 129.366 38.5602 132.783 33.0957L147.195 25.7705L130.471 9.61523C126.943 5.86101 121.933 3.51567 116.375 3.51562Z" fill="url(#paint4_linear_4555_24984)" fill-opacity="0.8"/>
<path d="M101.503 72.3019C100.163 68.5119 99.4231 64.4419 99.4231 60.1919C99.4231 40.1619 115.663 23.9219 135.693 23.9219C144.783 23.9219 153.093 27.2719 159.463 32.8019L167.113 39.3919L165.943 40.1919C169.743 45.9219 171.953 52.8019 171.953 60.1919C171.953 80.2219 155.713 96.4619 135.683 96.4619C123.453 96.4619 112.643 90.4019 106.073 81.1319L105.323 81.6419L102.783 75.4819C102.313 74.4819 101.893 73.4519 101.513 72.4019L101.473 72.2919L101.503 72.3019Z" fill="#FA9632"/>
<path d="M101.503 72.3019C100.163 68.5119 99.4231 64.4419 99.4231 60.1919C99.4231 40.1619 115.663 23.9219 135.693 23.9219C144.783 23.9219 153.093 27.2719 159.463 32.8019L167.113 39.3919L165.943 40.1919C169.743 45.9219 171.953 52.8019 171.953 60.1919C171.953 80.2219 155.713 96.4619 135.683 96.4619C123.453 96.4619 112.643 90.4019 106.073 81.1319L105.323 81.6419L102.783 75.4819C102.313 74.4819 101.893 73.4519 101.513 72.4019L101.473 72.2919L101.503 72.3019Z" fill="url(#paint5_linear_4555_24984)" fill-opacity="0.8"/>
<path d="M101.503 72.3019C100.163 68.5119 99.4231 64.4419 99.4231 60.1919C99.4231 40.1619 115.663 23.9219 135.693 23.9219C144.783 23.9219 153.093 27.2719 159.463 32.8019L167.113 39.3919L165.943 40.1919C169.743 45.9219 171.953 52.8019 171.953 60.1919C171.953 80.2219 155.713 96.4619 135.683 96.4619C123.453 96.4619 112.643 90.4019 106.073 81.1319L105.323 81.6419L102.783 75.4819C102.313 74.4819 101.893 73.4519 101.513 72.4019L101.473 72.2919L101.503 72.3019Z" fill="url(#paint6_linear_4555_24984)" fill-opacity="0.8"/>
<path d="M101.503 72.3019C100.163 68.5119 99.4231 64.4419 99.4231 60.1919C99.4231 40.1619 115.663 23.9219 135.693 23.9219C144.783 23.9219 153.093 27.2719 159.463 32.8019L167.113 39.3919L165.943 40.1919C169.743 45.9219 171.953 52.8019 171.953 60.1919C171.953 80.2219 155.713 96.4619 135.683 96.4619C123.453 96.4619 112.643 90.4019 106.073 81.1319L105.323 81.6419L102.783 75.4819C102.313 74.4819 101.893 73.4519 101.513 72.4019L101.473 72.2919L101.503 72.3019Z" fill="url(#paint7_radial_4555_24984)" fill-opacity="0.6"/>
<path d="M141.284 106.346C120.038 106.346 102.814 89.1226 102.814 67.8763C102.814 46.6299 120.038 29.4062 141.284 29.4062C162.53 29.4062 179.754 46.6299 179.754 67.8763C179.754 89.1226 162.53 106.346 141.284 106.346Z" fill="#FFAF60"/>
<path d="M141.284 106.346C120.038 106.346 102.814 89.1226 102.814 67.8763C102.814 46.6299 120.038 29.4062 141.284 29.4062C162.53 29.4062 179.754 46.6299 179.754 67.8763C179.754 89.1226 162.53 106.346 141.284 106.346Z" fill="url(#paint8_linear_4555_24984)" fill-opacity="0.6"/>
<path d="M141.284 106.346C120.038 106.346 102.814 89.1226 102.814 67.8763C102.814 46.6299 120.038 29.4062 141.284 29.4062C162.53 29.4062 179.754 46.6299 179.754 67.8763C179.754 89.1226 162.53 106.346 141.284 106.346Z" fill="url(#paint9_radial_4555_24984)" fill-opacity="0.6"/>
<path d="M141.284 106.346C120.038 106.346 102.814 89.1226 102.814 67.8763C102.814 46.6299 120.038 29.4062 141.284 29.4062C162.53 29.4062 179.754 46.6299 179.754 67.8763C179.754 89.1226 162.53 106.346 141.284 106.346Z" fill="url(#paint10_radial_4555_24984)" fill-opacity="0.6"/>
<path d="M141.287 96.4734C125.491 96.4734 112.687 83.6688 112.687 67.8734C112.687 52.0781 125.491 39.2734 141.287 39.2734C157.082 39.2734 169.887 52.0781 169.887 67.8734C169.887 83.6688 157.082 96.4734 141.287 96.4734Z" fill="#F19841"/>
<path d="M141.287 96.4734C125.491 96.4734 112.687 83.6688 112.687 67.8734C112.687 52.0781 125.491 39.2734 141.287 39.2734C157.082 39.2734 169.887 52.0781 169.887 67.8734C169.887 83.6688 157.082 96.4734 141.287 96.4734Z" fill="white" fill-opacity="0.5"/>
<mask id="mask0_4555_24984" style="mask-type:luminance" maskUnits="userSpaceOnUse" x="112" y="39" width="58" height="58">
<path d="M141.287 96.4734C125.491 96.4734 112.687 83.6688 112.687 67.8734C112.687 52.0781 125.491 39.2734 141.287 39.2734C157.082 39.2734 169.887 52.0781 169.887 67.8734C169.887 83.6688 157.082 96.4734 141.287 96.4734Z" fill="white"/>
</mask>
<g mask="url(#mask0_4555_24984)">
<path opacity="0.2" d="M155.501 32.3079L144.914 26.1953L104.924 95.46L115.511 101.573L155.501 32.3079Z" fill="white"/>
<path opacity="0.2" d="M180.448 41.7229L162.688 31.4688L122.698 100.733L140.458 110.988L180.448 41.7229Z" fill="white"/>
</g>
<path d="M84.6083 18.4937L83.0383 27.6938V27.7138C80.0483 34.5238 73.2383 39.2738 65.3283 39.2738C54.6483 39.2738 45.9883 30.6138 45.9883 19.9338C45.9883 15.9037 47.2283 12.1637 49.3383 9.06375L54.8383 3.69375C57.8583 1.73375 61.4583 0.59375 65.3283 0.59375C75.5283 0.59375 83.8783 8.48375 84.6083 18.4937Z" fill="#FA9632"/>
<path d="M84.6083 18.4937L83.0383 27.6938V27.7138C80.0483 34.5238 73.2383 39.2738 65.3283 39.2738C54.6483 39.2738 45.9883 30.6138 45.9883 19.9338C45.9883 15.9037 47.2283 12.1637 49.3383 9.06375L54.8383 3.69375C57.8583 1.73375 61.4583 0.59375 65.3283 0.59375C75.5283 0.59375 83.8783 8.48375 84.6083 18.4937Z" fill="url(#paint11_linear_4555_24984)" fill-opacity="0.8"/>
<path d="M84.6083 18.4937L83.0383 27.6938V27.7138C80.0483 34.5238 73.2383 39.2738 65.3283 39.2738C54.6483 39.2738 45.9883 30.6138 45.9883 19.9338C45.9883 15.9037 47.2283 12.1637 49.3383 9.06375L54.8383 3.69375C57.8583 1.73375 61.4583 0.59375 65.3283 0.59375C75.5283 0.59375 83.8783 8.48375 84.6083 18.4937Z" fill="url(#paint12_linear_4555_24984)" fill-opacity="0.8"/>
<path d="M84.6083 18.4937L83.0383 27.6938V27.7138C80.0483 34.5238 73.2383 39.2738 65.3283 39.2738C54.6483 39.2738 45.9883 30.6138 45.9883 19.9338C45.9883 15.9037 47.2283 12.1637 49.3383 9.06375L54.8383 3.69375C57.8583 1.73375 61.4583 0.59375 65.3283 0.59375C75.5283 0.59375 83.8783 8.48375 84.6083 18.4937Z" fill="url(#paint13_radial_4555_24984)" fill-opacity="0.6"/>
<path d="M63.6289 3.51562C74.31 3.51562 82.9687 12.1744 82.9688 22.8555C82.9688 24.2404 82.8216 25.5911 82.5449 26.8936L78.8682 49.1807L65.0254 42.1445C64.5642 42.1774 64.0985 42.1953 63.6289 42.1953C56.7086 42.1953 50.6382 38.5602 47.2207 33.0957L32.8086 25.7705L49.5332 9.61523C53.061 5.86101 58.0708 3.51567 63.6289 3.51562Z" fill="#FFBB77"/>
<path d="M63.6289 3.51562C74.31 3.51562 82.9687 12.1744 82.9688 22.8555C82.9688 24.2404 82.8216 25.5911 82.5449 26.8936L78.8682 49.1807L65.0254 42.1445C64.5642 42.1774 64.0985 42.1953 63.6289 42.1953C56.7086 42.1953 50.6382 38.5602 47.2207 33.0957L32.8086 25.7705L49.5332 9.61523C53.061 5.86101 58.0708 3.51567 63.6289 3.51562Z" fill="url(#paint14_linear_4555_24984)" fill-opacity="0.6"/>
<path d="M63.6289 3.51562C74.31 3.51562 82.9687 12.1744 82.9688 22.8555C82.9688 24.2404 82.8216 25.5911 82.5449 26.8936L78.8682 49.1807L65.0254 42.1445C64.5642 42.1774 64.0985 42.1953 63.6289 42.1953C56.7086 42.1953 50.6382 38.5602 47.2207 33.0957L32.8086 25.7705L49.5332 9.61523C53.061 5.86101 58.0708 3.51567 63.6289 3.51562Z" fill="url(#paint15_linear_4555_24984)" fill-opacity="0.8"/>
<path d="M78.5008 72.3019C79.8408 68.5119 80.5808 64.4419 80.5808 60.1919C80.5808 40.1619 64.3408 23.9219 44.3108 23.9219C35.2208 23.9219 26.9108 27.2719 20.5408 32.8019L12.8908 39.3919L14.0608 40.1919C10.2608 45.9219 8.05078 52.8019 8.05078 60.1919C8.05078 80.2219 24.2908 96.4619 44.3208 96.4619C56.5508 96.4619 67.3608 90.4019 73.9308 81.1319L74.6808 81.6419L77.2208 75.4819C77.6908 74.4819 78.1108 73.4519 78.4908 72.4019L78.5308 72.2919L78.5008 72.3019Z" fill="#FA9632"/>
<path d="M78.5008 72.3019C79.8408 68.5119 80.5808 64.4419 80.5808 60.1919C80.5808 40.1619 64.3408 23.9219 44.3108 23.9219C35.2208 23.9219 26.9108 27.2719 20.5408 32.8019L12.8908 39.3919L14.0608 40.1919C10.2608 45.9219 8.05078 52.8019 8.05078 60.1919C8.05078 80.2219 24.2908 96.4619 44.3208 96.4619C56.5508 96.4619 67.3608 90.4019 73.9308 81.1319L74.6808 81.6419L77.2208 75.4819C77.6908 74.4819 78.1108 73.4519 78.4908 72.4019L78.5308 72.2919L78.5008 72.3019Z" fill="url(#paint16_linear_4555_24984)" fill-opacity="0.8"/>
<path d="M78.5008 72.3019C79.8408 68.5119 80.5808 64.4419 80.5808 60.1919C80.5808 40.1619 64.3408 23.9219 44.3108 23.9219C35.2208 23.9219 26.9108 27.2719 20.5408 32.8019L12.8908 39.3919L14.0608 40.1919C10.2608 45.9219 8.05078 52.8019 8.05078 60.1919C8.05078 80.2219 24.2908 96.4619 44.3208 96.4619C56.5508 96.4619 67.3608 90.4019 73.9308 81.1319L74.6808 81.6419L77.2208 75.4819C77.6908 74.4819 78.1108 73.4519 78.4908 72.4019L78.5308 72.2919L78.5008 72.3019Z" fill="url(#paint17_linear_4555_24984)" fill-opacity="0.8"/>
<path d="M78.5008 72.3019C79.8408 68.5119 80.5808 64.4419 80.5808 60.1919C80.5808 40.1619 64.3408 23.9219 44.3108 23.9219C35.2208 23.9219 26.9108 27.2719 20.5408 32.8019L12.8908 39.3919L14.0608 40.1919C10.2608 45.9219 8.05078 52.8019 8.05078 60.1919C8.05078 80.2219 24.2908 96.4619 44.3208 96.4619C56.5508 96.4619 67.3608 90.4019 73.9308 81.1319L74.6808 81.6419L77.2208 75.4819C77.6908 74.4819 78.1108 73.4519 78.4908 72.4019L78.5308 72.2919L78.5008 72.3019Z" fill="url(#paint18_radial_4555_24984)" fill-opacity="0.6"/>
<path d="M38.72 106.346C59.9664 106.346 77.19 89.1226 77.19 67.8763C77.19 46.6299 59.9664 29.4062 38.72 29.4062C17.4736 29.4062 0.25 46.6299 0.25 67.8763C0.25 89.1226 17.4736 106.346 38.72 106.346Z" fill="#FFAF60"/>
<path d="M38.72 106.346C59.9664 106.346 77.19 89.1226 77.19 67.8763C77.19 46.6299 59.9664 29.4062 38.72 29.4062C17.4736 29.4062 0.25 46.6299 0.25 67.8763C0.25 89.1226 17.4736 106.346 38.72 106.346Z" fill="url(#paint19_linear_4555_24984)" fill-opacity="0.6"/>
<path d="M38.72 106.346C59.9664 106.346 77.19 89.1226 77.19 67.8763C77.19 46.6299 59.9664 29.4062 38.72 29.4062C17.4736 29.4062 0.25 46.6299 0.25 67.8763C0.25 89.1226 17.4736 106.346 38.72 106.346Z" fill="url(#paint20_radial_4555_24984)" fill-opacity="0.6"/>
<path d="M38.72 106.346C59.9664 106.346 77.19 89.1226 77.19 67.8763C77.19 46.6299 59.9664 29.4062 38.72 29.4062C17.4736 29.4062 0.25 46.6299 0.25 67.8763C0.25 89.1226 17.4736 106.346 38.72 106.346Z" fill="url(#paint21_radial_4555_24984)" fill-opacity="0.6"/>
<path d="M38.7172 96.4734C54.5125 96.4734 67.3172 83.6688 67.3172 67.8734C67.3172 52.0781 54.5125 39.2734 38.7172 39.2734C22.9218 39.2734 10.1172 52.0781 10.1172 67.8734C10.1172 83.6688 22.9218 96.4734 38.7172 96.4734Z" fill="#F19841"/>
<path d="M38.7172 96.4734C54.5125 96.4734 67.3172 83.6688 67.3172 67.8734C67.3172 52.0781 54.5125 39.2734 38.7172 39.2734C22.9218 39.2734 10.1172 52.0781 10.1172 67.8734C10.1172 83.6688 22.9218 96.4734 38.7172 96.4734Z" fill="white" fill-opacity="0.5"/>
<mask id="mask1_4555_24984" style="mask-type:luminance" maskUnits="userSpaceOnUse" x="10" y="39" width="58" height="58">
<path d="M38.7172 96.4734C54.5125 96.4734 67.3172 83.6688 67.3172 67.8734C67.3172 52.0781 54.5125 39.2734 38.7172 39.2734C22.9218 39.2734 10.1172 52.0781 10.1172 67.8734C10.1172 83.6688 22.9218 96.4734 38.7172 96.4734Z" fill="white"/>
</mask>
<g mask="url(#mask1_4555_24984)">
<path opacity="0.2" d="M54.1828 34.9453L39.0273 26.1953L-0.962654 95.46L14.1928 104.21L54.1828 34.9453Z" fill="white"/>
<path opacity="0.2" d="M75.0698 42.0225L66.6953 37.1875L26.7053 106.452L35.0798 111.287L75.0698 42.0225Z" fill="white"/>
</g>
<path d="M101.189 49.5353L92.8886 45.9653L89.7486 45.6953L86.6086 45.9653L78.3086 49.5353L75.0586 55.2653V57.7353L76.2186 61.2153C82.1886 53.0153 89.7486 53.5153 89.7486 53.5153C89.7486 53.5153 97.3086 53.0153 103.279 61.2153L104.439 57.7353V55.2653L101.189 49.5353Z" fill="#224C96"/>
<path d="M101.189 49.5353L92.8886 45.9653L89.7486 45.6953L86.6086 45.9653L78.3086 49.5353L75.0586 55.2653V57.7353L76.2186 61.2153C82.1886 53.0153 89.7486 53.5153 89.7486 53.5153C89.7486 53.5153 97.3086 53.0153 103.279 61.2153L104.439 57.7353V55.2653L101.189 49.5353Z" fill="url(#paint22_linear_4555_24984)" fill-opacity="0.6"/>
<path d="M101.189 49.5353L92.8886 45.9653L89.7486 45.6953L86.6086 45.9653L78.3086 49.5353L75.0586 55.2653V57.7353L76.2186 61.2153C82.1886 53.0153 89.7486 53.5153 89.7486 53.5153C89.7486 53.5153 97.3086 53.0153 103.279 61.2153L104.439 57.7353V55.2653L101.189 49.5353Z" fill="url(#paint23_radial_4555_24984)" fill-opacity="0.6"/>
<path d="M104.438 55.2675C99.2581 48.7175 93.0681 48.2075 90.7181 48.2775H88.7781C86.4181 48.2075 80.2381 48.7375 75.0781 55.2675L77.5981 45.8175C77.5981 45.8175 81.4081 41.4375 89.7581 41.4375C98.1081 41.4375 101.908 45.8175 101.908 45.8175L104.438 55.2675Z" fill="#163C7F"/>
<path d="M104.438 55.2675C99.2581 48.7175 93.0681 48.2075 90.7181 48.2775H88.7781C86.4181 48.2075 80.2381 48.7375 75.0781 55.2675L77.5981 45.8175C77.5981 45.8175 81.4081 41.4375 89.7581 41.4375C98.1081 41.4375 101.908 45.8175 101.908 45.8175L104.438 55.2675Z" fill="url(#paint24_linear_4555_24984)" fill-opacity="0.6"/>
<defs>
<linearGradient id="paint0_linear_4555_24984" x1="123.25" y1="6" x2="114.75" y2="-2" gradientUnits="userSpaceOnUse">
<stop stop-color="#D97816"/>
<stop offset="1" stop-color="#FA9632" stop-opacity="0"/>
</linearGradient>
<linearGradient id="paint1_linear_4555_24984" x1="96.75" y1="21.5" x2="108.75" y2="-8.5" gradientUnits="userSpaceOnUse">
<stop stop-color="#DC750E"/>
<stop offset="1" stop-color="#FA9632" stop-opacity="0"/>
</linearGradient>
<radialGradient id="paint2_radial_4555_24984" cx="0" cy="0" r="1" gradientUnits="userSpaceOnUse" gradientTransform="translate(120.75 1.5) rotate(-172.235) scale(22.2036 2.62065)">
<stop stop-color="#FFCF9F"/>
<stop offset="1" stop-color="#FA9632" stop-opacity="0"/>
</radialGradient>
<linearGradient id="paint3_linear_4555_24984" x1="131.25" y1="-4" x2="94.75" y2="22.5" gradientUnits="userSpaceOnUse">
<stop stop-color="#FFBB77" stop-opacity="0"/>
<stop offset="0.246021" stop-color="#FFD7AF"/>
<stop offset="0.445968" stop-color="#FFD7AF"/>
<stop offset="0.796493" stop-color="#FFBB77" stop-opacity="0"/>
</linearGradient>
<linearGradient id="paint4_linear_4555_24984" x1="111.25" y1="29" x2="98.25" y2="34" gradientUnits="userSpaceOnUse">
<stop offset="0.203507" stop-color="#FFBB77" stop-opacity="0"/>
<stop offset="1" stop-color="#F79D42"/>
</linearGradient>
<linearGradient id="paint5_linear_4555_24984" x1="151.735" y1="34.0607" x2="135.793" y2="19.0351" gradientUnits="userSpaceOnUse">
<stop stop-color="#D97816"/>
<stop offset="1" stop-color="#FA9632" stop-opacity="0"/>
</linearGradient>
<linearGradient id="paint6_linear_4555_24984" x1="101.967" y1="63.1292" x2="122.202" y2="13.4803" gradientUnits="userSpaceOnUse">
<stop stop-color="#DC750E"/>
<stop offset="1" stop-color="#FA9632" stop-opacity="0"/>
</linearGradient>
<radialGradient id="paint7_radial_4555_24984" cx="0" cy="0" r="1" gradientUnits="userSpaceOnUse" gradientTransform="translate(147.04 25.6214) rotate(-172.246) scale(41.6982 4.91487)">
<stop stop-color="#FFCF9F"/>
<stop offset="1" stop-color="#FA9632" stop-opacity="0"/>
</radialGradient>
<linearGradient id="paint8_linear_4555_24984" x1="157.25" y1="40" x2="124.75" y2="107.5" gradientUnits="userSpaceOnUse">
<stop stop-color="#FFAF60" stop-opacity="0"/>
<stop offset="1" stop-color="#DC6D00"/>
</linearGradient>
<radialGradient id="paint9_radial_4555_24984" cx="0" cy="0" r="1" gradientUnits="userSpaceOnUse" gradientTransform="translate(152.75 32) rotate(-171.656) scale(37.9012 9.4094)">
<stop stop-color="#FFCF9F"/>
<stop offset="1" stop-color="#FA9632" stop-opacity="0"/>
</radialGradient>
<radialGradient id="paint10_radial_4555_24984" cx="0" cy="0" r="1" gradientUnits="userSpaceOnUse" gradientTransform="translate(131.25 94.5) rotate(-149.744) scale(27.7849 6.89791)">
<stop stop-color="#FFCF9F"/>
<stop offset="1" stop-color="#FA9632" stop-opacity="0"/>
</radialGradient>
<linearGradient id="paint11_linear_4555_24984" x1="56.7539" y1="6" x2="65.2539" y2="-2" gradientUnits="userSpaceOnUse">
<stop stop-color="#D97816"/>
<stop offset="1" stop-color="#FA9632" stop-opacity="0"/>
</linearGradient>
<linearGradient id="paint12_linear_4555_24984" x1="83.2539" y1="21.5" x2="71.2539" y2="-8.5" gradientUnits="userSpaceOnUse">
<stop stop-color="#DC750E"/>
<stop offset="1" stop-color="#FA9632" stop-opacity="0"/>
</linearGradient>
<radialGradient id="paint13_radial_4555_24984" cx="0" cy="0" r="1" gradientUnits="userSpaceOnUse" gradientTransform="translate(59.2539 1.5) rotate(-7.76517) scale(22.2036 2.62065)">
<stop stop-color="#FFCF9F"/>
<stop offset="1" stop-color="#FA9632" stop-opacity="0"/>
</radialGradient>
<linearGradient id="paint14_linear_4555_24984" x1="48.7539" y1="-4" x2="85.2539" y2="22.5" gradientUnits="userSpaceOnUse">
<stop stop-color="#FFBB77" stop-opacity="0"/>
<stop offset="0.246021" stop-color="#FFD7AF"/>
<stop offset="0.445968" stop-color="#FFD7AF"/>
<stop offset="0.796493" stop-color="#FFBB77" stop-opacity="0"/>
</linearGradient>
<linearGradient id="paint15_linear_4555_24984" x1="68.7539" y1="29" x2="81.7539" y2="34" gradientUnits="userSpaceOnUse">
<stop offset="0.203507" stop-color="#FFBB77" stop-opacity="0"/>
<stop offset="1" stop-color="#F79D42"/>
</linearGradient>
<linearGradient id="paint16_linear_4555_24984" x1="28.2691" y1="34.0607" x2="44.2112" y2="19.0351" gradientUnits="userSpaceOnUse">
<stop stop-color="#D97816"/>
<stop offset="1" stop-color="#FA9632" stop-opacity="0"/>
</linearGradient>
<linearGradient id="paint17_linear_4555_24984" x1="78.0372" y1="63.1292" x2="57.8023" y2="13.4803" gradientUnits="userSpaceOnUse">
<stop stop-color="#DC750E"/>
<stop offset="1" stop-color="#FA9632" stop-opacity="0"/>
</linearGradient>
<radialGradient id="paint18_radial_4555_24984" cx="0" cy="0" r="1" gradientUnits="userSpaceOnUse" gradientTransform="translate(32.9642 25.6214) rotate(-7.75432) scale(41.6982 4.91487)">
<stop stop-color="#FFCF9F"/>
<stop offset="1" stop-color="#FA9632" stop-opacity="0"/>
</radialGradient>
<linearGradient id="paint19_linear_4555_24984" x1="22.7539" y1="40" x2="55.2539" y2="107.5" gradientUnits="userSpaceOnUse">
<stop stop-color="#FFAF60" stop-opacity="0"/>
<stop offset="1" stop-color="#DC6D00"/>
</linearGradient>
<radialGradient id="paint20_radial_4555_24984" cx="0" cy="0" r="1" gradientUnits="userSpaceOnUse" gradientTransform="translate(27.2539 32) rotate(-8.34389) scale(37.9012 9.4094)">
<stop stop-color="#FFCF9F"/>
<stop offset="1" stop-color="#FA9632" stop-opacity="0"/>
</radialGradient>
<radialGradient id="paint21_radial_4555_24984" cx="0" cy="0" r="1" gradientUnits="userSpaceOnUse" gradientTransform="translate(48.7539 94.5) rotate(-30.2564) scale(27.7849 6.89791)">
<stop stop-color="#FFCF9F"/>
<stop offset="1" stop-color="#FA9632" stop-opacity="0"/>
</radialGradient>
<linearGradient id="paint22_linear_4555_24984" x1="104.5" y1="56.5" x2="75" y2="57" gradientUnits="userSpaceOnUse">
<stop stop-color="#224C96" stop-opacity="0"/>
<stop offset="0.725895" stop-color="#5C86CF"/>
<stop offset="1" stop-color="#224C96" stop-opacity="0"/>
</linearGradient>
<radialGradient id="paint23_radial_4555_24984" cx="0" cy="0" r="1" gradientUnits="userSpaceOnUse" gradientTransform="translate(89.7539 61) rotate(169.695) scale(27.9509 21.3292)">
<stop stop-color="#5C86CF"/>
<stop offset="1" stop-color="#224C96" stop-opacity="0"/>
</radialGradient>
<linearGradient id="paint24_linear_4555_24984" x1="74.7539" y1="48" x2="89.7539" y2="52" gradientUnits="userSpaceOnUse">
<stop stop-color="#163C7F" stop-opacity="0"/>
<stop offset="0.5" stop-color="#2D569E"/>
<stop offset="1" stop-color="#163C7F" stop-opacity="0"/>
</linearGradient>
</defs>
</svg>
