<svg width="12" height="18" viewBox="0 0 12 18" fill="none" xmlns="http://www.w3.org/2000/svg">
<path d="M4.14832 7.14121L4.81257 11.7025C5.76439 11.8027 6.71667 11.9039 7.66849 12.004C8.38978 11.0979 9.11083 10.1926 9.83211 9.2865L8.80024 6.5016C8.38426 6.49376 7.96458 6.48281 7.54051 6.4685C6.82789 6.44501 6.12678 6.41221 5.43903 6.37167C5.0091 6.62802 4.57918 6.88437 4.1488 7.13969L4.14832 7.14121Z" fill="#DDA568"/>
<path d="M4.14549 7.14332L3.2386 8.23771L2.07352 10.4105L4.80905 11.7043C4.73259 10.7852 4.85265 10.0955 4.98955 9.61683C5.12742 9.13509 5.31948 8.7335 5.13829 8.38881C5.00467 8.13541 4.78116 8.12264 4.48422 7.74959C4.30399 7.52293 4.2018 7.2959 4.14504 7.14229L4.14549 7.14332Z" fill="#C17B2E"/>
</svg>
