<svg width="12" height="18" viewBox="0 0 12 18" fill="none" xmlns="http://www.w3.org/2000/svg">
<path d="M6.28186 1.33204L3.81536 4.82665L3.08119 13.8531L4.1116 16.24L5.69767 14.3299L7.59845 5.61029L6.28186 1.33204Z" fill="#91CEB8"/>
<path d="M5.01229 5.72695L3.80743 4.84961L3.08346 13.8503L3.71001 14.4847L5.01229 5.72695Z" fill="#72B59B"/>
<path d="M7.59865 5.60904L5.03638 5.75201L3.70793 14.4863L5.69787 14.3287L7.59865 5.60904Z" fill="#C2F2DE"/>
<path d="M3.70974 14.4855L4.1136 16.2381L5.69967 14.3279L3.70974 14.4855Z" fill="#DEFFF2"/>
<path d="M8.95861 5.2324L6.30583 7.33303L3.84127 14.175L4.14283 16.2918L5.77797 15.2032L9.08602 8.89328L8.95861 5.2324Z" fill="#B3FFE3"/>
<path d="M7.04554 8.34235L6.29187 7.35693L3.84064 14.1815L4.19515 14.8327L7.04554 8.34235Z" fill="#9DF9D5"/>
<path d="M9.08622 8.89968L7.06166 8.36729L4.19598 14.8326L5.77817 15.2096L9.08622 8.89968Z" fill="#CCFFEA"/>
<path d="M4.19483 14.8311L4.14187 16.2966L5.77701 15.2081L4.19483 14.8311Z" fill="#DEFFF2"/>
</svg>
