<svg width="12" height="18" viewBox="0 0 12 18" fill="none" xmlns="http://www.w3.org/2000/svg">
<path d="M3.62844 5C3.62147 5.12026 3.62978 5.29607 3.72209 5.46742C3.92871 5.85162 4.34509 5.82061 4.5955 6.14903C4.79044 6.40495 4.83513 6.81436 4.72037 7.09414C4.41358 7.8409 3.07798 7.40293 2.36896 8.27173C1.97617 8.75321 1.89037 9.49551 2.14348 10.0225C2.42511 10.6086 3.06989 10.8108 3.72209 11.0154C4.34935 11.2119 4.88431 11.2367 5.53112 11.2621C6.86852 11.3148 7.2977 11.1198 7.54317 11.4279C7.81559 11.7697 7.43897 12.1999 7.79246 12.8266C7.84704 12.9234 8.02266 13.226 8.36942 13.4002C9.06249 13.7483 10.0576 13.3913 10.0579 13.3913C8.78805 13.2527 8.38627 12.9011 8.27016 12.5854C8.07746 12.0618 8.67216 11.6412 8.44758 10.8746C8.43927 10.8465 8.22861 10.1653 7.60538 9.90582C7.25413 9.75946 6.88492 9.79448 6.77891 9.80564C6.56331 9.82817 6.49099 9.87503 6.34232 9.90582C5.73482 10.0321 4.84995 9.68784 4.68915 9.09502C4.68084 9.06423 4.60897 8.78311 4.75159 8.50935C4.93058 8.16531 5.2441 8.22533 5.65621 7.91542C6.07416 7.60106 6.41351 7.04171 6.36186 6.48861C6.34996 6.36055 6.32615 6.10642 6.13974 5.90584C5.84554 5.58947 5.42579 5.7066 4.82974 5.57586C4.52318 5.5087 4.10119 5.36077 3.62889 5H3.62844Z" fill="#6CDDFF"/>
</svg>
