<svg width="12" height="18" viewBox="0 0 12 18" fill="none" xmlns="http://www.w3.org/2000/svg">
<path d="M7.73419 6.4458C7.73419 8.29782 7.06747 13.3353 4.40056 16.4467" stroke="#C8923A" stroke-width="0.1"/>
<path d="M7.73419 12.5552C6.62298 13.6664 5.95626 15.2221 5.51177 17" stroke="#C8923A" stroke-width="0.1"/>
<path d="M5.51373 9.77783C5.51373 12.5559 4.18028 14.6672 3.29131 16.4451" stroke="#C8923A" stroke-width="0.1"/>
<path d="M8.2912 8.6665C8.2912 8.6665 4.40197 12.5557 4.40197 14.2226" stroke="#C8923A" stroke-width="0.1"/>
<path d="M2.73731 11.4463C3.29065 12.0019 3.7415 14.6688 3.29702 16.4467" stroke="#C8923A" stroke-width="0.1"/>
<path d="M7.72295 7.00044C8.46378 5.14843 8.97785 1.99996 7.73436 2C6.49086 2.00004 7.16912 5.33363 7.72295 7.00044Z" fill="#C8923A"/>
<path d="M7.17751 13.1158C7.73312 11.8193 9.06657 9.44876 9.95553 10.3377C10.1407 10.7094 9.84441 11.7852 7.17751 13.1158Z" fill="#C8923A"/>
<path d="M3.29077 12.5153C3.29077 11.9597 3.29077 8.14745 2.17956 8.66364C1.47236 8.99216 2.36476 11.4041 3.29077 12.5153Z" fill="#C8923A"/>
<path d="M5.51343 10.8905C6.06903 9.0385 6.84688 5.33447 5.51343 5.33447C4.17998 5.33447 4.95782 9.0385 5.51343 10.8905Z" fill="#C8923A"/>
<path d="M6.11714 11.1734C6.85794 9.69177 8.42626 7.25591 8.82613 8.41565C8.97661 8.85213 8.28136 9.52736 6.11714 11.1734Z" fill="#C8923A"/>
</svg>
