<svg width="250" height="250" viewBox="0 0 250 250" fill="none" xmlns="http://www.w3.org/2000/svg">
<path d="M195.125 111.979L185 111.5L163.753 97.0159C163.753 97.0159 137.133 109.918 136.891 115.708C136.653 121.502 130.639 131.991 145.72 135.109C160.796 138.225 203.055 138.534 204.779 134.295C206.503 130.056 203 126 200.977 122.331C202.307 118.91 195.125 111.979 195.125 111.979Z" fill="#C17B2E"/>
<path d="M164.7 97.6718L182.687 96.7547L202.646 108.269L212.362 125.169L204.786 134.272L200.984 122.308L200.759 119.561L195.132 111.956L184.893 112.136L164.7 97.6718Z" fill="#DDA568"/>
<path d="M89.5612 159.77C100.787 158.297 106.833 157.505 106.833 157.505C107.742 164.843 115.864 172.777 112.128 178.956C111.387 180.182 110.02 181.049 107.802 181.48C98.1837 183.338 71.5895 204.036 68.9816 194.817C65.4021 182.177 54.7764 164.963 61.0694 159.441C62.0765 158.552 63.3374 158.147 71.4273 158.413C78.8752 158.66 85.0844 159.241 89.5612 159.77Z" fill="#DDA568"/>
<path d="M47.4644 185.031L68.9658 194.798L61.0595 159.425L53.4963 165.9L47.4644 185.031Z" fill="#C17B2E"/>
<path d="M92.61 53.5753L96.2009 78.2335C101.346 78.775 106.494 79.3221 111.64 79.8636C115.539 74.9652 119.437 70.071 123.336 65.1727L117.758 50.1176C115.509 50.0752 113.241 50.016 110.948 49.9387C107.096 49.8116 103.306 49.6344 99.5875 49.4152C97.2633 50.801 94.9392 52.1868 92.6126 53.5671L92.61 53.5753Z" fill="#DDA568"/>
<path d="M92.5984 53.5886L87.6958 59.5048L81.3974 71.2509L96.1856 78.2453C95.7723 73.2767 96.4213 69.5482 97.1614 66.9604C97.9067 64.3561 98.945 62.1851 97.9655 60.3217C97.2431 58.9518 96.0348 58.8828 94.4296 56.8661C93.4553 55.6408 92.9029 54.4135 92.596 53.5831L92.5984 53.5886Z" fill="#C17B2E"/>
</svg>
