<svg width="250" height="250" viewBox="0 0 250 250" fill="none" xmlns="http://www.w3.org/2000/svg">
<path d="M97.7954 37.914L81.3182 83.2826L100.124 183.732L118.429 206.66L130.026 181.155L124.831 80.5821L97.7954 37.914Z" fill="#91CEB8"/>
<path d="M97.0211 89.5286L81.299 83.5542L100.14 183.693L108.845 188.74L97.0211 89.5286Z" fill="#72B59B"/>
<path d="M124.828 80.5662L97.3576 89.73L108.827 188.763L130.023 181.14L124.828 80.5662Z" fill="#C2F2DE"/>
<path d="M108.845 188.754L118.446 206.635L130.042 181.13L108.845 188.754Z" fill="#DEFFF2"/>
<path d="M172.983 82.2099L143.048 105.914L115.237 183.123L118.64 207.009L137.092 194.726L174.421 123.521L172.983 82.2099Z" fill="#B3FFE3"/>
<path d="M151.395 117.296L142.89 106.176L115.229 183.188L119.23 190.536L151.395 117.296Z" fill="#9DF9D5"/>
<path d="M174.423 123.586L151.577 117.579L119.239 190.537L137.093 194.791L174.423 123.586Z" fill="#CCFFEA"/>
<path d="M119.227 190.522L118.629 207.06L137.081 194.777L119.227 190.522Z" fill="#DEFFF2"/>
</svg>
