<svg width="250" height="250" viewBox="0 0 250 250" fill="none" xmlns="http://www.w3.org/2000/svg">
<path d="M74.2723 35C74.1258 37.531 74.3007 41.2312 76.2433 44.8374C80.5918 52.9234 89.355 52.2707 94.6253 59.1827C98.728 64.5687 99.6686 73.1853 97.2533 79.0736C90.7967 94.7901 62.6873 85.5725 47.7653 103.857C39.4984 113.991 37.6928 129.613 43.0197 140.704C48.9469 153.04 62.5171 157.294 76.2433 161.6C89.4448 165.737 100.704 166.258 114.316 166.794C142.464 167.902 151.496 163.798 156.662 170.283C162.396 177.476 154.469 186.53 161.909 199.72C163.058 201.758 166.754 208.125 174.052 211.792C188.638 219.118 209.582 211.604 209.587 211.604C182.862 208.688 174.406 201.288 171.963 194.644C167.907 183.623 180.423 174.772 175.697 158.637C175.522 158.046 171.088 143.71 157.972 138.249C150.579 135.168 142.809 135.905 140.578 136.14C136.04 136.614 134.518 137.601 131.389 138.249C118.604 140.906 99.9805 133.661 96.5963 121.184C96.4214 120.536 94.9089 114.62 97.9103 108.858C101.677 101.618 108.276 102.881 116.949 96.3584C125.745 89.7422 132.887 77.9702 131.8 66.3296C131.55 63.6343 131.049 58.2859 127.126 54.0645C120.934 47.406 112.1 49.8712 99.5551 47.1195C93.1033 45.7061 84.2219 42.5929 74.2818 35H74.2723Z" fill="#6CDDFF"/>
</svg>
