<svg width="250" height="250" viewBox="0 0 250 250" fill="none" xmlns="http://www.w3.org/2000/svg">
<path d="M146.811 88.3508C146.811 110.575 138.81 171.024 106.808 208.36" stroke="#C8923A" stroke-width="1.2"/>
<path d="M146.811 161.663C133.476 174.997 125.476 193.665 120.142 215" stroke="#C8923A" stroke-width="1.2"/>
<path d="M121 129C121 161.985 103.86 186.889 93 208" stroke="#C8923A" stroke-width="1.2"/>
<path d="M153.494 114.996C153.494 114.996 106.824 161.666 106.824 181.668" stroke="#C8923A" stroke-width="1.2"/>
<path d="M87.5 146C94.14 152.667 100.334 187.165 95 208.5" stroke="#C8923A" stroke-width="1.2"/>
<path d="M146.675 95.0045C155.565 72.7806 161.734 34.9995 146.812 35C131.89 35.0005 140.029 75.003 146.675 95.0045Z" fill="#C8923A"/>
<path d="M140.131 168.391C146.798 152.834 162.799 124.388 173.466 135.055C175.689 139.515 172.133 152.425 140.131 168.391Z" fill="#C8923A"/>
<path d="M93.49 161.185C93.49 154.518 93.49 108.772 80.1557 114.966C71.6693 118.908 82.378 147.851 93.49 161.185Z" fill="#C8923A"/>
<path d="M120.162 141.685C126.829 119.461 136.163 75.0132 120.162 75.0132C104.16 75.0132 113.494 119.461 120.162 141.685Z" fill="#C8923A"/>
<path d="M127.407 145.075C136.296 127.296 155.116 98.0656 159.914 111.982C161.72 117.22 153.377 125.323 127.407 145.075Z" fill="#C8923A"/>
</svg>
