<svg width="250" height="250" viewBox="0 0 250 250" fill="none" xmlns="http://www.w3.org/2000/svg">
<path d="M76.4262 44.9553L80.108 43.5268C79.0697 42.1056 79.5557 34.9334 79.5557 34.9334C79.8503 33.5859 78.9446 29.639 78.9446 29.639C77.1257 23.3725 80.6824 20 80.6824 20C80.6824 20 79.6146 20.6627 78.4291 21.9072C76.3894 24.3445 75.4174 28.2031 75.6972 30.368C75.9844 32.5329 75.1965 36.2736 75.1965 36.2736C74.4822 40.7875 75.6088 43.6004 76.4262 44.9553Z" fill="#F18111"/>
<path d="M76.4262 44.9553L80.108 43.5268C79.0697 42.1056 79.5557 34.9334 79.5557 34.9334C79.8503 33.5859 78.9446 29.639 78.9446 29.639C77.1257 23.3725 80.6824 20 80.6824 20C80.6824 20 79.6146 20.6627 78.4291 21.9072C76.3894 24.3445 75.4174 28.2031 75.6972 30.368C75.9844 32.5329 75.1965 36.2736 75.1965 36.2736C74.4822 40.7875 75.6088 43.6004 76.4262 44.9553Z" fill="url(#paint0_linear_49_243)" fill-opacity="0.8"/>
<path d="M78.9445 29.639C78.9445 29.639 79.8502 33.5859 79.5557 34.9334C79.5557 34.9334 79.0697 42.1056 80.108 43.5268L91.0945 39.2632C91.0945 39.2632 90.4612 30.9203 84.4451 26.5315C84.4451 26.5315 80.918 24.2783 80.6823 20C80.6823 20 77.1257 23.3725 78.9445 29.639Z" fill="#FFC24A"/>
<path d="M78.9445 29.639C78.9445 29.639 79.8502 33.5859 79.5557 34.9334C79.5557 34.9334 79.0697 42.1056 80.108 43.5268L91.0945 39.2632C91.0945 39.2632 90.4612 30.9203 84.4451 26.5315C84.4451 26.5315 80.918 24.2783 80.6823 20C80.6823 20 77.1257 23.3725 78.9445 29.639Z" fill="url(#paint1_linear_49_243)" fill-opacity="0.8"/>
<path d="M78.9445 29.639C78.9445 29.639 79.8502 33.5859 79.5557 34.9334C79.5557 34.9334 79.0697 42.1056 80.108 43.5268L91.0945 39.2632C91.0945 39.2632 90.4612 30.9203 84.4451 26.5315C84.4451 26.5315 80.918 24.2783 80.6823 20C80.6823 20 77.1257 23.3725 78.9445 29.639Z" fill="url(#paint2_linear_49_243)" fill-opacity="0.4"/>
<path d="M79.4439 216.951C79.4439 216.951 81.7045 218.534 93.8619 217.238C99.7675 217.275 100.747 217.747 103.228 217.732C103.228 217.732 107.381 217.901 106.417 212.776C106.328 211.782 106.601 210.479 107.308 209.993C107.308 209.993 102.809 198.226 98.4789 197.335C96.9399 197.018 94.5025 204.256 95.2757 207.923C95.2757 207.923 90.1801 211.487 84.7604 211.252C84.7604 211.252 78.9432 210.552 79.4439 216.951Z" fill="#FFC24A"/>
<path d="M79.4439 216.951C79.4439 216.951 81.7045 218.534 93.8619 217.238C99.7675 217.275 100.747 217.747 103.228 217.732C103.228 217.732 107.381 217.901 106.417 212.776C106.328 211.782 106.601 210.479 107.308 209.993C107.308 209.993 102.809 198.226 98.4789 197.335C96.9399 197.018 94.5025 204.256 95.2757 207.923C95.2757 207.923 90.1801 211.487 84.7604 211.252C84.7604 211.252 78.9432 210.552 79.4439 216.951Z" fill="url(#paint3_linear_49_243)" fill-opacity="0.8"/>
<path d="M77.8036 147.186C77.8036 147.186 46.5302 148.408 48.4301 162.178L60.5506 200.292C60.5506 200.292 59.3724 203.871 55.3077 204.828C55.3077 204.828 50.4771 204.931 52.2739 209.21C52.2739 209.21 64.2324 212.884 70.4767 204.652L65.5947 170.197C65.5947 170.197 90.1965 173.194 100.55 165.234L77.8109 147.193L77.8036 147.186Z" fill="#FFC24A"/>
<path d="M77.8036 147.186C77.8036 147.186 46.5302 148.408 48.4301 162.178L60.5506 200.292C60.5506 200.292 59.3724 203.871 55.3077 204.828C55.3077 204.828 50.4771 204.931 52.2739 209.21C52.2739 209.21 64.2324 212.884 70.4767 204.652L65.5947 170.197C65.5947 170.197 90.1965 173.194 100.55 165.234L77.8109 147.193L77.8036 147.186Z" fill="url(#paint4_linear_49_243)" fill-opacity="0.8"/>
<path d="M77.8036 147.186C77.8036 147.186 46.5302 148.408 48.4301 162.178L60.5506 200.292C60.5506 200.292 59.3724 203.871 55.3077 204.828C55.3077 204.828 50.4771 204.931 52.2739 209.21C52.2739 209.21 64.2324 212.884 70.4767 204.652L65.5947 170.197C65.5947 170.197 90.1965 173.194 100.55 165.234L77.8109 147.193L77.8036 147.186Z" fill="url(#paint5_linear_49_243)" fill-opacity="0.8"/>
<path d="M77.8036 147.186C77.8036 147.186 46.5302 148.408 48.4301 162.178L60.5506 200.292C60.5506 200.292 59.3724 203.871 55.3077 204.828C55.3077 204.828 50.4771 204.931 52.2739 209.21C52.2739 209.21 64.2324 212.884 70.4767 204.652L65.5947 170.197C65.5947 170.197 90.1965 173.194 100.55 165.234L77.8109 147.193L77.8036 147.186Z" fill="url(#paint6_linear_49_243)" fill-opacity="0.4"/>
<path d="M42.8691 49.8477C63.362 51.2394 80.7181 41.8287 80.7181 41.8287C90.1656 36.9981 97.647 38.8611 102.183 41.2617C110.209 45.3632 113.096 55.2967 113.096 55.2967C115.496 63.382 114.775 67.4173 114.775 67.4173H114.767C114.407 73.5585 107.647 80.2447 107.647 80.2447C101.815 87.0119 99.6205 92.5567 99.6205 92.5567C98.3024 117.939 137.978 135.987 137.978 135.987C167.683 151.031 172.947 173.468 166.556 196.273C160.157 219.086 127.256 220.293 127.256 220.293C126.505 220.802 126.218 222.186 126.314 223.224C127.33 228.622 122.963 228.452 122.963 228.452C120.342 228.467 119.311 227.966 113.096 227.93C100.291 229.292 97.9121 227.628 97.9121 227.628C97.382 220.89 103.508 221.626 103.508 221.626C109.215 221.877 111.881 218.968 111.881 218.968C103.236 213.895 98.7516 204.307 98.7516 204.307L95.9976 227.245C82.2055 231.567 78.0083 227.245 78.0083 227.245C78.0083 222.79 81.5207 223.357 81.5207 223.357C87.5368 223.106 89.2893 219.218 89.2893 219.218L82.7725 178.608C75.8802 171.966 70.9907 159.499 70.9907 159.499C70.9907 161.252 69.8641 162.504 69.8641 162.504C61.904 156.237 60.0852 136.061 60.0852 136.061C59.2678 138.005 57.7657 138.844 57.7657 138.844C52.8762 107.829 66.8229 89.5891 66.8229 89.5891C50.5272 83.6982 43.1341 78.2492 43.1341 78.2492C36.1166 72.3803 35.2403 62.896 35.2403 62.896C33.3847 48.4265 42.8838 49.855 42.8838 49.855L42.8691 49.8477Z" fill="#FFC24A"/>
<path d="M42.8691 49.8477C63.362 51.2394 80.7181 41.8287 80.7181 41.8287C90.1656 36.9981 97.647 38.8611 102.183 41.2617C110.209 45.3632 113.096 55.2967 113.096 55.2967C115.496 63.382 114.775 67.4173 114.775 67.4173H114.767C114.407 73.5585 107.647 80.2447 107.647 80.2447C101.815 87.0119 99.6205 92.5567 99.6205 92.5567C98.3024 117.939 137.978 135.987 137.978 135.987C167.683 151.031 172.947 173.468 166.556 196.273C160.157 219.086 127.256 220.293 127.256 220.293C126.505 220.802 126.218 222.186 126.314 223.224C127.33 228.622 122.963 228.452 122.963 228.452C120.342 228.467 119.311 227.966 113.096 227.93C100.291 229.292 97.9121 227.628 97.9121 227.628C97.382 220.89 103.508 221.626 103.508 221.626C109.215 221.877 111.881 218.968 111.881 218.968C103.236 213.895 98.7516 204.307 98.7516 204.307L95.9976 227.245C82.2055 231.567 78.0083 227.245 78.0083 227.245C78.0083 222.79 81.5207 223.357 81.5207 223.357C87.5368 223.106 89.2893 219.218 89.2893 219.218L82.7725 178.608C75.8802 171.966 70.9907 159.499 70.9907 159.499C70.9907 161.252 69.8641 162.504 69.8641 162.504C61.904 156.237 60.0852 136.061 60.0852 136.061C59.2678 138.005 57.7657 138.844 57.7657 138.844C52.8762 107.829 66.8229 89.5891 66.8229 89.5891C50.5272 83.6982 43.1341 78.2492 43.1341 78.2492C36.1166 72.3803 35.2403 62.896 35.2403 62.896C33.3847 48.4265 42.8838 49.855 42.8838 49.855L42.8691 49.8477Z" fill="url(#paint7_linear_49_243)" fill-opacity="0.8"/>
<path d="M42.8691 49.8477C63.362 51.2394 80.7181 41.8287 80.7181 41.8287C90.1656 36.9981 97.647 38.8611 102.183 41.2617C110.209 45.3632 113.096 55.2967 113.096 55.2967C115.496 63.382 114.775 67.4173 114.775 67.4173H114.767C114.407 73.5585 107.647 80.2447 107.647 80.2447C101.815 87.0119 99.6205 92.5567 99.6205 92.5567C98.3024 117.939 137.978 135.987 137.978 135.987C167.683 151.031 172.947 173.468 166.556 196.273C160.157 219.086 127.256 220.293 127.256 220.293C126.505 220.802 126.218 222.186 126.314 223.224C127.33 228.622 122.963 228.452 122.963 228.452C120.342 228.467 119.311 227.966 113.096 227.93C100.291 229.292 97.9121 227.628 97.9121 227.628C97.382 220.89 103.508 221.626 103.508 221.626C109.215 221.877 111.881 218.968 111.881 218.968C103.236 213.895 98.7516 204.307 98.7516 204.307L95.9976 227.245C82.2055 231.567 78.0083 227.245 78.0083 227.245C78.0083 222.79 81.5207 223.357 81.5207 223.357C87.5368 223.106 89.2893 219.218 89.2893 219.218L82.7725 178.608C75.8802 171.966 70.9907 159.499 70.9907 159.499C70.9907 161.252 69.8641 162.504 69.8641 162.504C61.904 156.237 60.0852 136.061 60.0852 136.061C59.2678 138.005 57.7657 138.844 57.7657 138.844C52.8762 107.829 66.8229 89.5891 66.8229 89.5891C50.5272 83.6982 43.1341 78.2492 43.1341 78.2492C36.1166 72.3803 35.2403 62.896 35.2403 62.896C33.3847 48.4265 42.8838 49.855 42.8838 49.855L42.8691 49.8477Z" fill="url(#paint8_radial_49_243)" fill-opacity="0.6"/>
<path d="M42.8691 49.8477C63.362 51.2394 80.7181 41.8287 80.7181 41.8287C90.1656 36.9981 97.647 38.8611 102.183 41.2617C110.209 45.3632 113.096 55.2967 113.096 55.2967C115.496 63.382 114.775 67.4173 114.775 67.4173H114.767C114.407 73.5585 107.647 80.2447 107.647 80.2447C101.815 87.0119 99.6205 92.5567 99.6205 92.5567C98.3024 117.939 137.978 135.987 137.978 135.987C167.683 151.031 172.947 173.468 166.556 196.273C160.157 219.086 127.256 220.293 127.256 220.293C126.505 220.802 126.218 222.186 126.314 223.224C127.33 228.622 122.963 228.452 122.963 228.452C120.342 228.467 119.311 227.966 113.096 227.93C100.291 229.292 97.9121 227.628 97.9121 227.628C97.382 220.89 103.508 221.626 103.508 221.626C109.215 221.877 111.881 218.968 111.881 218.968C103.236 213.895 98.7516 204.307 98.7516 204.307L95.9976 227.245C82.2055 231.567 78.0083 227.245 78.0083 227.245C78.0083 222.79 81.5207 223.357 81.5207 223.357C87.5368 223.106 89.2893 219.218 89.2893 219.218L82.7725 178.608C75.8802 171.966 70.9907 159.499 70.9907 159.499C70.9907 161.252 69.8641 162.504 69.8641 162.504C61.904 156.237 60.0852 136.061 60.0852 136.061C59.2678 138.005 57.7657 138.844 57.7657 138.844C52.8762 107.829 66.8229 89.5891 66.8229 89.5891C50.5272 83.6982 43.1341 78.2492 43.1341 78.2492C36.1166 72.3803 35.2403 62.896 35.2403 62.896C33.3847 48.4265 42.8838 49.855 42.8838 49.855L42.8691 49.8477Z" fill="url(#paint9_radial_49_243)" fill-opacity="0.4"/>
<path d="M42.8691 49.8477C63.362 51.2394 80.7181 41.8287 80.7181 41.8287C90.1656 36.9981 97.647 38.8611 102.183 41.2617C110.209 45.3632 113.096 55.2967 113.096 55.2967C115.496 63.382 114.775 67.4173 114.775 67.4173H114.767C114.407 73.5585 107.647 80.2447 107.647 80.2447C101.815 87.0119 99.6205 92.5567 99.6205 92.5567C98.3024 117.939 137.978 135.987 137.978 135.987C167.683 151.031 172.947 173.468 166.556 196.273C160.157 219.086 127.256 220.293 127.256 220.293C126.505 220.802 126.218 222.186 126.314 223.224C127.33 228.622 122.963 228.452 122.963 228.452C120.342 228.467 119.311 227.966 113.096 227.93C100.291 229.292 97.9121 227.628 97.9121 227.628C97.382 220.89 103.508 221.626 103.508 221.626C109.215 221.877 111.881 218.968 111.881 218.968C103.236 213.895 98.7516 204.307 98.7516 204.307L95.9976 227.245C82.2055 231.567 78.0083 227.245 78.0083 227.245C78.0083 222.79 81.5207 223.357 81.5207 223.357C87.5368 223.106 89.2893 219.218 89.2893 219.218L82.7725 178.608C75.8802 171.966 70.9907 159.499 70.9907 159.499C70.9907 161.252 69.8641 162.504 69.8641 162.504C61.904 156.237 60.0852 136.061 60.0852 136.061C59.2678 138.005 57.7657 138.844 57.7657 138.844C52.8762 107.829 66.8229 89.5891 66.8229 89.5891C50.5272 83.6982 43.1341 78.2492 43.1341 78.2492C36.1166 72.3803 35.2403 62.896 35.2403 62.896C33.3847 48.4265 42.8838 49.855 42.8838 49.855L42.8691 49.8477Z" fill="url(#paint10_radial_49_243)" fill-opacity="0.4"/>
<path d="M42.8691 49.8477C63.362 51.2394 80.7181 41.8287 80.7181 41.8287C90.1656 36.9981 97.647 38.8611 102.183 41.2617C110.209 45.3632 113.096 55.2967 113.096 55.2967C115.496 63.382 114.775 67.4173 114.775 67.4173H114.767C114.407 73.5585 107.647 80.2447 107.647 80.2447C101.815 87.0119 99.6205 92.5567 99.6205 92.5567C98.3024 117.939 137.978 135.987 137.978 135.987C167.683 151.031 172.947 173.468 166.556 196.273C160.157 219.086 127.256 220.293 127.256 220.293C126.505 220.802 126.218 222.186 126.314 223.224C127.33 228.622 122.963 228.452 122.963 228.452C120.342 228.467 119.311 227.966 113.096 227.93C100.291 229.292 97.9121 227.628 97.9121 227.628C97.382 220.89 103.508 221.626 103.508 221.626C109.215 221.877 111.881 218.968 111.881 218.968C103.236 213.895 98.7516 204.307 98.7516 204.307L95.9976 227.245C82.2055 231.567 78.0083 227.245 78.0083 227.245C78.0083 222.79 81.5207 223.357 81.5207 223.357C87.5368 223.106 89.2893 219.218 89.2893 219.218L82.7725 178.608C75.8802 171.966 70.9907 159.499 70.9907 159.499C70.9907 161.252 69.8641 162.504 69.8641 162.504C61.904 156.237 60.0852 136.061 60.0852 136.061C59.2678 138.005 57.7657 138.844 57.7657 138.844C52.8762 107.829 66.8229 89.5891 66.8229 89.5891C50.5272 83.6982 43.1341 78.2492 43.1341 78.2492C36.1166 72.3803 35.2403 62.896 35.2403 62.896C33.3847 48.4265 42.8838 49.855 42.8838 49.855L42.8691 49.8477Z" fill="url(#paint11_radial_49_243)" fill-opacity="0.4"/>
<path d="M42.8691 49.8477C63.362 51.2394 80.7181 41.8287 80.7181 41.8287C90.1656 36.9981 97.647 38.8611 102.183 41.2617C110.209 45.3632 113.096 55.2967 113.096 55.2967C115.496 63.382 114.775 67.4173 114.775 67.4173H114.767C114.407 73.5585 107.647 80.2447 107.647 80.2447C101.815 87.0119 99.6205 92.5567 99.6205 92.5567C98.3024 117.939 137.978 135.987 137.978 135.987C167.683 151.031 172.947 173.468 166.556 196.273C160.157 219.086 127.256 220.293 127.256 220.293C126.505 220.802 126.218 222.186 126.314 223.224C127.33 228.622 122.963 228.452 122.963 228.452C120.342 228.467 119.311 227.966 113.096 227.93C100.291 229.292 97.9121 227.628 97.9121 227.628C97.382 220.89 103.508 221.626 103.508 221.626C109.215 221.877 111.881 218.968 111.881 218.968C103.236 213.895 98.7516 204.307 98.7516 204.307L95.9976 227.245C82.2055 231.567 78.0083 227.245 78.0083 227.245C78.0083 222.79 81.5207 223.357 81.5207 223.357C87.5368 223.106 89.2893 219.218 89.2893 219.218L82.7725 178.608C75.8802 171.966 70.9907 159.499 70.9907 159.499C70.9907 161.252 69.8641 162.504 69.8641 162.504C61.904 156.237 60.0852 136.061 60.0852 136.061C59.2678 138.005 57.7657 138.844 57.7657 138.844C52.8762 107.829 66.8229 89.5891 66.8229 89.5891C50.5272 83.6982 43.1341 78.2492 43.1341 78.2492C36.1166 72.3803 35.2403 62.896 35.2403 62.896C33.3847 48.4265 42.8838 49.855 42.8838 49.855L42.8691 49.8477Z" fill="url(#paint12_radial_49_243)" fill-opacity="0.6"/>
<path d="M42.8691 49.8477C63.362 51.2394 80.7181 41.8287 80.7181 41.8287C90.1656 36.9981 97.647 38.8611 102.183 41.2617C110.209 45.3632 113.096 55.2967 113.096 55.2967C115.496 63.382 114.775 67.4173 114.775 67.4173H114.767C114.407 73.5585 107.647 80.2447 107.647 80.2447C101.815 87.0119 99.6205 92.5567 99.6205 92.5567C98.3024 117.939 137.978 135.987 137.978 135.987C167.683 151.031 172.947 173.468 166.556 196.273C160.157 219.086 127.256 220.293 127.256 220.293C126.505 220.802 126.218 222.186 126.314 223.224C127.33 228.622 122.963 228.452 122.963 228.452C120.342 228.467 119.311 227.966 113.096 227.93C100.291 229.292 97.9121 227.628 97.9121 227.628C97.382 220.89 103.508 221.626 103.508 221.626C109.215 221.877 111.881 218.968 111.881 218.968C103.236 213.895 98.7516 204.307 98.7516 204.307L95.9976 227.245C82.2055 231.567 78.0083 227.245 78.0083 227.245C78.0083 222.79 81.5207 223.357 81.5207 223.357C87.5368 223.106 89.2893 219.218 89.2893 219.218L82.7725 178.608C75.8802 171.966 70.9907 159.499 70.9907 159.499C70.9907 161.252 69.8641 162.504 69.8641 162.504C61.904 156.237 60.0852 136.061 60.0852 136.061C59.2678 138.005 57.7657 138.844 57.7657 138.844C52.8762 107.829 66.8229 89.5891 66.8229 89.5891C50.5272 83.6982 43.1341 78.2492 43.1341 78.2492C36.1166 72.3803 35.2403 62.896 35.2403 62.896C33.3847 48.4265 42.8838 49.855 42.8838 49.855L42.8691 49.8477Z" fill="url(#paint13_radial_49_243)" fill-opacity="0.6"/>
<path d="M42.8691 49.8477C63.362 51.2394 80.7181 41.8287 80.7181 41.8287C90.1656 36.9981 97.647 38.8611 102.183 41.2617C110.209 45.3632 113.096 55.2967 113.096 55.2967C115.496 63.382 114.775 67.4173 114.775 67.4173H114.767C114.407 73.5585 107.647 80.2447 107.647 80.2447C101.815 87.0119 99.6205 92.5567 99.6205 92.5567C98.3024 117.939 137.978 135.987 137.978 135.987C167.683 151.031 172.947 173.468 166.556 196.273C160.157 219.086 127.256 220.293 127.256 220.293C126.505 220.802 126.218 222.186 126.314 223.224C127.33 228.622 122.963 228.452 122.963 228.452C120.342 228.467 119.311 227.966 113.096 227.93C100.291 229.292 97.9121 227.628 97.9121 227.628C97.382 220.89 103.508 221.626 103.508 221.626C109.215 221.877 111.881 218.968 111.881 218.968C103.236 213.895 98.7516 204.307 98.7516 204.307L95.9976 227.245C82.2055 231.567 78.0083 227.245 78.0083 227.245C78.0083 222.79 81.5207 223.357 81.5207 223.357C87.5368 223.106 89.2893 219.218 89.2893 219.218L82.7725 178.608C75.8802 171.966 70.9907 159.499 70.9907 159.499C70.9907 161.252 69.8641 162.504 69.8641 162.504C61.904 156.237 60.0852 136.061 60.0852 136.061C59.2678 138.005 57.7657 138.844 57.7657 138.844C52.8762 107.829 66.8229 89.5891 66.8229 89.5891C50.5272 83.6982 43.1341 78.2492 43.1341 78.2492C36.1166 72.3803 35.2403 62.896 35.2403 62.896C33.3847 48.4265 42.8838 49.855 42.8838 49.855L42.8691 49.8477Z" fill="url(#paint14_radial_49_243)" fill-opacity="0.4"/>
<path d="M42.8691 49.8477C63.362 51.2394 80.7181 41.8287 80.7181 41.8287C90.1656 36.9981 97.647 38.8611 102.183 41.2617C110.209 45.3632 113.096 55.2967 113.096 55.2967C115.496 63.382 114.775 67.4173 114.775 67.4173H114.767C114.407 73.5585 107.647 80.2447 107.647 80.2447C101.815 87.0119 99.6205 92.5567 99.6205 92.5567C98.3024 117.939 137.978 135.987 137.978 135.987C167.683 151.031 172.947 173.468 166.556 196.273C160.157 219.086 127.256 220.293 127.256 220.293C126.505 220.802 126.218 222.186 126.314 223.224C127.33 228.622 122.963 228.452 122.963 228.452C120.342 228.467 119.311 227.966 113.096 227.93C100.291 229.292 97.9121 227.628 97.9121 227.628C97.382 220.89 103.508 221.626 103.508 221.626C109.215 221.877 111.881 218.968 111.881 218.968C103.236 213.895 98.7516 204.307 98.7516 204.307L95.9976 227.245C82.2055 231.567 78.0083 227.245 78.0083 227.245C78.0083 222.79 81.5207 223.357 81.5207 223.357C87.5368 223.106 89.2893 219.218 89.2893 219.218L82.7725 178.608C75.8802 171.966 70.9907 159.499 70.9907 159.499C70.9907 161.252 69.8641 162.504 69.8641 162.504C61.904 156.237 60.0852 136.061 60.0852 136.061C59.2678 138.005 57.7657 138.844 57.7657 138.844C52.8762 107.829 66.8229 89.5891 66.8229 89.5891C50.5272 83.6982 43.1341 78.2492 43.1341 78.2492C36.1166 72.3803 35.2403 62.896 35.2403 62.896C33.3847 48.4265 42.8838 49.855 42.8838 49.855L42.8691 49.8477Z" fill="url(#paint15_radial_49_243)" fill-opacity="0.4"/>
<path d="M42.8691 49.8477C63.362 51.2394 80.7181 41.8287 80.7181 41.8287C90.1656 36.9981 97.647 38.8611 102.183 41.2617C110.209 45.3632 113.096 55.2967 113.096 55.2967C115.496 63.382 114.775 67.4173 114.775 67.4173H114.767C114.407 73.5585 107.647 80.2447 107.647 80.2447C101.815 87.0119 99.6205 92.5567 99.6205 92.5567C98.3024 117.939 137.978 135.987 137.978 135.987C167.683 151.031 172.947 173.468 166.556 196.273C160.157 219.086 127.256 220.293 127.256 220.293C126.505 220.802 126.218 222.186 126.314 223.224C127.33 228.622 122.963 228.452 122.963 228.452C120.342 228.467 119.311 227.966 113.096 227.93C100.291 229.292 97.9121 227.628 97.9121 227.628C97.382 220.89 103.508 221.626 103.508 221.626C109.215 221.877 111.881 218.968 111.881 218.968C103.236 213.895 98.7516 204.307 98.7516 204.307L95.9976 227.245C82.2055 231.567 78.0083 227.245 78.0083 227.245C78.0083 222.79 81.5207 223.357 81.5207 223.357C87.5368 223.106 89.2893 219.218 89.2893 219.218L82.7725 178.608C75.8802 171.966 70.9907 159.499 70.9907 159.499C70.9907 161.252 69.8641 162.504 69.8641 162.504C61.904 156.237 60.0852 136.061 60.0852 136.061C59.2678 138.005 57.7657 138.844 57.7657 138.844C52.8762 107.829 66.8229 89.5891 66.8229 89.5891C50.5272 83.6982 43.1341 78.2492 43.1341 78.2492C36.1166 72.3803 35.2403 62.896 35.2403 62.896C33.3847 48.4265 42.8838 49.855 42.8838 49.855L42.8691 49.8477Z" fill="url(#paint16_radial_49_243)" fill-opacity="0.4"/>
<path d="M42.8691 49.8477C63.362 51.2394 80.7181 41.8287 80.7181 41.8287C90.1656 36.9981 97.647 38.8611 102.183 41.2617C110.209 45.3632 113.096 55.2967 113.096 55.2967C115.496 63.382 114.775 67.4173 114.775 67.4173H114.767C114.407 73.5585 107.647 80.2447 107.647 80.2447C101.815 87.0119 99.6205 92.5567 99.6205 92.5567C98.3024 117.939 137.978 135.987 137.978 135.987C167.683 151.031 172.947 173.468 166.556 196.273C160.157 219.086 127.256 220.293 127.256 220.293C126.505 220.802 126.218 222.186 126.314 223.224C127.33 228.622 122.963 228.452 122.963 228.452C120.342 228.467 119.311 227.966 113.096 227.93C100.291 229.292 97.9121 227.628 97.9121 227.628C97.382 220.89 103.508 221.626 103.508 221.626C109.215 221.877 111.881 218.968 111.881 218.968C103.236 213.895 98.7516 204.307 98.7516 204.307L95.9976 227.245C82.2055 231.567 78.0083 227.245 78.0083 227.245C78.0083 222.79 81.5207 223.357 81.5207 223.357C87.5368 223.106 89.2893 219.218 89.2893 219.218L82.7725 178.608C75.8802 171.966 70.9907 159.499 70.9907 159.499C70.9907 161.252 69.8641 162.504 69.8641 162.504C61.904 156.237 60.0852 136.061 60.0852 136.061C59.2678 138.005 57.7657 138.844 57.7657 138.844C52.8762 107.829 66.8229 89.5891 66.8229 89.5891C50.5272 83.6982 43.1341 78.2492 43.1341 78.2492C36.1166 72.3803 35.2403 62.896 35.2403 62.896C33.3847 48.4265 42.8838 49.855 42.8838 49.855L42.8691 49.8477Z" fill="url(#paint17_radial_49_243)" fill-opacity="0.4"/>
<path d="M42.8691 49.8477C63.362 51.2394 80.7181 41.8287 80.7181 41.8287C90.1656 36.9981 97.647 38.8611 102.183 41.2617C110.209 45.3632 113.096 55.2967 113.096 55.2967C115.496 63.382 114.775 67.4173 114.775 67.4173H114.767C114.407 73.5585 107.647 80.2447 107.647 80.2447C101.815 87.0119 99.6205 92.5567 99.6205 92.5567C98.3024 117.939 137.978 135.987 137.978 135.987C167.683 151.031 172.947 173.468 166.556 196.273C160.157 219.086 127.256 220.293 127.256 220.293C126.505 220.802 126.218 222.186 126.314 223.224C127.33 228.622 122.963 228.452 122.963 228.452C120.342 228.467 119.311 227.966 113.096 227.93C100.291 229.292 97.9121 227.628 97.9121 227.628C97.382 220.89 103.508 221.626 103.508 221.626C109.215 221.877 111.881 218.968 111.881 218.968C103.236 213.895 98.7516 204.307 98.7516 204.307L95.9976 227.245C82.2055 231.567 78.0083 227.245 78.0083 227.245C78.0083 222.79 81.5207 223.357 81.5207 223.357C87.5368 223.106 89.2893 219.218 89.2893 219.218L82.7725 178.608C75.8802 171.966 70.9907 159.499 70.9907 159.499C70.9907 161.252 69.8641 162.504 69.8641 162.504C61.904 156.237 60.0852 136.061 60.0852 136.061C59.2678 138.005 57.7657 138.844 57.7657 138.844C52.8762 107.829 66.8229 89.5891 66.8229 89.5891C50.5272 83.6982 43.1341 78.2492 43.1341 78.2492C36.1166 72.3803 35.2403 62.896 35.2403 62.896C33.3847 48.4265 42.8838 49.855 42.8838 49.855L42.8691 49.8477Z" fill="url(#paint18_radial_49_243)" fill-opacity="0.4"/>
<path d="M42.8691 49.8477C63.362 51.2394 80.7181 41.8287 80.7181 41.8287C90.1656 36.9981 97.647 38.8611 102.183 41.2617C110.209 45.3632 113.096 55.2967 113.096 55.2967C115.496 63.382 114.775 67.4173 114.775 67.4173H114.767C114.407 73.5585 107.647 80.2447 107.647 80.2447C101.815 87.0119 99.6205 92.5567 99.6205 92.5567C98.3024 117.939 137.978 135.987 137.978 135.987C167.683 151.031 172.947 173.468 166.556 196.273C160.157 219.086 127.256 220.293 127.256 220.293C126.505 220.802 126.218 222.186 126.314 223.224C127.33 228.622 122.963 228.452 122.963 228.452C120.342 228.467 119.311 227.966 113.096 227.93C100.291 229.292 97.9121 227.628 97.9121 227.628C97.382 220.89 103.508 221.626 103.508 221.626C109.215 221.877 111.881 218.968 111.881 218.968C103.236 213.895 98.7516 204.307 98.7516 204.307L95.9976 227.245C82.2055 231.567 78.0083 227.245 78.0083 227.245C78.0083 222.79 81.5207 223.357 81.5207 223.357C87.5368 223.106 89.2893 219.218 89.2893 219.218L82.7725 178.608C75.8802 171.966 70.9907 159.499 70.9907 159.499C70.9907 161.252 69.8641 162.504 69.8641 162.504C61.904 156.237 60.0852 136.061 60.0852 136.061C59.2678 138.005 57.7657 138.844 57.7657 138.844C52.8762 107.829 66.8229 89.5891 66.8229 89.5891C50.5272 83.6982 43.1341 78.2492 43.1341 78.2492C36.1166 72.3803 35.2403 62.896 35.2403 62.896C33.3847 48.4265 42.8838 49.855 42.8838 49.855L42.8691 49.8477Z" fill="url(#paint19_linear_49_243)" fill-opacity="0.4"/>
<mask id="mask0_49_243" style="mask-type:luminance" maskUnits="userSpaceOnUse" x="35" y="38" width="134" height="192">
<path d="M42.8691 49.8477C63.362 51.2394 80.7181 41.8287 80.7181 41.8287C90.1656 36.9981 97.647 38.8611 102.183 41.2617C110.209 45.3632 113.096 55.2967 113.096 55.2967C115.496 63.382 114.775 67.4173 114.775 67.4173H114.767C114.407 73.5585 107.647 80.2447 107.647 80.2447C101.815 87.0119 99.6205 92.5567 99.6205 92.5567C98.3024 117.939 137.978 135.987 137.978 135.987C167.683 151.031 172.947 173.468 166.556 196.273C160.157 219.086 127.256 220.293 127.256 220.293C126.505 220.802 126.218 222.186 126.314 223.224C127.33 228.622 122.963 228.452 122.963 228.452C120.342 228.467 119.311 227.966 113.096 227.93C100.291 229.292 97.9121 227.628 97.9121 227.628C97.382 220.89 103.508 221.626 103.508 221.626C109.215 221.877 111.881 218.968 111.881 218.968C103.236 213.895 98.7516 204.307 98.7516 204.307L95.9976 227.245C82.2055 231.567 78.0083 227.245 78.0083 227.245C78.0083 222.79 81.5207 223.357 81.5207 223.357C87.5368 223.106 89.2893 219.218 89.2893 219.218L82.7725 178.608C75.8802 171.966 70.9907 159.499 70.9907 159.499C70.9907 161.252 69.8641 162.504 69.8641 162.504C61.904 156.237 60.0852 136.061 60.0852 136.061C59.2678 138.005 57.7657 138.844 57.7657 138.844C52.8762 107.829 66.8229 89.5891 66.8229 89.5891C50.5272 83.6982 43.1341 78.2492 43.1341 78.2492C36.1166 72.3803 35.2403 62.896 35.2403 62.896C33.3847 48.4265 42.8838 49.855 42.8838 49.855L42.8691 49.8477Z" fill="white"/>
</mask>
<g mask="url(#mask0_49_243)">
<path d="M109.655 67.9726C109.655 67.9726 112.791 69.0035 119.375 68.2156L118.027 64.4233L109.655 67.9726Z" fill="#E27826"/>
<path d="M66.8087 89.5808C66.8087 89.5808 83.421 96.0092 92.3384 87.9239C92.3384 87.9239 81.6538 94.3598 62.2874 87.1213C62.2874 87.1213 51.1978 82.924 42.1479 77.3645L41.5883 79.3748L62.2432 89.8606L66.8087 89.5734" fill="#E27826"/>
<path d="M97.2038 217.055L99.9136 178.315L99.3908 206.769L97.2038 217.055Z" fill="#EA9F0B"/>
<path d="M82.7559 178.598L80.5541 162.87L81.3497 180.997L82.7559 178.598Z" fill="#EA9F0B"/>
<path d="M113.765 117.904C113.765 117.904 120.282 128.868 138.455 138.426C156.628 147.984 165.862 161.909 167.033 166.695C167.033 166.695 165.273 146.733 140.208 135.702L113.765 117.904Z" fill="#FFE5B3"/>
<path d="M105.555 43.5255C105.555 43.5255 96.3133 36.5153 81.0854 43.5255C65.8574 50.5357 53.5233 49.6668 53.5233 49.6668L85.0323 38.128L99.0379 36.2502L105.334 41.8908L105.547 43.5255H105.555Z" fill="#FFE5B3"/>
<path d="M111.865 218.953C111.865 218.953 90.82 198.129 110.496 180.081C110.496 180.081 93.8686 194.986 111.865 218.953Z" fill="#EA9F0B"/>
<path d="M127.246 220.29C127.246 220.29 129.845 212.67 130.316 210.085C130.316 210.085 129.72 220.195 128.107 222.971L127.246 220.29Z" fill="#EA9F0B"/>
</g>
<path d="M109.606 67.9688C112.611 67.9099 114.783 67.1735 114.783 67.1735C114.783 67.1735 130.983 60.6199 127.345 47.52C125.718 42.2256 121.822 37.3214 122.706 34.9282C122.706 34.9282 120.026 39.1549 122.706 46.0547C122.706 46.0547 126.086 55.9146 115.18 61.8717C115.18 61.8717 111.83 63.4402 109.584 63.7936C109.569 66.2531 109.606 67.9688 109.606 67.9688Z" fill="#FFC24A"/>
<path d="M109.606 67.9688C112.611 67.9099 114.783 67.1735 114.783 67.1735C114.783 67.1735 130.983 60.6199 127.345 47.52C125.718 42.2256 121.822 37.3214 122.706 34.9282C122.706 34.9282 120.026 39.1549 122.706 46.0547C122.706 46.0547 126.086 55.9146 115.18 61.8717C115.18 61.8717 111.83 63.4402 109.584 63.7936C109.569 66.2531 109.606 67.9688 109.606 67.9688Z" fill="url(#paint20_linear_49_243)" fill-opacity="0.8"/>
<path d="M109.606 67.9688C112.611 67.9099 114.783 67.1735 114.783 67.1735C114.783 67.1735 130.983 60.6199 127.345 47.52C125.718 42.2256 121.822 37.3214 122.706 34.9282C122.706 34.9282 120.026 39.1549 122.706 46.0547C122.706 46.0547 126.086 55.9146 115.18 61.8717C115.18 61.8717 111.83 63.4402 109.584 63.7936C109.569 66.2531 109.606 67.9688 109.606 67.9688Z" fill="url(#paint21_linear_49_243)" fill-opacity="0.4"/>
<path d="M109.584 63.7936C111.83 63.4402 115.18 61.8717 115.18 61.8717C126.086 55.9146 122.706 46.0547 122.706 46.0547C120.026 39.1549 122.706 34.9282 122.706 34.9282C122.706 34.9282 112.434 35.1786 110.298 50.5907C109.731 54.4197 109.599 59.994 109.584 63.7936Z" fill="#F18111"/>
<path d="M109.584 63.7936C111.83 63.4402 115.18 61.8717 115.18 61.8717C126.086 55.9146 122.706 46.0547 122.706 46.0547C120.026 39.1549 122.706 34.9282 122.706 34.9282C122.706 34.9282 112.434 35.1786 110.298 50.5907C109.731 54.4197 109.599 59.994 109.584 63.7936Z" fill="url(#paint22_linear_49_243)" fill-opacity="0.8"/>
<path d="M212.395 89.041C210.266 90.3585 208.512 92.0414 207.304 93.7892C203.907 98.9499 206.093 102.342 208.35 106.275C210.813 110.207 214.296 114.322 217.985 118.567C224.033 126.172 228.819 135.819 229.807 147.122C231.479 161.443 223.876 178.122 211.686 185.472C199.674 193.151 186.315 193.386 175.244 190.359C172.774 189.676 170.376 188.824 168.022 187.824C170.375 186.824 172.606 185.776 174.736 184.681C195.177 174.52 201.473 161.374 199.914 149.656C199.494 144.565 197.975 138.613 195.524 132.179C192.624 125.437 190.301 118.094 190.409 109.486C189.963 101.117 196.17 89.8977 204.415 88.8757C207.228 88.2797 209.945 88.3892 212.395 89.041Z" fill="#FFC24A"/>
<path d="M40.7095 55.1064C39.6854 56.5737 40.1267 58.7495 41.8536 59.9548C43.5804 61.16 45.78 60.8274 46.8041 59.3601C47.8282 57.8927 44.7994 55.734 44.7994 55.734C44.7994 55.734 41.7294 53.6451 40.7095 55.1064Z" fill="#E27826"/>
<defs>
<linearGradient id="paint0_linear_49_243" x1="55.2117" y1="35.5672" x2="69.5901" y2="47.0601" gradientUnits="userSpaceOnUse">
<stop offset="0.217892" stop-color="#F18111" stop-opacity="0"/>
<stop offset="0.857237" stop-color="#E27826"/>
</linearGradient>
<linearGradient id="paint1_linear_49_243" x1="86.8751" y1="44.0353" x2="80.4066" y2="24.2142" gradientUnits="userSpaceOnUse">
<stop offset="0.142763" stop-color="#F18111"/>
<stop offset="0.720552" stop-color="#FFC24A" stop-opacity="0"/>
</linearGradient>
<linearGradient id="paint2_linear_49_243" x1="77.3024" y1="34.4626" x2="84.6661" y2="25.9945" gradientUnits="userSpaceOnUse">
<stop offset="0.108255" stop-color="#FFC24A" stop-opacity="0"/>
<stop offset="0.910511" stop-color="#FFF4C7"/>
</linearGradient>
<linearGradient id="paint3_linear_49_243" x1="95.7102" y1="217.074" x2="53.3317" y2="207.044" gradientUnits="userSpaceOnUse">
<stop offset="0.142763" stop-color="#F18111"/>
<stop offset="0.720552" stop-color="#FFC24A" stop-opacity="0"/>
</linearGradient>
<linearGradient id="paint4_linear_49_243" x1="74.3575" y1="154.124" x2="19.6282" y2="164.248" gradientUnits="userSpaceOnUse">
<stop offset="0.142763" stop-color="#F18111"/>
<stop offset="0.720552" stop-color="#FFC24A" stop-opacity="0"/>
</linearGradient>
<linearGradient id="paint5_linear_49_243" x1="67.7302" y1="213.033" x2="55.9902" y2="179.988" gradientUnits="userSpaceOnUse">
<stop offset="0.142763" stop-color="#F18111"/>
<stop offset="0.720552" stop-color="#FFC24A" stop-opacity="0"/>
</linearGradient>
<linearGradient id="paint6_linear_49_243" x1="64.4166" y1="168.851" x2="45.2712" y2="163.696" gradientUnits="userSpaceOnUse">
<stop offset="0.145993" stop-color="#FFC24A" stop-opacity="0"/>
<stop offset="0.910511" stop-color="#FFF4C7"/>
</linearGradient>
<linearGradient id="paint7_linear_49_243" x1="148.5" y1="233.5" x2="113.5" y2="127" gradientUnits="userSpaceOnUse">
<stop stop-color="#F18111"/>
<stop offset="0.810738" stop-color="#FFC24A" stop-opacity="0"/>
</linearGradient>
<radialGradient id="paint8_radial_49_243" cx="0" cy="0" r="1" gradientUnits="userSpaceOnUse" gradientTransform="translate(104.179 214.872) rotate(-85.9717) scale(26.2056 38.356)">
<stop stop-color="#F18111"/>
<stop offset="0.710567" stop-color="#FFC24A" stop-opacity="0"/>
</radialGradient>
<radialGradient id="paint9_radial_49_243" cx="0" cy="0" r="1" gradientUnits="userSpaceOnUse" gradientTransform="translate(116.329 226.654) rotate(-86.1215) scale(21.7726 60.3429)">
<stop stop-color="#F18111"/>
<stop offset="0.468635" stop-color="#FFC24A" stop-opacity="0"/>
</radialGradient>
<radialGradient id="paint10_radial_49_243" cx="0" cy="0" r="1" gradientUnits="userSpaceOnUse" gradientTransform="translate(94.9741 208.613) rotate(-178.409) scale(13.2596 13.2821)">
<stop stop-color="#F18111"/>
<stop offset="0.710567" stop-color="#FFC24A" stop-opacity="0"/>
</radialGradient>
<radialGradient id="paint11_radial_49_243" cx="0" cy="0" r="1" gradientUnits="userSpaceOnUse" gradientTransform="translate(96.815 221.499) rotate(178.727) scale(16.5722 24.8934)">
<stop stop-color="#F18111"/>
<stop offset="0.710567" stop-color="#FFC24A" stop-opacity="0"/>
</radialGradient>
<radialGradient id="paint12_radial_49_243" cx="0" cy="0" r="1" gradientUnits="userSpaceOnUse" gradientTransform="translate(81.7196 228.863) rotate(-80.2724) scale(13.0743 19.1363)">
<stop stop-color="#F18111"/>
<stop offset="0.710567" stop-color="#FFC24A" stop-opacity="0"/>
</radialGradient>
<radialGradient id="paint13_radial_49_243" cx="0" cy="0" r="1" gradientUnits="userSpaceOnUse" gradientTransform="translate(78.0378 174.004) rotate(-28.4429) scale(20.0988 29.4177)">
<stop stop-color="#F18111"/>
<stop offset="0.710567" stop-color="#FFC24A" stop-opacity="0"/>
</radialGradient>
<radialGradient id="paint14_radial_49_243" cx="0" cy="0" r="1" gradientUnits="userSpaceOnUse" gradientTransform="translate(85.5 173.5) rotate(-6.8191) scale(14.3621 36.048)">
<stop stop-color="#FFF4C7"/>
<stop offset="0.710567" stop-color="#FFC24A" stop-opacity="0"/>
</radialGradient>
<radialGradient id="paint15_radial_49_243" cx="0" cy="0" r="1" gradientUnits="userSpaceOnUse" gradientTransform="translate(158.669 147.495) rotate(126.87) scale(36.8181 89.8335)">
<stop stop-color="#FFF4C7"/>
<stop offset="0.542891" stop-color="#FFC24A" stop-opacity="0"/>
</radialGradient>
<radialGradient id="paint16_radial_49_243" cx="0" cy="0" r="1" gradientUnits="userSpaceOnUse" gradientTransform="translate(136.21 133.872) rotate(117.962) scale(33.7644 74.5995)">
<stop stop-color="#FFF4C7"/>
<stop offset="0.546188" stop-color="#FFC24A" stop-opacity="0"/>
</radialGradient>
<radialGradient id="paint17_radial_49_243" cx="0" cy="0" r="1" gradientUnits="userSpaceOnUse" gradientTransform="translate(61.1014 149.704) rotate(-20.1575) scale(22.9014 55.6438)">
<stop stop-color="#FFF4C7"/>
<stop offset="0.710567" stop-color="#FFC24A" stop-opacity="0"/>
</radialGradient>
<radialGradient id="paint18_radial_49_243" cx="0" cy="0" r="1" gradientUnits="userSpaceOnUse" gradientTransform="translate(56.6833 132.031) rotate(-13.815) scale(23.1281 48.7591)">
<stop stop-color="#FFF4C7"/>
<stop offset="0.710567" stop-color="#FFC24A" stop-opacity="0"/>
</radialGradient>
<linearGradient id="paint19_linear_49_243" x1="93.5014" y1="64.2858" x2="87.6427" y2="39.5761" gradientUnits="userSpaceOnUse">
<stop offset="0.108255" stop-color="#FFC24A" stop-opacity="0"/>
<stop offset="0.910511" stop-color="#FFF4C7"/>
</linearGradient>
<linearGradient id="paint20_linear_49_243" x1="128.479" y1="60.2292" x2="116.048" y2="49.5737" gradientUnits="userSpaceOnUse">
<stop offset="0.142763" stop-color="#F18111"/>
<stop offset="0.720552" stop-color="#FFC24A" stop-opacity="0"/>
</linearGradient>
<linearGradient id="paint21_linear_49_243" x1="120.748" y1="45.5019" x2="125.902" y2="42.9247" gradientUnits="userSpaceOnUse">
<stop offset="0.108255" stop-color="#FFC24A" stop-opacity="0"/>
<stop offset="0.910511" stop-color="#FFF4C7"/>
</linearGradient>
<linearGradient id="paint22_linear_49_243" x1="108.597" y1="47.711" x2="117.341" y2="60.4128" gradientUnits="userSpaceOnUse">
<stop offset="0.217892" stop-color="#F18111" stop-opacity="0"/>
<stop offset="0.857237" stop-color="#E27826"/>
</linearGradient>
</defs>
</svg>
