<svg width="250" height="251" viewBox="0 0 250 251" fill="none" xmlns="http://www.w3.org/2000/svg">
<path d="M90.2562 71.013C89.9552 70.461 89.5686 69.9381 89.1327 69.4593C88.018 68.2248 86.3341 67.2063 84.4019 67.3288C82.4689 67.444 80.8336 68.5458 79.5774 69.779L79.6021 69.7532C77.4832 72.4841 78.0439 75.286 78.5966 77.7421C80.2596 83.5944 83.9923 88.1511 88.0151 92.1662C88.4579 92.5973 88.9186 93.0339 89.3978 93.4762C89.0492 92.9251 88.7147 92.3876 88.3935 91.8636C85.4569 87.0308 82.4914 82.2001 81.0634 77.0955C80.4836 75.0408 80.3882 72.503 81.153 71.2864L81.1777 71.2606C82.965 68.842 86.0712 67.8022 88.8163 69.8263C89.3261 70.1668 89.8196 70.5636 90.2562 71.013Z" fill="#E27826"/>
<path d="M96.9228 186.998C96.9228 186.998 84.4693 182.639 75.9543 191.401C75.9543 191.401 78.1157 190.719 78.7902 191.401C78.7902 191.401 74.2208 198.61 75.9543 204.659C75.9543 204.659 77.0059 202.44 77.9924 202.686C77.9924 202.686 79.6606 215.031 85.7096 216.757C85.7096 216.757 86.5147 206.56 88.6761 206.313C88.6761 206.313 89.3361 208.271 90.0832 208.641C90.0832 208.641 89.2926 200.859 91.0551 199.705C91.0551 199.705 91.2582 200.605 91.8094 201.062C91.8094 201.062 93.1947 197.45 95.5737 196.957C95.5737 196.957 99.3598 195.905 99.309 192.213L96.93 186.998H96.9228Z" fill="#FFC24A"/>
<path d="M96.9228 186.998C96.9228 186.998 84.4693 182.639 75.9543 191.401C75.9543 191.401 78.1157 190.719 78.7902 191.401C78.7902 191.401 74.2208 198.61 75.9543 204.659C75.9543 204.659 77.0059 202.44 77.9924 202.686C77.9924 202.686 79.6606 215.031 85.7096 216.757C85.7096 216.757 86.5147 206.56 88.6761 206.313C88.6761 206.313 89.3361 208.271 90.0832 208.641C90.0832 208.641 89.2926 200.859 91.0551 199.705C91.0551 199.705 91.2582 200.605 91.8094 201.062C91.8094 201.062 93.1947 197.45 95.5737 196.957C95.5737 196.957 99.3598 195.905 99.309 192.213L96.93 186.998H96.9228Z" fill="url(#paint0_linear_49_261)" fill-opacity="0.8"/>
<path d="M149.093 197.257C149.093 197.257 148.078 197.402 146.243 197.51C141.731 197.779 132.252 197.851 120.748 195.124C104.574 191.302 84.824 189.815 83.8304 199.694C83.8304 199.694 80.6245 180.93 123.584 187.349C123.584 187.349 157.862 193.383 156.948 179.82C156.948 179.82 156.883 176.172 153.285 175.309H153.256C158.5 175.418 163.171 176.709 164.267 180.654C167.784 194.355 149.093 197.257 149.093 197.257Z" fill="#FFC24A"/>
<path d="M149.093 197.257C149.093 197.257 148.078 197.402 146.243 197.51C141.731 197.779 132.252 197.851 120.748 195.124C104.574 191.302 84.824 189.815 83.8304 199.694C83.8304 199.694 80.6245 180.93 123.584 187.349C123.584 187.349 157.862 193.383 156.948 179.82C156.948 179.82 156.883 176.172 153.285 175.309H153.256C158.5 175.418 163.171 176.709 164.267 180.654C167.784 194.355 149.093 197.257 149.093 197.257Z" fill="url(#paint1_radial_49_261)" fill-opacity="0.8"/>
<path d="M149.093 197.257C149.093 197.257 148.078 197.402 146.243 197.51C141.731 197.779 132.252 197.851 120.748 195.124C104.574 191.302 84.824 189.815 83.8304 199.694C83.8304 199.694 80.6245 180.93 123.584 187.349C123.584 187.349 157.862 193.383 156.948 179.82C156.948 179.82 156.883 176.172 153.285 175.309H153.256C158.5 175.418 163.171 176.709 164.267 180.654C167.784 194.355 149.093 197.257 149.093 197.257Z" fill="url(#paint2_linear_49_261)" fill-opacity="0.8"/>
<path d="M95.5807 54.9893C95.5807 54.9893 87.5443 45.3137 96.4873 34.4487C96.6904 34.2021 97.0893 34.4052 96.995 34.7098C96.1972 37.1468 94.4782 42.7172 95.9579 44.5232C95.9579 44.5232 97.0748 45.8432 98.7358 44.0155C98.7793 43.9647 98.8663 43.9864 98.8663 44.059C98.8663 45.1034 98.6923 50.4416 95.5952 54.9893H95.5807Z" fill="#FFC24A"/>
<path d="M95.5807 54.9893C95.5807 54.9893 87.5443 45.3137 96.4873 34.4487C96.6904 34.2021 97.0893 34.4052 96.995 34.7098C96.1972 37.1468 94.4782 42.7172 95.9579 44.5232C95.9579 44.5232 97.0748 45.8432 98.7358 44.0155C98.7793 43.9647 98.8663 43.9864 98.8663 44.059C98.8663 45.1034 98.6923 50.4416 95.5952 54.9893H95.5807Z" fill="url(#paint3_linear_49_261)" fill-opacity="0.8"/>
<path d="M95.5807 54.9893C95.5807 54.9893 87.5443 45.3137 96.4873 34.4487C96.6904 34.2021 97.0893 34.4052 96.995 34.7098C96.1972 37.1468 94.4782 42.7172 95.9579 44.5232C95.9579 44.5232 97.0748 45.8432 98.7358 44.0155C98.7793 43.9647 98.8663 43.9864 98.8663 44.059C98.8663 45.1034 98.6923 50.4416 95.5952 54.9893H95.5807Z" fill="url(#paint4_linear_49_261)" fill-opacity="0.8"/>
<path d="M95.5807 54.9893C95.5807 54.9893 87.5443 45.3137 96.4873 34.4487C96.6904 34.2021 97.0893 34.4052 96.995 34.7098C96.1972 37.1468 94.4782 42.7172 95.9579 44.5232C95.9579 44.5232 97.0748 45.8432 98.7358 44.0155C98.7793 43.9647 98.8663 43.9864 98.8663 44.059C98.8663 45.1034 98.6923 50.4416 95.5952 54.9893H95.5807Z" fill="url(#paint5_linear_49_261)" fill-opacity="0.6"/>
<path d="M168.735 116.003L168.756 115.981C168.988 115.793 170.802 114.212 172.68 111.412C175.001 107.959 177.417 102.658 177.068 95.8034C177.061 95.5786 177.047 95.3537 177.025 95.1289C177.01 94.9185 176.996 94.7082 176.974 94.4906C176.938 94.2005 176.902 93.9031 176.865 93.6057C176.844 93.4244 176.815 93.2358 176.785 93.0545C176.764 92.8804 176.735 92.6991 176.698 92.525C176.677 92.3655 176.648 92.2059 176.611 92.0463C176.568 91.7997 176.51 91.5459 176.459 91.292C176.416 91.0962 176.372 90.8931 176.321 90.6973C176.082 89.7036 175.785 88.6809 175.422 87.6365C175.357 87.4552 175.291 87.2738 175.226 87.0925C174.972 86.3962 174.689 85.6927 174.37 84.9746C174.261 84.728 174.145 84.4814 174.029 84.2276C173.913 83.9737 173.79 83.7271 173.667 83.4732C173.536 83.2049 173.398 82.9293 173.253 82.6536C173.13 82.4143 172.999 82.1749 172.869 81.9356C172.724 81.6672 172.571 81.3989 172.419 81.1233C172.274 80.8766 172.129 80.6228 171.977 80.3689C171.331 79.2955 170.62 78.2003 169.837 77.0833C169.271 76.2855 168.669 75.4804 168.024 74.6608C167.806 74.3852 167.581 74.1023 167.349 73.8194C167.016 73.3988 166.66 72.9781 166.298 72.5574C166.036 72.2528 165.768 71.9409 165.493 71.629C165.493 71.629 155.984 59.2771 125.369 59.3061C125.369 59.3061 125.818 65.4277 115.867 70.6716C114.17 71.571 112.168 72.4414 109.811 73.2537C109.811 73.2537 108.143 73.6236 106.235 75.8503C104.32 78.0697 99.751 84.0607 92.2803 81.2828C84.8097 78.5049 87.283 68.6263 92.157 66.153C92.157 66.153 92.2368 50.791 102.928 44.5317C105.343 43.1173 108.295 42.1599 111.914 41.9568C111.914 41.9568 122.235 41.7102 126.21 48.0712C126.21 48.0712 179.259 42.6967 185.736 85.4751C185.736 85.4751 188.55 111.833 168.735 116.003Z" fill="#FFC24A"/>
<path d="M168.735 116.003L168.756 115.981C168.988 115.793 170.802 114.212 172.68 111.412C175.001 107.959 177.417 102.658 177.068 95.8034C177.061 95.5786 177.047 95.3537 177.025 95.1289C177.01 94.9185 176.996 94.7082 176.974 94.4906C176.938 94.2005 176.902 93.9031 176.865 93.6057C176.844 93.4244 176.815 93.2358 176.785 93.0545C176.764 92.8804 176.735 92.6991 176.698 92.525C176.677 92.3655 176.648 92.2059 176.611 92.0463C176.568 91.7997 176.51 91.5459 176.459 91.292C176.416 91.0962 176.372 90.8931 176.321 90.6973C176.082 89.7036 175.785 88.6809 175.422 87.6365C175.357 87.4552 175.291 87.2738 175.226 87.0925C174.972 86.3962 174.689 85.6927 174.37 84.9746C174.261 84.728 174.145 84.4814 174.029 84.2276C173.913 83.9737 173.79 83.7271 173.667 83.4732C173.536 83.2049 173.398 82.9293 173.253 82.6536C173.13 82.4143 172.999 82.1749 172.869 81.9356C172.724 81.6672 172.571 81.3989 172.419 81.1233C172.274 80.8766 172.129 80.6228 171.977 80.3689C171.331 79.2955 170.62 78.2003 169.837 77.0833C169.271 76.2855 168.669 75.4804 168.024 74.6608C167.806 74.3852 167.581 74.1023 167.349 73.8194C167.016 73.3988 166.66 72.9781 166.298 72.5574C166.036 72.2528 165.768 71.9409 165.493 71.629C165.493 71.629 155.984 59.2771 125.369 59.3061C125.369 59.3061 125.818 65.4277 115.867 70.6716C114.17 71.571 112.168 72.4414 109.811 73.2537C109.811 73.2537 108.143 73.6236 106.235 75.8503C104.32 78.0697 99.751 84.0607 92.2803 81.2828C84.8097 78.5049 87.283 68.6263 92.157 66.153C92.157 66.153 92.2368 50.791 102.928 44.5317C105.343 43.1173 108.295 42.1599 111.914 41.9568C111.914 41.9568 122.235 41.7102 126.21 48.0712C126.21 48.0712 179.259 42.6967 185.736 85.4751C185.736 85.4751 188.55 111.833 168.735 116.003Z" fill="url(#paint6_radial_49_261)" fill-opacity="0.8"/>
<path d="M168.735 116.003L168.756 115.981C168.988 115.793 170.802 114.212 172.68 111.412C175.001 107.959 177.417 102.658 177.068 95.8034C177.061 95.5786 177.047 95.3537 177.025 95.1289C177.01 94.9185 176.996 94.7082 176.974 94.4906C176.938 94.2005 176.902 93.9031 176.865 93.6057C176.844 93.4244 176.815 93.2358 176.785 93.0545C176.764 92.8804 176.735 92.6991 176.698 92.525C176.677 92.3655 176.648 92.2059 176.611 92.0463C176.568 91.7997 176.51 91.5459 176.459 91.292C176.416 91.0962 176.372 90.8931 176.321 90.6973C176.082 89.7036 175.785 88.6809 175.422 87.6365C175.357 87.4552 175.291 87.2738 175.226 87.0925C174.972 86.3962 174.689 85.6927 174.37 84.9746C174.261 84.728 174.145 84.4814 174.029 84.2276C173.913 83.9737 173.79 83.7271 173.667 83.4732C173.536 83.2049 173.398 82.9293 173.253 82.6536C173.13 82.4143 172.999 82.1749 172.869 81.9356C172.724 81.6672 172.571 81.3989 172.419 81.1233C172.274 80.8766 172.129 80.6228 171.977 80.3689C171.331 79.2955 170.62 78.2003 169.837 77.0833C169.271 76.2855 168.669 75.4804 168.024 74.6608C167.806 74.3852 167.581 74.1023 167.349 73.8194C167.016 73.3988 166.66 72.9781 166.298 72.5574C166.036 72.2528 165.768 71.9409 165.493 71.629C165.493 71.629 155.984 59.2771 125.369 59.3061C125.369 59.3061 125.818 65.4277 115.867 70.6716C114.17 71.571 112.168 72.4414 109.811 73.2537C109.811 73.2537 108.143 73.6236 106.235 75.8503C104.32 78.0697 99.751 84.0607 92.2803 81.2828C84.8097 78.5049 87.283 68.6263 92.157 66.153C92.157 66.153 92.2368 50.791 102.928 44.5317C105.343 43.1173 108.295 42.1599 111.914 41.9568C111.914 41.9568 122.235 41.7102 126.21 48.0712C126.21 48.0712 179.259 42.6967 185.736 85.4751C185.736 85.4751 188.55 111.833 168.735 116.003Z" fill="url(#paint7_radial_49_261)" fill-opacity="0.8"/>
<path d="M168.735 116.003L168.756 115.981C168.988 115.793 170.802 114.212 172.68 111.412C175.001 107.959 177.417 102.658 177.068 95.8034C177.061 95.5786 177.047 95.3537 177.025 95.1289C177.01 94.9185 176.996 94.7082 176.974 94.4906C176.938 94.2005 176.902 93.9031 176.865 93.6057C176.844 93.4244 176.815 93.2358 176.785 93.0545C176.764 92.8804 176.735 92.6991 176.698 92.525C176.677 92.3655 176.648 92.2059 176.611 92.0463C176.568 91.7997 176.51 91.5459 176.459 91.292C176.416 91.0962 176.372 90.8931 176.321 90.6973C176.082 89.7036 175.785 88.6809 175.422 87.6365C175.357 87.4552 175.291 87.2738 175.226 87.0925C174.972 86.3962 174.689 85.6927 174.37 84.9746C174.261 84.728 174.145 84.4814 174.029 84.2276C173.913 83.9737 173.79 83.7271 173.667 83.4732C173.536 83.2049 173.398 82.9293 173.253 82.6536C173.13 82.4143 172.999 82.1749 172.869 81.9356C172.724 81.6672 172.571 81.3989 172.419 81.1233C172.274 80.8766 172.129 80.6228 171.977 80.3689C171.331 79.2955 170.62 78.2003 169.837 77.0833C169.271 76.2855 168.669 75.4804 168.024 74.6608C167.806 74.3852 167.581 74.1023 167.349 73.8194C167.016 73.3988 166.66 72.9781 166.298 72.5574C166.036 72.2528 165.768 71.9409 165.493 71.629C165.493 71.629 155.984 59.2771 125.369 59.3061C125.369 59.3061 125.818 65.4277 115.867 70.6716C114.17 71.571 112.168 72.4414 109.811 73.2537C109.811 73.2537 108.143 73.6236 106.235 75.8503C104.32 78.0697 99.751 84.0607 92.2803 81.2828C84.8097 78.5049 87.283 68.6263 92.157 66.153C92.157 66.153 92.2368 50.791 102.928 44.5317C105.343 43.1173 108.295 42.1599 111.914 41.9568C111.914 41.9568 122.235 41.7102 126.21 48.0712C126.21 48.0712 179.259 42.6967 185.736 85.4751C185.736 85.4751 188.55 111.833 168.735 116.003Z" fill="url(#paint8_radial_49_261)" fill-opacity="0.8"/>
<path d="M168.735 116.003L168.756 115.981C168.988 115.793 170.802 114.212 172.68 111.412C175.001 107.959 177.417 102.658 177.068 95.8034C177.061 95.5786 177.047 95.3537 177.025 95.1289C177.01 94.9185 176.996 94.7082 176.974 94.4906C176.938 94.2005 176.902 93.9031 176.865 93.6057C176.844 93.4244 176.815 93.2358 176.785 93.0545C176.764 92.8804 176.735 92.6991 176.698 92.525C176.677 92.3655 176.648 92.2059 176.611 92.0463C176.568 91.7997 176.51 91.5459 176.459 91.292C176.416 91.0962 176.372 90.8931 176.321 90.6973C176.082 89.7036 175.785 88.6809 175.422 87.6365C175.357 87.4552 175.291 87.2738 175.226 87.0925C174.972 86.3962 174.689 85.6927 174.37 84.9746C174.261 84.728 174.145 84.4814 174.029 84.2276C173.913 83.9737 173.79 83.7271 173.667 83.4732C173.536 83.2049 173.398 82.9293 173.253 82.6536C173.13 82.4143 172.999 82.1749 172.869 81.9356C172.724 81.6672 172.571 81.3989 172.419 81.1233C172.274 80.8766 172.129 80.6228 171.977 80.3689C171.331 79.2955 170.62 78.2003 169.837 77.0833C169.271 76.2855 168.669 75.4804 168.024 74.6608C167.806 74.3852 167.581 74.1023 167.349 73.8194C167.016 73.3988 166.66 72.9781 166.298 72.5574C166.036 72.2528 165.768 71.9409 165.493 71.629C165.493 71.629 155.984 59.2771 125.369 59.3061C125.369 59.3061 125.818 65.4277 115.867 70.6716C114.17 71.571 112.168 72.4414 109.811 73.2537C109.811 73.2537 108.143 73.6236 106.235 75.8503C104.32 78.0697 99.751 84.0607 92.2803 81.2828C84.8097 78.5049 87.283 68.6263 92.157 66.153C92.157 66.153 92.2368 50.791 102.928 44.5317C105.343 43.1173 108.295 42.1599 111.914 41.9568C111.914 41.9568 122.235 41.7102 126.21 48.0712C126.21 48.0712 179.259 42.6967 185.736 85.4751C185.736 85.4751 188.55 111.833 168.735 116.003Z" fill="url(#paint9_radial_49_261)" fill-opacity="0.8"/>
<path d="M168.735 116.003L168.756 115.981C168.988 115.793 170.802 114.212 172.68 111.412C175.001 107.959 177.417 102.658 177.068 95.8034C177.061 95.5786 177.047 95.3537 177.025 95.1289C177.01 94.9185 176.996 94.7082 176.974 94.4906C176.938 94.2005 176.902 93.9031 176.865 93.6057C176.844 93.4244 176.815 93.2358 176.785 93.0545C176.764 92.8804 176.735 92.6991 176.698 92.525C176.677 92.3655 176.648 92.2059 176.611 92.0463C176.568 91.7997 176.51 91.5459 176.459 91.292C176.416 91.0962 176.372 90.8931 176.321 90.6973C176.082 89.7036 175.785 88.6809 175.422 87.6365C175.357 87.4552 175.291 87.2738 175.226 87.0925C174.972 86.3962 174.689 85.6927 174.37 84.9746C174.261 84.728 174.145 84.4814 174.029 84.2276C173.913 83.9737 173.79 83.7271 173.667 83.4732C173.536 83.2049 173.398 82.9293 173.253 82.6536C173.13 82.4143 172.999 82.1749 172.869 81.9356C172.724 81.6672 172.571 81.3989 172.419 81.1233C172.274 80.8766 172.129 80.6228 171.977 80.3689C171.331 79.2955 170.62 78.2003 169.837 77.0833C169.271 76.2855 168.669 75.4804 168.024 74.6608C167.806 74.3852 167.581 74.1023 167.349 73.8194C167.016 73.3988 166.66 72.9781 166.298 72.5574C166.036 72.2528 165.768 71.9409 165.493 71.629C165.493 71.629 155.984 59.2771 125.369 59.3061C125.369 59.3061 125.818 65.4277 115.867 70.6716C114.17 71.571 112.168 72.4414 109.811 73.2537C109.811 73.2537 108.143 73.6236 106.235 75.8503C104.32 78.0697 99.751 84.0607 92.2803 81.2828C84.8097 78.5049 87.283 68.6263 92.157 66.153C92.157 66.153 92.2368 50.791 102.928 44.5317C105.343 43.1173 108.295 42.1599 111.914 41.9568C111.914 41.9568 122.235 41.7102 126.21 48.0712C126.21 48.0712 179.259 42.6967 185.736 85.4751C185.736 85.4751 188.55 111.833 168.735 116.003Z" fill="url(#paint10_radial_49_261)" fill-opacity="0.8"/>
<path d="M168.735 116.003L168.756 115.981C168.988 115.793 170.802 114.212 172.68 111.412C175.001 107.959 177.417 102.658 177.068 95.8034C177.061 95.5786 177.047 95.3537 177.025 95.1289C177.01 94.9185 176.996 94.7082 176.974 94.4906C176.938 94.2005 176.902 93.9031 176.865 93.6057C176.844 93.4244 176.815 93.2358 176.785 93.0545C176.764 92.8804 176.735 92.6991 176.698 92.525C176.677 92.3655 176.648 92.2059 176.611 92.0463C176.568 91.7997 176.51 91.5459 176.459 91.292C176.416 91.0962 176.372 90.8931 176.321 90.6973C176.082 89.7036 175.785 88.6809 175.422 87.6365C175.357 87.4552 175.291 87.2738 175.226 87.0925C174.972 86.3962 174.689 85.6927 174.37 84.9746C174.261 84.728 174.145 84.4814 174.029 84.2276C173.913 83.9737 173.79 83.7271 173.667 83.4732C173.536 83.2049 173.398 82.9293 173.253 82.6536C173.13 82.4143 172.999 82.1749 172.869 81.9356C172.724 81.6672 172.571 81.3989 172.419 81.1233C172.274 80.8766 172.129 80.6228 171.977 80.3689C171.331 79.2955 170.62 78.2003 169.837 77.0833C169.271 76.2855 168.669 75.4804 168.024 74.6608C167.806 74.3852 167.581 74.1023 167.349 73.8194C167.016 73.3988 166.66 72.9781 166.298 72.5574C166.036 72.2528 165.768 71.9409 165.493 71.629C165.493 71.629 155.984 59.2771 125.369 59.3061C125.369 59.3061 125.818 65.4277 115.867 70.6716C114.17 71.571 112.168 72.4414 109.811 73.2537C109.811 73.2537 108.143 73.6236 106.235 75.8503C104.32 78.0697 99.751 84.0607 92.2803 81.2828C84.8097 78.5049 87.283 68.6263 92.157 66.153C92.157 66.153 92.2368 50.791 102.928 44.5317C105.343 43.1173 108.295 42.1599 111.914 41.9568C111.914 41.9568 122.235 41.7102 126.21 48.0712C126.21 48.0712 179.259 42.6967 185.736 85.4751C185.736 85.4751 188.55 111.833 168.735 116.003Z" fill="url(#paint11_linear_49_261)" fill-opacity="0.8"/>
<mask id="mask0_49_261" style="mask-type:luminance" maskUnits="userSpaceOnUse" x="87" y="41" width="99" height="76">
<path d="M168.735 116.003L168.756 115.981C168.988 115.793 170.802 114.212 172.68 111.412C175.001 107.959 177.417 102.658 177.068 95.8034C177.061 95.5786 177.047 95.3537 177.025 95.1289C177.01 94.9185 176.996 94.7082 176.974 94.4906C176.938 94.2005 176.902 93.9031 176.865 93.6057C176.844 93.4244 176.815 93.2358 176.785 93.0545C176.764 92.8804 176.735 92.6991 176.698 92.525C176.677 92.3655 176.648 92.2059 176.611 92.0463C176.568 91.7997 176.51 91.5459 176.459 91.292C176.416 91.0962 176.372 90.8931 176.321 90.6973C176.082 89.7036 175.785 88.6809 175.422 87.6365C175.357 87.4552 175.291 87.2738 175.226 87.0925C174.972 86.3962 174.689 85.6927 174.37 84.9746C174.261 84.728 174.145 84.4814 174.029 84.2276C173.913 83.9737 173.79 83.7271 173.667 83.4732C173.536 83.2049 173.398 82.9293 173.253 82.6536C173.13 82.4143 172.999 82.1749 172.869 81.9356C172.724 81.6672 172.571 81.3989 172.419 81.1233C172.274 80.8766 172.129 80.6228 171.977 80.3689C171.331 79.2955 170.62 78.2003 169.837 77.0833C169.271 76.2855 168.669 75.4804 168.024 74.6608C167.806 74.3852 167.581 74.1023 167.349 73.8194C167.016 73.3988 166.66 72.9781 166.298 72.5574C166.036 72.2528 165.768 71.9409 165.493 71.629C165.493 71.629 155.984 59.2771 125.369 59.3061C125.369 59.3061 125.818 65.4277 115.867 70.6716C114.17 71.571 112.168 72.4414 109.811 73.2537C109.811 73.2537 108.143 73.6236 106.235 75.8503C104.32 78.0697 99.751 84.0607 92.2803 81.2828C84.8097 78.5049 87.283 68.6263 92.157 66.153C92.157 66.153 92.2368 50.791 102.928 44.5317C105.343 43.1173 108.295 42.1599 111.914 41.9568C111.914 41.9568 122.235 41.7102 126.21 48.0712C126.21 48.0712 179.259 42.6967 185.736 85.4751C185.736 85.4751 188.55 111.833 168.735 116.003Z" fill="white"/>
</mask>
<g mask="url(#mask0_49_261)">
<path d="M125.368 59.3043C125.368 59.3043 125.187 55.1483 124.665 53.7629C124.665 53.7629 125.731 62.5826 119.812 68.1747L124.483 66.1729L125.869 59.957L125.368 59.3115" fill="#EA9F0B"/>
<path d="M172.587 114.812C172.587 114.812 187.143 104.694 184.996 81.6074L186.556 82.2239L187.542 104.571L179.397 112.592L173.595 116.009L172.587 114.812Z" fill="#EA9F0B"/>
<path d="M96.8646 50.3563C96.8646 50.3563 104.313 41.4351 117.935 42.7262L118.218 40.9927L106.119 41.1813L96.676 45.6274L96.8646 50.3636V50.3563Z" fill="#FFE5B3"/>
<path d="M126.211 48.0691C126.211 48.0691 126.994 49.556 126.994 50.4118C126.994 50.4118 127.132 47.8443 126.762 47.0754L126.211 48.0619" fill="#EA9F0B"/>
</g>
<path d="M192.191 85.8254C192.191 85.8254 190.211 94.4202 190.705 100.223C190.705 100.223 190.364 119.516 165.304 118C166.32 117.449 167.785 116.731 168.735 116.005C188.55 111.835 185.736 85.4772 185.736 85.4772C179.259 42.6988 126.211 48.0733 126.211 48.0733C122.236 41.7124 111.915 41.959 111.915 41.959C108.296 42.1621 105.344 43.1195 102.928 44.5338C102.928 44.5338 103.857 35.4748 108.919 34.0677C108.919 34.0677 107.686 38.7024 120.647 35.8664C120.647 35.8664 135.088 31.6669 141.261 35.8664C141.261 35.8664 138.178 40.6317 147.933 41.959C147.933 41.959 172.412 44.7587 178.57 56.2402C178.57 56.2402 175.212 56.893 180.275 60.2874C185.337 63.6819 194.904 73.1543 192.191 85.8254Z" fill="#FFC24A"/>
<path d="M192.191 85.8254C192.191 85.8254 190.211 94.4202 190.705 100.223C190.705 100.223 190.364 119.516 165.304 118C166.32 117.449 167.785 116.731 168.735 116.005C188.55 111.835 185.736 85.4772 185.736 85.4772C179.259 42.6988 126.211 48.0733 126.211 48.0733C122.236 41.7124 111.915 41.959 111.915 41.959C108.296 42.1621 105.344 43.1195 102.928 44.5338C102.928 44.5338 103.857 35.4748 108.919 34.0677C108.919 34.0677 107.686 38.7024 120.647 35.8664C120.647 35.8664 135.088 31.6669 141.261 35.8664C141.261 35.8664 138.178 40.6317 147.933 41.959C147.933 41.959 172.412 44.7587 178.57 56.2402C178.57 56.2402 175.212 56.893 180.275 60.2874C185.337 63.6819 194.904 73.1543 192.191 85.8254Z" fill="url(#paint12_linear_49_261)" fill-opacity="0.6"/>
<path d="M192.191 85.8254C192.191 85.8254 190.211 94.4202 190.705 100.223C190.705 100.223 190.364 119.516 165.304 118C166.32 117.449 167.785 116.731 168.735 116.005C188.55 111.835 185.736 85.4772 185.736 85.4772C179.259 42.6988 126.211 48.0733 126.211 48.0733C122.236 41.7124 111.915 41.959 111.915 41.959C108.296 42.1621 105.344 43.1195 102.928 44.5338C102.928 44.5338 103.857 35.4748 108.919 34.0677C108.919 34.0677 107.686 38.7024 120.647 35.8664C120.647 35.8664 135.088 31.6669 141.261 35.8664C141.261 35.8664 138.178 40.6317 147.933 41.959C147.933 41.959 172.412 44.7587 178.57 56.2402C178.57 56.2402 175.212 56.893 180.275 60.2874C185.337 63.6819 194.904 73.1543 192.191 85.8254Z" fill="url(#paint13_radial_49_261)" fill-opacity="0.8"/>
<path d="M192.191 85.8254C192.191 85.8254 190.211 94.4202 190.705 100.223C190.705 100.223 190.364 119.516 165.304 118C166.32 117.449 167.785 116.731 168.735 116.005C188.55 111.835 185.736 85.4772 185.736 85.4772C179.259 42.6988 126.211 48.0733 126.211 48.0733C122.236 41.7124 111.915 41.959 111.915 41.959C108.296 42.1621 105.344 43.1195 102.928 44.5338C102.928 44.5338 103.857 35.4748 108.919 34.0677C108.919 34.0677 107.686 38.7024 120.647 35.8664C120.647 35.8664 135.088 31.6669 141.261 35.8664C141.261 35.8664 138.178 40.6317 147.933 41.959C147.933 41.959 172.412 44.7587 178.57 56.2402C178.57 56.2402 175.212 56.893 180.275 60.2874C185.337 63.6819 194.904 73.1543 192.191 85.8254Z" fill="url(#paint14_radial_49_261)" fill-opacity="0.8"/>
<path d="M192.191 85.8254C192.191 85.8254 190.211 94.4202 190.705 100.223C190.705 100.223 190.364 119.516 165.304 118C166.32 117.449 167.785 116.731 168.735 116.005C188.55 111.835 185.736 85.4772 185.736 85.4772C179.259 42.6988 126.211 48.0733 126.211 48.0733C122.236 41.7124 111.915 41.959 111.915 41.959C108.296 42.1621 105.344 43.1195 102.928 44.5338C102.928 44.5338 103.857 35.4748 108.919 34.0677C108.919 34.0677 107.686 38.7024 120.647 35.8664C120.647 35.8664 135.088 31.6669 141.261 35.8664C141.261 35.8664 138.178 40.6317 147.933 41.959C147.933 41.959 172.412 44.7587 178.57 56.2402C178.57 56.2402 175.212 56.893 180.275 60.2874C185.337 63.6819 194.904 73.1543 192.191 85.8254Z" fill="url(#paint15_radial_49_261)" fill-opacity="0.8"/>
<path d="M118.434 49.0393C118.434 49.0393 124.962 45.877 127.131 38.8705C127.182 38.7109 127.414 38.7472 127.414 38.914C127.385 42.4173 125.999 54.9432 112.182 58.0113C111.413 58.1781 110.71 57.5253 110.819 56.7493C111.181 54.0946 112.11 48.7274 113.901 46.2324C113.938 46.1888 114.01 46.1961 114.025 46.2541C114.235 46.9722 115.395 50.2795 118.434 49.0393Z" fill="#FFC24A"/>
<path d="M118.434 49.0393C118.434 49.0393 124.962 45.877 127.131 38.8705C127.182 38.7109 127.414 38.7472 127.414 38.914C127.385 42.4173 125.999 54.9432 112.182 58.0113C111.413 58.1781 110.71 57.5253 110.819 56.7493C111.181 54.0946 112.11 48.7274 113.901 46.2324C113.938 46.1888 114.01 46.1961 114.025 46.2541C114.235 46.9722 115.395 50.2795 118.434 49.0393Z" fill="url(#paint16_linear_49_261)" fill-opacity="0.8"/>
<path d="M118.434 49.0393C118.434 49.0393 124.962 45.877 127.131 38.8705C127.182 38.7109 127.414 38.7472 127.414 38.914C127.385 42.4173 125.999 54.9432 112.182 58.0113C111.413 58.1781 110.71 57.5253 110.819 56.7493C111.181 54.0946 112.11 48.7274 113.901 46.2324C113.938 46.1888 114.01 46.1961 114.025 46.2541C114.235 46.9722 115.395 50.2795 118.434 49.0393Z" fill="url(#paint17_linear_49_261)" fill-opacity="0.6"/>
<path d="M118.434 49.0393C118.434 49.0393 124.962 45.877 127.131 38.8705C127.182 38.7109 127.414 38.7472 127.414 38.914C127.385 42.4173 125.999 54.9432 112.182 58.0113C111.413 58.1781 110.71 57.5253 110.819 56.7493C111.181 54.0946 112.11 48.7274 113.901 46.2324C113.938 46.1888 114.01 46.1961 114.025 46.2541C114.235 46.9722 115.395 50.2795 118.434 49.0393Z" fill="url(#paint18_linear_49_261)" fill-opacity="0.6"/>
<path d="M177.53 102.736C177.53 102.736 174.368 115.074 164.635 118.33C164.62 118.338 164.613 118.338 164.598 118.345C162.807 118.947 161.668 119.324 161.001 119.534C161.001 119.534 160.996 119.537 160.986 119.542C160.827 119.578 160.674 119.621 160.515 119.658C160.5 119.665 160.486 119.672 160.479 119.672C156.475 120.615 152.145 120.775 148.025 120.506C146.321 120.398 144.652 120.209 143.057 119.977C143.049 119.977 143.035 119.977 143.02 119.97C137.835 119.078 133.098 117.598 130.4 116.662C128.928 116.147 128.065 115.799 128.065 115.799L132.982 114.784L136.507 116.126C165.36 115.197 162.807 95.846 162.807 95.846C161.886 84.3064 153.624 78.0108 144.29 74.5946C131.147 69.7859 115.858 70.678 115.858 70.678C125.809 65.4268 125.359 59.3052 125.359 59.3052C125.359 59.3052 145.254 55.7948 162.923 66.6453C164.801 67.7913 166.651 69.1113 168.45 70.6055C170.713 72.6145 172.678 74.9718 174.209 77.7352C174.209 77.7352 174.209 77.7424 174.223 77.7497C174.542 78.1631 180.997 86.6057 177.53 102.736Z" fill="#FFC24A"/>
<path d="M177.53 102.736C177.53 102.736 174.368 115.074 164.635 118.33C164.62 118.338 164.613 118.338 164.598 118.345C162.807 118.947 161.668 119.324 161.001 119.534C161.001 119.534 160.996 119.537 160.986 119.542C160.827 119.578 160.674 119.621 160.515 119.658C160.5 119.665 160.486 119.672 160.479 119.672C156.475 120.615 152.145 120.775 148.025 120.506C146.321 120.398 144.652 120.209 143.057 119.977C143.049 119.977 143.035 119.977 143.02 119.97C137.835 119.078 133.098 117.598 130.4 116.662C128.928 116.147 128.065 115.799 128.065 115.799L132.982 114.784L136.507 116.126C165.36 115.197 162.807 95.846 162.807 95.846C161.886 84.3064 153.624 78.0108 144.29 74.5946C131.147 69.7859 115.858 70.678 115.858 70.678C125.809 65.4268 125.359 59.3052 125.359 59.3052C125.359 59.3052 145.254 55.7948 162.923 66.6453C164.801 67.7913 166.651 69.1113 168.45 70.6055C170.713 72.6145 172.678 74.9718 174.209 77.7352C174.209 77.7352 174.209 77.7424 174.223 77.7497C174.542 78.1631 180.997 86.6057 177.53 102.736Z" fill="url(#paint19_linear_49_261)" fill-opacity="0.8"/>
<path d="M177.53 102.736C177.53 102.736 174.368 115.074 164.635 118.33C164.62 118.338 164.613 118.338 164.598 118.345C162.807 118.947 161.668 119.324 161.001 119.534C161.001 119.534 160.996 119.537 160.986 119.542C160.827 119.578 160.674 119.621 160.515 119.658C160.5 119.665 160.486 119.672 160.479 119.672C156.475 120.615 152.145 120.775 148.025 120.506C146.321 120.398 144.652 120.209 143.057 119.977C143.049 119.977 143.035 119.977 143.02 119.97C137.835 119.078 133.098 117.598 130.4 116.662C128.928 116.147 128.065 115.799 128.065 115.799L132.982 114.784L136.507 116.126C165.36 115.197 162.807 95.846 162.807 95.846C161.886 84.3064 153.624 78.0108 144.29 74.5946C131.147 69.7859 115.858 70.678 115.858 70.678C125.809 65.4268 125.359 59.3052 125.359 59.3052C125.359 59.3052 145.254 55.7948 162.923 66.6453C164.801 67.7913 166.651 69.1113 168.45 70.6055C170.713 72.6145 172.678 74.9718 174.209 77.7352C174.209 77.7352 174.209 77.7424 174.223 77.7497C174.542 78.1631 180.997 86.6057 177.53 102.736Z" fill="url(#paint20_linear_49_261)" fill-opacity="0.8"/>
<path d="M177.53 102.736C177.53 102.736 174.368 115.074 164.635 118.33C164.62 118.338 164.613 118.338 164.598 118.345C162.807 118.947 161.668 119.324 161.001 119.534C161.001 119.534 160.996 119.537 160.986 119.542C160.827 119.578 160.674 119.621 160.515 119.658C160.5 119.665 160.486 119.672 160.479 119.672C156.475 120.615 152.145 120.775 148.025 120.506C146.321 120.398 144.652 120.209 143.057 119.977C143.049 119.977 143.035 119.977 143.02 119.97C137.835 119.078 133.098 117.598 130.4 116.662C128.928 116.147 128.065 115.799 128.065 115.799L132.982 114.784L136.507 116.126C165.36 115.197 162.807 95.846 162.807 95.846C161.886 84.3064 153.624 78.0108 144.29 74.5946C131.147 69.7859 115.858 70.678 115.858 70.678C125.809 65.4268 125.359 59.3052 125.359 59.3052C125.359 59.3052 145.254 55.7948 162.923 66.6453C164.801 67.7913 166.651 69.1113 168.45 70.6055C170.713 72.6145 172.678 74.9718 174.209 77.7352C174.209 77.7352 174.209 77.7424 174.223 77.7497C174.542 78.1631 180.997 86.6057 177.53 102.736Z" fill="url(#paint21_linear_49_261)" fill-opacity="0.8"/>
<path d="M129.408 116.013C129.408 116.013 129.459 116.035 129.495 116.05C129.474 116.05 129.459 116.042 129.445 116.035L129.408 116.013Z" fill="white"/>
<path d="M185.96 175.274C185.96 175.492 185.96 175.717 185.946 175.941C185.939 176.137 185.931 176.333 185.917 176.529C185.518 183.419 181.913 191.76 168.597 196.446H168.589C163.643 197.57 158.348 197.867 154.148 197.867C149.557 197.867 146.293 197.519 146.25 197.512C148.085 197.403 149.1 197.258 149.1 197.258C149.1 197.258 167.791 194.357 164.274 180.656C163.178 176.71 158.508 175.419 153.264 175.303C145.198 175.107 135.755 177.689 135.755 177.689C135.755 177.689 118.942 180.823 99.3082 179.815C93.6218 179.524 87.6961 178.886 81.8792 177.718C81.8574 177.718 81.8429 177.711 81.8284 177.711C64.5299 173.403 53.6721 163.604 49.3275 158.984C49.1462 158.788 48.9794 158.607 48.8271 158.433C48.2686 157.802 47.7174 157.156 47.1734 156.489C47.1661 156.482 47.1589 156.474 47.1589 156.474C45.4472 154.385 43.7935 152.101 42.2921 149.642C38.8034 143.919 36.1125 137.203 35.3074 129.558C34.0671 117.794 36.7508 108.996 40.2903 102.737C40.2903 102.737 40.4281 102.475 40.7109 102.018C40.7472 101.96 40.7835 101.895 40.827 101.83C42.1035 99.8063 45.6865 94.7147 52.0112 90.0945C58.6259 85.2567 68.229 80.9339 81.3279 81.1732C100.034 81.5141 114.395 88.4335 122.286 93.3656C122.286 93.3656 122.293 93.3656 122.308 93.3801C122.931 93.7718 123.512 94.1489 124.056 94.5116C125.064 95.1353 126.456 95.9694 128.103 96.8616L128.117 96.8761C128.117 96.8761 128.146 96.8833 128.168 96.8978C129.459 97.5143 148.433 106.523 154.279 99.3058C159.066 93.3946 156.274 86.9321 154.903 84.4951C154.83 84.3718 154.765 84.2485 154.7 84.147C154.54 83.8859 154.417 83.6973 154.344 83.5885C154.33 83.5667 154.323 83.5522 154.308 83.5377L154.279 83.4942C153.924 82.9647 153.532 82.428 153.104 81.884C150.986 79.5921 148.136 77.1405 144.299 74.5947C153.633 78.0109 161.895 84.3065 162.816 95.8461C162.816 95.8461 165.768 118.251 129.379 116.002H129.387C122.373 115.125 111.631 109.38 106.663 106.537C98.5539 102.251 89.9808 101.235 89.4006 101.17C80.7332 100.916 71.1229 103.781 64.791 112.202C64.3341 112.934 53.0919 131.488 72.2907 149.809C72.7476 150.179 90.7932 164.685 121.662 161.145C121.662 161.145 121.698 161.145 121.713 161.138C121.735 161.131 121.756 161.131 121.785 161.123C122.474 161.051 123.178 160.964 123.882 160.862C126.464 160.5 129.038 160.108 131.599 159.702C131.599 159.702 131.613 159.702 131.635 159.695C132.977 159.375 168.785 150.969 180.883 162.697L180.898 162.712C180.898 162.712 180.941 162.755 180.977 162.799C181.224 163.075 181.971 163.93 182.805 165.243C182.95 165.468 183.095 165.7 183.24 165.954C184.56 168.195 185.946 171.459 185.96 175.274Z" fill="#FFC24A"/>
<path d="M185.96 175.274C185.96 175.492 185.96 175.717 185.946 175.941C185.939 176.137 185.931 176.333 185.917 176.529C185.518 183.419 181.913 191.76 168.597 196.446H168.589C163.643 197.57 158.348 197.867 154.148 197.867C149.557 197.867 146.293 197.519 146.25 197.512C148.085 197.403 149.1 197.258 149.1 197.258C149.1 197.258 167.791 194.357 164.274 180.656C163.178 176.71 158.508 175.419 153.264 175.303C145.198 175.107 135.755 177.689 135.755 177.689C135.755 177.689 118.942 180.823 99.3082 179.815C93.6218 179.524 87.6961 178.886 81.8792 177.718C81.8574 177.718 81.8429 177.711 81.8284 177.711C64.5299 173.403 53.6721 163.604 49.3275 158.984C49.1462 158.788 48.9794 158.607 48.8271 158.433C48.2686 157.802 47.7174 157.156 47.1734 156.489C47.1661 156.482 47.1589 156.474 47.1589 156.474C45.4472 154.385 43.7935 152.101 42.2921 149.642C38.8034 143.919 36.1125 137.203 35.3074 129.558C34.0671 117.794 36.7508 108.996 40.2903 102.737C40.2903 102.737 40.4281 102.475 40.7109 102.018C40.7472 101.96 40.7835 101.895 40.827 101.83C42.1035 99.8063 45.6865 94.7147 52.0112 90.0945C58.6259 85.2567 68.229 80.9339 81.3279 81.1732C100.034 81.5141 114.395 88.4335 122.286 93.3656C122.286 93.3656 122.293 93.3656 122.308 93.3801C122.931 93.7718 123.512 94.1489 124.056 94.5116C125.064 95.1353 126.456 95.9694 128.103 96.8616L128.117 96.8761C128.117 96.8761 128.146 96.8833 128.168 96.8978C129.459 97.5143 148.433 106.523 154.279 99.3058C159.066 93.3946 156.274 86.9321 154.903 84.4951C154.83 84.3718 154.765 84.2485 154.7 84.147C154.54 83.8859 154.417 83.6973 154.344 83.5885C154.33 83.5667 154.323 83.5522 154.308 83.5377L154.279 83.4942C153.924 82.9647 153.532 82.428 153.104 81.884C150.986 79.5921 148.136 77.1405 144.299 74.5947C153.633 78.0109 161.895 84.3065 162.816 95.8461C162.816 95.8461 165.768 118.251 129.379 116.002H129.387C122.373 115.125 111.631 109.38 106.663 106.537C98.5539 102.251 89.9808 101.235 89.4006 101.17C80.7332 100.916 71.1229 103.781 64.791 112.202C64.3341 112.934 53.0919 131.488 72.2907 149.809C72.7476 150.179 90.7932 164.685 121.662 161.145C121.662 161.145 121.698 161.145 121.713 161.138C121.735 161.131 121.756 161.131 121.785 161.123C122.474 161.051 123.178 160.964 123.882 160.862C126.464 160.5 129.038 160.108 131.599 159.702C131.599 159.702 131.613 159.702 131.635 159.695C132.977 159.375 168.785 150.969 180.883 162.697L180.898 162.712C180.898 162.712 180.941 162.755 180.977 162.799C181.224 163.075 181.971 163.93 182.805 165.243C182.95 165.468 183.095 165.7 183.24 165.954C184.56 168.195 185.946 171.459 185.96 175.274Z" fill="url(#paint22_radial_49_261)" fill-opacity="0.8"/>
<path d="M185.96 175.274C185.96 175.492 185.96 175.717 185.946 175.941C185.939 176.137 185.931 176.333 185.917 176.529C185.518 183.419 181.913 191.76 168.597 196.446H168.589C163.643 197.57 158.348 197.867 154.148 197.867C149.557 197.867 146.293 197.519 146.25 197.512C148.085 197.403 149.1 197.258 149.1 197.258C149.1 197.258 167.791 194.357 164.274 180.656C163.178 176.71 158.508 175.419 153.264 175.303C145.198 175.107 135.755 177.689 135.755 177.689C135.755 177.689 118.942 180.823 99.3082 179.815C93.6218 179.524 87.6961 178.886 81.8792 177.718C81.8574 177.718 81.8429 177.711 81.8284 177.711C64.5299 173.403 53.6721 163.604 49.3275 158.984C49.1462 158.788 48.9794 158.607 48.8271 158.433C48.2686 157.802 47.7174 157.156 47.1734 156.489C47.1661 156.482 47.1589 156.474 47.1589 156.474C45.4472 154.385 43.7935 152.101 42.2921 149.642C38.8034 143.919 36.1125 137.203 35.3074 129.558C34.0671 117.794 36.7508 108.996 40.2903 102.737C40.2903 102.737 40.4281 102.475 40.7109 102.018C40.7472 101.96 40.7835 101.895 40.827 101.83C42.1035 99.8063 45.6865 94.7147 52.0112 90.0945C58.6259 85.2567 68.229 80.9339 81.3279 81.1732C100.034 81.5141 114.395 88.4335 122.286 93.3656C122.286 93.3656 122.293 93.3656 122.308 93.3801C122.931 93.7718 123.512 94.1489 124.056 94.5116C125.064 95.1353 126.456 95.9694 128.103 96.8616L128.117 96.8761C128.117 96.8761 128.146 96.8833 128.168 96.8978C129.459 97.5143 148.433 106.523 154.279 99.3058C159.066 93.3946 156.274 86.9321 154.903 84.4951C154.83 84.3718 154.765 84.2485 154.7 84.147C154.54 83.8859 154.417 83.6973 154.344 83.5885C154.33 83.5667 154.323 83.5522 154.308 83.5377L154.279 83.4942C153.924 82.9647 153.532 82.428 153.104 81.884C150.986 79.5921 148.136 77.1405 144.299 74.5947C153.633 78.0109 161.895 84.3065 162.816 95.8461C162.816 95.8461 165.768 118.251 129.379 116.002H129.387C122.373 115.125 111.631 109.38 106.663 106.537C98.5539 102.251 89.9808 101.235 89.4006 101.17C80.7332 100.916 71.1229 103.781 64.791 112.202C64.3341 112.934 53.0919 131.488 72.2907 149.809C72.7476 150.179 90.7932 164.685 121.662 161.145C121.662 161.145 121.698 161.145 121.713 161.138C121.735 161.131 121.756 161.131 121.785 161.123C122.474 161.051 123.178 160.964 123.882 160.862C126.464 160.5 129.038 160.108 131.599 159.702C131.599 159.702 131.613 159.702 131.635 159.695C132.977 159.375 168.785 150.969 180.883 162.697L180.898 162.712C180.898 162.712 180.941 162.755 180.977 162.799C181.224 163.075 181.971 163.93 182.805 165.243C182.95 165.468 183.095 165.7 183.24 165.954C184.56 168.195 185.946 171.459 185.96 175.274Z" fill="url(#paint23_radial_49_261)" fill-opacity="0.8"/>
<path d="M185.96 175.274C185.96 175.492 185.96 175.717 185.946 175.941C185.939 176.137 185.931 176.333 185.917 176.529C185.518 183.419 181.913 191.76 168.597 196.446H168.589C163.643 197.57 158.348 197.867 154.148 197.867C149.557 197.867 146.293 197.519 146.25 197.512C148.085 197.403 149.1 197.258 149.1 197.258C149.1 197.258 167.791 194.357 164.274 180.656C163.178 176.71 158.508 175.419 153.264 175.303C145.198 175.107 135.755 177.689 135.755 177.689C135.755 177.689 118.942 180.823 99.3082 179.815C93.6218 179.524 87.6961 178.886 81.8792 177.718C81.8574 177.718 81.8429 177.711 81.8284 177.711C64.5299 173.403 53.6721 163.604 49.3275 158.984C49.1462 158.788 48.9794 158.607 48.8271 158.433C48.2686 157.802 47.7174 157.156 47.1734 156.489C47.1661 156.482 47.1589 156.474 47.1589 156.474C45.4472 154.385 43.7935 152.101 42.2921 149.642C38.8034 143.919 36.1125 137.203 35.3074 129.558C34.0671 117.794 36.7508 108.996 40.2903 102.737C40.2903 102.737 40.4281 102.475 40.7109 102.018C40.7472 101.96 40.7835 101.895 40.827 101.83C42.1035 99.8063 45.6865 94.7147 52.0112 90.0945C58.6259 85.2567 68.229 80.9339 81.3279 81.1732C100.034 81.5141 114.395 88.4335 122.286 93.3656C122.286 93.3656 122.293 93.3656 122.308 93.3801C122.931 93.7718 123.512 94.1489 124.056 94.5116C125.064 95.1353 126.456 95.9694 128.103 96.8616L128.117 96.8761C128.117 96.8761 128.146 96.8833 128.168 96.8978C129.459 97.5143 148.433 106.523 154.279 99.3058C159.066 93.3946 156.274 86.9321 154.903 84.4951C154.83 84.3718 154.765 84.2485 154.7 84.147C154.54 83.8859 154.417 83.6973 154.344 83.5885C154.33 83.5667 154.323 83.5522 154.308 83.5377L154.279 83.4942C153.924 82.9647 153.532 82.428 153.104 81.884C150.986 79.5921 148.136 77.1405 144.299 74.5947C153.633 78.0109 161.895 84.3065 162.816 95.8461C162.816 95.8461 165.768 118.251 129.379 116.002H129.387C122.373 115.125 111.631 109.38 106.663 106.537C98.5539 102.251 89.9808 101.235 89.4006 101.17C80.7332 100.916 71.1229 103.781 64.791 112.202C64.3341 112.934 53.0919 131.488 72.2907 149.809C72.7476 150.179 90.7932 164.685 121.662 161.145C121.662 161.145 121.698 161.145 121.713 161.138C121.735 161.131 121.756 161.131 121.785 161.123C122.474 161.051 123.178 160.964 123.882 160.862C126.464 160.5 129.038 160.108 131.599 159.702C131.599 159.702 131.613 159.702 131.635 159.695C132.977 159.375 168.785 150.969 180.883 162.697L180.898 162.712C180.898 162.712 180.941 162.755 180.977 162.799C181.224 163.075 181.971 163.93 182.805 165.243C182.95 165.468 183.095 165.7 183.24 165.954C184.56 168.195 185.946 171.459 185.96 175.274Z" fill="url(#paint24_radial_49_261)" fill-opacity="0.6"/>
<path d="M185.96 175.274C185.96 175.492 185.96 175.717 185.946 175.941C185.939 176.137 185.931 176.333 185.917 176.529C185.518 183.419 181.913 191.76 168.597 196.446H168.589C163.643 197.57 158.348 197.867 154.148 197.867C149.557 197.867 146.293 197.519 146.25 197.512C148.085 197.403 149.1 197.258 149.1 197.258C149.1 197.258 167.791 194.357 164.274 180.656C163.178 176.71 158.508 175.419 153.264 175.303C145.198 175.107 135.755 177.689 135.755 177.689C135.755 177.689 118.942 180.823 99.3082 179.815C93.6218 179.524 87.6961 178.886 81.8792 177.718C81.8574 177.718 81.8429 177.711 81.8284 177.711C64.5299 173.403 53.6721 163.604 49.3275 158.984C49.1462 158.788 48.9794 158.607 48.8271 158.433C48.2686 157.802 47.7174 157.156 47.1734 156.489C47.1661 156.482 47.1589 156.474 47.1589 156.474C45.4472 154.385 43.7935 152.101 42.2921 149.642C38.8034 143.919 36.1125 137.203 35.3074 129.558C34.0671 117.794 36.7508 108.996 40.2903 102.737C40.2903 102.737 40.4281 102.475 40.7109 102.018C40.7472 101.96 40.7835 101.895 40.827 101.83C42.1035 99.8063 45.6865 94.7147 52.0112 90.0945C58.6259 85.2567 68.229 80.9339 81.3279 81.1732C100.034 81.5141 114.395 88.4335 122.286 93.3656C122.286 93.3656 122.293 93.3656 122.308 93.3801C122.931 93.7718 123.512 94.1489 124.056 94.5116C125.064 95.1353 126.456 95.9694 128.103 96.8616L128.117 96.8761C128.117 96.8761 128.146 96.8833 128.168 96.8978C129.459 97.5143 148.433 106.523 154.279 99.3058C159.066 93.3946 156.274 86.9321 154.903 84.4951C154.83 84.3718 154.765 84.2485 154.7 84.147C154.54 83.8859 154.417 83.6973 154.344 83.5885C154.33 83.5667 154.323 83.5522 154.308 83.5377L154.279 83.4942C153.924 82.9647 153.532 82.428 153.104 81.884C150.986 79.5921 148.136 77.1405 144.299 74.5947C153.633 78.0109 161.895 84.3065 162.816 95.8461C162.816 95.8461 165.768 118.251 129.379 116.002H129.387C122.373 115.125 111.631 109.38 106.663 106.537C98.5539 102.251 89.9808 101.235 89.4006 101.17C80.7332 100.916 71.1229 103.781 64.791 112.202C64.3341 112.934 53.0919 131.488 72.2907 149.809C72.7476 150.179 90.7932 164.685 121.662 161.145C121.662 161.145 121.698 161.145 121.713 161.138C121.735 161.131 121.756 161.131 121.785 161.123C122.474 161.051 123.178 160.964 123.882 160.862C126.464 160.5 129.038 160.108 131.599 159.702C131.599 159.702 131.613 159.702 131.635 159.695C132.977 159.375 168.785 150.969 180.883 162.697L180.898 162.712C180.898 162.712 180.941 162.755 180.977 162.799C181.224 163.075 181.971 163.93 182.805 165.243C182.95 165.468 183.095 165.7 183.24 165.954C184.56 168.195 185.946 171.459 185.96 175.274Z" fill="url(#paint25_linear_49_261)" fill-opacity="0.8"/>
<path d="M185.96 175.274C185.96 175.492 185.96 175.717 185.946 175.941C185.939 176.137 185.931 176.333 185.917 176.529C185.518 183.419 181.913 191.76 168.597 196.446H168.589C163.643 197.57 158.348 197.867 154.148 197.867C149.557 197.867 146.293 197.519 146.25 197.512C148.085 197.403 149.1 197.258 149.1 197.258C149.1 197.258 167.791 194.357 164.274 180.656C163.178 176.71 158.508 175.419 153.264 175.303C145.198 175.107 135.755 177.689 135.755 177.689C135.755 177.689 118.942 180.823 99.3082 179.815C93.6218 179.524 87.6961 178.886 81.8792 177.718C81.8574 177.718 81.8429 177.711 81.8284 177.711C64.5299 173.403 53.6721 163.604 49.3275 158.984C49.1462 158.788 48.9794 158.607 48.8271 158.433C48.2686 157.802 47.7174 157.156 47.1734 156.489C47.1661 156.482 47.1589 156.474 47.1589 156.474C45.4472 154.385 43.7935 152.101 42.2921 149.642C38.8034 143.919 36.1125 137.203 35.3074 129.558C34.0671 117.794 36.7508 108.996 40.2903 102.737C40.2903 102.737 40.4281 102.475 40.7109 102.018C40.7472 101.96 40.7835 101.895 40.827 101.83C42.1035 99.8063 45.6865 94.7147 52.0112 90.0945C58.6259 85.2567 68.229 80.9339 81.3279 81.1732C100.034 81.5141 114.395 88.4335 122.286 93.3656C122.286 93.3656 122.293 93.3656 122.308 93.3801C122.931 93.7718 123.512 94.1489 124.056 94.5116C125.064 95.1353 126.456 95.9694 128.103 96.8616L128.117 96.8761C128.117 96.8761 128.146 96.8833 128.168 96.8978C129.459 97.5143 148.433 106.523 154.279 99.3058C159.066 93.3946 156.274 86.9321 154.903 84.4951C154.83 84.3718 154.765 84.2485 154.7 84.147C154.54 83.8859 154.417 83.6973 154.344 83.5885C154.33 83.5667 154.323 83.5522 154.308 83.5377L154.279 83.4942C153.924 82.9647 153.532 82.428 153.104 81.884C150.986 79.5921 148.136 77.1405 144.299 74.5947C153.633 78.0109 161.895 84.3065 162.816 95.8461C162.816 95.8461 165.768 118.251 129.379 116.002H129.387C122.373 115.125 111.631 109.38 106.663 106.537C98.5539 102.251 89.9808 101.235 89.4006 101.17C80.7332 100.916 71.1229 103.781 64.791 112.202C64.3341 112.934 53.0919 131.488 72.2907 149.809C72.7476 150.179 90.7932 164.685 121.662 161.145C121.662 161.145 121.698 161.145 121.713 161.138C121.735 161.131 121.756 161.131 121.785 161.123C122.474 161.051 123.178 160.964 123.882 160.862C126.464 160.5 129.038 160.108 131.599 159.702C131.599 159.702 131.613 159.702 131.635 159.695C132.977 159.375 168.785 150.969 180.883 162.697L180.898 162.712C180.898 162.712 180.941 162.755 180.977 162.799C181.224 163.075 181.971 163.93 182.805 165.243C182.95 165.468 183.095 165.7 183.24 165.954C184.56 168.195 185.946 171.459 185.96 175.274Z" fill="url(#paint26_linear_49_261)" fill-opacity="0.8"/>
<mask id="mask1_49_261" style="mask-type:luminance" maskUnits="userSpaceOnUse" x="35" y="74" width="151" height="124">
<path d="M185.96 175.274C185.96 175.492 185.96 175.717 185.946 175.941C185.939 176.137 185.931 176.333 185.917 176.529C185.518 183.419 181.913 191.76 168.597 196.446H168.589C163.643 197.57 158.348 197.867 154.148 197.867C149.557 197.867 146.293 197.519 146.25 197.512C148.085 197.403 149.1 197.258 149.1 197.258C149.1 197.258 167.791 194.357 164.274 180.656C163.178 176.71 158.508 175.419 153.264 175.303C145.198 175.107 135.755 177.689 135.755 177.689C135.755 177.689 118.942 180.823 99.3082 179.815C93.6218 179.524 87.6961 178.886 81.8792 177.718C81.8574 177.718 81.8429 177.711 81.8284 177.711C64.5299 173.403 53.6721 163.604 49.3275 158.984C49.1462 158.788 48.9794 158.607 48.8271 158.433C48.2686 157.802 47.7174 157.156 47.1734 156.489C47.1661 156.482 47.1589 156.474 47.1589 156.474C45.4472 154.385 43.7935 152.101 42.2921 149.642C38.8034 143.919 36.1125 137.203 35.3074 129.558C34.0671 117.794 36.7508 108.996 40.2903 102.737C40.2903 102.737 40.4281 102.475 40.7109 102.018C40.7472 101.96 40.7835 101.895 40.827 101.83C42.1035 99.8063 45.6865 94.7147 52.0112 90.0945C58.6259 85.2567 68.229 80.9339 81.3279 81.1732C100.034 81.5141 114.395 88.4335 122.286 93.3656C122.286 93.3656 122.293 93.3656 122.308 93.3801C122.931 93.7718 123.512 94.1489 124.056 94.5116C125.064 95.1353 126.456 95.9694 128.103 96.8616L128.117 96.8761C128.117 96.8761 128.146 96.8833 128.168 96.8978C129.459 97.5143 148.433 106.523 154.279 99.3058C159.066 93.3946 156.274 86.9321 154.903 84.4951C154.83 84.3718 154.765 84.2485 154.7 84.147C154.54 83.8859 154.417 83.6973 154.344 83.5885C154.33 83.5667 154.323 83.5522 154.308 83.5377L154.279 83.4942C153.924 82.9647 153.532 82.428 153.104 81.884C150.986 79.5921 148.136 77.1405 144.299 74.5947C153.633 78.0109 161.895 84.3065 162.816 95.8461C162.816 95.8461 165.768 118.251 129.379 116.002H129.387C122.373 115.125 111.631 109.38 106.663 106.537C98.5539 102.251 89.9808 101.235 89.4006 101.17C80.7332 100.916 71.1229 103.781 64.791 112.202C64.3341 112.934 53.0919 131.488 72.2907 149.809C72.7476 150.179 90.7932 164.685 121.662 161.145C121.662 161.145 121.698 161.145 121.713 161.138C121.735 161.131 121.756 161.131 121.785 161.123C122.474 161.051 123.178 160.964 123.882 160.862C126.464 160.5 129.038 160.108 131.599 159.702C131.599 159.702 131.613 159.702 131.635 159.695C132.977 159.375 168.785 150.969 180.883 162.697L180.898 162.712C180.898 162.712 180.941 162.755 180.977 162.799C181.224 163.075 181.971 163.93 182.805 165.243C182.95 165.468 183.095 165.7 183.24 165.954C184.56 168.195 185.946 171.459 185.96 175.274Z" fill="white"/>
</mask>
<g mask="url(#mask1_49_261)">
<path d="M65.718 83.2544C65.718 83.2544 39.2445 96.658 38.1347 120.622C37.025 144.586 51.328 161.007 51.328 161.007C51.328 161.007 21.2859 140.698 40.1728 99.4069C40.1728 99.4069 50.0007 84.19 65.718 83.2616V83.2544Z" fill="#FFE5B3"/>
<path d="M150.021 156.841C150.021 156.841 185.88 155.789 182.21 177.367C178.845 197.153 162.794 197.407 162.794 197.407C162.794 197.407 187.955 199.54 189.064 175.3C190.174 151.06 153.024 152.054 150.021 156.841Z" fill="#FFE5B3"/>
</g>
<path d="M154.693 84.1452C154.577 83.9566 154.461 83.7752 154.338 83.5867C154.41 83.6955 154.534 83.884 154.693 84.1452Z" fill="#D6D6D6"/>
<path d="M97.9576 72.6394C99.856 71.536 102.199 71.6268 104.235 72.1558C109.978 73.8118 114.382 78.1891 118.308 82.6077C127.809 93.9771 144.721 93.2302 157.395 88.9618C162.193 87.4247 166.828 85.4374 171.282 83.1645C183.647 77.0472 201.039 74.2176 211.448 85.2847C212.887 86.8911 214.073 88.7352 215 90.714C214.23 88.6696 213.175 86.7188 211.82 84.9746C201.849 72.7491 183.232 74.7585 170.201 81.0013C165.802 83.1486 161.264 85.0447 156.618 86.5329C144.21 90.6297 128.837 91.6986 119.457 81.5581C115.23 77.2419 110.416 72.9844 104.341 71.683C102.196 71.281 99.7677 71.3828 97.9576 72.6394Z" fill="#E27826"/>
<defs>
<linearGradient id="paint0_linear_49_261" x1="93.7506" y1="192.844" x2="78.1566" y2="210.976" gradientUnits="userSpaceOnUse">
<stop offset="0.187834" stop-color="#F18111"/>
<stop offset="1" stop-color="#FFC24A" stop-opacity="0"/>
</linearGradient>
<radialGradient id="paint1_radial_49_261" cx="0" cy="0" r="1" gradientUnits="userSpaceOnUse" gradientTransform="translate(153.225 176.884) rotate(60.2551) scale(23.3903 17.183)">
<stop offset="0.148414" stop-color="#F18111"/>
<stop offset="1" stop-color="#FFC24A" stop-opacity="0"/>
</radialGradient>
<linearGradient id="paint2_linear_49_261" x1="120.457" y1="167.967" x2="113.492" y2="205.628" gradientUnits="userSpaceOnUse">
<stop offset="0.376025" stop-color="#FFC24A" stop-opacity="0"/>
<stop offset="0.798569" stop-color="#FFF4C7"/>
</linearGradient>
<linearGradient id="paint3_linear_49_261" x1="92.2997" y1="35.8119" x2="83.724" y2="49.4306" gradientUnits="userSpaceOnUse">
<stop offset="0.467629" stop-color="#FFC24A" stop-opacity="0"/>
<stop offset="0.870741" stop-color="#FFF4C7"/>
</linearGradient>
<linearGradient id="paint4_linear_49_261" x1="91.937" y1="50.318" x2="95.7756" y2="36.9568" gradientUnits="userSpaceOnUse">
<stop offset="0.23934" stop-color="#FFC24A" stop-opacity="0"/>
<stop offset="0.746164" stop-color="#FFF4C7"/>
</linearGradient>
<linearGradient id="paint5_linear_49_261" x1="96.2888" y1="53.5818" x2="88.5435" y2="49.9186" gradientUnits="userSpaceOnUse">
<stop offset="0.148414" stop-color="#F18111"/>
<stop offset="0.71958" stop-color="#FFC24A" stop-opacity="0"/>
</linearGradient>
<radialGradient id="paint6_radial_49_261" cx="0" cy="0" r="1" gradientUnits="userSpaceOnUse" gradientTransform="translate(186.952 112.695) rotate(-134.153) scale(52.0617 59.689)">
<stop offset="0.194912" stop-color="#F18111"/>
<stop offset="1" stop-color="#FFC24A" stop-opacity="0"/>
</radialGradient>
<radialGradient id="paint7_radial_49_261" cx="0" cy="0" r="1" gradientUnits="userSpaceOnUse" gradientTransform="translate(149.236 64.8253) rotate(103.241) scale(12.6669 30.5843)">
<stop offset="0.262816" stop-color="#F18111"/>
<stop offset="1" stop-color="#FFC24A" stop-opacity="0"/>
</radialGradient>
<radialGradient id="paint8_radial_49_261" cx="0" cy="0" r="1" gradientUnits="userSpaceOnUse" gradientTransform="translate(170.632 83.6832) rotate(148.092) scale(22.6418 33.5409)">
<stop offset="0.262816" stop-color="#F18111"/>
<stop offset="1" stop-color="#FFC24A" stop-opacity="0"/>
</radialGradient>
<radialGradient id="paint9_radial_49_261" cx="0" cy="0" r="1" gradientUnits="userSpaceOnUse" gradientTransform="translate(144.884 41.2529) rotate(98.7974) scale(30.8254 73.7114)">
<stop offset="0.302888" stop-color="#FFF4C7"/>
<stop offset="0.50391" stop-color="#FFC24A" stop-opacity="0"/>
</radialGradient>
<radialGradient id="paint10_radial_49_261" cx="0" cy="0" r="1" gradientUnits="userSpaceOnUse" gradientTransform="translate(182.6 50.6819) rotate(125.293) scale(39.544 94.5598)">
<stop offset="0.254435" stop-color="#FFF4C7"/>
<stop offset="0.68254" stop-color="#FFC24A" stop-opacity="0"/>
</radialGradient>
<linearGradient id="paint11_linear_49_261" x1="87.2225" y1="59.7482" x2="119.853" y2="64.4786" gradientUnits="userSpaceOnUse">
<stop offset="0.184258" stop-color="#FFF4C7"/>
<stop offset="0.582483" stop-color="#FFC24A" stop-opacity="0"/>
</linearGradient>
<linearGradient id="paint12_linear_49_261" x1="141.258" y1="66.6387" x2="165.473" y2="19.3829" gradientUnits="userSpaceOnUse">
<stop offset="0.311457" stop-color="#F18111"/>
<stop offset="0.823398" stop-color="#FFC24A" stop-opacity="0"/>
</linearGradient>
<radialGradient id="paint13_radial_49_261" cx="0" cy="0" r="1" gradientUnits="userSpaceOnUse" gradientTransform="translate(114.059 51.4073) rotate(-69.3045) scale(34.8901 39.0708)">
<stop offset="0.163003" stop-color="#F18111"/>
<stop offset="0.823398" stop-color="#FFC24A" stop-opacity="0"/>
</radialGradient>
<radialGradient id="paint14_radial_49_261" cx="0" cy="0" r="1" gradientUnits="userSpaceOnUse" gradientTransform="translate(164.468 110.882) rotate(-40.0303) scale(47.3618 53.037)">
<stop offset="0.163003" stop-color="#F18111"/>
<stop offset="0.823398" stop-color="#FFC24A" stop-opacity="0"/>
</radialGradient>
<radialGradient id="paint15_radial_49_261" cx="0" cy="0" r="1" gradientUnits="userSpaceOnUse" gradientTransform="translate(153.951 77.5182) rotate(33.2875) scale(42.9494 48.0958)">
<stop offset="0.325911" stop-color="#F18111"/>
<stop offset="0.823398" stop-color="#FFC24A" stop-opacity="0"/>
</radialGradient>
<linearGradient id="paint16_linear_49_261" x1="123.125" y1="58.6629" x2="119.068" y2="43.173" gradientUnits="userSpaceOnUse">
<stop offset="0.23934" stop-color="#FFC24A" stop-opacity="0"/>
<stop offset="0.746164" stop-color="#FFF4C7"/>
</linearGradient>
<linearGradient id="paint17_linear_49_261" x1="120.223" y1="59.3882" x2="113.696" y2="48.5087" gradientUnits="userSpaceOnUse">
<stop offset="0.148414" stop-color="#F18111"/>
<stop offset="0.71958" stop-color="#FFC24A" stop-opacity="0"/>
</linearGradient>
<linearGradient id="paint18_linear_49_261" x1="107.168" y1="55.3991" x2="122.762" y2="48.146" gradientUnits="userSpaceOnUse">
<stop offset="0.148414" stop-color="#F18111"/>
<stop offset="0.71958" stop-color="#FFC24A" stop-opacity="0"/>
</linearGradient>
<linearGradient id="paint19_linear_49_261" x1="106.803" y1="64.4639" x2="134.727" y2="79.6952" gradientUnits="userSpaceOnUse">
<stop offset="0.376408" stop-color="#F18111"/>
<stop offset="1" stop-color="#FFC24A" stop-opacity="0"/>
</linearGradient>
<linearGradient id="paint20_linear_49_261" x1="168.817" y1="134.818" x2="156.124" y2="65.9145" gradientUnits="userSpaceOnUse">
<stop offset="0.252061" stop-color="#FFF4C7"/>
<stop offset="0.626387" stop-color="#FFC24A" stop-opacity="0"/>
</linearGradient>
<linearGradient id="paint21_linear_49_261" x1="182.96" y1="78.6073" x2="156.849" y2="88.0362" gradientUnits="userSpaceOnUse">
<stop offset="0.252061" stop-color="#FFF4C7"/>
<stop offset="0.626387" stop-color="#FFC24A" stop-opacity="0"/>
</linearGradient>
<radialGradient id="paint22_radial_49_261" cx="0" cy="0" r="1" gradientUnits="userSpaceOnUse" gradientTransform="translate(148.873 82.2331) rotate(80.6254) scale(77.9229 43.1069)">
<stop offset="0.148414" stop-color="#F18111"/>
<stop offset="1" stop-color="#FFC24A" stop-opacity="0"/>
</radialGradient>
<radialGradient id="paint23_radial_49_261" cx="0" cy="0" r="1" gradientUnits="userSpaceOnUse" gradientTransform="translate(76.3423 113.421) rotate(71.061) scale(39.1076 42.1159)">
<stop offset="0.262816" stop-color="#F18111"/>
<stop offset="1" stop-color="#FFC24A" stop-opacity="0"/>
</radialGradient>
<radialGradient id="paint24_radial_49_261" cx="0" cy="0" r="1" gradientUnits="userSpaceOnUse" gradientTransform="translate(165.917 193.567) rotate(-92.3373) scale(53.3542 94.289)">
<stop offset="0.184258" stop-color="#FFF4C7"/>
<stop offset="0.460273" stop-color="#FFC24A" stop-opacity="0"/>
</radialGradient>
<linearGradient id="paint25_linear_49_261" x1="55.3085" y1="81.8704" x2="79.2435" y2="113.058" gradientUnits="userSpaceOnUse">
<stop offset="0.184258" stop-color="#FFF4C7"/>
<stop offset="0.582483" stop-color="#FFC24A" stop-opacity="0"/>
</linearGradient>
<linearGradient id="paint26_linear_49_261" x1="46.6049" y1="169.632" x2="74.8917" y2="137.356" gradientUnits="userSpaceOnUse">
<stop offset="0.233745" stop-color="#FFF4C7"/>
<stop offset="0.656653" stop-color="#FFC24A" stop-opacity="0"/>
</linearGradient>
</defs>
</svg>
