<svg width="250" height="250" viewBox="0 0 250 250" fill="none" xmlns="http://www.w3.org/2000/svg">
<path d="M52.7487 48.9134C52.7487 48.9134 49.1587 22.167 60.549 18.8026C71.9486 15.4475 92.0977 11.9609 98.8172 15.4475C105.537 18.9248 118.496 33.0874 118.374 41.8462C118.374 41.8462 117.293 55.163 113.459 59.5989C113.459 59.5989 116.335 31.7623 96.0636 28.1629C96.0636 28.1629 83.1509 26.5277 78.3486 28.0407C73.5463 29.5632 70.9148 42.4759 72.1084 47.297L52.7487 48.9134Z" fill="#FFC24A"/>
<path d="M52.7487 48.9134C52.7487 48.9134 49.1587 22.167 60.549 18.8026C71.9486 15.4475 92.0977 11.9609 98.8172 15.4475C105.537 18.9248 118.496 33.0874 118.374 41.8462C118.374 41.8462 117.293 55.163 113.459 59.5989C113.459 59.5989 116.335 31.7623 96.0636 28.1629C96.0636 28.1629 83.1509 26.5277 78.3486 28.0407C73.5463 29.5632 70.9148 42.4759 72.1084 47.297L52.7487 48.9134Z" fill="url(#paint0_radial_49_241)" fill-opacity="0.4"/>
<path d="M52.7487 48.9134C52.7487 48.9134 49.1587 22.167 60.549 18.8026C71.9486 15.4475 92.0977 11.9609 98.8172 15.4475C105.537 18.9248 118.496 33.0874 118.374 41.8462C118.374 41.8462 117.293 55.163 113.459 59.5989C113.459 59.5989 116.335 31.7623 96.0636 28.1629C96.0636 28.1629 83.1509 26.5277 78.3486 28.0407C73.5463 29.5632 70.9148 42.4759 72.1084 47.297L52.7487 48.9134Z" fill="url(#paint1_linear_49_241)" fill-opacity="0.4"/>
<path d="M52.7487 48.9134C52.7487 48.9134 49.1587 22.167 60.549 18.8026C71.9486 15.4475 92.0977 11.9609 98.8172 15.4475C105.537 18.9248 118.496 33.0874 118.374 41.8462C118.374 41.8462 117.293 55.163 113.459 59.5989C113.459 59.5989 116.335 31.7623 96.0636 28.1629C96.0636 28.1629 83.1509 26.5277 78.3486 28.0407C73.5463 29.5632 70.9148 42.4759 72.1084 47.297L52.7487 48.9134Z" fill="url(#paint2_linear_49_241)" fill-opacity="0.4"/>
<path d="M86.8899 38.3599C86.8899 38.3599 85.0291 43.7637 78.8453 47.3067L73.4321 46.3105C79.5314 45.6714 82.3601 41.3296 82.3601 41.3296C84.4559 38.5666 86.8899 38.3599 86.8899 38.3599Z" fill="#E27826"/>
<path d="M86.8899 38.3599C86.8899 38.3599 85.0291 43.7637 78.8453 47.3067L73.4321 46.3105C79.5314 45.6714 82.3601 41.3296 82.3601 41.3296C84.4559 38.5666 86.8899 38.3599 86.8899 38.3599Z" fill="url(#paint3_linear_49_241)" fill-opacity="0.8"/>
<path d="M86.8894 38.3605C86.8894 38.3605 84.4554 38.5672 82.3596 41.3302C82.3596 41.3302 79.5309 45.6721 73.4316 46.3111L65.1145 44.7793L65.8945 43.7643C65.8945 43.7643 75.0105 34.7611 86.8894 38.3605Z" fill="#FFC24A"/>
<path d="M86.8894 38.3605C86.8894 38.3605 84.4554 38.5672 82.3596 41.3302C82.3596 41.3302 79.5309 45.6721 73.4316 46.3111L65.1145 44.7793L65.8945 43.7643C65.8945 43.7643 75.0105 34.7611 86.8894 38.3605Z" fill="url(#paint4_linear_49_241)" fill-opacity="0.4"/>
<path d="M86.8779 38.3533C86.6073 38.3558 86.3296 38.3997 86.0604 38.4587C84.4869 38.8117 83.0768 39.8196 82.0522 41.0881L82.0363 41.1106C81.5569 41.7472 80.9383 42.3695 80.3059 42.9173C78.5125 44.4677 76.3454 45.5839 73.9679 46.1511C73.699 46.2153 73.4406 46.2714 73.1664 46.3227C73.1664 46.3227 73.1664 46.3227 73.1664 46.3227C73.4453 46.3265 73.7113 46.3224 73.9905 46.3071C76.4597 46.1866 78.9378 45.2054 80.8481 43.5451C81.5293 42.9513 82.1446 42.3034 82.6599 41.5167L82.6441 41.5391C83.5203 40.3045 84.6685 39.2278 86.1083 38.6088C86.3554 38.5048 86.6144 38.4108 86.8779 38.3533Z" fill="#FFE5B3"/>
<path d="M73.4331 46.3113L73.1793 46.3395" stroke="white" stroke-width="0.829493" stroke-miterlimit="10"/>
<path d="M186.331 133.375C186.331 133.375 196.574 133.403 200.897 126.092C200.897 126.092 197.176 136.533 194.535 139.164C194.535 139.164 192.815 141.213 190.437 141.392L184.818 134.371L186.331 133.385V133.375Z" fill="#FFC24A"/>
<path d="M50.7896 90.255C50.7896 90.255 56.2178 92.4794 56.4753 96.7111C56.4753 96.7111 58.1989 93.752 58.3079 88.1857L53.1075 85.4336L50.7995 90.255H50.7896Z" fill="#FFC24A"/>
<path d="M50.7896 90.255C50.7896 90.255 56.2178 92.4794 56.4753 96.7111C56.4753 96.7111 58.1989 93.752 58.3079 88.1857L53.1075 85.4336L50.7995 90.255H50.7896Z" fill="url(#paint5_linear_49_241)" fill-opacity="0.4"/>
<path d="M68.3025 127.13C70.229 130.729 71.7609 153.04 71.7609 153.04C77.1459 154.083 86.7787 150.324 86.7787 150.324L87.3144 152.316L84.7018 154.807L88.132 155.38L89.0154 158.669C89.0154 160.69 88.0662 163.443 88.0662 163.443C82.9256 162.682 77.1835 163.519 77.1835 163.519C63.5001 165.924 63.5095 161.479 63.5095 161.479C62.7859 152.363 56.4329 134.846 54.6191 125.852C54.0364 121.087 73.7438 110.092 73.7438 110.092L94.4568 123.615L89.3068 124C84.4856 124.066 68.3025 127.13 68.3025 127.13Z" fill="#FFC24A"/>
<path d="M68.3025 127.13C70.229 130.729 71.7609 153.04 71.7609 153.04C77.1459 154.083 86.7787 150.324 86.7787 150.324L87.3144 152.316L84.7018 154.807L88.132 155.38L89.0154 158.669C89.0154 160.69 88.0662 163.443 88.0662 163.443C82.9256 162.682 77.1835 163.519 77.1835 163.519C63.5001 165.924 63.5095 161.479 63.5095 161.479C62.7859 152.363 56.4329 134.846 54.6191 125.852C54.0364 121.087 73.7438 110.092 73.7438 110.092L94.4568 123.615L89.3068 124C84.4856 124.066 68.3025 127.13 68.3025 127.13Z" fill="url(#paint6_linear_49_241)" fill-opacity="0.4"/>
<path d="M68.3025 127.13C70.229 130.729 71.7609 153.04 71.7609 153.04C77.1459 154.083 86.7787 150.324 86.7787 150.324L87.3144 152.316L84.7018 154.807L88.132 155.38L89.0154 158.669C89.0154 160.69 88.0662 163.443 88.0662 163.443C82.9256 162.682 77.1835 163.519 77.1835 163.519C63.5001 165.924 63.5095 161.479 63.5095 161.479C62.7859 152.363 56.4329 134.846 54.6191 125.852C54.0364 121.087 73.7438 110.092 73.7438 110.092L94.4568 123.615L89.3068 124C84.4856 124.066 68.3025 127.13 68.3025 127.13Z" fill="url(#paint7_linear_49_241)" fill-opacity="0.4"/>
<mask id="mask0_49_241" style="mask-type:luminance" maskUnits="userSpaceOnUse" x="54" y="110" width="41" height="55">
<path d="M68.3025 127.13C70.229 130.729 71.7609 153.04 71.7609 153.04C77.1459 154.083 86.7787 150.324 86.7787 150.324L87.3144 152.316L84.7018 154.807L88.132 155.38L89.0154 158.669C89.0154 160.69 88.0662 163.443 88.0662 163.443C82.9256 162.682 77.1835 163.519 77.1835 163.519C63.5001 165.924 63.5095 161.479 63.5095 161.479C62.7859 152.363 56.4329 134.846 54.6191 125.852C54.0364 121.087 73.7438 110.092 73.7438 110.092L94.4568 123.615L89.3068 124C84.4856 124.066 68.3025 127.13 68.3025 127.13Z" fill="white"/>
</mask>
<g mask="url(#mask0_49_241)">
<path d="M86.137 122.683L66.8901 126.311C66.8901 126.311 71.3635 145.924 71.1474 145.464C70.9312 145.003 90.009 124.61 90.009 124.61L86.137 122.683Z" fill="#EA9F0B"/>
<path d="M69.7028 112.463C69.7028 112.463 55.6811 122.162 54.6097 125.395L55.0608 123.356C55.0608 123.356 60.474 116.439 69.7028 112.463Z" fill="#FFE5B3"/>
</g>
<path d="M177.335 226.099L173.802 224.041L174.441 228.026L167.439 232.696L161.133 219.521C160.635 218.477 160.325 217.34 160.241 216.184L158.323 191.43L133.466 168.575C132.028 167.25 131.972 165.003 133.334 163.603L144.518 152.175L160.081 153.19L159.489 171.535L169.206 186.948L169.526 214.944L179.44 224.699L177.335 226.099Z" fill="#FFC24A"/>
<path d="M177.335 226.099L173.802 224.041L174.441 228.026L167.439 232.696L161.133 219.521C160.635 218.477 160.325 217.34 160.241 216.184L158.323 191.43L133.466 168.575C132.028 167.25 131.972 165.003 133.334 163.603L144.518 152.175L160.081 153.19L159.489 171.535L169.206 186.948L169.526 214.944L179.44 224.699L177.335 226.099Z" fill="url(#paint8_linear_49_241)" fill-opacity="0.4"/>
<path d="M177.335 226.099L173.802 224.041L174.441 228.026L167.439 232.696L161.133 219.521C160.635 218.477 160.325 217.34 160.241 216.184L158.323 191.43L133.466 168.575C132.028 167.25 131.972 165.003 133.334 163.603L144.518 152.175L160.081 153.19L159.489 171.535L169.206 186.948L169.526 214.944L179.44 224.699L177.335 226.099Z" fill="url(#paint9_linear_49_241)" fill-opacity="0.4"/>
<mask id="mask1_49_241" style="mask-type:luminance" maskUnits="userSpaceOnUse" x="132" y="152" width="48" height="81">
<path d="M177.335 226.099L173.802 224.041L174.441 228.026L167.439 232.696L161.133 219.521C160.635 218.477 160.325 217.34 160.241 216.184L158.323 191.43L133.466 168.575C132.028 167.25 131.972 165.003 133.334 163.603L144.518 152.175L160.081 153.19L159.489 171.535L169.206 186.948L169.526 214.944L179.44 224.699L177.335 226.099Z" fill="white"/>
</mask>
<g mask="url(#mask1_49_241)">
<path d="M141.39 155.383L134.078 165.026C133.608 165.646 133.655 166.51 134.191 167.074L150.355 184.103L130.563 166.454L133.806 161.717L141.39 155.383Z" fill="#FFE5B3"/>
<path d="M164.096 178.862L168.297 186.897L169.528 214.978L170.534 185.779L164.096 178.862Z" fill="#EA9F0B"/>
</g>
<path d="M214.991 225.685L201.317 216.447L204.07 190.18L186.412 172.484C193.018 159.58 190.876 143.548 190.876 143.548C188.319 125.795 162.926 114.461 150.568 111.341C138.21 108.221 135.174 104.34 135.174 104.34C125.739 85.7881 105.543 64.5864 105.543 64.5864C85.2902 40.7158 62.1432 44.5407 62.1432 44.5407C62.1432 44.5407 49.9541 45.6873 47.7456 56.2975C45.2834 68.12 46.6367 71.8322 36.158 80.7038C36.158 80.7038 32.5116 83.4762 38.1598 88.1376C44.8323 93.6447 62.7823 89.6412 71.823 81.0046C71.823 81.0046 74.7834 81.3147 72.7816 91.7934C70.7799 102.263 70.6577 113.784 86.136 122.665C86.136 122.665 91.1733 126.697 92.9401 132.063L78.8903 139.958C76.9355 141.057 76.428 143.651 77.8377 145.399L94.5566 170.068C95.8817 172.023 97.9398 173.358 100.27 173.762L124.141 177.925V171.196L120.871 169.786L124.141 168.132V166.648L103.381 166.883L91.7466 145.765L113.193 147.072L115.852 143.472C119.912 146.245 131.847 153.18 154.412 157.043L153.303 166.601C153.03 168.922 154.177 171.177 156.216 172.333L193.159 193.291L194.419 218.543C194.456 219.36 194.729 220.159 195.199 220.836L205.518 235.76L211.777 229.097L210.705 226.005L213.759 227.001L215 225.676L214.991 225.685Z" fill="#FFC24A"/>
<path d="M214.991 225.685L201.317 216.447L204.07 190.18L186.412 172.484C193.018 159.58 190.876 143.548 190.876 143.548C188.319 125.795 162.926 114.461 150.568 111.341C138.21 108.221 135.174 104.34 135.174 104.34C125.739 85.7881 105.543 64.5864 105.543 64.5864C85.2902 40.7158 62.1432 44.5407 62.1432 44.5407C62.1432 44.5407 49.9541 45.6873 47.7456 56.2975C45.2834 68.12 46.6367 71.8322 36.158 80.7038C36.158 80.7038 32.5116 83.4762 38.1598 88.1376C44.8323 93.6447 62.7823 89.6412 71.823 81.0046C71.823 81.0046 74.7834 81.3147 72.7816 91.7934C70.7799 102.263 70.6577 113.784 86.136 122.665C86.136 122.665 91.1733 126.697 92.9401 132.063L78.8903 139.958C76.9355 141.057 76.428 143.651 77.8377 145.399L94.5566 170.068C95.8817 172.023 97.9398 173.358 100.27 173.762L124.141 177.925V171.196L120.871 169.786L124.141 168.132V166.648L103.381 166.883L91.7466 145.765L113.193 147.072L115.852 143.472C119.912 146.245 131.847 153.18 154.412 157.043L153.303 166.601C153.03 168.922 154.177 171.177 156.216 172.333L193.159 193.291L194.419 218.543C194.456 219.36 194.729 220.159 195.199 220.836L205.518 235.76L211.777 229.097L210.705 226.005L213.759 227.001L215 225.676L214.991 225.685Z" fill="url(#paint10_linear_49_241)" fill-opacity="0.4"/>
<path d="M214.991 225.685L201.317 216.447L204.07 190.18L186.412 172.484C193.018 159.58 190.876 143.548 190.876 143.548C188.319 125.795 162.926 114.461 150.568 111.341C138.21 108.221 135.174 104.34 135.174 104.34C125.739 85.7881 105.543 64.5864 105.543 64.5864C85.2902 40.7158 62.1432 44.5407 62.1432 44.5407C62.1432 44.5407 49.9541 45.6873 47.7456 56.2975C45.2834 68.12 46.6367 71.8322 36.158 80.7038C36.158 80.7038 32.5116 83.4762 38.1598 88.1376C44.8323 93.6447 62.7823 89.6412 71.823 81.0046C71.823 81.0046 74.7834 81.3147 72.7816 91.7934C70.7799 102.263 70.6577 113.784 86.136 122.665C86.136 122.665 91.1733 126.697 92.9401 132.063L78.8903 139.958C76.9355 141.057 76.428 143.651 77.8377 145.399L94.5566 170.068C95.8817 172.023 97.9398 173.358 100.27 173.762L124.141 177.925V171.196L120.871 169.786L124.141 168.132V166.648L103.381 166.883L91.7466 145.765L113.193 147.072L115.852 143.472C119.912 146.245 131.847 153.18 154.412 157.043L153.303 166.601C153.03 168.922 154.177 171.177 156.216 172.333L193.159 193.291L194.419 218.543C194.456 219.36 194.729 220.159 195.199 220.836L205.518 235.76L211.777 229.097L210.705 226.005L213.759 227.001L215 225.676L214.991 225.685Z" fill="url(#paint11_linear_49_241)" fill-opacity="0.4"/>
<path d="M214.991 225.685L201.317 216.447L204.07 190.18L186.412 172.484C193.018 159.58 190.876 143.548 190.876 143.548C188.319 125.795 162.926 114.461 150.568 111.341C138.21 108.221 135.174 104.34 135.174 104.34C125.739 85.7881 105.543 64.5864 105.543 64.5864C85.2902 40.7158 62.1432 44.5407 62.1432 44.5407C62.1432 44.5407 49.9541 45.6873 47.7456 56.2975C45.2834 68.12 46.6367 71.8322 36.158 80.7038C36.158 80.7038 32.5116 83.4762 38.1598 88.1376C44.8323 93.6447 62.7823 89.6412 71.823 81.0046C71.823 81.0046 74.7834 81.3147 72.7816 91.7934C70.7799 102.263 70.6577 113.784 86.136 122.665C86.136 122.665 91.1733 126.697 92.9401 132.063L78.8903 139.958C76.9355 141.057 76.428 143.651 77.8377 145.399L94.5566 170.068C95.8817 172.023 97.9398 173.358 100.27 173.762L124.141 177.925V171.196L120.871 169.786L124.141 168.132V166.648L103.381 166.883L91.7466 145.765L113.193 147.072L115.852 143.472C119.912 146.245 131.847 153.18 154.412 157.043L153.303 166.601C153.03 168.922 154.177 171.177 156.216 172.333L193.159 193.291L194.419 218.543C194.456 219.36 194.729 220.159 195.199 220.836L205.518 235.76L211.777 229.097L210.705 226.005L213.759 227.001L215 225.676L214.991 225.685Z" fill="url(#paint12_radial_49_241)" fill-opacity="0.4"/>
<path d="M214.991 225.685L201.317 216.447L204.07 190.18L186.412 172.484C193.018 159.58 190.876 143.548 190.876 143.548C188.319 125.795 162.926 114.461 150.568 111.341C138.21 108.221 135.174 104.34 135.174 104.34C125.739 85.7881 105.543 64.5864 105.543 64.5864C85.2902 40.7158 62.1432 44.5407 62.1432 44.5407C62.1432 44.5407 49.9541 45.6873 47.7456 56.2975C45.2834 68.12 46.6367 71.8322 36.158 80.7038C36.158 80.7038 32.5116 83.4762 38.1598 88.1376C44.8323 93.6447 62.7823 89.6412 71.823 81.0046C71.823 81.0046 74.7834 81.3147 72.7816 91.7934C70.7799 102.263 70.6577 113.784 86.136 122.665C86.136 122.665 91.1733 126.697 92.9401 132.063L78.8903 139.958C76.9355 141.057 76.428 143.651 77.8377 145.399L94.5566 170.068C95.8817 172.023 97.9398 173.358 100.27 173.762L124.141 177.925V171.196L120.871 169.786L124.141 168.132V166.648L103.381 166.883L91.7466 145.765L113.193 147.072L115.852 143.472C119.912 146.245 131.847 153.18 154.412 157.043L153.303 166.601C153.03 168.922 154.177 171.177 156.216 172.333L193.159 193.291L194.419 218.543C194.456 219.36 194.729 220.159 195.199 220.836L205.518 235.76L211.777 229.097L210.705 226.005L213.759 227.001L215 225.676L214.991 225.685Z" fill="url(#paint13_radial_49_241)" fill-opacity="0.4"/>
<mask id="mask2_49_241" style="mask-type:luminance" maskUnits="userSpaceOnUse" x="35" y="44" width="180" height="192">
<path d="M214.991 225.685L201.317 216.447L204.07 190.18L186.412 172.484C193.018 159.58 190.876 143.548 190.876 143.548C188.319 125.795 162.926 114.461 150.568 111.341C138.21 108.221 135.174 104.34 135.174 104.34C125.739 85.7881 105.543 64.5864 105.543 64.5864C85.2902 40.7158 62.1432 44.5407 62.1432 44.5407C62.1432 44.5407 49.9541 45.6873 47.7456 56.2975C45.2834 68.12 46.6367 71.8322 36.158 80.7038C36.158 80.7038 32.5116 83.4762 38.1598 88.1376C44.8323 93.6447 62.7823 89.6412 71.823 81.0046C71.823 81.0046 74.7834 81.3147 72.7816 91.7934C70.7799 102.263 70.6577 113.784 86.136 122.665C86.136 122.665 91.1733 126.697 92.9401 132.063L78.8903 139.958C76.9355 141.057 76.428 143.651 77.8377 145.399L94.5566 170.068C95.8817 172.023 97.9398 173.358 100.27 173.762L124.141 177.925V171.196L120.871 169.786L124.141 168.132V166.648L103.381 166.883L91.7466 145.765L113.193 147.072L115.852 143.472C119.912 146.245 131.847 153.18 154.412 157.043L153.303 166.601C153.03 168.922 154.177 171.177 156.216 172.333L193.159 193.291L194.419 218.543C194.456 219.36 194.729 220.159 195.199 220.836L205.518 235.76L211.777 229.097L210.705 226.005L213.759 227.001L215 225.676L214.991 225.685Z" fill="white"/>
</mask>
<g mask="url(#mask2_49_241)">
<path d="M118.156 79.1541C118.156 79.1541 130.204 97.3484 133.607 104.914C133.954 105.684 134.471 106.37 135.138 106.887C136.614 108.015 139.602 109.801 144.414 110.534C144.414 110.534 157.045 112.799 164.732 116.558L118.147 79.1541H118.156Z" fill="#EA9F0B"/>
<path d="M54.6269 47.0566C54.6269 47.0566 49.505 51.5018 48.9035 57.3849C48.3021 63.268 45.6989 73.9346 41.1597 75.8988L46.3379 51.9435L54.6269 47.0566Z" fill="#FFE5B3"/>
<path d="M190.579 176.652L202.27 190.749L201.32 216.452L205.502 188.108L190.579 176.652Z" fill="#EA9F0B"/>
<path d="M94.4546 150.711L102.011 168.351L115.854 166.762L94.4546 150.711Z" fill="#EA9F0B"/>
<path d="M152.833 157.587C152.833 157.587 155.831 148.104 163.688 147.211C163.688 147.211 156.818 149.053 154.402 157.07L152.824 157.587H152.833Z" fill="#EA9F0B"/>
<path d="M92.9443 132.088C92.9443 132.088 99.6826 128.751 106.562 129.071C106.562 129.071 99.4006 127.276 91.0459 131.355L92.9443 132.088Z" fill="#EA9F0B"/>
<path d="M115.853 143.488C115.853 143.488 117.986 139.315 118.061 136.11C118.061 136.11 118.945 141.025 116.586 144.625L115.853 143.478" fill="#EA9F0B"/>
<path d="M71.825 81.036C71.825 81.036 75.9224 77.8877 76.8904 76.2149C77.8584 74.5421 77.6892 68.9409 77.6892 68.9409C77.6892 68.9409 78.5726 73.4613 77.6892 77.0607C77.6892 77.0607 74.9732 79.8237 71.8531 81.7409L71.8343 81.0454" fill="#EA9F0B"/>
</g>
<defs>
<radialGradient id="paint0_radial_49_241" cx="0" cy="0" r="1" gradientUnits="userSpaceOnUse" gradientTransform="translate(56.6205 48.3023) rotate(-68.416) scale(45.9849 66.2028)">
<stop offset="0.148414" stop-color="#F18111"/>
<stop offset="0.542189" stop-color="#FFC24A" stop-opacity="0"/>
</radialGradient>
<linearGradient id="paint1_linear_49_241" x1="81.9948" y1="38.4345" x2="114.189" y2="36.8574" gradientUnits="userSpaceOnUse">
<stop offset="0.360113" stop-color="#FFC24A" stop-opacity="0"/>
<stop offset="0.910511" stop-color="#FFF4C7"/>
</linearGradient>
<linearGradient id="paint2_linear_49_241" x1="92.8024" y1="39.8442" x2="97.4554" y2="14.2878" gradientUnits="userSpaceOnUse">
<stop offset="0.515555" stop-color="#FFC24A" stop-opacity="0"/>
<stop offset="0.917186" stop-color="#FFF4C7"/>
</linearGradient>
<linearGradient id="paint3_linear_49_241" x1="82.5703" y1="50.89" x2="80.8204" y2="38.6172" gradientUnits="userSpaceOnUse">
<stop offset="0.217892" stop-color="#E27826" stop-opacity="0"/>
<stop offset="0.857237" stop-color="#BC5D13"/>
</linearGradient>
<linearGradient id="paint4_linear_49_241" x1="70.3507" y1="35.7353" x2="77.6964" y2="44.9965" gradientUnits="userSpaceOnUse">
<stop offset="0.276099" stop-color="#FFC24A" stop-opacity="0"/>
<stop offset="0.757484" stop-color="#F18111"/>
</linearGradient>
<linearGradient id="paint5_linear_49_241" x1="57.0909" y1="98.5906" x2="54.2715" y2="88.7229" gradientUnits="userSpaceOnUse">
<stop offset="0.371462" stop-color="#FFC24A" stop-opacity="0"/>
<stop offset="0.851586" stop-color="#F18111"/>
</linearGradient>
<linearGradient id="paint6_linear_49_241" x1="35.0058" y1="148.865" x2="87.1641" y2="140.407" gradientUnits="userSpaceOnUse">
<stop offset="0.563746" stop-color="#FFC24A" stop-opacity="0"/>
<stop offset="0.894743" stop-color="#F18111"/>
</linearGradient>
<linearGradient id="paint7_linear_49_241" x1="68.3683" y1="127.25" x2="57.0908" y2="124.431" gradientUnits="userSpaceOnUse">
<stop offset="0.149796" stop-color="#FFC24A" stop-opacity="0"/>
<stop offset="0.917186" stop-color="#FFF4C7"/>
</linearGradient>
<linearGradient id="paint8_linear_49_241" x1="140.261" y1="178.93" x2="157.146" y2="166.541" gradientUnits="userSpaceOnUse">
<stop stop-color="#FFC24A" stop-opacity="0"/>
<stop offset="0.817925" stop-color="#F18111"/>
</linearGradient>
<linearGradient id="paint9_linear_49_241" x1="155.297" y1="166.243" x2="138.209" y2="173.277" gradientUnits="userSpaceOnUse">
<stop offset="0.149796" stop-color="#FFC24A" stop-opacity="0"/>
<stop offset="0.917186" stop-color="#FFF4C7"/>
</linearGradient>
<linearGradient id="paint10_linear_49_241" x1="120.053" y1="175.622" x2="182.549" y2="121.114" gradientUnits="userSpaceOnUse">
<stop offset="0.563746" stop-color="#FFC24A" stop-opacity="0"/>
<stop offset="0.894743" stop-color="#F18111"/>
</linearGradient>
<linearGradient id="paint11_linear_49_241" x1="96.0886" y1="129.572" x2="77.7627" y2="150.717" gradientUnits="userSpaceOnUse">
<stop offset="0.515555" stop-color="#FFC24A" stop-opacity="0"/>
<stop offset="0.917186" stop-color="#FFF4C7"/>
</linearGradient>
<radialGradient id="paint12_radial_49_241" cx="0" cy="0" r="1" gradientUnits="userSpaceOnUse" gradientTransform="translate(74.0036 102.318) rotate(60.1011) scale(43.3629 35.9398)">
<stop offset="0.1251" stop-color="#FFF4C7"/>
<stop offset="0.730948" stop-color="#FFC24A" stop-opacity="0"/>
</radialGradient>
<radialGradient id="paint13_radial_49_241" cx="0" cy="0" r="1" gradientUnits="userSpaceOnUse" gradientTransform="translate(159.994 174.212) rotate(-57.5288) scale(30.6334 44.8902)">
<stop offset="0.1251" stop-color="#FFF4C7"/>
<stop offset="0.494359" stop-color="#FFC24A" stop-opacity="0"/>
</radialGradient>
</defs>
</svg>
