<svg width="250" height="251" viewBox="0 0 250 251" fill="none" xmlns="http://www.w3.org/2000/svg">
<path d="M59.6764 38.6877C59.6764 38.6877 58.2437 33.1026 52.4875 31.7631C52.4875 31.7631 50.3216 31.1299 49.049 30.0908C49.049 30.0908 46.7904 38.0383 53.1618 41.1069L59.668 38.6877H59.6764Z" fill="#FFC24A"/>
<path d="M59.6764 38.6877C59.6764 38.6877 58.2437 33.1026 52.4875 31.7631C52.4875 31.7631 50.3216 31.1299 49.049 30.0908C49.049 30.0908 46.7904 38.0383 53.1618 41.1069L59.668 38.6877H59.6764Z" fill="url(#paint0_linear_49_265)" fill-opacity="0.6"/>
<path d="M107.082 215.88L113.347 219.112L122.762 216.916L121.132 208.859L140.63 180.423L136.877 149.923C136.877 149.923 154.128 135.301 157.756 128.42L126.375 134.545L117.628 150.048L130.503 181.047L111.761 208.859L107.082 215.88Z" fill="#FFC24A"/>
<path d="M107.082 215.88L113.347 219.112L122.762 216.916L121.132 208.859L140.63 180.423L136.877 149.923C136.877 149.923 154.128 135.301 157.756 128.42L126.375 134.545L117.628 150.048L130.503 181.047L111.761 208.859L107.082 215.88Z" fill="url(#paint1_linear_49_265)" fill-opacity="0.8"/>
<path d="M107.082 215.88L113.347 219.112L122.762 216.916L121.132 208.859L140.63 180.423L136.877 149.923C136.877 149.923 154.128 135.301 157.756 128.42L126.375 134.545L117.628 150.048L130.503 181.047L111.761 208.859L107.082 215.88Z" fill="url(#paint2_radial_49_265)" fill-opacity="0.8"/>
<path d="M107.082 215.88L113.347 219.112L122.762 216.916L121.132 208.859L140.63 180.423L136.877 149.923C136.877 149.923 154.128 135.301 157.756 128.42L126.375 134.545L117.628 150.048L130.503 181.047L111.761 208.859L107.082 215.88Z" fill="url(#paint3_radial_49_265)" fill-opacity="0.4"/>
<mask id="mask0_49_265" style="mask-type:luminance" maskUnits="userSpaceOnUse" x="107" y="128" width="51" height="92">
<path d="M107.082 215.88L113.347 219.112L122.762 216.916L121.132 208.859L140.63 180.423L136.877 149.923C136.877 149.923 154.128 135.301 157.756 128.42L126.375 134.545L117.628 150.048L130.503 181.047L111.761 208.859L107.082 215.88Z" fill="white"/>
</mask>
<g mask="url(#mask0_49_265)">
<path d="M136.877 149.924L138.265 180.445L121.131 208.86L146.116 178.206L136.877 149.924Z" fill="#EA9F0B"/>
</g>
<path d="M35.2478 148.5L44.6189 179.881L46.1905 190.31L57.3167 189.37L58.8149 178.368L51.1183 178.126L44.2443 150.505C44.2443 150.505 70.4993 133.129 76 123.75L64.9986 112L35.2478 148.5Z" fill="#FFC24A"/>
<path d="M35.2478 148.5L44.6189 179.881L46.1905 190.31L57.3167 189.37L58.8149 178.368L51.1183 178.126L44.2443 150.505C44.2443 150.505 70.4993 133.129 76 123.75L64.9986 112L35.2478 148.5Z" fill="url(#paint4_linear_49_265)" fill-opacity="0.8"/>
<path d="M35.2478 148.5L44.6189 179.881L46.1905 190.31L57.3167 189.37L58.8149 178.368L51.1183 178.126L44.2443 150.505C44.2443 150.505 70.4993 133.129 76 123.75L64.9986 112L35.2478 148.5Z" fill="url(#paint5_radial_49_265)" fill-opacity="0.8"/>
<path d="M35.2478 148.5L44.6189 179.881L46.1905 190.31L57.3167 189.37L58.8149 178.368L51.1183 178.126L44.2443 150.505C44.2443 150.505 70.4993 133.129 76 123.75L64.9986 112L35.2478 148.5Z" fill="url(#paint6_radial_49_265)" fill-opacity="0.4"/>
<mask id="mask1_49_265" style="mask-type:luminance" maskUnits="userSpaceOnUse" x="35" y="112" width="41" height="79">
<path d="M35.2478 148.5L44.6189 179.881L46.1905 190.31L57.3167 189.37L58.8149 178.368L51.1183 178.126L44.2443 150.505C44.2443 150.505 70.4993 133.129 76 123.75L64.9986 112L35.2478 148.5Z" fill="white"/>
</mask>
<g mask="url(#mask1_49_265)">
<path d="M64.918 112.25L37.8037 149.433L44.6484 180.873L29.9529 145.584L64.918 112.25Z" fill="#FFE5B3"/>
</g>
<path d="M40.0045 75.5986C40.0045 75.5986 43.1698 80.0638 49.5518 78.4481C56.6755 76.5754 57.6082 73.1531 66.5679 69.5912C66.5679 69.5912 65.9437 75.5032 66.6928 80.1887C66.6928 80.1887 47.0034 109.212 83.944 136.216L81.5572 168.707L83.518 209.282L80.529 215.136L75.1972 221.136L80.9549 224.646L92.0665 223.009L91.8535 215.385L92.3676 209.282L94.2403 170.653L99.1315 136.657C99.1315 136.657 103.501 135.651 104.258 134.153C104.258 134.153 130.131 142.532 158.633 128.777V141.152L175.51 172.533L166.418 206.271L159.764 213.542L165.199 216.913H175.142L174.57 208.019L186.761 173.032L177.632 143.531L191.755 116.652C191.755 116.652 198.386 94.774 184.506 83.7799C170.633 72.7785 150.253 77.9047 146.883 78.0295C146.883 78.0295 122.757 82.1495 112.88 76.2743L88.0052 39.1501L81.0063 35.1476H74.5583C74.5583 35.1476 59.4442 30.6897 49.8161 45.1135C49.8161 45.1135 48.3767 49.5933 47.8186 54.2201C47.8186 54.2201 46.0046 62.5336 40.6948 67.4688C40.6948 67.4688 36.5675 70.9058 40.0045 75.5986Z" fill="#FFC24A"/>
<path d="M40.0045 75.5986C40.0045 75.5986 43.1698 80.0638 49.5518 78.4481C56.6755 76.5754 57.6082 73.1531 66.5679 69.5912C66.5679 69.5912 65.9437 75.5032 66.6928 80.1887C66.6928 80.1887 47.0034 109.212 83.944 136.216L81.5572 168.707L83.518 209.282L80.529 215.136L75.1972 221.136L80.9549 224.646L92.0665 223.009L91.8535 215.385L92.3676 209.282L94.2403 170.653L99.1315 136.657C99.1315 136.657 103.501 135.651 104.258 134.153C104.258 134.153 130.131 142.532 158.633 128.777V141.152L175.51 172.533L166.418 206.271L159.764 213.542L165.199 216.913H175.142L174.57 208.019L186.761 173.032L177.632 143.531L191.755 116.652C191.755 116.652 198.386 94.774 184.506 83.7799C170.633 72.7785 150.253 77.9047 146.883 78.0295C146.883 78.0295 122.757 82.1495 112.88 76.2743L88.0052 39.1501L81.0063 35.1476H74.5583C74.5583 35.1476 59.4442 30.6897 49.8161 45.1135C49.8161 45.1135 48.3767 49.5933 47.8186 54.2201C47.8186 54.2201 46.0046 62.5336 40.6948 67.4688C40.6948 67.4688 36.5675 70.9058 40.0045 75.5986Z" fill="url(#paint7_linear_49_265)" fill-opacity="0.8"/>
<path d="M40.0045 75.5986C40.0045 75.5986 43.1698 80.0638 49.5518 78.4481C56.6755 76.5754 57.6082 73.1531 66.5679 69.5912C66.5679 69.5912 65.9437 75.5032 66.6928 80.1887C66.6928 80.1887 47.0034 109.212 83.944 136.216L81.5572 168.707L83.518 209.282L80.529 215.136L75.1972 221.136L80.9549 224.646L92.0665 223.009L91.8535 215.385L92.3676 209.282L94.2403 170.653L99.1315 136.657C99.1315 136.657 103.501 135.651 104.258 134.153C104.258 134.153 130.131 142.532 158.633 128.777V141.152L175.51 172.533L166.418 206.271L159.764 213.542L165.199 216.913H175.142L174.57 208.019L186.761 173.032L177.632 143.531L191.755 116.652C191.755 116.652 198.386 94.774 184.506 83.7799C170.633 72.7785 150.253 77.9047 146.883 78.0295C146.883 78.0295 122.757 82.1495 112.88 76.2743L88.0052 39.1501L81.0063 35.1476H74.5583C74.5583 35.1476 59.4442 30.6897 49.8161 45.1135C49.8161 45.1135 48.3767 49.5933 47.8186 54.2201C47.8186 54.2201 46.0046 62.5336 40.6948 67.4688C40.6948 67.4688 36.5675 70.9058 40.0045 75.5986Z" fill="url(#paint8_radial_49_265)" fill-opacity="0.4"/>
<path d="M40.0045 75.5986C40.0045 75.5986 43.1698 80.0638 49.5518 78.4481C56.6755 76.5754 57.6082 73.1531 66.5679 69.5912C66.5679 69.5912 65.9437 75.5032 66.6928 80.1887C66.6928 80.1887 47.0034 109.212 83.944 136.216L81.5572 168.707L83.518 209.282L80.529 215.136L75.1972 221.136L80.9549 224.646L92.0665 223.009L91.8535 215.385L92.3676 209.282L94.2403 170.653L99.1315 136.657C99.1315 136.657 103.501 135.651 104.258 134.153C104.258 134.153 130.131 142.532 158.633 128.777V141.152L175.51 172.533L166.418 206.271L159.764 213.542L165.199 216.913H175.142L174.57 208.019L186.761 173.032L177.632 143.531L191.755 116.652C191.755 116.652 198.386 94.774 184.506 83.7799C170.633 72.7785 150.253 77.9047 146.883 78.0295C146.883 78.0295 122.757 82.1495 112.88 76.2743L88.0052 39.1501L81.0063 35.1476H74.5583C74.5583 35.1476 59.4442 30.6897 49.8161 45.1135C49.8161 45.1135 48.3767 49.5933 47.8186 54.2201C47.8186 54.2201 46.0046 62.5336 40.6948 67.4688C40.6948 67.4688 36.5675 70.9058 40.0045 75.5986Z" fill="url(#paint9_radial_49_265)" fill-opacity="0.8"/>
<path d="M40.0045 75.5986C40.0045 75.5986 43.1698 80.0638 49.5518 78.4481C56.6755 76.5754 57.6082 73.1531 66.5679 69.5912C66.5679 69.5912 65.9437 75.5032 66.6928 80.1887C66.6928 80.1887 47.0034 109.212 83.944 136.216L81.5572 168.707L83.518 209.282L80.529 215.136L75.1972 221.136L80.9549 224.646L92.0665 223.009L91.8535 215.385L92.3676 209.282L94.2403 170.653L99.1315 136.657C99.1315 136.657 103.501 135.651 104.258 134.153C104.258 134.153 130.131 142.532 158.633 128.777V141.152L175.51 172.533L166.418 206.271L159.764 213.542L165.199 216.913H175.142L174.57 208.019L186.761 173.032L177.632 143.531L191.755 116.652C191.755 116.652 198.386 94.774 184.506 83.7799C170.633 72.7785 150.253 77.9047 146.883 78.0295C146.883 78.0295 122.757 82.1495 112.88 76.2743L88.0052 39.1501L81.0063 35.1476H74.5583C74.5583 35.1476 59.4442 30.6897 49.8161 45.1135C49.8161 45.1135 48.3767 49.5933 47.8186 54.2201C47.8186 54.2201 46.0046 62.5336 40.6948 67.4688C40.6948 67.4688 36.5675 70.9058 40.0045 75.5986Z" fill="url(#paint10_radial_49_265)" fill-opacity="0.8"/>
<path d="M40.0045 75.5986C40.0045 75.5986 43.1698 80.0638 49.5518 78.4481C56.6755 76.5754 57.6082 73.1531 66.5679 69.5912C66.5679 69.5912 65.9437 75.5032 66.6928 80.1887C66.6928 80.1887 47.0034 109.212 83.944 136.216L81.5572 168.707L83.518 209.282L80.529 215.136L75.1972 221.136L80.9549 224.646L92.0665 223.009L91.8535 215.385L92.3676 209.282L94.2403 170.653L99.1315 136.657C99.1315 136.657 103.501 135.651 104.258 134.153C104.258 134.153 130.131 142.532 158.633 128.777V141.152L175.51 172.533L166.418 206.271L159.764 213.542L165.199 216.913H175.142L174.57 208.019L186.761 173.032L177.632 143.531L191.755 116.652C191.755 116.652 198.386 94.774 184.506 83.7799C170.633 72.7785 150.253 77.9047 146.883 78.0295C146.883 78.0295 122.757 82.1495 112.88 76.2743L88.0052 39.1501L81.0063 35.1476H74.5583C74.5583 35.1476 59.4442 30.6897 49.8161 45.1135C49.8161 45.1135 48.3767 49.5933 47.8186 54.2201C47.8186 54.2201 46.0046 62.5336 40.6948 67.4688C40.6948 67.4688 36.5675 70.9058 40.0045 75.5986Z" fill="url(#paint11_linear_49_265)" fill-opacity="0.8"/>
<path d="M40.0045 75.5986C40.0045 75.5986 43.1698 80.0638 49.5518 78.4481C56.6755 76.5754 57.6082 73.1531 66.5679 69.5912C66.5679 69.5912 65.9437 75.5032 66.6928 80.1887C66.6928 80.1887 47.0034 109.212 83.944 136.216L81.5572 168.707L83.518 209.282L80.529 215.136L75.1972 221.136L80.9549 224.646L92.0665 223.009L91.8535 215.385L92.3676 209.282L94.2403 170.653L99.1315 136.657C99.1315 136.657 103.501 135.651 104.258 134.153C104.258 134.153 130.131 142.532 158.633 128.777V141.152L175.51 172.533L166.418 206.271L159.764 213.542L165.199 216.913H175.142L174.57 208.019L186.761 173.032L177.632 143.531L191.755 116.652C191.755 116.652 198.386 94.774 184.506 83.7799C170.633 72.7785 150.253 77.9047 146.883 78.0295C146.883 78.0295 122.757 82.1495 112.88 76.2743L88.0052 39.1501L81.0063 35.1476H74.5583C74.5583 35.1476 59.4442 30.6897 49.8161 45.1135C49.8161 45.1135 48.3767 49.5933 47.8186 54.2201C47.8186 54.2201 46.0046 62.5336 40.6948 67.4688C40.6948 67.4688 36.5675 70.9058 40.0045 75.5986Z" fill="url(#paint12_linear_49_265)" fill-opacity="0.8"/>
<mask id="mask2_49_265" style="mask-type:luminance" maskUnits="userSpaceOnUse" x="38" y="34" width="156" height="191">
<path d="M40.0045 75.5986C40.0045 75.5986 43.1698 80.0638 49.5518 78.4481C56.6755 76.5754 57.6082 73.1531 66.5679 69.5912C66.5679 69.5912 65.9437 75.5032 66.6928 80.1887C66.6928 80.1887 47.0034 109.212 83.944 136.216L81.5572 168.707L83.518 209.282L80.529 215.136L75.1972 221.136L80.9549 224.646L92.0665 223.009L91.8535 215.385L92.3676 209.282L94.2403 170.653L99.1315 136.657C99.1315 136.657 103.501 135.651 104.258 134.153C104.258 134.153 130.131 142.532 158.633 128.777V141.152L175.51 172.533L166.418 206.271L159.764 213.542L165.199 216.913H175.142L174.57 208.019L186.761 173.032L177.632 143.531L191.755 116.652C191.755 116.652 198.386 94.774 184.506 83.7799C170.633 72.7785 150.253 77.9047 146.883 78.0295C146.883 78.0295 122.757 82.1495 112.88 76.2743L88.0052 39.1501L81.0063 35.1476H74.5583C74.5583 35.1476 59.4442 30.6897 49.8161 45.1135C49.8161 45.1135 48.3767 49.5933 47.8186 54.2201C47.8186 54.2201 46.0046 62.5336 40.6948 67.4688C40.6948 67.4688 36.5675 70.9058 40.0045 75.5986Z" fill="white"/>
</mask>
<g mask="url(#mask2_49_265)">
<path d="M153.6 77.5115C153.6 77.5115 192.156 72.1283 193.331 109.304C193.331 109.304 201.63 64.3069 153.6 77.5115Z" fill="#FFE5B3"/>
<path d="M177.629 143.88L184.731 173.763L174.56 208.368L192.097 169.393L177.629 143.88Z" fill="#EA9F0B"/>
<path d="M83.9412 136.565L83.3022 169.554L83.5152 209.631L76.1638 164.582L83.9412 136.565Z" fill="#FFE5B3"/>
<path d="M66.6533 34.4969C66.6533 34.4969 53.3679 37.6842 48.4254 50.8668L46.3617 43.1335C46.3617 43.1335 60.073 32.918 66.3228 34.4382" fill="#FFE5B3"/>
<path d="M78.7415 132.437C78.7415 132.437 57.0618 110.126 65.0521 83.5187C65.0521 83.5187 45.3407 111.184 78.7415 132.437Z" fill="#EA9F0B"/>
</g>
<path d="M189.086 88.2975C189.086 88.2975 189.086 88.2975 189.086 88.2975C190.562 87.0853 192.423 86.2221 194.425 85.7001C204.624 82.9116 215.177 91.2343 220.196 99.3352L220.566 100.214C225.685 108.86 221.993 123.573 215.276 129.717C201.578 144.355 188.055 144.4 195.088 162.688C195.766 164.525 196.314 166.088 197.163 167.955C197.163 167.955 197.163 167.955 197.163 167.955C195.429 166.86 193.986 165.973 192.371 164.646C188.987 161.924 185.688 158.506 183.887 153.468C181.954 148.506 182.981 141.737 185.566 137.152C190.783 127.84 197.891 122.902 202.169 117.933C206.269 113.123 207.637 110.93 206.9 104.92L207.269 105.799C204.901 98.7385 202.224 91.8362 194.405 89.049C192.782 88.5181 190.97 88.1903 189.086 88.2975Z" fill="#E27826"/>
<path d="M76.1639 33.6087C76.1639 33.6087 86.6659 29.3932 97.2561 41.577C97.2561 41.577 100.539 45.1094 104.754 45.4546C104.754 45.4546 101.002 46.424 98.7542 45.4546C98.7542 45.4546 105.973 56.3018 118.818 59.8637C118.818 59.8637 115.065 61.3618 112.723 60.6128C112.723 60.6128 159.034 86.1113 142.165 116.868C142.165 116.868 139.448 120.349 137.259 115.414C135.071 110.479 130.385 95.0417 117.724 90.1652C105.07 85.2888 99.1582 72.165 98.2255 67.5676C98.2255 67.5676 98.4164 69.6313 95.9782 69.3522C95.9782 69.3522 91.6672 67.5676 89.9781 56.412C88.289 45.2563 83.9486 34.725 76.1639 37.2219V33.616V33.6087Z" fill="#F18111"/>
<path d="M76.1639 33.6087C76.1639 33.6087 86.6659 29.3932 97.2561 41.577C97.2561 41.577 100.539 45.1094 104.754 45.4546C104.754 45.4546 101.002 46.424 98.7542 45.4546C98.7542 45.4546 105.973 56.3018 118.818 59.8637C118.818 59.8637 115.065 61.3618 112.723 60.6128C112.723 60.6128 159.034 86.1113 142.165 116.868C142.165 116.868 139.448 120.349 137.259 115.414C135.071 110.479 130.385 95.0417 117.724 90.1652C105.07 85.2888 99.1582 72.165 98.2255 67.5676C98.2255 67.5676 98.4164 69.6313 95.9782 69.3522C95.9782 69.3522 91.6672 67.5676 89.9781 56.412C88.289 45.2563 83.9486 34.725 76.1639 37.2219V33.616V33.6087Z" fill="url(#paint13_linear_49_265)" fill-opacity="0.6"/>
<path d="M83.5466 33.905C84.0701 32.0455 83.827 29.5303 83.827 29.5303C83.5092 30.9586 78.882 32.9168 78.882 32.9168C71.974 35.989 69.9362 44.3431 69.9362 44.3431C69.9362 44.3431 66.6831 35.441 76.5357 29.2608C78.2464 28.0571 84.6964 27.7786 84.6964 26C84.6964 26 84.902 29.7818 83.5466 33.9139V33.905Z" fill="#FFDA86"/>
<path d="M83.5466 33.905C84.0701 32.0455 83.827 29.5303 83.827 29.5303C83.5092 30.9586 78.882 32.9168 78.882 32.9168C71.974 35.989 69.9362 44.3431 69.9362 44.3431C69.9362 44.3431 66.6831 35.441 76.5357 29.2608C78.2464 28.0571 84.6964 27.7786 84.6964 26C84.6964 26 84.902 29.7818 83.5466 33.9139V33.905Z" fill="url(#paint14_linear_49_265)" fill-opacity="0.6"/>
<path d="M83.5737 33.6537C83.5645 33.7065 83.546 33.7594 83.5276 33.8122C83.4907 33.9355 83.4446 34.0588 83.3984 34.1733C83.3892 34.2085 83.3708 34.2437 83.3615 34.2789C81.7107 38.7614 78.0861 43.4463 70.1545 43.8778C70.1545 43.8778 72.1651 35.6968 78.9807 32.6762C78.9807 32.6762 83.546 30.7564 83.8596 29.3562C83.8596 29.3562 84.0901 31.822 83.5829 33.6449L83.5737 33.6537Z" fill="#F18111"/>
<path d="M83.5737 33.6537C83.5645 33.7065 83.546 33.7594 83.5276 33.8122C83.4907 33.9355 83.4446 34.0588 83.3984 34.1733C83.3892 34.2085 83.3708 34.2437 83.3615 34.2789C81.7107 38.7614 78.0861 43.4463 70.1545 43.8778C70.1545 43.8778 72.1651 35.6968 78.9807 32.6762C78.9807 32.6762 83.546 30.7564 83.8596 29.3562C83.8596 29.3562 84.0901 31.822 83.5829 33.6449L83.5737 33.6537Z" fill="url(#paint15_linear_49_265)" fill-opacity="0.8"/>
<defs>
<linearGradient id="paint0_linear_49_265" x1="59" y1="39.5" x2="45" y2="31.5" gradientUnits="userSpaceOnUse">
<stop stop-color="#F18111"/>
<stop offset="1" stop-color="#FFC24A" stop-opacity="0"/>
</linearGradient>
<linearGradient id="paint1_linear_49_265" x1="109.983" y1="211.489" x2="134.953" y2="142.087" gradientUnits="userSpaceOnUse">
<stop stop-color="#FFC24A" stop-opacity="0"/>
<stop offset="1" stop-color="#F18111"/>
</linearGradient>
<radialGradient id="paint2_radial_49_265" cx="0" cy="0" r="1" gradientUnits="userSpaceOnUse" gradientTransform="translate(101.538 209.285) rotate(6.34019) scale(23.2761 13.8388)">
<stop stop-color="#F18111"/>
<stop offset="1" stop-color="#FFC24A" stop-opacity="0"/>
</radialGradient>
<radialGradient id="paint3_radial_49_265" cx="0" cy="0" r="1" gradientUnits="userSpaceOnUse" gradientTransform="translate(114.757 149.064) rotate(18.1038) scale(20.089 17.2153)">
<stop stop-color="#FFF4C7"/>
<stop offset="1" stop-color="#FFC24A" stop-opacity="0"/>
</radialGradient>
<linearGradient id="paint4_linear_49_265" x1="43.3998" y1="165.362" x2="68.3969" y2="124.267" gradientUnits="userSpaceOnUse">
<stop stop-color="#FFC24A" stop-opacity="0"/>
<stop offset="1" stop-color="#F18111"/>
</linearGradient>
<radialGradient id="paint5_radial_49_265" cx="0" cy="0" r="1" gradientUnits="userSpaceOnUse" gradientTransform="translate(30.7887 181.825) rotate(6.80321) scale(18.7362 11.9382)">
<stop stop-color="#F18111"/>
<stop offset="1" stop-color="#FFC24A" stop-opacity="0"/>
</radialGradient>
<radialGradient id="paint6_radial_49_265" cx="0" cy="0" r="1" gradientUnits="userSpaceOnUse" gradientTransform="translate(41.4197 129.826) rotate(19.3419) scale(16.2744 14.7564)">
<stop stop-color="#FFF4C7"/>
<stop offset="1" stop-color="#FFC24A" stop-opacity="0"/>
</radialGradient>
<linearGradient id="paint7_linear_49_265" x1="167.27" y1="174.788" x2="190.771" y2="180.663" gradientUnits="userSpaceOnUse">
<stop stop-color="#FFC24A" stop-opacity="0"/>
<stop offset="1" stop-color="#F18111"/>
</linearGradient>
<radialGradient id="paint8_radial_49_265" cx="0" cy="0" r="1" gradientUnits="userSpaceOnUse" gradientTransform="translate(129.448 129.622) rotate(-178.303) scale(49.5941 27.9043)">
<stop stop-color="#FFF4C7"/>
<stop offset="1" stop-color="#FFC24A" stop-opacity="0"/>
</radialGradient>
<radialGradient id="paint9_radial_49_265" cx="0" cy="0" r="1" gradientUnits="userSpaceOnUse" gradientTransform="translate(79.8753 186.171) rotate(-89.5265) scale(44.4331 18.4749)">
<stop stop-color="#F18111"/>
<stop offset="1" stop-color="#FFC24A" stop-opacity="0"/>
</radialGradient>
<radialGradient id="paint10_radial_49_265" cx="0" cy="0" r="1" gradientUnits="userSpaceOnUse" gradientTransform="translate(111.088 75.2756) rotate(-135.83) scale(53.7535 26.7646)">
<stop stop-color="#F18111"/>
<stop offset="1" stop-color="#FFC24A" stop-opacity="0"/>
</radialGradient>
<linearGradient id="paint11_linear_49_265" x1="71.4297" y1="69.4003" x2="58.5776" y2="40.0241" gradientUnits="userSpaceOnUse">
<stop stop-color="#FFC24A" stop-opacity="0"/>
<stop offset="1" stop-color="#FFF4C7"/>
</linearGradient>
<linearGradient id="paint12_linear_49_265" x1="163.965" y1="104.652" x2="178.653" y2="80.4164" gradientUnits="userSpaceOnUse">
<stop stop-color="#FFC24A" stop-opacity="0"/>
<stop offset="1" stop-color="#FFF4C7"/>
</linearGradient>
<linearGradient id="paint13_linear_49_265" x1="79.5055" y1="63.8736" x2="145.13" y2="48.2967" gradientUnits="userSpaceOnUse">
<stop stop-color="#E27826"/>
<stop offset="1" stop-color="#F18111" stop-opacity="0"/>
</linearGradient>
<linearGradient id="paint14_linear_49_265" x1="74.5" y1="28.5" x2="75.5" y2="43" gradientUnits="userSpaceOnUse">
<stop stop-color="#F18111"/>
<stop offset="1" stop-color="#FFDA86" stop-opacity="0"/>
</linearGradient>
<linearGradient id="paint15_linear_49_265" x1="81.93" y1="27.6404" x2="74.9095" y2="38.7594" gradientUnits="userSpaceOnUse">
<stop stop-color="#F18111" stop-opacity="0"/>
<stop offset="1" stop-color="#E27826"/>
</linearGradient>
</defs>
</svg>
