<svg width="250" height="251" viewBox="0 0 250 251" fill="none" xmlns="http://www.w3.org/2000/svg">
<path d="M88.7819 164.973L87.9746 187.32C87.9746 187.32 75.7026 202.254 70.3373 208.036C64.9721 213.818 67.6604 212.878 65.699 220.971C63.7376 229.065 56.6457 224.408 56.6457 224.408C45.1799 234.966 36.0073 228.196 36.5802 221.396C37.1531 214.596 53.7507 212.74 53.7507 212.74L65.6283 183.527C65.6283 183.527 49.5632 138.886 49.8657 134.882C50.1682 130.877 57.7655 128.127 57.7655 128.127C57.7655 128.127 93.7687 136.228 88.7714 164.981L88.7819 164.973Z" fill="#FFC24A"/>
<path d="M88.7819 164.973L87.9746 187.32C87.9746 187.32 75.7026 202.254 70.3373 208.036C64.9721 213.818 67.6604 212.878 65.699 220.971C63.7376 229.065 56.6457 224.408 56.6457 224.408C45.1799 234.966 36.0073 228.196 36.5802 221.396C37.1531 214.596 53.7507 212.74 53.7507 212.74L65.6283 183.527C65.6283 183.527 49.5632 138.886 49.8657 134.882C50.1682 130.877 57.7655 128.127 57.7655 128.127C57.7655 128.127 93.7687 136.228 88.7714 164.981L88.7819 164.973Z" fill="url(#paint0_linear_49_263)" fill-opacity="0.8"/>
<path d="M88.7819 164.973L87.9746 187.32C87.9746 187.32 75.7026 202.254 70.3373 208.036C64.9721 213.818 67.6604 212.878 65.699 220.971C63.7376 229.065 56.6457 224.408 56.6457 224.408C45.1799 234.966 36.0073 228.196 36.5802 221.396C37.1531 214.596 53.7507 212.74 53.7507 212.74L65.6283 183.527C65.6283 183.527 49.5632 138.886 49.8657 134.882C50.1682 130.877 57.7655 128.127 57.7655 128.127C57.7655 128.127 93.7687 136.228 88.7714 164.981L88.7819 164.973Z" fill="url(#paint1_linear_49_263)" fill-opacity="0.8"/>
<path d="M55.6254 128.833C52.7506 128.84 49.7391 130.813 49.2127 133.823C48.6936 136.721 49.9763 139.302 50.7718 141.96C52.4415 146.997 54.1834 151.989 55.9148 156.989C59.077 165.758 63.5414 178.222 66.8916 186.796L67.3049 186.653C64.1183 176.555 60.7641 166.515 57.4492 156.463C55.3561 150.206 53.1965 143.957 51.2892 137.643C50.0335 133.638 51.8073 130.648 55.702 129.255L55.6359 128.825L55.6254 128.833Z" fill="#FFE5B3"/>
<path d="M87.7782 175.701L87.1104 186.923L76.195 201.233L76.5662 201.451L89.2633 188.204L89.509 187.841L89.4408 187.464L88.2116 175.669L87.7782 175.701Z" fill="#EA9F0B"/>
<path d="M179.395 107.562C179.395 107.562 209.716 104.923 199.058 79.2713C194.759 68.9278 185.808 62.7087 175.068 60.4481C170.011 59.3869 163.682 59.4608 159.474 56.139C150.736 49.2279 146.898 36.3654 150.312 25.8003C151.557 21.9342 153.91 18.1326 157.666 16.5733C161.421 15.0139 166.597 16.7209 167.585 20.6609C168.609 24.7392 165.075 28.4116 163.719 32.3977C162.436 36.1716 163.239 40.5821 165.785 43.6548C168.923 47.4471 174.016 48.8588 178.75 50.1875C191.243 53.6846 202.786 58.8241 209.393 70.6163C210.685 72.9231 218.869 87.5388 212.761 101.813C207.843 113.292 195.257 120.858 181.075 120.932L179.405 107.571L179.395 107.562Z" fill="#FFC24A"/>
<path d="M179.395 107.562C179.395 107.562 209.716 104.923 199.058 79.2713C194.759 68.9278 185.808 62.7087 175.068 60.4481C170.011 59.3869 163.682 59.4608 159.474 56.139C150.736 49.2279 146.898 36.3654 150.312 25.8003C151.557 21.9342 153.91 18.1326 157.666 16.5733C161.421 15.0139 166.597 16.7209 167.585 20.6609C168.609 24.7392 165.075 28.4116 163.719 32.3977C162.436 36.1716 163.239 40.5821 165.785 43.6548C168.923 47.4471 174.016 48.8588 178.75 50.1875C191.243 53.6846 202.786 58.8241 209.393 70.6163C210.685 72.9231 218.869 87.5388 212.761 101.813C207.843 113.292 195.257 120.858 181.075 120.932L179.405 107.571L179.395 107.562Z" fill="url(#paint2_linear_49_263)" fill-opacity="0.8"/>
<path d="M179.395 107.562C179.395 107.562 209.716 104.923 199.058 79.2713C194.759 68.9278 185.808 62.7087 175.068 60.4481C170.011 59.3869 163.682 59.4608 159.474 56.139C150.736 49.2279 146.898 36.3654 150.312 25.8003C151.557 21.9342 153.91 18.1326 157.666 16.5733C161.421 15.0139 166.597 16.7209 167.585 20.6609C168.609 24.7392 165.075 28.4116 163.719 32.3977C162.436 36.1716 163.239 40.5821 165.785 43.6548C168.923 47.4471 174.016 48.8588 178.75 50.1875C191.243 53.6846 202.786 58.8241 209.393 70.6163C210.685 72.9231 218.869 87.5388 212.761 101.813C207.843 113.292 195.257 120.858 181.075 120.932L179.405 107.571L179.395 107.562Z" fill="url(#paint3_linear_49_263)" fill-opacity="0.8"/>
<path d="M155.821 94.0804C146.106 93.1573 130.651 98.3136 121.327 101.898C119.873 102.39 118.376 102.912 116.836 103.465C100.412 109.361 110.497 142.781 118.045 139.007C118.445 138.807 118.878 138.622 119.34 138.448L123.083 154.703H123.092L155.552 163.671L155.56 163.692L155.58 163.773L155.684 163.832L172.476 174.624L180.032 196.769C180.032 196.769 174.931 202.775 176.48 204.178C178.03 205.581 180.476 204.178 180.476 204.178C180.476 204.178 178.695 206.771 178.916 212.547C179.138 218.323 184.471 220.548 190.247 220.105C194.332 219.791 196.639 216.085 198.016 212.411C198.096 212.412 198.167 212.417 198.228 212.427C198.926 212.543 199.299 210.712 199.29 208.18C199.296 208.156 199.302 208.132 199.308 208.109C199.966 205.417 199.398 202.554 198.075 199.761C197.362 197.424 196.323 195.492 194.917 194.777L194.915 194.776C191.585 190.548 189.361 160.341 189.361 154.26C189.361 148.179 185.587 116.355 182.92 111.022C180.253 105.689 170.482 95.4645 155.821 94.0804Z" fill="#FFC24A"/>
<path d="M155.821 94.0804C146.106 93.1573 130.651 98.3136 121.327 101.898C119.873 102.39 118.376 102.912 116.836 103.465C100.412 109.361 110.497 142.781 118.045 139.007C118.445 138.807 118.878 138.622 119.34 138.448L123.083 154.703H123.092L155.552 163.671L155.56 163.692L155.58 163.773L155.684 163.832L172.476 174.624L180.032 196.769C180.032 196.769 174.931 202.775 176.48 204.178C178.03 205.581 180.476 204.178 180.476 204.178C180.476 204.178 178.695 206.771 178.916 212.547C179.138 218.323 184.471 220.548 190.247 220.105C194.332 219.791 196.639 216.085 198.016 212.411C198.096 212.412 198.167 212.417 198.228 212.427C198.926 212.543 199.299 210.712 199.29 208.18C199.296 208.156 199.302 208.132 199.308 208.109C199.966 205.417 199.398 202.554 198.075 199.761C197.362 197.424 196.323 195.492 194.917 194.777L194.915 194.776C191.585 190.548 189.361 160.341 189.361 154.26C189.361 148.179 185.587 116.355 182.92 111.022C180.253 105.689 170.482 95.4645 155.821 94.0804Z" fill="url(#paint4_linear_49_263)"/>
<path d="M155.821 94.0804C146.106 93.1573 130.651 98.3136 121.327 101.898C119.873 102.39 118.376 102.912 116.836 103.465C100.412 109.361 110.497 142.781 118.045 139.007C118.445 138.807 118.878 138.622 119.34 138.448L123.083 154.703H123.092L155.552 163.671L155.56 163.692L155.58 163.773L155.684 163.832L172.476 174.624L180.032 196.769C180.032 196.769 174.931 202.775 176.48 204.178C178.03 205.581 180.476 204.178 180.476 204.178C180.476 204.178 178.695 206.771 178.916 212.547C179.138 218.323 184.471 220.548 190.247 220.105C194.332 219.791 196.639 216.085 198.016 212.411C198.096 212.412 198.167 212.417 198.228 212.427C198.926 212.543 199.299 210.712 199.29 208.18C199.296 208.156 199.302 208.132 199.308 208.109C199.966 205.417 199.398 202.554 198.075 199.761C197.362 197.424 196.323 195.492 194.917 194.777L194.915 194.776C191.585 190.548 189.361 160.341 189.361 154.26C189.361 148.179 185.587 116.355 182.92 111.022C180.253 105.689 170.482 95.4645 155.821 94.0804Z" fill="url(#paint5_linear_49_263)" fill-opacity="0.4"/>
<path d="M158.93 166.034L150.275 159.981L116.928 150.458L63.9371 138.482C66.8436 145.199 73.5979 157.932 87.6507 166.975C116.199 185.365 148.503 171.561 150.275 170.776C153.984 169.116 156.918 167.362 158.939 166.034" fill="#FFF4C7"/>
<path d="M158.93 166.034L150.275 159.981L116.928 150.458L63.9371 138.482C66.8436 145.199 73.5979 157.932 87.6507 166.975C116.199 185.365 148.503 171.561 150.275 170.776C153.984 169.116 156.918 167.362 158.939 166.034" fill="url(#paint6_linear_49_263)" fill-opacity="0.8"/>
<path d="M158.93 166.034L150.275 159.981L116.928 150.458L63.9371 138.482C66.8436 145.199 73.5979 157.932 87.6507 166.975C116.199 185.365 148.503 171.561 150.275 170.776C153.984 169.116 156.918 167.362 158.939 166.034" fill="url(#paint7_linear_49_263)" fill-opacity="0.8"/>
<path d="M158.93 166.034L150.275 159.981L116.928 150.458L63.9371 138.482C66.8436 145.199 73.5979 157.932 87.6507 166.975C116.199 185.365 148.503 171.561 150.275 170.776C153.984 169.116 156.918 167.362 158.939 166.034" fill="url(#paint8_linear_49_263)" fill-opacity="0.8"/>
<path d="M107.212 223.712C107.212 223.712 92.5409 218.222 107.47 215.196L113.652 183.002L102.546 171.533C97.6485 166.476 94.5501 159.948 93.7283 152.956L92.707 144.267L113.293 131.303C113.293 131.303 122.621 127.972 125.288 133.969C127.954 139.967 137.283 180.179 137.283 180.179L122.769 217.059C122.769 217.059 131.285 238.3 110.405 235.347C110.405 235.347 106.732 233.696 107.221 223.731" fill="#FFC24A"/>
<path d="M107.212 223.712C107.212 223.712 92.5409 218.222 107.47 215.196L113.652 183.002L102.546 171.533C97.6485 166.476 94.5501 159.948 93.7283 152.956L92.707 144.267L113.293 131.303C113.293 131.303 122.621 127.972 125.288 133.969C127.954 139.967 137.283 180.179 137.283 180.179L122.769 217.059C122.769 217.059 131.285 238.3 110.405 235.347C110.405 235.347 106.732 233.696 107.221 223.731" fill="url(#paint9_linear_49_263)" fill-opacity="0.8"/>
<path d="M107.212 223.712C107.212 223.712 92.5409 218.222 107.47 215.196L113.652 183.002L102.546 171.533C97.6485 166.476 94.5501 159.948 93.7283 152.956L92.707 144.267L113.293 131.303C113.293 131.303 122.621 127.972 125.288 133.969C127.954 139.967 137.283 180.179 137.283 180.179L122.769 217.059C122.769 217.059 131.285 238.3 110.405 235.347C110.405 235.347 106.732 233.696 107.221 223.731" fill="url(#paint10_linear_49_263)" fill-opacity="0.8"/>
<path d="M107.212 223.712C107.212 223.712 92.5409 218.222 107.47 215.196L113.652 183.002L102.546 171.533C97.6485 166.476 94.5501 159.948 93.7283 152.956L92.707 144.267L113.293 131.303C113.293 131.303 122.621 127.972 125.288 133.969C127.954 139.967 137.283 180.179 137.283 180.179L122.769 217.059C122.769 217.059 131.285 238.3 110.405 235.347C110.405 235.347 106.732 233.696 107.221 223.731" fill="url(#paint11_linear_49_263)" fill-opacity="0.8"/>
<path d="M114.797 119.455C115.71 119.142 117.371 118.708 119.392 119.012C120.425 119.169 121.274 119.465 121.911 119.751C122.28 120.055 124.494 121.937 124.651 125.158C124.827 128.812 122.206 131.054 121.911 131.303C116.384 133.868 110.857 136.433 105.32 139.008L105.911 133.231L114.797 119.455Z" fill="#FFC24A"/>
<path d="M114.797 119.455C115.71 119.142 117.371 118.708 119.392 119.012C120.425 119.169 121.274 119.465 121.911 119.751C122.28 120.055 124.494 121.937 124.651 125.158C124.827 128.812 122.206 131.054 121.911 131.303C116.384 133.868 110.857 136.433 105.32 139.008L105.911 133.231L114.797 119.455Z" fill="url(#paint12_linear_49_263)" fill-opacity="0.8"/>
<path d="M114.797 119.455C115.71 119.142 117.371 118.708 119.392 119.012C120.425 119.169 121.274 119.465 121.911 119.751C122.28 120.055 124.494 121.937 124.651 125.158C124.827 128.812 122.206 131.054 121.911 131.303C116.384 133.868 110.857 136.433 105.32 139.008L105.911 133.231L114.797 119.455Z" fill="url(#paint13_linear_49_263)" fill-opacity="0.8"/>
<path d="M54.6359 110.117C53.8147 109.601 52.3015 108.798 50.2715 108.623C49.2381 108.53 48.3431 108.623 47.651 108.761C47.2266 108.973 44.6338 110.293 43.7388 113.384C42.7145 116.89 44.7537 119.686 44.9844 120C49.7733 123.773 54.5529 127.557 59.3418 131.33L60.0984 125.573L54.6452 110.117H54.6359Z" fill="#FFC24A"/>
<path d="M54.6359 110.117C53.8147 109.601 52.3015 108.798 50.2715 108.623C49.2381 108.53 48.3431 108.623 47.651 108.761C47.2266 108.973 44.6338 110.293 43.7388 113.384C42.7145 116.89 44.7537 119.686 44.9844 120C49.7733 123.773 54.5529 127.557 59.3418 131.33L60.0984 125.573L54.6452 110.117H54.6359Z" fill="url(#paint14_linear_49_263)" fill-opacity="0.8"/>
<path d="M77.9251 83.4701C77.9251 83.4701 69.7776 84.5035 67.7107 86.1367C65.6438 87.7699 64.4535 90.5841 62.6727 91.7652C60.8919 92.9463 52.4583 99.6175 52.9012 104.941C53.3441 110.266 57.6439 129.08 57.6439 129.08L59.1295 136.637L75.2677 150.117L86.2294 151.446L90.3724 147.598L105.182 141.97L105.92 133.232C105.92 133.232 115.987 119.751 116.734 115.165C117.472 110.57 114.806 109.537 114.068 103.908C113.329 98.2795 109.777 82.289 77.9343 83.4701H77.9251Z" fill="#FFC24A"/>
<path d="M77.9251 83.4701C77.9251 83.4701 69.7776 84.5035 67.7107 86.1367C65.6438 87.7699 64.4535 90.5841 62.6727 91.7652C60.8919 92.9463 52.4583 99.6175 52.9012 104.941C53.3441 110.266 57.6439 129.08 57.6439 129.08L59.1295 136.637L75.2677 150.117L86.2294 151.446L90.3724 147.598L105.182 141.97L105.92 133.232C105.92 133.232 115.987 119.751 116.734 115.165C117.472 110.57 114.806 109.537 114.068 103.908C113.329 98.2795 109.777 82.289 77.9343 83.4701H77.9251Z" fill="url(#paint15_linear_49_263)" fill-opacity="0.8"/>
<path d="M77.9251 83.4701C77.9251 83.4701 69.7776 84.5035 67.7107 86.1367C65.6438 87.7699 64.4535 90.5841 62.6727 91.7652C60.8919 92.9463 52.4583 99.6175 52.9012 104.941C53.3441 110.266 57.6439 129.08 57.6439 129.08L59.1295 136.637L75.2677 150.117L86.2294 151.446L90.3724 147.598L105.182 141.97L105.92 133.232C105.92 133.232 115.987 119.751 116.734 115.165C117.472 110.57 114.806 109.537 114.068 103.908C113.329 98.2795 109.777 82.289 77.9343 83.4701H77.9251Z" fill="url(#paint16_linear_49_263)" fill-opacity="0.8"/>
<path d="M80.2874 107.165C79.8999 106.353 77.3717 101.223 71.7339 99.848C69.298 99.2574 67.1942 99.5896 65.9209 99.9033C64.786 100.586 63.3927 101.62 62.0732 103.124C59.1943 106.399 58.3547 110.007 58.0779 111.788C60.0525 115.626 62.9867 122.611 64.9613 126.45L61.9625 133.444C61.8333 133.739 64.3799 135.714 64.6844 135.954C65.6717 136.756 66.696 137.504 67.7109 138.26C69.2796 139.432 70.9958 140.622 72.1584 142.228C73.3487 143.87 74.1145 145.891 75.6924 147.22C77.6024 148.835 80.9057 148.65 83.2678 148.724C84.3751 148.761 85.307 148.392 86.119 147.663C86.8387 147.017 87.6045 146.288 88.232 145.559C88.8041 144.895 89.0901 143.917 89.8467 143.437C93.0301 141.416 96.2134 139.386 99.3968 137.365L97.4683 129.808C100.292 124.798 103.124 119.788 105.948 114.777C106.022 113.476 106.086 109.693 103.614 106.002C103.189 105.366 99.7935 100.466 93.6206 99.8941C88.3612 99.4051 83.1386 102.256 80.2874 107.147V107.165Z" fill="#FFF4C7"/>
<path d="M80.2874 107.165C79.8999 106.353 77.3717 101.223 71.7339 99.848C69.298 99.2574 67.1942 99.5896 65.9209 99.9033C64.786 100.586 63.3927 101.62 62.0732 103.124C59.1943 106.399 58.3547 110.007 58.0779 111.788C60.0525 115.626 62.9867 122.611 64.9613 126.45L61.9625 133.444C61.8333 133.739 64.3799 135.714 64.6844 135.954C65.6717 136.756 66.696 137.504 67.7109 138.26C69.2796 139.432 70.9958 140.622 72.1584 142.228C73.3487 143.87 74.1145 145.891 75.6924 147.22C77.6024 148.835 80.9057 148.65 83.2678 148.724C84.3751 148.761 85.307 148.392 86.119 147.663C86.8387 147.017 87.6045 146.288 88.232 145.559C88.8041 144.895 89.0901 143.917 89.8467 143.437C93.0301 141.416 96.2134 139.386 99.3968 137.365L97.4683 129.808C100.292 124.798 103.124 119.788 105.948 114.777C106.022 113.476 106.086 109.693 103.614 106.002C103.189 105.366 99.7935 100.466 93.6206 99.8941C88.3612 99.4051 83.1386 102.256 80.2874 107.147V107.165Z" fill="url(#paint17_radial_49_263)" fill-opacity="0.8"/>
<path d="M114.016 104.971C119.921 102.646 126.777 100.114 132.876 98.3888C138.975 96.7371 145.139 95.2331 151.385 95.0025C160.834 94.3566 169.886 98.3519 176.99 104.377C179.343 106.389 181.512 108.76 182.508 111.74L182.933 111.63C182.231 108.428 180.1 105.734 177.775 103.51C163.897 90.4627 149.457 91.6899 132.488 97.0693C126.408 98.9793 119.586 101.61 113.847 104.378L114.016 104.971Z" fill="#FFE5B3"/>
<path d="M187.479 136.572C188.014 149.167 188.946 162.961 189.878 175.584C190.081 178.85 190.487 182.024 190.847 185.291C191.225 188.612 191.843 192.156 193.642 195.09C194.51 196.603 195.562 197.886 196.42 199.168C199.234 203.053 199.4 207.676 198.062 212.344L198.459 212.52C200.258 209.742 201.162 206.181 200.517 202.674C199.972 199.279 197.518 196.52 195.838 193.798C194.196 191.131 193.707 188.086 193.319 184.986C191.723 172.511 190.671 158.698 189.103 146.223C188.724 142.994 188.346 139.764 187.922 136.535L187.488 136.572H187.479Z" fill="#EA9F0B"/>
<path d="M87.8722 83.4884C85.0672 83.2393 82.2529 83.1562 79.4294 83.1562C75.5633 83.3039 71.2358 83.1286 67.7018 85.0755C65.7733 86.6256 64.583 88.9324 62.6915 90.4918C61.0952 91.7928 59.3513 93.223 57.8473 94.6348C55.7066 96.757 53.5659 98.6116 52.3664 101.583C52.0896 102.533 52.1634 103.364 52.2279 104.056C52.4309 106.187 52.7723 108.282 53.1507 110.376C54.1472 115.922 55.4021 121.393 56.8969 126.819L57.3213 126.736C56.6662 121.153 55.8358 115.599 55.0238 110.072C54.83 107.931 53.9719 104.222 54.304 102.201C55.8911 98.667 59.4343 95.9081 62.2763 93.2784L63.8726 91.922C65.7641 90.3626 66.8806 88.0466 68.6429 86.3857C71.8632 84.5588 75.8032 84.6326 79.4663 84.2266C82.2529 84.0328 85.0487 83.9682 87.8445 83.9313L87.863 83.4977L87.8722 83.4884Z" fill="#FFE5B3"/>
<path d="M111.881 96.9044C112.924 100.337 113.717 103.788 114.308 107.34C114.529 109.01 115.646 110.911 116.19 112.332C116.31 112.803 116.208 113.458 116.024 113.938C112.721 121.458 108.541 128.627 104.647 135.861L104.508 136.138L104.499 136.323L104.139 141.803L104.804 140.982L90.3265 147.487L90.4003 147.69L105.542 142.938L106.059 142.781L106.206 142.117L107.452 136.765L107.304 137.227C110.7 129.873 114.252 122.62 117.131 115.036C117.27 114.63 117.463 114.021 117.528 113.596C117.805 112.092 116.781 110.763 116.116 109.545C115.729 108.789 115.443 107.968 115.203 107.128C114.4 103.659 113.357 100.18 112.093 96.8306L111.89 96.9044H111.881Z" fill="#EA9F0B"/>
<path d="M134.497 169.383L136.849 180.595L128.951 200.718L129.348 200.912L139.35 182.523L139.59 182.089L139.433 181.646L134.921 169.272L134.497 169.383Z" fill="#EA9F0B"/>
<path d="M149.002 31.9365C148.725 47.4472 154.169 58.3629 170.759 59.8945C177.283 60.6881 183.151 63.6592 188.614 67.1101C191.336 68.8448 193.808 70.9947 195.755 73.5783C197.739 76.1342 199.105 79.1515 199.963 82.2979L200.101 82.261C198.56 73.6521 192.397 67.6822 184.96 63.6777C180.724 61.0479 175.871 59.3963 170.971 58.6397C162.196 57.597 155.627 54.7366 151.991 46.22C150.137 41.6895 149.482 36.8084 149.149 31.9272H149.002V31.9365Z" fill="#EA9F0B"/>
<defs>
<linearGradient id="paint0_linear_49_263" x1="72.9903" y1="151.526" x2="58.7349" y2="214.923" gradientUnits="userSpaceOnUse">
<stop offset="0.0283145" stop-color="#F18111"/>
<stop offset="1" stop-color="#FFC24A" stop-opacity="0"/>
</linearGradient>
<linearGradient id="paint1_linear_49_263" x1="93.9144" y1="207.2" x2="49.5948" y2="225.282" gradientUnits="userSpaceOnUse">
<stop stop-color="#FFC24A" stop-opacity="0"/>
<stop offset="0.971686" stop-color="#FFF4C7"/>
</linearGradient>
<linearGradient id="paint2_linear_49_263" x1="211.846" y1="83.5093" x2="190.807" y2="108.754" gradientUnits="userSpaceOnUse">
<stop stop-color="#FFC24A" stop-opacity="0"/>
<stop offset="0.971686" stop-color="#F18111"/>
</linearGradient>
<linearGradient id="paint3_linear_49_263" x1="194.399" y1="62.8153" x2="153.482" y2="29.5604" gradientUnits="userSpaceOnUse">
<stop stop-color="#FFC24A" stop-opacity="0"/>
<stop offset="0.971686" stop-color="#F18111"/>
</linearGradient>
<linearGradient id="paint4_linear_49_263" x1="242.84" y1="124.725" x2="137.397" y2="123.974" gradientUnits="userSpaceOnUse">
<stop stop-color="#FFC24A" stop-opacity="0"/>
<stop offset="0.971686" stop-color="#F18111"/>
</linearGradient>
<linearGradient id="paint5_linear_49_263" x1="161.467" y1="127.381" x2="174.117" y2="97.4684" gradientUnits="userSpaceOnUse">
<stop stop-color="#FFC24A" stop-opacity="0"/>
<stop offset="0.971686" stop-color="#FFF4C7"/>
</linearGradient>
<linearGradient id="paint6_linear_49_263" x1="101.756" y1="183.537" x2="149.668" y2="151.276" gradientUnits="userSpaceOnUse">
<stop stop-color="#FFF4C7" stop-opacity="0"/>
<stop offset="1" stop-color="#FFC24A"/>
</linearGradient>
<linearGradient id="paint7_linear_49_263" x1="83.2913" y1="163.775" x2="83.3037" y2="145.805" gradientUnits="userSpaceOnUse">
<stop stop-color="#FFF4C7" stop-opacity="0"/>
<stop offset="1" stop-color="#FFC24A"/>
</linearGradient>
<linearGradient id="paint8_linear_49_263" x1="91.3506" y1="153.778" x2="85.911" y2="175.219" gradientUnits="userSpaceOnUse">
<stop stop-color="#FFF4C7" stop-opacity="0"/>
<stop offset="1" stop-color="#FFF9E1"/>
</linearGradient>
<linearGradient id="paint9_linear_49_263" x1="113.376" y1="172.526" x2="138.543" y2="182.037" gradientUnits="userSpaceOnUse">
<stop stop-color="#FFC24A" stop-opacity="0"/>
<stop offset="0.971686" stop-color="#F18111"/>
</linearGradient>
<linearGradient id="paint10_linear_49_263" x1="136.92" y1="201.107" x2="95.846" y2="149.289" gradientUnits="userSpaceOnUse">
<stop stop-color="#FFC24A" stop-opacity="0"/>
<stop offset="0.971686" stop-color="#F18111"/>
</linearGradient>
<linearGradient id="paint11_linear_49_263" x1="130.235" y1="184.404" x2="100.642" y2="210.294" gradientUnits="userSpaceOnUse">
<stop stop-color="#FFC24A" stop-opacity="0"/>
<stop offset="0.971686" stop-color="#FFF4C7"/>
</linearGradient>
<linearGradient id="paint12_linear_49_263" x1="144.933" y1="134.659" x2="107.648" y2="120.902" gradientUnits="userSpaceOnUse">
<stop stop-color="#FFC24A" stop-opacity="0"/>
<stop offset="0.971686" stop-color="#F18111"/>
</linearGradient>
<linearGradient id="paint13_linear_49_263" x1="108.496" y1="119.377" x2="126.127" y2="118.203" gradientUnits="userSpaceOnUse">
<stop stop-color="#FFC24A" stop-opacity="0"/>
<stop offset="0.971686" stop-color="#FFF4C7"/>
</linearGradient>
<linearGradient id="paint14_linear_49_263" x1="36.1967" y1="115.597" x2="56.6231" y2="117.476" gradientUnits="userSpaceOnUse">
<stop stop-color="#FFC24A" stop-opacity="0"/>
<stop offset="0.971686" stop-color="#F18111"/>
</linearGradient>
<linearGradient id="paint15_linear_49_263" x1="111.884" y1="122.262" x2="67.8986" y2="114.264" gradientUnits="userSpaceOnUse">
<stop offset="0.0283145" stop-color="#F18111"/>
<stop offset="1" stop-color="#FFC24A" stop-opacity="0"/>
</linearGradient>
<linearGradient id="paint16_linear_49_263" x1="81.1143" y1="124.614" x2="53" y2="94.5" gradientUnits="userSpaceOnUse">
<stop stop-color="#FFC24A" stop-opacity="0"/>
<stop offset="0.971686" stop-color="#FFF4C7"/>
</linearGradient>
<radialGradient id="paint17_radial_49_263" cx="0" cy="0" r="1" gradientUnits="userSpaceOnUse" gradientTransform="translate(81.7941 122.495) rotate(-2.19881) scale(26.0418 35.5674)">
<stop stop-color="#FFF4C7" stop-opacity="0"/>
<stop offset="1" stop-color="#FFC24A"/>
</radialGradient>
</defs>
</svg>
