<svg width="250" height="250" viewBox="0 0 250 250" fill="none" xmlns="http://www.w3.org/2000/svg">
<path d="M141.831 189.039H137.159L139.237 206.73H141.831H144.21L146.503 189.039H141.831Z" fill="#FFC24A"/>
<path d="M141.831 189.039H137.159L139.237 206.73H141.831H144.21L146.503 189.039H141.831Z" fill="url(#paint0_linear_49_242)" fill-opacity="0.8"/>
<path d="M117.192 55.0214C115.904 57.0824 113.594 58.9975 110.957 60.1397C107.909 61.4536 108.038 66.3143 108.184 68.4355C107.952 68.6416 107.72 68.8391 107.488 69.0452L95.5595 62.9994C95.5595 62.9994 92.2017 52.1788 105.942 47.3611C105.942 47.3611 113.448 44.2437 113.577 37.0815C113.594 36.2313 114.667 35.8792 115.14 36.592C117.45 40.0615 121.237 46.2275 117.192 55.0214Z" fill="#FFC24A"/>
<path d="M117.192 55.0214C115.904 57.0824 113.594 58.9975 110.957 60.1397C107.909 61.4536 108.038 66.3143 108.184 68.4355C107.952 68.6416 107.72 68.8391 107.488 69.0452L95.5595 62.9994C95.5595 62.9994 92.2017 52.1788 105.942 47.3611C105.942 47.3611 113.448 44.2437 113.577 37.0815C113.594 36.2313 114.667 35.8792 115.14 36.592C117.45 40.0615 121.237 46.2275 117.192 55.0214Z" fill="url(#paint1_linear_49_242)" fill-opacity="0.8"/>
<path d="M117.192 55.0214C115.904 57.0824 113.594 58.9975 110.957 60.1397C107.909 61.4536 108.038 66.3143 108.184 68.4355C107.952 68.6416 107.72 68.8391 107.488 69.0452L95.5595 62.9994C95.5595 62.9994 92.2017 52.1788 105.942 47.3611C105.942 47.3611 113.448 44.2437 113.577 37.0815C113.594 36.2313 114.667 35.8792 115.14 36.592C117.45 40.0615 121.237 46.2275 117.192 55.0214Z" fill="url(#paint2_linear_49_242)" fill-opacity="0.4"/>
<path d="M172.456 194.176C174.431 206.671 170.833 214.658 170.833 214.658H164.795L164.581 196.237C159.102 193.386 156.689 186.593 156.689 186.593C141.342 193.824 124.012 189.994 124.012 189.994C122.595 192.622 119.194 195.473 119.194 195.473C119.194 210.166 113.2 216.195 113.2 216.195H107.163L104.063 188.182C84.3968 186.043 77.0113 171.968 77.0113 171.968L55.8253 185.279L59.707 215.01L55.2929 217.268L35 188.182L46.0353 155.892C29.8817 110.067 52.3215 107.585 52.3215 107.585C48.1049 93.7077 49.9169 85.5235 52.0295 81.2039C52.6736 79.6323 53.4809 78.1981 54.3998 76.8928C60.0333 68.7774 69.6173 65.557 69.6173 65.557C73.4474 61.8127 83.3062 61.2287 83.3062 61.2287C83.3062 61.2287 103.35 56.0331 114.463 71.9548C114.463 71.9548 119.426 80.9376 125.713 83.3508C125.713 83.3508 126.211 83.5397 126.915 83.9605C126.915 83.9605 126.932 83.9691 126.966 83.9949C127.439 84.2439 131.011 86.2621 131.552 89.0874C132.128 92.076 130.427 98.1304 128.203 100.569C127.593 101.342 126.829 102.089 125.867 102.785C121.668 105.825 117.202 104.623 116.944 104.554H116.936C112.453 103.79 108.46 100.509 108.46 100.509C106.132 99.3756 104.063 99.3842 103.264 99.4529C103.178 99.4529 103.101 99.4615 103.049 99.47C102.285 99.5302 101.435 99.7191 100.507 100.088C100.507 100.088 94.8052 103.627 88.9999 102.785C88.9999 102.785 88.5619 106.22 93.0876 107.027C97.622 107.835 107.567 105.636 122.913 127.715C122.913 127.715 125.326 132.172 129.268 133.598C129.268 133.598 141.986 138.089 154.593 135.899C154.593 135.899 179.043 130.85 183.972 153.109C183.972 153.109 188.566 181.346 172.447 194.176H172.456Z" fill="#FFC24A"/>
<path d="M172.456 194.176C174.431 206.671 170.833 214.658 170.833 214.658H164.795L164.581 196.237C159.102 193.386 156.689 186.593 156.689 186.593C141.342 193.824 124.012 189.994 124.012 189.994C122.595 192.622 119.194 195.473 119.194 195.473C119.194 210.166 113.2 216.195 113.2 216.195H107.163L104.063 188.182C84.3968 186.043 77.0113 171.968 77.0113 171.968L55.8253 185.279L59.707 215.01L55.2929 217.268L35 188.182L46.0353 155.892C29.8817 110.067 52.3215 107.585 52.3215 107.585C48.1049 93.7077 49.9169 85.5235 52.0295 81.2039C52.6736 79.6323 53.4809 78.1981 54.3998 76.8928C60.0333 68.7774 69.6173 65.557 69.6173 65.557C73.4474 61.8127 83.3062 61.2287 83.3062 61.2287C83.3062 61.2287 103.35 56.0331 114.463 71.9548C114.463 71.9548 119.426 80.9376 125.713 83.3508C125.713 83.3508 126.211 83.5397 126.915 83.9605C126.915 83.9605 126.932 83.9691 126.966 83.9949C127.439 84.2439 131.011 86.2621 131.552 89.0874C132.128 92.076 130.427 98.1304 128.203 100.569C127.593 101.342 126.829 102.089 125.867 102.785C121.668 105.825 117.202 104.623 116.944 104.554H116.936C112.453 103.79 108.46 100.509 108.46 100.509C106.132 99.3756 104.063 99.3842 103.264 99.4529C103.178 99.4529 103.101 99.4615 103.049 99.47C102.285 99.5302 101.435 99.7191 100.507 100.088C100.507 100.088 94.8052 103.627 88.9999 102.785C88.9999 102.785 88.5619 106.22 93.0876 107.027C97.622 107.835 107.567 105.636 122.913 127.715C122.913 127.715 125.326 132.172 129.268 133.598C129.268 133.598 141.986 138.089 154.593 135.899C154.593 135.899 179.043 130.85 183.972 153.109C183.972 153.109 188.566 181.346 172.447 194.176H172.456Z" fill="url(#paint3_linear_49_242)" fill-opacity="0.4"/>
<path d="M172.456 194.176C174.431 206.671 170.833 214.658 170.833 214.658H164.795L164.581 196.237C159.102 193.386 156.689 186.593 156.689 186.593C141.342 193.824 124.012 189.994 124.012 189.994C122.595 192.622 119.194 195.473 119.194 195.473C119.194 210.166 113.2 216.195 113.2 216.195H107.163L104.063 188.182C84.3968 186.043 77.0113 171.968 77.0113 171.968L55.8253 185.279L59.707 215.01L55.2929 217.268L35 188.182L46.0353 155.892C29.8817 110.067 52.3215 107.585 52.3215 107.585C48.1049 93.7077 49.9169 85.5235 52.0295 81.2039C52.6736 79.6323 53.4809 78.1981 54.3998 76.8928C60.0333 68.7774 69.6173 65.557 69.6173 65.557C73.4474 61.8127 83.3062 61.2287 83.3062 61.2287C83.3062 61.2287 103.35 56.0331 114.463 71.9548C114.463 71.9548 119.426 80.9376 125.713 83.3508C125.713 83.3508 126.211 83.5397 126.915 83.9605C126.915 83.9605 126.932 83.9691 126.966 83.9949C127.439 84.2439 131.011 86.2621 131.552 89.0874C132.128 92.076 130.427 98.1304 128.203 100.569C127.593 101.342 126.829 102.089 125.867 102.785C121.668 105.825 117.202 104.623 116.944 104.554H116.936C112.453 103.79 108.46 100.509 108.46 100.509C106.132 99.3756 104.063 99.3842 103.264 99.4529C103.178 99.4529 103.101 99.4615 103.049 99.47C102.285 99.5302 101.435 99.7191 100.507 100.088C100.507 100.088 94.8052 103.627 88.9999 102.785C88.9999 102.785 88.5619 106.22 93.0876 107.027C97.622 107.835 107.567 105.636 122.913 127.715C122.913 127.715 125.326 132.172 129.268 133.598C129.268 133.598 141.986 138.089 154.593 135.899C154.593 135.899 179.043 130.85 183.972 153.109C183.972 153.109 188.566 181.346 172.447 194.176H172.456Z" fill="url(#paint4_radial_49_242)" fill-opacity="0.6"/>
<path d="M172.456 194.176C174.431 206.671 170.833 214.658 170.833 214.658H164.795L164.581 196.237C159.102 193.386 156.689 186.593 156.689 186.593C141.342 193.824 124.012 189.994 124.012 189.994C122.595 192.622 119.194 195.473 119.194 195.473C119.194 210.166 113.2 216.195 113.2 216.195H107.163L104.063 188.182C84.3968 186.043 77.0113 171.968 77.0113 171.968L55.8253 185.279L59.707 215.01L55.2929 217.268L35 188.182L46.0353 155.892C29.8817 110.067 52.3215 107.585 52.3215 107.585C48.1049 93.7077 49.9169 85.5235 52.0295 81.2039C52.6736 79.6323 53.4809 78.1981 54.3998 76.8928C60.0333 68.7774 69.6173 65.557 69.6173 65.557C73.4474 61.8127 83.3062 61.2287 83.3062 61.2287C83.3062 61.2287 103.35 56.0331 114.463 71.9548C114.463 71.9548 119.426 80.9376 125.713 83.3508C125.713 83.3508 126.211 83.5397 126.915 83.9605C126.915 83.9605 126.932 83.9691 126.966 83.9949C127.439 84.2439 131.011 86.2621 131.552 89.0874C132.128 92.076 130.427 98.1304 128.203 100.569C127.593 101.342 126.829 102.089 125.867 102.785C121.668 105.825 117.202 104.623 116.944 104.554H116.936C112.453 103.79 108.46 100.509 108.46 100.509C106.132 99.3756 104.063 99.3842 103.264 99.4529C103.178 99.4529 103.101 99.4615 103.049 99.47C102.285 99.5302 101.435 99.7191 100.507 100.088C100.507 100.088 94.8052 103.627 88.9999 102.785C88.9999 102.785 88.5619 106.22 93.0876 107.027C97.622 107.835 107.567 105.636 122.913 127.715C122.913 127.715 125.326 132.172 129.268 133.598C129.268 133.598 141.986 138.089 154.593 135.899C154.593 135.899 179.043 130.85 183.972 153.109C183.972 153.109 188.566 181.346 172.447 194.176H172.456Z" fill="url(#paint5_radial_49_242)" fill-opacity="0.6"/>
<path d="M172.456 194.176C174.431 206.671 170.833 214.658 170.833 214.658H164.795L164.581 196.237C159.102 193.386 156.689 186.593 156.689 186.593C141.342 193.824 124.012 189.994 124.012 189.994C122.595 192.622 119.194 195.473 119.194 195.473C119.194 210.166 113.2 216.195 113.2 216.195H107.163L104.063 188.182C84.3968 186.043 77.0113 171.968 77.0113 171.968L55.8253 185.279L59.707 215.01L55.2929 217.268L35 188.182L46.0353 155.892C29.8817 110.067 52.3215 107.585 52.3215 107.585C48.1049 93.7077 49.9169 85.5235 52.0295 81.2039C52.6736 79.6323 53.4809 78.1981 54.3998 76.8928C60.0333 68.7774 69.6173 65.557 69.6173 65.557C73.4474 61.8127 83.3062 61.2287 83.3062 61.2287C83.3062 61.2287 103.35 56.0331 114.463 71.9548C114.463 71.9548 119.426 80.9376 125.713 83.3508C125.713 83.3508 126.211 83.5397 126.915 83.9605C126.915 83.9605 126.932 83.9691 126.966 83.9949C127.439 84.2439 131.011 86.2621 131.552 89.0874C132.128 92.076 130.427 98.1304 128.203 100.569C127.593 101.342 126.829 102.089 125.867 102.785C121.668 105.825 117.202 104.623 116.944 104.554H116.936C112.453 103.79 108.46 100.509 108.46 100.509C106.132 99.3756 104.063 99.3842 103.264 99.4529C103.178 99.4529 103.101 99.4615 103.049 99.47C102.285 99.5302 101.435 99.7191 100.507 100.088C100.507 100.088 94.8052 103.627 88.9999 102.785C88.9999 102.785 88.5619 106.22 93.0876 107.027C97.622 107.835 107.567 105.636 122.913 127.715C122.913 127.715 125.326 132.172 129.268 133.598C129.268 133.598 141.986 138.089 154.593 135.899C154.593 135.899 179.043 130.85 183.972 153.109C183.972 153.109 188.566 181.346 172.447 194.176H172.456Z" fill="url(#paint6_radial_49_242)" fill-opacity="0.4"/>
<path d="M172.456 194.176C174.431 206.671 170.833 214.658 170.833 214.658H164.795L164.581 196.237C159.102 193.386 156.689 186.593 156.689 186.593C141.342 193.824 124.012 189.994 124.012 189.994C122.595 192.622 119.194 195.473 119.194 195.473C119.194 210.166 113.2 216.195 113.2 216.195H107.163L104.063 188.182C84.3968 186.043 77.0113 171.968 77.0113 171.968L55.8253 185.279L59.707 215.01L55.2929 217.268L35 188.182L46.0353 155.892C29.8817 110.067 52.3215 107.585 52.3215 107.585C48.1049 93.7077 49.9169 85.5235 52.0295 81.2039C52.6736 79.6323 53.4809 78.1981 54.3998 76.8928C60.0333 68.7774 69.6173 65.557 69.6173 65.557C73.4474 61.8127 83.3062 61.2287 83.3062 61.2287C83.3062 61.2287 103.35 56.0331 114.463 71.9548C114.463 71.9548 119.426 80.9376 125.713 83.3508C125.713 83.3508 126.211 83.5397 126.915 83.9605C126.915 83.9605 126.932 83.9691 126.966 83.9949C127.439 84.2439 131.011 86.2621 131.552 89.0874C132.128 92.076 130.427 98.1304 128.203 100.569C127.593 101.342 126.829 102.089 125.867 102.785C121.668 105.825 117.202 104.623 116.944 104.554H116.936C112.453 103.79 108.46 100.509 108.46 100.509C106.132 99.3756 104.063 99.3842 103.264 99.4529C103.178 99.4529 103.101 99.4615 103.049 99.47C102.285 99.5302 101.435 99.7191 100.507 100.088C100.507 100.088 94.8052 103.627 88.9999 102.785C88.9999 102.785 88.5619 106.22 93.0876 107.027C97.622 107.835 107.567 105.636 122.913 127.715C122.913 127.715 125.326 132.172 129.268 133.598C129.268 133.598 141.986 138.089 154.593 135.899C154.593 135.899 179.043 130.85 183.972 153.109C183.972 153.109 188.566 181.346 172.447 194.176H172.456Z" fill="url(#paint7_linear_49_242)" fill-opacity="0.4"/>
<path d="M172.456 194.176C174.431 206.671 170.833 214.658 170.833 214.658H164.795L164.581 196.237C159.102 193.386 156.689 186.593 156.689 186.593C141.342 193.824 124.012 189.994 124.012 189.994C122.595 192.622 119.194 195.473 119.194 195.473C119.194 210.166 113.2 216.195 113.2 216.195H107.163L104.063 188.182C84.3968 186.043 77.0113 171.968 77.0113 171.968L55.8253 185.279L59.707 215.01L55.2929 217.268L35 188.182L46.0353 155.892C29.8817 110.067 52.3215 107.585 52.3215 107.585C48.1049 93.7077 49.9169 85.5235 52.0295 81.2039C52.6736 79.6323 53.4809 78.1981 54.3998 76.8928C60.0333 68.7774 69.6173 65.557 69.6173 65.557C73.4474 61.8127 83.3062 61.2287 83.3062 61.2287C83.3062 61.2287 103.35 56.0331 114.463 71.9548C114.463 71.9548 119.426 80.9376 125.713 83.3508C125.713 83.3508 126.211 83.5397 126.915 83.9605C126.915 83.9605 126.932 83.9691 126.966 83.9949C127.439 84.2439 131.011 86.2621 131.552 89.0874C132.128 92.076 130.427 98.1304 128.203 100.569C127.593 101.342 126.829 102.089 125.867 102.785C121.668 105.825 117.202 104.623 116.944 104.554H116.936C112.453 103.79 108.46 100.509 108.46 100.509C106.132 99.3756 104.063 99.3842 103.264 99.4529C103.178 99.4529 103.101 99.4615 103.049 99.47C102.285 99.5302 101.435 99.7191 100.507 100.088C100.507 100.088 94.8052 103.627 88.9999 102.785C88.9999 102.785 88.5619 106.22 93.0876 107.027C97.622 107.835 107.567 105.636 122.913 127.715C122.913 127.715 125.326 132.172 129.268 133.598C129.268 133.598 141.986 138.089 154.593 135.899C154.593 135.899 179.043 130.85 183.972 153.109C183.972 153.109 188.566 181.346 172.447 194.176H172.456Z" fill="url(#paint8_linear_49_242)" fill-opacity="0.4"/>
<path d="M172.456 194.176C174.431 206.671 170.833 214.658 170.833 214.658H164.795L164.581 196.237C159.102 193.386 156.689 186.593 156.689 186.593C141.342 193.824 124.012 189.994 124.012 189.994C122.595 192.622 119.194 195.473 119.194 195.473C119.194 210.166 113.2 216.195 113.2 216.195H107.163L104.063 188.182C84.3968 186.043 77.0113 171.968 77.0113 171.968L55.8253 185.279L59.707 215.01L55.2929 217.268L35 188.182L46.0353 155.892C29.8817 110.067 52.3215 107.585 52.3215 107.585C48.1049 93.7077 49.9169 85.5235 52.0295 81.2039C52.6736 79.6323 53.4809 78.1981 54.3998 76.8928C60.0333 68.7774 69.6173 65.557 69.6173 65.557C73.4474 61.8127 83.3062 61.2287 83.3062 61.2287C83.3062 61.2287 103.35 56.0331 114.463 71.9548C114.463 71.9548 119.426 80.9376 125.713 83.3508C125.713 83.3508 126.211 83.5397 126.915 83.9605C126.915 83.9605 126.932 83.9691 126.966 83.9949C127.439 84.2439 131.011 86.2621 131.552 89.0874C132.128 92.076 130.427 98.1304 128.203 100.569C127.593 101.342 126.829 102.089 125.867 102.785C121.668 105.825 117.202 104.623 116.944 104.554H116.936C112.453 103.79 108.46 100.509 108.46 100.509C106.132 99.3756 104.063 99.3842 103.264 99.4529C103.178 99.4529 103.101 99.4615 103.049 99.47C102.285 99.5302 101.435 99.7191 100.507 100.088C100.507 100.088 94.8052 103.627 88.9999 102.785C88.9999 102.785 88.5619 106.22 93.0876 107.027C97.622 107.835 107.567 105.636 122.913 127.715C122.913 127.715 125.326 132.172 129.268 133.598C129.268 133.598 141.986 138.089 154.593 135.899C154.593 135.899 179.043 130.85 183.972 153.109C183.972 153.109 188.566 181.346 172.447 194.176H172.456Z" fill="url(#paint9_radial_49_242)" fill-opacity="0.4"/>
<mask id="mask0_49_242" style="mask-type:luminance" maskUnits="userSpaceOnUse" x="35" y="60" width="150" height="158">
<path d="M172.456 194.176C174.431 206.671 170.833 214.658 170.833 214.658H164.795L164.581 196.237C159.102 193.386 156.689 186.593 156.689 186.593C141.342 193.824 124.012 189.994 124.012 189.994C122.595 192.622 119.194 195.473 119.194 195.473C119.194 210.166 113.2 216.195 113.2 216.195H107.163L104.063 188.182C84.3968 186.043 77.0113 171.968 77.0113 171.968L55.8253 185.279L59.707 215.01L55.2929 217.268L35 188.182L46.0353 155.892C29.8817 110.067 52.3215 107.585 52.3215 107.585C48.1049 93.7077 49.9169 85.5235 52.0295 81.2039C52.6736 79.6323 53.4809 78.1981 54.3998 76.8928C60.0333 68.7774 69.6173 65.557 69.6173 65.557C73.4474 61.8127 83.3062 61.2287 83.3062 61.2287C83.3062 61.2287 103.35 56.0331 114.463 71.9548C114.463 71.9548 119.426 80.9376 125.713 83.3508C125.713 83.3508 126.211 83.5397 126.915 83.9605C126.915 83.9605 126.932 83.9691 126.966 83.9949C127.439 84.2439 131.011 86.2621 131.552 89.0874C132.128 92.076 130.427 98.1304 128.203 100.569C127.593 101.342 126.829 102.089 125.867 102.785C121.668 105.825 117.202 104.623 116.944 104.554H116.936C112.453 103.79 108.46 100.509 108.46 100.509C106.132 99.3756 104.063 99.3842 103.264 99.4529C103.178 99.4529 103.101 99.4615 103.049 99.47C102.285 99.5302 101.435 99.7191 100.507 100.088C100.507 100.088 94.8052 103.627 88.9999 102.785C88.9999 102.785 88.5619 106.22 93.0876 107.027C97.622 107.835 107.567 105.636 122.913 127.715C122.913 127.715 125.326 132.172 129.268 133.598C129.268 133.598 141.986 138.089 154.593 135.899C154.593 135.899 179.043 130.85 183.972 153.109C183.972 153.109 188.566 181.346 172.447 194.176H172.456Z" fill="white"/>
</mask>
<g mask="url(#mask0_49_242)">
<path d="M45.9416 156.16L38.7536 188.27L53.0608 214.076L30.4922 186.226L45.9416 156.16Z" fill="#FFE5B3"/>
<path d="M104.157 189.039L108.657 214.613L113.2 216.202H106.355L104.157 189.039Z" fill="#EA9F0B"/>
<path d="M49.9096 89.2024C49.9096 89.2024 49.7121 108.765 64.4745 118.813C64.4745 118.813 55.4487 114.21 52.3142 107.597L49.5661 103.243L47.3762 92.6117L49.9096 89.2024Z" fill="#FFE5B3"/>
<path d="M77.236 172.356C75.1921 169.471 75.0977 163.623 75.0977 163.623C75.0977 163.623 78.6959 186.483 110.342 187.428C110.342 187.428 107.207 187.909 104.064 188.184L87.2322 190.27L76.944 173.979L77.236 172.356Z" fill="#EA9F0B"/>
<path d="M154.604 135.912C154.604 135.912 176.013 136.17 180.728 148.562C180.728 148.562 185.554 157.442 182.317 178.825L188.62 169.061L190.681 144.285L171.737 130.468L152.225 129.162L154.604 135.904" fill="#EA9F0B"/>
<path d="M124.014 189.994C120.441 189.289 117.204 187.563 117.204 187.563C117.204 187.563 128.797 190.578 137.162 190.973L133.375 192.87L124.04 190.037L124.014 189.994Z" fill="#EA9F0B"/>
<path d="M156.691 186.597C156.691 186.597 155.343 180.388 155.274 173.295C155.274 173.295 153.076 181.685 155.935 188.693L156.691 186.597Z" fill="#EA9F0B"/>
<path d="M94.6676 110.996C94.6676 110.996 88.5617 108.076 89.0082 102.786C89.0082 102.786 91.2325 108.428 94.6676 110.996Z" fill="#EA9F0B"/>
<path d="M121.274 125.412C121.274 125.412 128.093 134.146 130.437 141.746C130.437 141.746 126.925 129.345 121.669 124.347L121.274 125.412Z" fill="#EA9F0B"/>
<path d="M89.009 102.784C89.009 102.784 82.8258 102.295 78.2571 98.3098C78.2571 98.3098 88.0128 103.205 96.2313 101.994L95.2694 104.304L89.0176 102.784" fill="#EA9F0B"/>
</g>
<path d="M131.047 92.6052C130.995 93.0518 130.909 93.5241 130.78 94.0308C130.866 93.5327 130.952 93.0518 131.047 92.6052Z" fill="#7A7A7A"/>
<path d="M171.065 135.412C171.883 134.892 172.765 134.499 173.648 134.172C178.656 132.353 183.612 133.073 188.018 134.894C191.538 136.273 195.626 136.52 199.387 135.372C210.105 132.283 213.378 119.734 210.852 111.53C210.609 110.56 210.32 109.638 209.985 108.695C209.902 109.692 209.79 110.637 209.651 111.595C208.552 120.165 204.228 127.469 197.554 129.318C195.082 130.067 192.379 130.15 189.702 129.558C183.951 128.051 177.188 129.211 173.016 133.15C172.271 133.837 171.589 134.589 171.065 135.412Z" fill="#FFC24A"/>
<path d="M208.661 92.1887C208.661 92.1887 211.203 93.9149 209.296 96.0275C207.433 98.0971 205.698 98.432 205.621 101.661C205.621 101.713 205.621 101.755 205.621 101.807C205.621 101.816 205.621 101.824 205.621 101.833C205.621 101.85 205.621 101.859 205.621 101.876C205.664 104.418 207.733 106.47 210.284 106.47C212.697 106.47 214.681 104.641 214.93 102.288C214.93 102.288 216.124 94.2584 208.661 92.1887Z" fill="#FFC24A"/>
<path d="M66.3461 221.746L55.8519 227.104L55.2765 217.271L59.6992 215.013L66.3461 221.746Z" fill="#E27826"/>
<path d="M66.3461 221.746L55.8519 227.104L55.2765 217.271L59.6992 215.013L66.3461 221.746Z" fill="url(#paint10_linear_49_242)" fill-opacity="0.8"/>
<path d="M139.237 206.724L135.278 215.741H147.06L144.209 206.724H139.237Z" fill="#E27826"/>
<path d="M139.237 206.724L135.278 215.741H147.06L144.209 206.724H139.237Z" fill="url(#paint11_linear_49_242)" fill-opacity="0.8"/>
<path d="M164.794 214.617L160.835 223.635H173.683L170.823 214.617H164.794Z" fill="#E27826"/>
<path d="M164.794 214.617L160.835 223.635H173.683L170.823 214.617H164.794Z" fill="url(#paint12_linear_49_242)" fill-opacity="0.8"/>
<path d="M107.163 216.206L103.204 225.214H116.051L113.191 216.206H107.163Z" fill="#E27826"/>
<path d="M107.163 216.206L103.204 225.214H116.051L113.191 216.206H107.163Z" fill="url(#paint13_linear_49_242)" fill-opacity="0.8"/>
<path d="M84.6904 23.0478C84.0807 22.8417 83.4624 23.3312 83.5482 23.9581C83.9261 26.7234 83.471 32.9581 71.9977 33.8083C61.8298 34.564 57.45 41.3312 56.7115 47.4456C56.7115 47.4456 53.6886 60.8683 70.2029 67.687C70.2029 67.687 80.5082 69.1727 84.7505 63.0324C84.9137 59.3569 80.7143 58.3521 80.7143 58.3521C80.5254 58.2662 80.3192 58.1803 80.1046 58.1031C75.699 56.3855 73.9214 51.8941 73.9214 51.8941C71.0788 43.667 82.1484 41.4771 82.1484 41.4771C82.1484 41.4771 89.929 39.502 91.1398 31.9361C92.0416 26.2854 87.198 23.898 84.699 23.0564L84.6904 23.0478Z" fill="#FFC24A"/>
<path d="M84.6904 23.0478C84.0807 22.8417 83.4624 23.3312 83.5482 23.9581C83.9261 26.7234 83.471 32.9581 71.9977 33.8083C61.8298 34.564 57.45 41.3312 56.7115 47.4456C56.7115 47.4456 53.6886 60.8683 70.2029 67.687C70.2029 67.687 80.5082 69.1727 84.7505 63.0324C84.9137 59.3569 80.7143 58.3521 80.7143 58.3521C80.5254 58.2662 80.3192 58.1803 80.1046 58.1031C75.699 56.3855 73.9214 51.8941 73.9214 51.8941C71.0788 43.667 82.1484 41.4771 82.1484 41.4771C82.1484 41.4771 89.929 39.502 91.1398 31.9361C92.0416 26.2854 87.198 23.898 84.699 23.0564L84.6904 23.0478Z" fill="url(#paint14_linear_49_242)" fill-opacity="0.8"/>
<path d="M84.6904 23.0478C84.0807 22.8417 83.4624 23.3312 83.5482 23.9581C83.9261 26.7234 83.471 32.9581 71.9977 33.8083C61.8298 34.564 57.45 41.3312 56.7115 47.4456C56.7115 47.4456 53.6886 60.8683 70.2029 67.687C70.2029 67.687 80.5082 69.1727 84.7505 63.0324C84.9137 59.3569 80.7143 58.3521 80.7143 58.3521C80.5254 58.2662 80.3192 58.1803 80.1046 58.1031C75.699 56.3855 73.9214 51.8941 73.9214 51.8941C71.0788 43.667 82.1484 41.4771 82.1484 41.4771C82.1484 41.4771 89.929 39.502 91.1398 31.9361C92.0416 26.2854 87.198 23.898 84.699 23.0564L84.6904 23.0478Z" fill="url(#paint15_linear_49_242)" fill-opacity="0.4"/>
<path d="M72.0487 76.5429C70.0134 73.9494 66.4667 71.9055 66.4667 71.9055C61.0048 70.0333 56.711 71.519 52.4944 72.6698C48.8961 73.6488 45.2549 73.185 44.2501 73.0219C44.0784 72.9961 43.9839 72.9789 43.9839 72.9789C51.0946 68.7709 49.3512 68.8654 53.9371 64.8549C57.647 61.6259 63.3836 63.1975 64.689 63.8501L67.5659 65.7996C72.7529 70.0591 72.0487 76.5429 72.0487 76.5429Z" fill="#FFC24A"/>
<path d="M72.0487 76.5429C70.0134 73.9494 66.4667 71.9055 66.4667 71.9055C61.0048 70.0333 56.711 71.519 52.4944 72.6698C48.8961 73.6488 45.2549 73.185 44.2501 73.0219C44.0784 72.9961 43.9839 72.9789 43.9839 72.9789C51.0946 68.7709 49.3512 68.8654 53.9371 64.8549C57.647 61.6259 63.3836 63.1975 64.689 63.8501L67.5659 65.7996C72.7529 70.0591 72.0487 76.5429 72.0487 76.5429Z" fill="url(#paint16_linear_49_242)" fill-opacity="0.4"/>
<path d="M72.0473 76.5504C63.7515 82.5189 55.9194 79.0838 53.5063 77.9159C51.9862 77.0743 49.6761 75.1248 49.6761 75.1248C48.2506 73.8367 45.1761 73.2012 44.2487 73.0294C45.2534 73.1926 48.8946 73.6563 52.4929 72.6773C56.7095 71.5266 61.0034 70.0409 66.4652 71.913C66.4652 71.913 70.0119 73.9569 72.0473 76.5504Z" fill="#E27826"/>
<path d="M72.0473 76.5504C63.7515 82.5189 55.9194 79.0838 53.5063 77.9159C51.9862 77.0743 49.6761 75.1248 49.6761 75.1248C48.2506 73.8367 45.1761 73.2012 44.2487 73.0294C45.2534 73.1926 48.8946 73.6563 52.4929 72.6773C56.7095 71.5266 61.0034 70.0409 66.4652 71.913C66.4652 71.913 70.0119 73.9569 72.0473 76.5504Z" fill="url(#paint17_linear_49_242)" fill-opacity="0.8"/>
<path d="M43.9839 72.9903C43.9839 72.9903 43.9839 72.9903 43.9839 72.9903C44.4657 73.1091 44.9735 73.1995 45.4672 73.2734C47.8093 73.6113 50.2317 73.6069 52.5826 73.036C54.6933 72.5154 56.76 71.9147 58.8614 71.6364C61.3715 71.2848 63.926 71.4652 66.3589 72.2304L66.3011 72.2041C67.95 73.1291 69.5567 74.2088 70.9869 75.4897C71.3578 75.8254 71.7151 76.1781 72.0487 76.5542C72.0487 76.5542 72.0487 76.5542 72.0487 76.5542C71.7625 76.1408 71.445 75.7465 71.1088 75.3688C69.8055 73.9216 68.2835 72.6949 66.6322 71.6295L66.5745 71.6033C64.1075 70.6516 61.3646 70.3693 58.7415 70.7407C56.5436 71.033 54.4511 71.7039 52.3889 72.3263C50.1836 72.9851 47.83 73.1864 45.4831 73.1025C44.9881 73.0829 44.4761 73.0498 43.9839 72.9903Z" fill="#FFE5B3"/>
<defs>
<linearGradient id="paint0_linear_49_242" x1="153.296" y1="227.382" x2="137.841" y2="186.009" gradientUnits="userSpaceOnUse">
<stop offset="0.217892" stop-color="#FFC24A" stop-opacity="0"/>
<stop offset="0.857237" stop-color="#F18111"/>
</linearGradient>
<linearGradient id="paint1_linear_49_242" x1="103.057" y1="67.2194" x2="109.101" y2="45.7098" gradientUnits="userSpaceOnUse">
<stop offset="0.142763" stop-color="#F18111"/>
<stop offset="0.782108" stop-color="#FFC24A" stop-opacity="0"/>
</linearGradient>
<linearGradient id="paint2_linear_49_242" x1="108.253" y1="53.811" x2="105.612" y2="44.7542" gradientUnits="userSpaceOnUse">
<stop offset="0.433158" stop-color="#FFC24A" stop-opacity="0"/>
<stop offset="0.910511" stop-color="#FFF4C7"/>
</linearGradient>
<linearGradient id="paint3_linear_49_242" x1="144.709" y1="227.806" x2="103.907" y2="112.101" gradientUnits="userSpaceOnUse">
<stop offset="0.0909526" stop-color="#F18111"/>
<stop offset="0.677255" stop-color="#FFC24A" stop-opacity="0"/>
</linearGradient>
<radialGradient id="paint4_radial_49_242" cx="0" cy="0" r="1" gradientUnits="userSpaceOnUse" gradientTransform="translate(41.2261 114.018) rotate(7.30576) scale(16.8832 47.9246)">
<stop offset="0.0909526" stop-color="#F18111"/>
<stop offset="0.876377" stop-color="#FFC24A" stop-opacity="0"/>
</radialGradient>
<radialGradient id="paint5_radial_49_242" cx="0" cy="0" r="1" gradientUnits="userSpaceOnUse" gradientTransform="translate(137.838 132.911) rotate(86.1859) scale(19.3654 30.2909)">
<stop stop-color="#F18111"/>
<stop offset="0.876377" stop-color="#FFC24A" stop-opacity="0"/>
</radialGradient>
<radialGradient id="paint6_radial_49_242" cx="0" cy="0" r="1" gradientUnits="userSpaceOnUse" gradientTransform="translate(91.894 108.007) rotate(103.325) scale(16.7682 23.8318)">
<stop stop-color="#F18111"/>
<stop offset="0.876377" stop-color="#FFC24A" stop-opacity="0"/>
</radialGradient>
<linearGradient id="paint7_linear_49_242" x1="98.3348" y1="94.2663" x2="116.602" y2="75.5398" gradientUnits="userSpaceOnUse">
<stop offset="0.108255" stop-color="#FFC24A" stop-opacity="0"/>
<stop offset="0.910511" stop-color="#FFF4C7"/>
</linearGradient>
<linearGradient id="paint8_linear_49_242" x1="63.5543" y1="186.585" x2="41.9578" y2="198.924" gradientUnits="userSpaceOnUse">
<stop offset="0.108255" stop-color="#FFC24A" stop-opacity="0"/>
<stop offset="0.910511" stop-color="#FFF4C7"/>
</linearGradient>
<radialGradient id="paint9_radial_49_242" cx="0" cy="0" r="1" gradientUnits="userSpaceOnUse" gradientTransform="translate(92.3233 169.839) rotate(-5.58015) scale(75.0693 55.0053)">
<stop stop-color="#FFF4C7"/>
<stop offset="1" stop-color="#FFC24A" stop-opacity="0"/>
</radialGradient>
<linearGradient id="paint10_linear_49_242" x1="60.5495" y1="226.519" x2="61.0511" y2="215.3" gradientUnits="userSpaceOnUse">
<stop offset="0.142763" stop-color="#BC5D13"/>
<stop offset="0.782108" stop-color="#E27826" stop-opacity="0"/>
</linearGradient>
<linearGradient id="paint11_linear_49_242" x1="140.89" y1="215.305" x2="141.153" y2="206.93" gradientUnits="userSpaceOnUse">
<stop offset="0.142763" stop-color="#BC5D13"/>
<stop offset="0.782108" stop-color="#E27826" stop-opacity="0"/>
</linearGradient>
<linearGradient id="paint12_linear_49_242" x1="166.955" y1="223.198" x2="167.196" y2="214.822" gradientUnits="userSpaceOnUse">
<stop offset="0.142763" stop-color="#BC5D13"/>
<stop offset="0.782108" stop-color="#E27826" stop-opacity="0"/>
</linearGradient>
<linearGradient id="paint13_linear_49_242" x1="109.324" y1="224.778" x2="109.564" y2="216.41" gradientUnits="userSpaceOnUse">
<stop offset="0.142763" stop-color="#BC5D13"/>
<stop offset="0.782108" stop-color="#E27826" stop-opacity="0"/>
</linearGradient>
<linearGradient id="paint14_linear_49_242" x1="73.4317" y1="69.3672" x2="76.4375" y2="35.8749" gradientUnits="userSpaceOnUse">
<stop offset="0.142763" stop-color="#F18111"/>
<stop offset="0.720552" stop-color="#FFC24A" stop-opacity="0"/>
</linearGradient>
<linearGradient id="paint15_linear_49_242" x1="75.5787" y1="47.039" x2="71.6539" y2="34.5745" gradientUnits="userSpaceOnUse">
<stop offset="0.108255" stop-color="#FFC24A" stop-opacity="0"/>
<stop offset="0.910511" stop-color="#FFF4C7"/>
</linearGradient>
<linearGradient id="paint16_linear_49_242" x1="53.2501" y1="53.9058" x2="45.1415" y2="69.6516" gradientUnits="userSpaceOnUse">
<stop offset="0.276099" stop-color="#FFC24A" stop-opacity="0"/>
<stop offset="0.757484" stop-color="#F18111"/>
</linearGradient>
<linearGradient id="paint17_linear_49_242" x1="63.1245" y1="83.5421" x2="62.2658" y2="71.0898" gradientUnits="userSpaceOnUse">
<stop offset="0.217892" stop-color="#E27826" stop-opacity="0"/>
<stop offset="0.857237" stop-color="#BC5D13"/>
</linearGradient>
</defs>
</svg>
