<svg width="250" height="251" viewBox="0 0 250 251" fill="none" xmlns="http://www.w3.org/2000/svg">
<path d="M214.415 101.846C214.799 102.38 215.062 103.017 215.187 103.688C215.503 105.384 214.984 107.317 213.595 108.621C211.674 110.387 208.6 110.716 206.248 109.222C205.211 108.521 204.428 107.459 204.263 106.077C203.997 104.659 205.279 103.03 206.516 102.741C206.549 102.73 206.582 102.719 206.615 102.708C208.197 102.257 210.172 102.226 211.611 103.764C212.887 105.182 213.249 107.257 213.087 108.894C212.831 111.27 211.138 112.677 209.469 113.587C208.413 114.131 207.257 114.257 206.175 114.224C205.508 114.205 204.855 114.129 204.203 114.049C204.856 113.984 205.51 113.92 206.146 113.809C207.182 113.633 208.178 113.311 208.947 112.732C210.282 111.741 211.42 110.187 211.358 108.855C211.327 107.351 210.966 106.097 210.052 105.152C209.549 104.6 208.288 104.474 207.265 104.8C207.253 104.803 207.236 104.809 207.219 104.815C206.575 105.058 206.386 105.315 206.396 105.886C206.425 106.458 206.831 107.165 207.386 107.584C208.802 108.666 211.169 108.76 212.785 107.639C213.963 106.83 214.748 105.317 214.773 103.725C214.782 103.096 214.671 102.452 214.415 101.846Z" fill="#E27826"/>
<path d="M128.354 182.89C128.354 182.89 113.082 196.527 107.839 192.133C107.839 192.133 104.003 189.009 104.88 185.904" fill="#FFC24A"/>
<path d="M128.354 182.89C128.354 182.89 113.082 196.527 107.839 192.133C107.839 192.133 104.003 189.009 104.88 185.904" fill="url(#paint0_radial_49_264)" fill-opacity="0.8"/>
<path d="M53.2669 136.567L54.6736 133.263L136.003 89.8081C136.003 89.8081 141.41 94.9471 156.426 95.8914C170.84 96.8175 184.358 93.0041 199.521 104.39C212.144 113.869 220.072 150.477 194.479 168.872C194.479 168.872 172.758 184.562 161.596 186.541C161.596 186.541 155.86 187.14 155.056 180.549C155.056 180.549 145.539 183.817 131.052 186.25C130.449 188.084 130.139 190.227 130.376 192.733C130.376 192.733 132.057 200.505 124.731 200.977C124.731 200.977 117.296 201.903 117.041 191.898C117.041 191.898 116.803 190.064 116.255 188.157C107.468 188.938 97.7496 189.156 87.7022 188.266L87.2455 196.002C87.1906 196.964 86.6609 197.818 85.8388 198.326C81.1257 201.195 78.6229 199.053 77.7461 197.963C77.5086 197.672 77.3625 197.346 77.2529 197.001C73.6906 185.052 70.311 182.019 70.311 182.019C47.3846 162.371 53.3035 136.531 53.3035 136.531L53.2669 136.567Z" fill="#FFC24A"/>
<path d="M53.2669 136.567L54.6736 133.263L136.003 89.8081C136.003 89.8081 141.41 94.9471 156.426 95.8914C170.84 96.8175 184.358 93.0041 199.521 104.39C212.144 113.869 220.072 150.477 194.479 168.872C194.479 168.872 172.758 184.562 161.596 186.541C161.596 186.541 155.86 187.14 155.056 180.549C155.056 180.549 145.539 183.817 131.052 186.25C130.449 188.084 130.139 190.227 130.376 192.733C130.376 192.733 132.057 200.505 124.731 200.977C124.731 200.977 117.296 201.903 117.041 191.898C117.041 191.898 116.803 190.064 116.255 188.157C107.468 188.938 97.7496 189.156 87.7022 188.266L87.2455 196.002C87.1906 196.964 86.6609 197.818 85.8388 198.326C81.1257 201.195 78.6229 199.053 77.7461 197.963C77.5086 197.672 77.3625 197.346 77.2529 197.001C73.6906 185.052 70.311 182.019 70.311 182.019C47.3846 162.371 53.3035 136.531 53.3035 136.531L53.2669 136.567Z" fill="url(#paint1_radial_49_264)" fill-opacity="0.8"/>
<path d="M53.2669 136.567L54.6736 133.263L136.003 89.8081C136.003 89.8081 141.41 94.9471 156.426 95.8914C170.84 96.8175 184.358 93.0041 199.521 104.39C212.144 113.869 220.072 150.477 194.479 168.872C194.479 168.872 172.758 184.562 161.596 186.541C161.596 186.541 155.86 187.14 155.056 180.549C155.056 180.549 145.539 183.817 131.052 186.25C130.449 188.084 130.139 190.227 130.376 192.733C130.376 192.733 132.057 200.505 124.731 200.977C124.731 200.977 117.296 201.903 117.041 191.898C117.041 191.898 116.803 190.064 116.255 188.157C107.468 188.938 97.7496 189.156 87.7022 188.266L87.2455 196.002C87.1906 196.964 86.6609 197.818 85.8388 198.326C81.1257 201.195 78.6229 199.053 77.7461 197.963C77.5086 197.672 77.3625 197.346 77.2529 197.001C73.6906 185.052 70.311 182.019 70.311 182.019C47.3846 162.371 53.3035 136.531 53.3035 136.531L53.2669 136.567Z" fill="url(#paint2_radial_49_264)" fill-opacity="0.4"/>
<path d="M53.2669 136.567L54.6736 133.263L136.003 89.8081C136.003 89.8081 141.41 94.9471 156.426 95.8914C170.84 96.8175 184.358 93.0041 199.521 104.39C212.144 113.869 220.072 150.477 194.479 168.872C194.479 168.872 172.758 184.562 161.596 186.541C161.596 186.541 155.86 187.14 155.056 180.549C155.056 180.549 145.539 183.817 131.052 186.25C130.449 188.084 130.139 190.227 130.376 192.733C130.376 192.733 132.057 200.505 124.731 200.977C124.731 200.977 117.296 201.903 117.041 191.898C117.041 191.898 116.803 190.064 116.255 188.157C107.468 188.938 97.7496 189.156 87.7022 188.266L87.2455 196.002C87.1906 196.964 86.6609 197.818 85.8388 198.326C81.1257 201.195 78.6229 199.053 77.7461 197.963C77.5086 197.672 77.3625 197.346 77.2529 197.001C73.6906 185.052 70.311 182.019 70.311 182.019C47.3846 162.371 53.3035 136.531 53.3035 136.531L53.2669 136.567Z" fill="url(#paint3_linear_49_264)" fill-opacity="0.6"/>
<path d="M53.2669 136.567L54.6736 133.263L136.003 89.8081C136.003 89.8081 141.41 94.9471 156.426 95.8914C170.84 96.8175 184.358 93.0041 199.521 104.39C212.144 113.869 220.072 150.477 194.479 168.872C194.479 168.872 172.758 184.562 161.596 186.541C161.596 186.541 155.86 187.14 155.056 180.549C155.056 180.549 145.539 183.817 131.052 186.25C130.449 188.084 130.139 190.227 130.376 192.733C130.376 192.733 132.057 200.505 124.731 200.977C124.731 200.977 117.296 201.903 117.041 191.898C117.041 191.898 116.803 190.064 116.255 188.157C107.468 188.938 97.7496 189.156 87.7022 188.266L87.2455 196.002C87.1906 196.964 86.6609 197.818 85.8388 198.326C81.1257 201.195 78.6229 199.053 77.7461 197.963C77.5086 197.672 77.3625 197.346 77.2529 197.001C73.6906 185.052 70.311 182.019 70.311 182.019C47.3846 162.371 53.3035 136.531 53.3035 136.531L53.2669 136.567Z" fill="url(#paint4_linear_49_264)" fill-opacity="0.6"/>
<path d="M53.2669 136.567L54.6736 133.263L136.003 89.8081C136.003 89.8081 141.41 94.9471 156.426 95.8914C170.84 96.8175 184.358 93.0041 199.521 104.39C212.144 113.869 220.072 150.477 194.479 168.872C194.479 168.872 172.758 184.562 161.596 186.541C161.596 186.541 155.86 187.14 155.056 180.549C155.056 180.549 145.539 183.817 131.052 186.25C130.449 188.084 130.139 190.227 130.376 192.733C130.376 192.733 132.057 200.505 124.731 200.977C124.731 200.977 117.296 201.903 117.041 191.898C117.041 191.898 116.803 190.064 116.255 188.157C107.468 188.938 97.7496 189.156 87.7022 188.266L87.2455 196.002C87.1906 196.964 86.6609 197.818 85.8388 198.326C81.1257 201.195 78.6229 199.053 77.7461 197.963C77.5086 197.672 77.3625 197.346 77.2529 197.001C73.6906 185.052 70.311 182.019 70.311 182.019C47.3846 162.371 53.3035 136.531 53.3035 136.531L53.2669 136.567Z" fill="url(#paint5_linear_49_264)" fill-opacity="0.6"/>
<mask id="mask0_49_264" style="mask-type:luminance" maskUnits="userSpaceOnUse" x="52" y="89" width="160" height="112">
<path d="M53.2669 136.567L54.6736 133.263L136.003 89.8081C136.003 89.8081 141.41 94.9471 156.426 95.8914C170.84 96.8175 184.358 93.0041 199.521 104.39C212.144 113.869 220.072 150.477 194.479 168.872C194.479 168.872 172.758 184.562 161.596 186.541C161.596 186.541 155.86 187.14 155.056 180.549C155.056 180.549 145.539 183.817 131.052 186.25C130.449 188.084 130.139 190.227 130.376 192.733C130.376 192.733 132.057 200.505 124.731 200.977C124.731 200.977 117.296 201.903 117.041 191.898C117.041 191.898 116.803 190.064 116.255 188.157C107.468 188.938 97.7496 189.156 87.7022 188.266L87.2455 196.002C87.1906 196.964 86.6609 197.818 85.8388 198.326C81.1257 201.195 78.6229 199.053 77.7461 197.963C77.5086 197.672 77.3625 197.346 77.2529 197.001C73.6906 185.052 70.311 182.019 70.311 182.019C47.3846 162.371 53.3035 136.531 53.3035 136.531L53.2669 136.567Z" fill="white"/>
</mask>
<g mask="url(#mask0_49_264)">
<path d="M208.326 117.646C208.326 117.646 197.968 100.667 181.399 98.9422C181.399 98.9422 170.84 97.6348 164.464 97.6348C164.464 97.6348 148.681 96.636 141.374 92.8408H205.366L209.933 114.323L208.326 117.646Z" fill="#FFE5B3"/>
<path d="M142.66 174.092C155.722 164.413 155.923 148.469 155.923 148.469C155.923 148.469 157.22 163.85 144.085 175.018C141.674 177.051 139.372 179.212 137.326 181.609C135.992 183.171 134.695 184.878 133.819 186.494C138.66 185.804 151.557 181.882 152.342 181.591C161.422 178.395 170.154 172.167 170.154 172.167C163.541 177.07 154.79 182.027 154.79 182.027L151.411 183.625L145.62 186.349L133.307 187.493C133.179 187.802 133.07 188.092 132.978 188.383L130.768 187.729C132.047 182.063 142.624 174.092 142.624 174.092H142.66Z" fill="#EA9F0B"/>
<path d="M116.218 188.194L114.921 190.555L115.762 200.27L122.356 200.778C120.493 200.07 119.397 198.272 118.776 196.656C118.283 195.367 118.027 193.987 117.954 192.607C117.899 191.354 117.753 190.337 117.607 189.592C117.461 188.83 117.205 188.085 116.821 187.395C114.172 182.528 113.277 177.753 113.277 177.753C112.108 173.685 112.492 162.681 112.492 162.681C112.492 162.681 109.587 178.969 116.218 188.212" fill="#EA9F0B"/>
<path d="M86.2405 195.457C86.478 193.423 86.2953 188.847 86.2953 188.847C86.0943 185.542 86.0943 182.346 86.3318 180.457C86.3318 180.457 89.7479 166.856 81.71 158.63C81.71 158.63 88.999 164.387 88.4692 175.028C88.4692 175.028 87.0443 184.253 87.6654 188.302C88.0125 190.481 88.1221 191.789 88.1769 192.515L89.4922 193.986L86.8433 198.689L84.3771 199.107C85.4549 198.707 85.9847 197.127 86.2588 195.439L86.2405 195.457Z" fill="#EA9F0B"/>
</g>
<path d="M49.5369 50.9999C49.5462 51.2206 49.5578 51.4234 49.5852 51.6464C50.3059 57.9763 57.5119 61.1619 57.5119 61.1619C63.178 62.966 66.5688 68.2563 68.1014 71.3203L74.9757 63.2836C74.9757 63.2836 74.4807 54.1087 58.871 52.6207C58.871 52.6207 50.5421 52.3878 49.5369 50.9999Z" fill="#FFC24A"/>
<path d="M49.5369 50.9999C49.5462 51.2206 49.5578 51.4234 49.5852 51.6464C50.3059 57.9763 57.5119 61.1619 57.5119 61.1619C63.178 62.966 66.5688 68.2563 68.1014 71.3203L74.9757 63.2836C74.9757 63.2836 74.4807 54.1087 58.871 52.6207C58.871 52.6207 50.5421 52.3878 49.5369 50.9999Z" fill="url(#paint6_linear_49_264)" fill-opacity="0.8"/>
<path d="M58.639 82.3996L68.1018 71.3183C66.5692 68.2543 63.1784 62.964 57.5123 61.1599C57.5123 61.1599 50.3063 57.9743 49.5856 51.6444C49.6208 52.6918 49.4964 55.0187 48.1431 58.4916C48.1431 58.4916 43.3109 77.4698 58.639 82.3996Z" fill="#F18111"/>
<path d="M58.639 82.3996L68.1018 71.3183C66.5692 68.2543 63.1784 62.964 57.5123 61.1599C57.5123 61.1599 50.3063 57.9743 49.5856 51.6444C49.6208 52.6918 49.4964 55.0187 48.1431 58.4916C48.1431 58.4916 43.3109 77.4698 58.639 82.3996Z" fill="url(#paint7_linear_49_264)" fill-opacity="0.8"/>
<path d="M123.522 69.334L128.241 78.8888C130.422 76.306 134.982 71.9152 140.972 71.5638C140.972 71.5638 148.758 70.2467 150.994 64.267C151.074 64.0756 151.137 63.8639 151.198 63.6702C149.883 64.7689 141.751 62.9503 141.751 62.9503C126.236 60.5591 123.522 69.334 123.522 69.334Z" fill="#FFC24A"/>
<path d="M123.522 69.334L128.241 78.8888C130.422 76.306 134.982 71.9152 140.972 71.5638C140.972 71.5638 148.758 70.2467 150.994 64.267C151.074 64.0756 151.137 63.8639 151.198 63.6702C149.883 64.7689 141.751 62.9503 141.751 62.9503C126.236 60.5591 123.522 69.334 123.522 69.334Z" fill="url(#paint8_linear_49_264)" fill-opacity="0.8"/>
<path d="M128.241 78.8883L134.667 91.8766C150.736 90.86 150.692 71.2741 150.692 71.2741C150.255 67.5414 150.706 65.2553 150.995 64.2665C148.758 70.2462 140.973 71.5633 140.973 71.5633C134.983 71.9147 130.422 76.3054 128.241 78.8883Z" fill="#F18111"/>
<path d="M128.241 78.8883L134.667 91.8766C150.736 90.86 150.692 71.2741 150.692 71.2741C150.255 67.5414 150.706 65.2553 150.995 64.2665C148.758 70.2462 140.973 71.5633 140.973 71.5633C134.983 71.9147 130.422 76.3054 128.241 78.8883Z" fill="url(#paint9_linear_49_264)" fill-opacity="0.8"/>
<path d="M45.5213 97.254C45.5213 97.254 45.5439 97.2203 45.562 97.2225C46.0191 96.6573 46.492 96.1124 46.9989 95.59C47.0397 95.5584 47.0623 95.5247 47.0849 95.4909C51.9566 89.7847 53.9279 85.785 54.7343 83.598C54.7343 83.598 54.7366 83.58 54.7388 83.562C55.1861 82.3368 55.2488 81.6858 55.2623 81.5777C60.2246 65.5436 79.2288 55.1575 100.311 57.7851C121.394 60.4127 137.265 75.1638 138.127 91.8871C138.111 92.0132 138.03 92.6619 138.145 93.9572C138.145 93.9572 138.142 93.9752 138.14 93.9932C138.383 96.3292 139.333 100.675 142.636 107.4C142.668 107.44 142.682 107.479 142.695 107.517C143.059 108.148 143.381 108.81 143.688 109.452C143.688 109.452 143.701 109.491 143.719 109.493C145.879 114.172 146.771 119.133 146.146 124.142C143.651 144.162 117.771 157.424 88.3138 153.753C58.8562 150.081 37.0235 130.872 39.5186 110.853C40.143 105.843 42.2246 101.253 45.4669 97.2473L45.5213 97.254Z" fill="#FFC24A"/>
<path d="M45.5213 97.254C45.5213 97.254 45.5439 97.2203 45.562 97.2225C46.0191 96.6573 46.492 96.1124 46.9989 95.59C47.0397 95.5584 47.0623 95.5247 47.0849 95.4909C51.9566 89.7847 53.9279 85.785 54.7343 83.598C54.7343 83.598 54.7366 83.58 54.7388 83.562C55.1861 82.3368 55.2488 81.6858 55.2623 81.5777C60.2246 65.5436 79.2288 55.1575 100.311 57.7851C121.394 60.4127 137.265 75.1638 138.127 91.8871C138.111 92.0132 138.03 92.6619 138.145 93.9572C138.145 93.9572 138.142 93.9752 138.14 93.9932C138.383 96.3292 139.333 100.675 142.636 107.4C142.668 107.44 142.682 107.479 142.695 107.517C143.059 108.148 143.381 108.81 143.688 109.452C143.688 109.452 143.701 109.491 143.719 109.493C145.879 114.172 146.771 119.133 146.146 124.142C143.651 144.162 117.771 157.424 88.3138 153.753C58.8562 150.081 37.0235 130.872 39.5186 110.853C40.143 105.843 42.2246 101.253 45.4669 97.2473L45.5213 97.254Z" fill="url(#paint10_linear_49_264)" fill-opacity="0.6"/>
<path d="M65.5297 108.508C66.3281 107.272 67.453 106.223 68.9724 105.406C72.1696 103.681 75.6893 102.62 78.9001 100.934C82.8786 98.8493 85.7416 96.1135 86.8007 95.0011C87.5544 96.3394 89.6765 99.6965 93.0035 102.691C95.7023 105.114 98.8537 107.007 101.53 109.463C102.603 110.457 103.714 111.584 104.162 113.012C104.694 114.652 104.621 116.565 104.285 118.225C103.533 121.901 101.09 125.256 97.4954 126.62C95.9486 127.214 94.2881 127.391 92.6566 127.188C88.3966 126.657 84.8694 124.973 83.809 120.778C83.7612 120.571 83.4711 120.535 83.3739 120.724C81.2982 124.528 77.4837 125.297 73.2236 124.766C71.5921 124.562 70.01 123.963 68.6723 123.027C65.5228 120.823 63.978 116.971 64.1506 113.223C64.2301 111.402 64.6838 109.83 65.5297 108.508Z" fill="#F18111"/>
<path d="M75.4741 118.012C74.0524 117.835 73.0427 116.545 73.2188 115.132C73.395 113.719 74.6902 112.717 76.1119 112.894C77.5336 113.071 78.5433 114.361 78.3671 115.774C78.191 117.187 76.8957 118.189 75.4741 118.012Z" fill="#E27826"/>
<path d="M92.5688 120.143C91.1471 119.965 90.1374 118.676 90.3136 117.263C90.4897 115.85 91.785 114.848 93.2066 115.025C94.6283 115.202 95.638 116.492 95.4619 117.905C95.2857 119.318 93.9905 120.32 92.5688 120.143Z" fill="#E27826"/>
<defs>
<radialGradient id="paint0_radial_49_264" cx="0" cy="0" r="1" gradientUnits="userSpaceOnUse" gradientTransform="translate(111.5 183) rotate(-81.7029) scale(24.2539 24.0583)">
<stop stop-color="#F18111"/>
<stop offset="1" stop-color="#FFC24A" stop-opacity="0"/>
</radialGradient>
<radialGradient id="paint1_radial_49_264" cx="0" cy="0" r="1" gradientUnits="userSpaceOnUse" gradientTransform="translate(123.067 145.185) rotate(-143.253) scale(102.496 128.968)">
<stop stop-color="#F18111"/>
<stop offset="1" stop-color="#FFC24A" stop-opacity="0"/>
</radialGradient>
<radialGradient id="paint2_radial_49_264" cx="0" cy="0" r="1" gradientUnits="userSpaceOnUse" gradientTransform="translate(173.025 98.5684) rotate(-174.987) scale(31.3285 11.7336)">
<stop stop-color="#FFF4C7"/>
<stop offset="1" stop-color="#FFC24A" stop-opacity="0"/>
</radialGradient>
<linearGradient id="paint3_linear_49_264" x1="88.1592" y1="162.628" x2="50.3803" y2="148.393" gradientUnits="userSpaceOnUse">
<stop stop-color="#FFC24A" stop-opacity="0"/>
<stop offset="1" stop-color="#FFF4C7"/>
</linearGradient>
<linearGradient id="paint4_linear_49_264" x1="186.713" y1="128.682" x2="211.351" y2="118.279" gradientUnits="userSpaceOnUse">
<stop stop-color="#FFC24A" stop-opacity="0"/>
<stop offset="1" stop-color="#FFF4C7"/>
</linearGradient>
<linearGradient id="paint5_linear_49_264" x1="122.653" y1="174.126" x2="125.938" y2="195.48" gradientUnits="userSpaceOnUse">
<stop stop-color="#FFC24A" stop-opacity="0"/>
<stop offset="1" stop-color="#FFF4C7"/>
</linearGradient>
<linearGradient id="paint6_linear_49_264" x1="59.2112" y1="54.9644" x2="68.2476" y2="66.574" gradientUnits="userSpaceOnUse">
<stop stop-color="#FFC24A" stop-opacity="0"/>
<stop offset="1" stop-color="#F18111"/>
</linearGradient>
<linearGradient id="paint7_linear_49_264" x1="51.1343" y1="66.6465" x2="60.7125" y2="73.9096" gradientUnits="userSpaceOnUse">
<stop stop-color="#F18111" stop-opacity="0"/>
<stop offset="1" stop-color="#E27826"/>
</linearGradient>
<linearGradient id="paint8_linear_49_264" x1="142.134" y1="62.5405" x2="127.843" y2="71.2963" gradientUnits="userSpaceOnUse">
<stop stop-color="#FFC24A" stop-opacity="0"/>
<stop offset="1" stop-color="#F18111"/>
</linearGradient>
<linearGradient id="paint9_linear_49_264" x1="144.04" y1="73.813" x2="131.751" y2="83.8683" gradientUnits="userSpaceOnUse">
<stop stop-color="#F18111" stop-opacity="0"/>
<stop offset="1" stop-color="#E27826"/>
</linearGradient>
<linearGradient id="paint10_linear_49_264" x1="97.1969" y1="117.632" x2="66.8197" y2="60.3257" gradientUnits="userSpaceOnUse">
<stop stop-color="#FFC24A" stop-opacity="0"/>
<stop offset="1" stop-color="#FFF4C7"/>
</linearGradient>
</defs>
</svg>
