<svg width="250" height="251" viewBox="0 0 250 251" fill="none" xmlns="http://www.w3.org/2000/svg">
<path d="M83.2068 120.404C83.2068 120.404 62.6378 117.331 59.5493 127.274C56.4607 137.216 82.0747 140.274 82.0747 140.274" fill="#FFC24A"/>
<path d="M83.2068 120.404C83.2068 120.404 62.6378 117.331 59.5493 127.274C56.4607 137.216 82.0747 140.274 82.0747 140.274" fill="url(#paint0_linear_49_262)" fill-opacity="0.8"/>
<path d="M83.2068 120.404C83.2068 120.404 62.6378 117.331 59.5493 127.274C56.4607 137.216 82.0747 140.274 82.0747 140.274" fill="url(#paint1_linear_49_262)" fill-opacity="0.4"/>
<path d="M83.2068 120.404C82.3321 120.231 81.391 120.091 80.4842 119.975C73.1333 119.363 62.6625 118.289 58.8342 127.052C58.7029 127.475 58.6186 127.867 58.5721 128.304C58.3319 133.594 63.5388 135.759 67.1662 137.23C71.1171 138.685 75.2078 139.487 79.3371 140.005C80.2552 140.116 81.1656 140.21 82.0747 140.274C81.1784 140.111 80.285 139.923 79.3853 139.724C75.3424 138.812 71.3608 137.714 67.6117 136.119C64.0681 134.563 59.7139 132.171 60.0641 128.459C60.0989 128.131 60.1619 127.831 60.2643 127.496C63.0371 120.344 73.0472 120.262 80.4623 120.26C81.3715 120.285 82.3186 120.33 83.2068 120.404Z" fill="#EA9F0B"/>
<path d="M158.374 156.591C158.374 156.591 181.6 152.697 180.171 172.625C178.585 194.752 152.281 184.403 152.281 184.403L158.374 156.576V156.591Z" fill="#FFC24A"/>
<path d="M158.374 156.591C158.374 156.591 181.6 152.697 180.171 172.625C178.585 194.752 152.281 184.403 152.281 184.403L158.374 156.576V156.591Z" fill="url(#paint2_linear_49_262)" fill-opacity="0.8"/>
<path d="M158.374 156.591C158.374 156.591 181.6 152.697 180.171 172.625C178.585 194.752 152.281 184.403 152.281 184.403L158.374 156.576V156.591Z" fill="url(#paint3_linear_49_262)" fill-opacity="0.4"/>
<path d="M87.8793 187.575C87.8793 187.575 78.0015 194.752 84.2203 201.254C90.4547 207.755 111.294 199.495 114.953 196.511V189.601L87.8793 187.575Z" fill="#FFC24A"/>
<path d="M87.8793 187.575C87.8793 187.575 78.0015 194.752 84.2203 201.254C90.4547 207.755 111.294 199.495 114.953 196.511V189.601L87.8793 187.575Z" fill="url(#paint4_radial_49_262)" fill-opacity="0.6"/>
<path d="M87.8793 187.575C87.8793 187.575 78.0015 194.752 84.2203 201.254C90.4547 207.755 111.294 199.495 114.953 196.511V189.601L87.8793 187.575Z" fill="url(#paint5_linear_49_262)" fill-opacity="0.8"/>
<path d="M130.453 55.0325C130.453 55.0325 151.983 72.8407 175.13 81.1638C198.278 89.4869 191.572 102.6 191.572 102.6C191.572 102.6 183.045 113.357 154.809 104.924L130.437 55.0325H130.453Z" fill="#F9C986"/>
<path d="M130.453 55.0325C130.453 55.0325 151.983 72.8407 175.13 81.1638C198.278 89.4869 191.572 102.6 191.572 102.6C191.572 102.6 183.045 113.357 154.809 104.924L130.437 55.0325H130.453Z" fill="url(#paint6_linear_49_262)" fill-opacity="0.8"/>
<path d="M130.453 55.0325C130.453 55.0325 151.983 72.8407 175.13 81.1638C198.278 89.4869 191.572 102.6 191.572 102.6C191.572 102.6 183.045 113.357 154.809 104.924L130.437 55.0325H130.453Z" fill="url(#paint7_linear_49_262)" fill-opacity="0.4"/>
<path d="M149.879 193.227C138.792 204.125 125.333 207.706 115.723 205.272C106.112 202.838 112.472 192.269 112.472 192.269C102.311 192.803 88.5077 188.845 88.5077 188.845C50.9439 175.042 63.931 138.923 72.5368 130.961C83.2939 120.643 86.686 112.069 86.686 112.069C72.0656 107.326 63.5384 91.6224 63.5384 91.6224C60.4133 86.6756 59.4083 74.2538 67.1817 70.0609C75.8503 65.3968 78.2216 62.2089 78.2216 62.2089C89.3243 46.5678 110.65 47.2431 110.65 47.2431C110.65 47.2431 119.523 40.035 139.42 60.3402C159.317 80.6453 180.438 110.499 175.57 124.318C175.57 124.318 171.236 136.96 153.098 125.998C134.96 115.037 132.117 107.86 132.117 107.86C132.117 107.86 133.075 119.104 136.185 124.648C140.959 133.175 162.285 146.099 161.17 165.101C160.604 170.205 160.871 182.454 149.894 193.227H149.879Z" fill="#FFC24A"/>
<path d="M149.879 193.227C138.792 204.125 125.333 207.706 115.723 205.272C106.112 202.838 112.472 192.269 112.472 192.269C102.311 192.803 88.5077 188.845 88.5077 188.845C50.9439 175.042 63.931 138.923 72.5368 130.961C83.2939 120.643 86.686 112.069 86.686 112.069C72.0656 107.326 63.5384 91.6224 63.5384 91.6224C60.4133 86.6756 59.4083 74.2538 67.1817 70.0609C75.8503 65.3968 78.2216 62.2089 78.2216 62.2089C89.3243 46.5678 110.65 47.2431 110.65 47.2431C110.65 47.2431 119.523 40.035 139.42 60.3402C159.317 80.6453 180.438 110.499 175.57 124.318C175.57 124.318 171.236 136.96 153.098 125.998C134.96 115.037 132.117 107.86 132.117 107.86C132.117 107.86 133.075 119.104 136.185 124.648C140.959 133.175 162.285 146.099 161.17 165.101C160.604 170.205 160.871 182.454 149.894 193.227H149.879Z" fill="url(#paint8_radial_49_262)" fill-opacity="0.6"/>
<path d="M149.879 193.227C138.792 204.125 125.333 207.706 115.723 205.272C106.112 202.838 112.472 192.269 112.472 192.269C102.311 192.803 88.5077 188.845 88.5077 188.845C50.9439 175.042 63.931 138.923 72.5368 130.961C83.2939 120.643 86.686 112.069 86.686 112.069C72.0656 107.326 63.5384 91.6224 63.5384 91.6224C60.4133 86.6756 59.4083 74.2538 67.1817 70.0609C75.8503 65.3968 78.2216 62.2089 78.2216 62.2089C89.3243 46.5678 110.65 47.2431 110.65 47.2431C110.65 47.2431 119.523 40.035 139.42 60.3402C159.317 80.6453 180.438 110.499 175.57 124.318C175.57 124.318 171.236 136.96 153.098 125.998C134.96 115.037 132.117 107.86 132.117 107.86C132.117 107.86 133.075 119.104 136.185 124.648C140.959 133.175 162.285 146.099 161.17 165.101C160.604 170.205 160.871 182.454 149.894 193.227H149.879Z" fill="url(#paint9_radial_49_262)" fill-opacity="0.6"/>
<path d="M149.879 193.227C138.792 204.125 125.333 207.706 115.723 205.272C106.112 202.838 112.472 192.269 112.472 192.269C102.311 192.803 88.5077 188.845 88.5077 188.845C50.9439 175.042 63.931 138.923 72.5368 130.961C83.2939 120.643 86.686 112.069 86.686 112.069C72.0656 107.326 63.5384 91.6224 63.5384 91.6224C60.4133 86.6756 59.4083 74.2538 67.1817 70.0609C75.8503 65.3968 78.2216 62.2089 78.2216 62.2089C89.3243 46.5678 110.65 47.2431 110.65 47.2431C110.65 47.2431 119.523 40.035 139.42 60.3402C159.317 80.6453 180.438 110.499 175.57 124.318C175.57 124.318 171.236 136.96 153.098 125.998C134.96 115.037 132.117 107.86 132.117 107.86C132.117 107.86 133.075 119.104 136.185 124.648C140.959 133.175 162.285 146.099 161.17 165.101C160.604 170.205 160.871 182.454 149.894 193.227H149.879Z" fill="url(#paint10_radial_49_262)" fill-opacity="0.8"/>
<path d="M149.879 193.227C138.792 204.125 125.333 207.706 115.723 205.272C106.112 202.838 112.472 192.269 112.472 192.269C102.311 192.803 88.5077 188.845 88.5077 188.845C50.9439 175.042 63.931 138.923 72.5368 130.961C83.2939 120.643 86.686 112.069 86.686 112.069C72.0656 107.326 63.5384 91.6224 63.5384 91.6224C60.4133 86.6756 59.4083 74.2538 67.1817 70.0609C75.8503 65.3968 78.2216 62.2089 78.2216 62.2089C89.3243 46.5678 110.65 47.2431 110.65 47.2431C110.65 47.2431 119.523 40.035 139.42 60.3402C159.317 80.6453 180.438 110.499 175.57 124.318C175.57 124.318 171.236 136.96 153.098 125.998C134.96 115.037 132.117 107.86 132.117 107.86C132.117 107.86 133.075 119.104 136.185 124.648C140.959 133.175 162.285 146.099 161.17 165.101C160.604 170.205 160.871 182.454 149.894 193.227H149.879Z" fill="url(#paint11_radial_49_262)" fill-opacity="0.9"/>
<path d="M149.879 193.227C138.792 204.125 125.333 207.706 115.723 205.272C106.112 202.838 112.472 192.269 112.472 192.269C102.311 192.803 88.5077 188.845 88.5077 188.845C50.9439 175.042 63.931 138.923 72.5368 130.961C83.2939 120.643 86.686 112.069 86.686 112.069C72.0656 107.326 63.5384 91.6224 63.5384 91.6224C60.4133 86.6756 59.4083 74.2538 67.1817 70.0609C75.8503 65.3968 78.2216 62.2089 78.2216 62.2089C89.3243 46.5678 110.65 47.2431 110.65 47.2431C110.65 47.2431 119.523 40.035 139.42 60.3402C159.317 80.6453 180.438 110.499 175.57 124.318C175.57 124.318 171.236 136.96 153.098 125.998C134.96 115.037 132.117 107.86 132.117 107.86C132.117 107.86 133.075 119.104 136.185 124.648C140.959 133.175 162.285 146.099 161.17 165.101C160.604 170.205 160.871 182.454 149.894 193.227H149.879Z" fill="url(#paint12_radial_49_262)" fill-opacity="0.8"/>
<path d="M149.879 193.227C138.792 204.125 125.333 207.706 115.723 205.272C106.112 202.838 112.472 192.269 112.472 192.269C102.311 192.803 88.5077 188.845 88.5077 188.845C50.9439 175.042 63.931 138.923 72.5368 130.961C83.2939 120.643 86.686 112.069 86.686 112.069C72.0656 107.326 63.5384 91.6224 63.5384 91.6224C60.4133 86.6756 59.4083 74.2538 67.1817 70.0609C75.8503 65.3968 78.2216 62.2089 78.2216 62.2089C89.3243 46.5678 110.65 47.2431 110.65 47.2431C110.65 47.2431 119.523 40.035 139.42 60.3402C159.317 80.6453 180.438 110.499 175.57 124.318C175.57 124.318 171.236 136.96 153.098 125.998C134.96 115.037 132.117 107.86 132.117 107.86C132.117 107.86 133.075 119.104 136.185 124.648C140.959 133.175 162.285 146.099 161.17 165.101C160.604 170.205 160.871 182.454 149.894 193.227H149.879Z" fill="url(#paint13_radial_49_262)" fill-opacity="0.6"/>
<path d="M149.879 193.227C138.792 204.125 125.333 207.706 115.723 205.272C106.112 202.838 112.472 192.269 112.472 192.269C102.311 192.803 88.5077 188.845 88.5077 188.845C50.9439 175.042 63.931 138.923 72.5368 130.961C83.2939 120.643 86.686 112.069 86.686 112.069C72.0656 107.326 63.5384 91.6224 63.5384 91.6224C60.4133 86.6756 59.4083 74.2538 67.1817 70.0609C75.8503 65.3968 78.2216 62.2089 78.2216 62.2089C89.3243 46.5678 110.65 47.2431 110.65 47.2431C110.65 47.2431 119.523 40.035 139.42 60.3402C159.317 80.6453 180.438 110.499 175.57 124.318C175.57 124.318 171.236 136.96 153.098 125.998C134.96 115.037 132.117 107.86 132.117 107.86C132.117 107.86 133.075 119.104 136.185 124.648C140.959 133.175 162.285 146.099 161.17 165.101C160.604 170.205 160.871 182.454 149.894 193.227H149.879Z" fill="url(#paint14_radial_49_262)" fill-opacity="0.6"/>
<path d="M149.879 193.227C138.792 204.125 125.333 207.706 115.723 205.272C106.112 202.838 112.472 192.269 112.472 192.269C102.311 192.803 88.5077 188.845 88.5077 188.845C50.9439 175.042 63.931 138.923 72.5368 130.961C83.2939 120.643 86.686 112.069 86.686 112.069C72.0656 107.326 63.5384 91.6224 63.5384 91.6224C60.4133 86.6756 59.4083 74.2538 67.1817 70.0609C75.8503 65.3968 78.2216 62.2089 78.2216 62.2089C89.3243 46.5678 110.65 47.2431 110.65 47.2431C110.65 47.2431 119.523 40.035 139.42 60.3402C159.317 80.6453 180.438 110.499 175.57 124.318C175.57 124.318 171.236 136.96 153.098 125.998C134.96 115.037 132.117 107.86 132.117 107.86C132.117 107.86 133.075 119.104 136.185 124.648C140.959 133.175 162.285 146.099 161.17 165.101C160.604 170.205 160.871 182.454 149.894 193.227H149.879Z" fill="url(#paint15_radial_49_262)" fill-opacity="0.6"/>
<path d="M149.879 193.227C138.792 204.125 125.333 207.706 115.723 205.272C106.112 202.838 112.472 192.269 112.472 192.269C102.311 192.803 88.5077 188.845 88.5077 188.845C50.9439 175.042 63.931 138.923 72.5368 130.961C83.2939 120.643 86.686 112.069 86.686 112.069C72.0656 107.326 63.5384 91.6224 63.5384 91.6224C60.4133 86.6756 59.4083 74.2538 67.1817 70.0609C75.8503 65.3968 78.2216 62.2089 78.2216 62.2089C89.3243 46.5678 110.65 47.2431 110.65 47.2431C110.65 47.2431 119.523 40.035 139.42 60.3402C159.317 80.6453 180.438 110.499 175.57 124.318C175.57 124.318 171.236 136.96 153.098 125.998C134.96 115.037 132.117 107.86 132.117 107.86C132.117 107.86 133.075 119.104 136.185 124.648C140.959 133.175 162.285 146.099 161.17 165.101C160.604 170.205 160.871 182.454 149.894 193.227H149.879Z" fill="url(#paint16_radial_49_262)" fill-opacity="0.6"/>
<path d="M149.879 193.227C138.792 204.125 125.333 207.706 115.723 205.272C106.112 202.838 112.472 192.269 112.472 192.269C102.311 192.803 88.5077 188.845 88.5077 188.845C50.9439 175.042 63.931 138.923 72.5368 130.961C83.2939 120.643 86.686 112.069 86.686 112.069C72.0656 107.326 63.5384 91.6224 63.5384 91.6224C60.4133 86.6756 59.4083 74.2538 67.1817 70.0609C75.8503 65.3968 78.2216 62.2089 78.2216 62.2089C89.3243 46.5678 110.65 47.2431 110.65 47.2431C110.65 47.2431 119.523 40.035 139.42 60.3402C159.317 80.6453 180.438 110.499 175.57 124.318C175.57 124.318 171.236 136.96 153.098 125.998C134.96 115.037 132.117 107.86 132.117 107.86C132.117 107.86 133.075 119.104 136.185 124.648C140.959 133.175 162.285 146.099 161.17 165.101C160.604 170.205 160.871 182.454 149.894 193.227H149.879Z" fill="url(#paint17_linear_49_262)" fill-opacity="0.4"/>
<mask id="mask0_49_262" style="mask-type:luminance" maskUnits="userSpaceOnUse" x="61" y="46" width="116" height="160">
<path d="M149.879 193.226C138.792 204.125 125.333 207.705 115.723 205.271C106.112 202.837 112.472 192.268 112.472 192.268C102.312 192.802 88.5078 188.845 88.5078 188.845C50.944 175.041 63.9311 138.922 72.5369 130.96C83.2941 120.643 86.6861 112.068 86.6861 112.068C72.0658 107.326 63.5385 91.6219 63.5385 91.6219C60.4134 86.6752 59.4084 74.2534 67.1818 70.0604C75.8504 65.3963 78.2217 62.2084 78.2217 62.2084C89.3244 46.5673 110.65 47.2426 110.65 47.2426C110.65 47.2426 119.523 40.0345 139.42 60.3397C159.317 80.6449 180.439 110.498 175.57 124.317C175.57 124.317 171.236 136.959 153.098 125.998C134.96 115.036 132.118 107.86 132.118 107.86C132.118 107.86 133.076 119.104 136.185 124.647C140.959 133.174 162.285 146.099 161.17 165.101C160.605 170.204 160.871 182.453 149.894 193.226H149.879Z" fill="white"/>
</mask>
<g mask="url(#mask0_49_262)">
<path d="M134.63 120.971C134.63 120.971 136.311 128.635 142.906 135.356C149.502 142.078 159.6 155.74 159.003 167.141C158.343 179.751 154.606 187.588 154.606 187.588L162.568 174.82L165.426 144.7L134.615 120.987L134.63 120.971Z" fill="#EA9F0B"/>
<path d="M165.143 130.426C165.143 130.426 175.759 128.494 174.094 118.287C172.429 108.079 158.751 83.581 150.742 72.8081L160.322 73.4834L181.899 117.957C181.899 117.957 181.098 139.063 165.143 130.426Z" fill="#FFE4BE"/>
<path d="M71.987 131.526C71.987 131.526 62.5804 150.653 68.7991 167.456C68.7991 167.456 74.0914 180.334 85.304 187.573C85.304 187.573 67.1816 189.238 62.0779 159.118C62.0779 159.118 61.2455 136.159 71.987 131.526Z" fill="#FFE4BE"/>
</g>
<path d="M95.3267 126.101C95.3267 126.101 74.8953 129.985 75.2588 140.389C75.6224 150.794 100.812 145.233 100.812 145.233" fill="#FFC24A"/>
<path d="M95.3267 126.101C95.3267 126.101 74.8953 129.985 75.2588 140.389C75.6224 150.794 100.812 145.233 100.812 145.233" fill="url(#paint18_linear_49_262)" fill-opacity="0.8"/>
<path d="M95.3267 126.101C95.3267 126.101 74.8953 129.985 75.2588 140.389C75.6224 150.794 100.812 145.233 100.812 145.233" fill="url(#paint19_linear_49_262)" fill-opacity="0.4"/>
<path d="M95.3267 126.101C94.4437 126.226 93.5091 126.404 92.615 126.594C85.4735 128.441 75.2345 130.881 74.5105 140.415C74.5261 140.858 74.5758 141.256 74.6761 141.684C76.1943 146.758 81.8239 147.084 85.7333 147.276C89.9431 147.347 94.0695 146.755 98.1384 145.881C99.0418 145.683 99.9323 145.472 100.812 145.233C99.9118 145.374 99.0063 145.491 98.0912 145.6C93.9738 146.072 89.853 146.35 85.7877 146.081C81.9289 145.78 77.0295 144.958 76.1357 141.338C76.0606 141.018 76.0209 140.713 76.0071 140.363C76.2659 132.697 85.6888 129.318 92.6881 126.87C93.5548 126.594 94.4637 126.324 95.3267 126.101Z" fill="#EA9F0B"/>
<path d="M74.362 80.0124C75.1557 78.4896 74.1719 76.4069 72.1645 75.3606C70.1572 74.3143 67.8865 74.7006 67.0927 76.2234C66.299 77.7462 67.2828 79.8289 69.2901 80.8752C71.2975 81.9215 73.5682 81.5352 74.362 80.0124Z" fill="#E27826"/>
<defs>
<linearGradient id="paint0_linear_49_262" x1="68.2194" y1="125.677" x2="84.5125" y2="129.078" gradientUnits="userSpaceOnUse">
<stop offset="0.141797" stop-color="#FFC24A" stop-opacity="0"/>
<stop offset="1" stop-color="#F18111"/>
</linearGradient>
<linearGradient id="paint1_linear_49_262" x1="74.069" y1="126.664" x2="73.9983" y2="121.514" gradientUnits="userSpaceOnUse">
<stop stop-color="#FFC24A" stop-opacity="0"/>
<stop offset="1" stop-color="#FFF4C7"/>
</linearGradient>
<linearGradient id="paint2_linear_49_262" x1="186.865" y1="178.684" x2="157.144" y2="175.525" gradientUnits="userSpaceOnUse">
<stop stop-color="#FFC24A" stop-opacity="0"/>
<stop offset="1" stop-color="#F18111"/>
</linearGradient>
<linearGradient id="paint3_linear_49_262" x1="168.003" y1="168.277" x2="176.88" y2="157.314" gradientUnits="userSpaceOnUse">
<stop stop-color="#FFC24A" stop-opacity="0"/>
<stop offset="1" stop-color="#FFF4C7"/>
</linearGradient>
<radialGradient id="paint4_radial_49_262" cx="0" cy="0" r="1" gradientUnits="userSpaceOnUse" gradientTransform="translate(114.02 195.594) rotate(168.366) scale(22.5776 19.485)">
<stop offset="0.225954" stop-color="#F18111"/>
<stop offset="1" stop-color="#FFC24A" stop-opacity="0"/>
</radialGradient>
<linearGradient id="paint5_linear_49_262" x1="98.4105" y1="185.187" x2="92.5569" y2="211.854" gradientUnits="userSpaceOnUse">
<stop offset="0.205559" stop-color="#F18111"/>
<stop offset="1" stop-color="#FFC24A" stop-opacity="0"/>
</linearGradient>
<linearGradient id="paint6_linear_49_262" x1="181.662" y1="61.6089" x2="140.423" y2="88.7969" gradientUnits="userSpaceOnUse">
<stop offset="0.18564" stop-color="#F9C986" stop-opacity="0"/>
<stop offset="1" stop-color="#D38912"/>
</linearGradient>
<linearGradient id="paint7_linear_49_262" x1="175.809" y1="90.8771" x2="182.963" y2="85.0235" gradientUnits="userSpaceOnUse">
<stop stop-color="#F9C986" stop-opacity="0"/>
<stop offset="1" stop-color="#FFE6BD"/>
</linearGradient>
<radialGradient id="paint8_radial_49_262" cx="0" cy="0" r="1" gradientUnits="userSpaceOnUse" gradientTransform="translate(57.435 167.626) rotate(-23.8602) scale(36.9817 57.8571)">
<stop stop-color="#FFF4C7"/>
<stop offset="1" stop-color="#FFC24A" stop-opacity="0"/>
</radialGradient>
<radialGradient id="paint9_radial_49_262" cx="0" cy="0" r="1" gradientUnits="userSpaceOnUse" gradientTransform="translate(61.9878 140.309) rotate(23.8059) scale(24.1702 37.8138)">
<stop stop-color="#FFF4C7"/>
<stop offset="1" stop-color="#FFC24A" stop-opacity="0"/>
</radialGradient>
<radialGradient id="paint10_radial_49_262" cx="0" cy="0" r="1" gradientUnits="userSpaceOnUse" gradientTransform="translate(159.549 188.439) rotate(-138.814) scale(34.5695 54.0833)">
<stop stop-color="#F18111"/>
<stop offset="1" stop-color="#FFC24A" stop-opacity="0"/>
</radialGradient>
<radialGradient id="paint11_radial_49_262" cx="0" cy="0" r="1" gradientUnits="userSpaceOnUse" gradientTransform="translate(123.126 206) rotate(-91.9749) scale(37.7459 77.2301)">
<stop stop-color="#F18111"/>
<stop offset="1" stop-color="#FFC24A" stop-opacity="0"/>
</radialGradient>
<radialGradient id="paint12_radial_49_262" cx="0" cy="0" r="1" gradientUnits="userSpaceOnUse" gradientTransform="translate(164.101 152.667) rotate(171.027) scale(25.0216 51.1954)">
<stop stop-color="#F18111"/>
<stop offset="1" stop-color="#FFC24A" stop-opacity="0"/>
</radialGradient>
<radialGradient id="paint13_radial_49_262" cx="0" cy="0" r="1" gradientUnits="userSpaceOnUse" gradientTransform="translate(168.654 131.204) rotate(-154.622) scale(56.1499 35.2543)">
<stop stop-color="#F18111"/>
<stop offset="1" stop-color="#FFC24A" stop-opacity="0"/>
</radialGradient>
<radialGradient id="paint14_radial_49_262" cx="0" cy="0" r="1" gradientUnits="userSpaceOnUse" gradientTransform="translate(79.5488 112.992) rotate(18.1038) scale(35.5826 39.5828)">
<stop stop-color="#FFF4C7"/>
<stop offset="1" stop-color="#FFC24A" stop-opacity="0"/>
</radialGradient>
<radialGradient id="paint15_radial_49_262" cx="0" cy="0" r="1" gradientUnits="userSpaceOnUse" gradientTransform="translate(168.004 95.4313) rotate(146.689) scale(27.2395 55.8918)">
<stop stop-color="#FFF4C7"/>
<stop offset="1" stop-color="#FFC24A" stop-opacity="0"/>
</radialGradient>
<radialGradient id="paint16_radial_49_262" cx="0" cy="0" r="1" gradientUnits="userSpaceOnUse" gradientTransform="translate(136.784 55.7566) rotate(102.407) scale(33.2979 68.3229)">
<stop stop-color="#FFF4C7"/>
<stop offset="1" stop-color="#FFC24A" stop-opacity="0"/>
</radialGradient>
<linearGradient id="paint17_linear_49_262" x1="111.419" y1="79.8215" x2="99.0609" y2="46.0005" gradientUnits="userSpaceOnUse">
<stop stop-color="#FFC24A" stop-opacity="0"/>
<stop offset="1" stop-color="#FFF4C7"/>
</linearGradient>
<linearGradient id="paint18_linear_49_262" x1="90.757" y1="131.606" x2="80.8027" y2="147.374" gradientUnits="userSpaceOnUse">
<stop offset="0.141797" stop-color="#FFC24A" stop-opacity="0"/>
<stop offset="1" stop-color="#F18111"/>
</linearGradient>
<linearGradient id="paint19_linear_49_262" x1="88.7648" y1="135.024" x2="86.9997" y2="130.186" gradientUnits="userSpaceOnUse">
<stop stop-color="#FFC24A" stop-opacity="0"/>
<stop offset="1" stop-color="#FFF4C7"/>
</linearGradient>
</defs>
</svg>
