<svg width="250" height="251" viewBox="0 0 250 251" fill="none" xmlns="http://www.w3.org/2000/svg">
<path d="M174.551 173.25C174.551 173.25 191.845 175.894 191.845 182.379C191.845 182.379 192.891 187.151 175.931 185.139L172.827 175.768L174.551 173.261V173.25Z" fill="#FFC24A"/>
<path d="M174.551 173.25C174.551 173.25 191.845 175.894 191.845 182.379C191.845 182.379 192.891 187.151 175.931 185.139L172.827 175.768L174.551 173.261V173.25Z" fill="url(#paint0_linear_49_24)" fill-opacity="0.6"/>
<path d="M174.551 173.25C174.551 173.25 191.845 175.894 191.845 182.379C191.845 182.379 192.891 187.151 175.931 185.139L172.827 175.768L174.551 173.261V173.25Z" fill="url(#paint1_linear_49_24)" fill-opacity="0.4"/>
<path d="M172.829 137.218C172.829 137.218 187.72 148.842 184.339 155.166C180.959 161.49 166.023 150.533 166.023 150.533L172.829 137.218Z" fill="#FFC24A"/>
<path d="M172.829 137.218C172.829 137.218 187.72 148.842 184.339 155.166C180.959 161.49 166.023 150.533 166.023 150.533L172.829 137.218Z" fill="url(#paint2_linear_49_24)" fill-opacity="0.6"/>
<path d="M97.4203 66.4814C97.4203 66.4814 101.065 42.6573 115.622 44.8649C115.622 44.8649 126.016 46.2102 138.906 62.848C138.906 62.848 147.23 73.2768 154.623 75.2545L132.984 86.3617L97.4203 66.4814Z" fill="#FFC24A"/>
<path d="M97.4203 66.4814C97.4203 66.4814 101.065 42.6573 115.622 44.8649C115.622 44.8649 126.016 46.2102 138.906 62.848C138.906 62.848 147.23 73.2768 154.623 75.2545L132.984 86.3617L97.4203 66.4814Z" fill="url(#paint3_linear_49_24)" fill-opacity="0.6"/>
<path d="M97.4203 66.4814C97.4203 66.4814 101.065 42.6573 115.622 44.8649C115.622 44.8649 126.016 46.2102 138.906 62.848C138.906 62.848 147.23 73.2768 154.623 75.2545L132.984 86.3617L97.4203 66.4814Z" fill="url(#paint4_linear_49_24)" fill-opacity="0.4"/>
<path d="M131.689 82.0205L96.8262 61.9447C96.8262 61.9447 85.1326 54.6664 78.0728 65.6931C71.0129 76.7313 71.0129 131.232 103.886 131.002C103.886 131.002 116.35 129.933 120.88 127.955C120.88 127.955 120.949 137.292 111.383 145.789C101.276 154.769 80.4874 179.111 84.1323 192.563C87.4437 204.774 99.7237 207.568 118.259 205.66C136.794 203.751 150.626 198.887 160.33 198.887C160.33 198.887 164.93 199.094 168.459 200.75C171.323 202.095 185.454 210.788 189.915 204.073C189.915 204.073 192.502 200.934 184.016 195.242C184.016 195.242 178.612 191.655 178.118 191.437C178.118 191.437 171.403 171.614 173.024 129.542C173.024 129.542 216.717 80.8476 214.946 63.9339C213.176 47.0202 186.558 58.1963 186.558 58.1963L131.689 82.009V82.0205Z" fill="#FFC24A"/>
<path d="M131.689 82.0205L96.8262 61.9447C96.8262 61.9447 85.1326 54.6664 78.0728 65.6931C71.0129 76.7313 71.0129 131.232 103.886 131.002C103.886 131.002 116.35 129.933 120.88 127.955C120.88 127.955 120.949 137.292 111.383 145.789C101.276 154.769 80.4874 179.111 84.1323 192.563C87.4437 204.774 99.7237 207.568 118.259 205.66C136.794 203.751 150.626 198.887 160.33 198.887C160.33 198.887 164.93 199.094 168.459 200.75C171.323 202.095 185.454 210.788 189.915 204.073C189.915 204.073 192.502 200.934 184.016 195.242C184.016 195.242 178.612 191.655 178.118 191.437C178.118 191.437 171.403 171.614 173.024 129.542C173.024 129.542 216.717 80.8476 214.946 63.9339C213.176 47.0202 186.558 58.1963 186.558 58.1963L131.689 82.009V82.0205Z" fill="url(#paint5_linear_49_24)" fill-opacity="0.4"/>
<path d="M131.689 82.0205L96.8262 61.9447C96.8262 61.9447 85.1326 54.6664 78.0728 65.6931C71.0129 76.7313 71.0129 131.232 103.886 131.002C103.886 131.002 116.35 129.933 120.88 127.955C120.88 127.955 120.949 137.292 111.383 145.789C101.276 154.769 80.4874 179.111 84.1323 192.563C87.4437 204.774 99.7237 207.568 118.259 205.66C136.794 203.751 150.626 198.887 160.33 198.887C160.33 198.887 164.93 199.094 168.459 200.75C171.323 202.095 185.454 210.788 189.915 204.073C189.915 204.073 192.502 200.934 184.016 195.242C184.016 195.242 178.612 191.655 178.118 191.437C178.118 191.437 171.403 171.614 173.024 129.542C173.024 129.542 216.717 80.8476 214.946 63.9339C213.176 47.0202 186.558 58.1963 186.558 58.1963L131.689 82.009V82.0205Z" fill="url(#paint6_radial_49_24)" fill-opacity="0.4"/>
<path d="M131.689 82.0205L96.8262 61.9447C96.8262 61.9447 85.1326 54.6664 78.0728 65.6931C71.0129 76.7313 71.0129 131.232 103.886 131.002C103.886 131.002 116.35 129.933 120.88 127.955C120.88 127.955 120.949 137.292 111.383 145.789C101.276 154.769 80.4874 179.111 84.1323 192.563C87.4437 204.774 99.7237 207.568 118.259 205.66C136.794 203.751 150.626 198.887 160.33 198.887C160.33 198.887 164.93 199.094 168.459 200.75C171.323 202.095 185.454 210.788 189.915 204.073C189.915 204.073 192.502 200.934 184.016 195.242C184.016 195.242 178.612 191.655 178.118 191.437C178.118 191.437 171.403 171.614 173.024 129.542C173.024 129.542 216.717 80.8476 214.946 63.9339C213.176 47.0202 186.558 58.1963 186.558 58.1963L131.689 82.009V82.0205Z" fill="url(#paint7_linear_49_24)" fill-opacity="0.4"/>
<path d="M131.689 82.0205L96.8262 61.9447C96.8262 61.9447 85.1326 54.6664 78.0728 65.6931C71.0129 76.7313 71.0129 131.232 103.886 131.002C103.886 131.002 116.35 129.933 120.88 127.955C120.88 127.955 120.949 137.292 111.383 145.789C101.276 154.769 80.4874 179.111 84.1323 192.563C87.4437 204.774 99.7237 207.568 118.259 205.66C136.794 203.751 150.626 198.887 160.33 198.887C160.33 198.887 164.93 199.094 168.459 200.75C171.323 202.095 185.454 210.788 189.915 204.073C189.915 204.073 192.502 200.934 184.016 195.242C184.016 195.242 178.612 191.655 178.118 191.437C178.118 191.437 171.403 171.614 173.024 129.542C173.024 129.542 216.717 80.8476 214.946 63.9339C213.176 47.0202 186.558 58.1963 186.558 58.1963L131.689 82.009V82.0205Z" fill="url(#paint8_radial_49_24)" fill-opacity="0.4"/>
<mask id="mask0_49_24" style="mask-type:luminance" maskUnits="userSpaceOnUse" x="74" y="54" width="141" height="153">
<path d="M131.69 82.0136L96.8273 61.9379C96.8273 61.9379 85.1337 54.6596 78.0739 65.6863C71.014 76.7245 71.014 131.226 103.887 130.996C103.887 130.996 116.351 129.926 120.881 127.949C120.881 127.949 120.95 137.285 111.384 145.782C101.277 154.762 80.4885 179.104 84.1334 192.557C87.4448 204.768 99.7248 207.562 118.26 205.653C136.795 203.744 150.627 198.881 160.331 198.881C160.331 198.881 164.931 199.088 168.461 200.743C171.324 202.089 185.455 210.781 189.916 204.066C189.916 204.066 192.503 200.927 184.018 195.236C184.018 195.236 178.613 191.648 178.119 191.43C178.119 191.43 171.404 171.607 173.025 129.535C173.025 129.535 216.718 80.8408 214.948 63.9271C213.177 47.0133 186.559 58.1895 186.559 58.1895L131.69 82.0021V82.0136Z" fill="white"/>
</mask>
<g mask="url(#mask0_49_24)">
<path d="M215.972 66.9718C215.972 66.9718 203.06 98.2927 168.312 127.153L176.235 180.286L179.466 166.638L173.889 129.901C173.889 129.901 220.663 84.8859 214.949 63.9248" fill="#FFE5B3"/>
<path d="M111.982 206.116C111.982 206.116 130.873 203.85 153.674 196.929C165.057 193.479 173.348 201.631 173.348 201.631C173.348 201.631 178.832 206.771 186.26 207.116L188.904 207.806L183.178 209.128L111.982 206.127V206.116Z" fill="#EA9F0B"/>
<path d="M120.879 127.941C120.879 127.941 124.765 137.22 112.577 149.5C112.577 149.5 90.823 166.793 84.6255 183.328L86.6492 157.123L115.027 137.209L120.879 127.93" fill="#EA9F0B"/>
<path d="M70.7038 87.015C70.7038 87.015 78.925 125.327 100.645 127.235C100.645 127.235 112.488 128.351 120.882 127.937L105.635 135.457L84.789 129.443L71.7271 104.642L71.1407 86.3596" fill="#FFE5B3"/>
</g>
<path d="M46.8772 98.3086C45.39 99.3029 43.9383 100.491 42.5681 101.725C36.4808 107.308 31.1529 114.69 29.8363 124.243C28.2916 133.849 33.4886 144.445 40.7064 150.174C44.5939 153.455 48.8742 155.825 53.2908 157.655L54.1606 157.992C63.9714 160.748 74.9891 164.237 82.5384 172.468C83.6627 173.769 84.6726 175.223 85.4994 176.852C85.5178 175.026 85.2489 173.152 84.7247 171.319C80.7454 158.994 69.4326 151.045 57.6919 146.294L58.5617 146.631C55.0621 144.668 51.8538 142.576 49.1063 140.253C38.4982 132.395 37.9075 118.184 44.5736 103.167C45.2674 101.538 46.0369 99.8801 46.8772 98.3086Z" fill="#E27826"/>
<path d="M153.67 147.17C153.67 147.17 168.203 156.449 163.305 163.026C163.305 163.026 158.786 169.35 146.909 155.667" fill="url(#paint9_linear_49_24)" fill-opacity="0.6"/>
<path d="M153.67 147.17C153.67 147.17 168.203 156.449 163.305 163.026C163.305 163.026 158.786 169.35 146.909 155.667" fill="url(#paint10_linear_49_24)" fill-opacity="0.4"/>
<path d="M153.67 147.17C154.194 147.565 154.732 147.998 155.245 148.425C157.556 150.365 159.769 152.46 161.514 154.837C163.229 157.143 164.501 160.207 162.882 162.429C162.84 162.49 162.796 162.551 162.751 162.613L162.743 162.624C161.139 164.512 157.771 163.874 155.346 162.475C152.809 161.087 150.521 159.13 148.36 157.087C147.858 156.608 147.406 156.169 146.909 155.667C147.336 156.229 147.724 156.728 148.168 157.266C150.074 159.57 152.193 161.773 154.795 163.421C157.233 164.977 161.217 166.372 163.867 163.427L163.859 163.438C163.917 163.361 163.973 163.282 164.026 163.204C166.176 160.143 164.29 156.392 162.385 154.161C160.387 151.769 157.948 149.867 155.401 148.214C154.835 147.851 154.245 147.488 153.67 147.17Z" fill="#E27826"/>
<path d="M205.978 58.7796C203.494 57.5378 200.102 61.2057 200.102 61.2057C200.102 61.2057 196.434 64.5977 197.676 67.0812C198.113 67.9436 199.274 68.507 200.275 68.461C202.287 68.5875 204.425 67.1502 205.23 66.3454C206.035 65.5405 207.472 63.3903 207.346 61.3897C207.404 60.3893 206.829 59.228 205.966 58.7911L205.978 58.7796Z" fill="#E27826"/>
<defs>
<linearGradient id="paint0_linear_49_24" x1="174.126" y1="183.841" x2="193.411" y2="156.242" gradientUnits="userSpaceOnUse">
<stop stop-color="#F18111"/>
<stop offset="0.870283" stop-color="#FFC24A" stop-opacity="0"/>
</linearGradient>
<linearGradient id="paint1_linear_49_24" x1="185.049" y1="183.841" x2="189.373" y2="176.773" gradientUnits="userSpaceOnUse">
<stop offset="0.360113" stop-color="#FFC24A" stop-opacity="0"/>
<stop offset="0.910511" stop-color="#FFF4C7"/>
</linearGradient>
<linearGradient id="paint2_linear_49_24" x1="167.805" y1="153.369" x2="217.223" y2="134.662" gradientUnits="userSpaceOnUse">
<stop offset="0.148414" stop-color="#F18111"/>
<stop offset="0.814286" stop-color="#FFC24A" stop-opacity="0"/>
</linearGradient>
<linearGradient id="paint3_linear_49_24" x1="93.6374" y1="75.7564" x2="117.667" y2="7.67351" gradientUnits="userSpaceOnUse">
<stop offset="0.148414" stop-color="#F18111"/>
<stop offset="0.481754" stop-color="#FFC24A" stop-opacity="0"/>
</linearGradient>
<linearGradient id="paint4_linear_49_24" x1="120.658" y1="83.2302" x2="127.557" y2="44.7115" gradientUnits="userSpaceOnUse">
<stop offset="0.360113" stop-color="#FFC24A" stop-opacity="0"/>
<stop offset="0.910511" stop-color="#FFF4C7"/>
</linearGradient>
<linearGradient id="paint5_linear_49_24" x1="109.739" y1="206.844" x2="124.686" y2="130.956" gradientUnits="userSpaceOnUse">
<stop offset="0.148414" stop-color="#F18111"/>
<stop offset="0.602647" stop-color="#FFC24A" stop-opacity="0"/>
</linearGradient>
<radialGradient id="paint6_radial_49_24" cx="0" cy="0" r="1" gradientUnits="userSpaceOnUse" gradientTransform="translate(83.2929 114.284) rotate(-41.9872) scale(38.6729 38.6729)">
<stop offset="0.148414" stop-color="#FFF4C7"/>
<stop offset="1" stop-color="#FFC24A" stop-opacity="0"/>
</radialGradient>
<linearGradient id="paint7_linear_49_24" x1="152.282" y1="119.458" x2="165.615" y2="50.4502" gradientUnits="userSpaceOnUse">
<stop offset="0.360113" stop-color="#FFC24A" stop-opacity="0"/>
<stop offset="0.910511" stop-color="#FFF4C7"/>
</linearGradient>
<radialGradient id="paint8_radial_49_24" cx="0" cy="0" r="1" gradientUnits="userSpaceOnUse" gradientTransform="translate(174.128 152.228) rotate(89.4884) scale(64.3921 40.4929)">
<stop offset="0.0792889" stop-color="#FFF4C7"/>
<stop offset="0.83386" stop-color="#FFC24A" stop-opacity="0"/>
</radialGradient>
<linearGradient id="paint9_linear_49_24" x1="154.578" y1="166.591" x2="154.239" y2="148.168" gradientUnits="userSpaceOnUse">
<stop offset="0.148414" stop-color="#F18111"/>
<stop offset="0.687048" stop-color="#FFC24A" stop-opacity="0"/>
</linearGradient>
<linearGradient id="paint10_linear_49_24" x1="154.578" y1="163.141" x2="164.836" y2="155.969" gradientUnits="userSpaceOnUse">
<stop offset="0.450076" stop-color="#FFC24A" stop-opacity="0"/>
<stop offset="0.750715" stop-color="#FFF4C7"/>
</linearGradient>
</defs>
</svg>
