<svg width="250" height="250" viewBox="0 0 250 250" fill="none" xmlns="http://www.w3.org/2000/svg">
<path d="M41.0915 93.8577C41.0915 93.8577 42.8266 96.0148 45.0384 93.8577C45.0384 93.8577 44.6789 95.6631 46.2029 95.71C47.7192 95.7569 49.3683 94.9362 49.0869 91.1925C48.829 87.8396 48.2741 85.4167 47.6567 84.3538C47.1096 84.1272 46.625 83.8927 46.1873 83.6348C46.1873 83.6348 46.5312 88.2695 43.8348 89.4184C43.8348 89.4184 38.5983 90.6142 41.0915 93.8577Z" fill="#E27826"/>
<path d="M37.0254 86.22C37.0254 86.22 39.7765 81.554 45.4116 82.5466C44.2705 80.8975 44.0751 78.4746 44.1846 77.357C41.8399 77.3491 36.9785 78.9045 37.0254 86.22Z" fill="#E27826"/>
<path d="M67.6578 71.9937C67.6578 71.9937 79.1782 68.5704 76.091 65.0064C76.091 65.0064 74.9264 63.6465 71.636 64.5062C71.636 64.5062 69.5102 65.1159 70.409 62.8181C70.409 62.8181 81.0696 44.8029 75.3797 39.9103C75.3797 39.9103 72.402 36.5339 67.3452 42.7864C62.2885 49.039 59.6937 53.83 55.5748 54.8226C51.4481 55.823 45.9928 58.0817 46.196 63.8654C46.196 63.8654 46.2663 68.969 52.2453 70.2351L67.6578 71.978V71.9937Z" fill="#FFC24A"/>
<path d="M67.6578 71.9937C67.6578 71.9937 79.1782 68.5704 76.091 65.0064C76.091 65.0064 74.9264 63.6465 71.636 64.5062C71.636 64.5062 69.5102 65.1159 70.409 62.8181C70.409 62.8181 81.0696 44.8029 75.3797 39.9103C75.3797 39.9103 72.402 36.5339 67.3452 42.7864C62.2885 49.039 59.6937 53.83 55.5748 54.8226C51.4481 55.823 45.9928 58.0817 46.196 63.8654C46.196 63.8654 46.2663 68.969 52.2453 70.2351L67.6578 71.978V71.9937Z" fill="url(#paint0_radial_49_41)" fill-opacity="0.6"/>
<path d="M67.6578 71.9937C67.6578 71.9937 79.1782 68.5704 76.091 65.0064C76.091 65.0064 74.9264 63.6465 71.636 64.5062C71.636 64.5062 69.5102 65.1159 70.409 62.8181C70.409 62.8181 81.0696 44.8029 75.3797 39.9103C75.3797 39.9103 72.402 36.5339 67.3452 42.7864C62.2885 49.039 59.6937 53.83 55.5748 54.8226C51.4481 55.823 45.9928 58.0817 46.196 63.8654C46.196 63.8654 46.2663 68.969 52.2453 70.2351L67.6578 71.978V71.9937Z" fill="url(#paint1_linear_49_41)" fill-opacity="0.4"/>
<path d="M67.6578 71.9937C67.6578 71.9937 79.1782 68.5704 76.091 65.0064C76.091 65.0064 74.9264 63.6465 71.636 64.5062C71.636 64.5062 69.5102 65.1159 70.409 62.8181C70.409 62.8181 81.0696 44.8029 75.3797 39.9103C75.3797 39.9103 72.402 36.5339 67.3452 42.7864C62.2885 49.039 59.6937 53.83 55.5748 54.8226C51.4481 55.823 45.9928 58.0817 46.196 63.8654C46.196 63.8654 46.2663 68.969 52.2453 70.2351L67.6578 71.978V71.9937Z" fill="url(#paint2_radial_49_41)" fill-opacity="0.4"/>
<path d="M67.6578 71.9937C67.6578 71.9937 79.1782 68.5704 76.091 65.0064C76.091 65.0064 74.9264 63.6465 71.636 64.5062C71.636 64.5062 69.5102 65.1159 70.409 62.8181C70.409 62.8181 81.0696 44.8029 75.3797 39.9103C75.3797 39.9103 72.402 36.5339 67.3452 42.7864C62.2885 49.039 59.6937 53.83 55.5748 54.8226C51.4481 55.823 45.9928 58.0817 46.196 63.8654C46.196 63.8654 46.2663 68.969 52.2453 70.2351L67.6578 71.978V71.9937Z" fill="url(#paint3_radial_49_41)" fill-opacity="0.4"/>
<path d="M83.6487 169.415L80.0535 166.203L78.1465 167.867L83.6409 180.302L80.8898 199.591C80.8898 199.591 76.2551 202.585 67.8063 198.325C67.8063 198.325 64.68 202.585 57.8257 205.109C57.8257 205.109 56.2938 206.11 56.5986 207.751C56.5986 207.751 57.2004 206.055 58.5916 206.102C58.5916 206.102 57.1457 208.595 58.0445 210.291C58.0445 210.291 58.8417 206.797 60.3892 206.602C60.3892 206.602 58.5447 210.393 59.7405 211.838C59.7405 211.838 61.288 205.101 77.4978 205.008C77.4978 205.008 79.2407 207.102 76.4036 208.298C76.4036 208.298 81.5619 208.829 83.2892 204.007L86.2357 201.709L83.7191 199.81L89.8231 181.56L83.6409 169.407L83.6487 169.415Z" fill="#E27826"/>
<path d="M83.6487 169.415L80.0535 166.203L78.1465 167.867L83.6409 180.302L80.8898 199.591C80.8898 199.591 76.2551 202.585 67.8063 198.325C67.8063 198.325 64.68 202.585 57.8257 205.109C57.8257 205.109 56.2938 206.11 56.5986 207.751C56.5986 207.751 57.2004 206.055 58.5916 206.102C58.5916 206.102 57.1457 208.595 58.0445 210.291C58.0445 210.291 58.8417 206.797 60.3892 206.602C60.3892 206.602 58.5447 210.393 59.7405 211.838C59.7405 211.838 61.288 205.101 77.4978 205.008C77.4978 205.008 79.2407 207.102 76.4036 208.298C76.4036 208.298 81.5619 208.829 83.2892 204.007L86.2357 201.709L83.7191 199.81L89.8231 181.56L83.6409 169.407L83.6487 169.415Z" fill="url(#paint4_linear_49_41)" fill-opacity="0.8"/>
<path d="M70.4686 138.085L67.1782 135.146L65.4353 136.67L70.4686 148.065L67.952 165.744C67.952 165.744 63.7003 168.488 55.9627 164.588C55.9627 164.588 53.0944 168.488 46.8184 170.801C46.8184 170.801 45.4194 171.716 45.6929 173.224C45.6929 173.224 46.24 171.669 47.5218 171.716C47.5218 171.716 46.1931 173.998 47.0216 175.553C47.0216 175.553 47.7562 172.356 49.1709 172.169C49.1709 172.169 47.4827 175.647 48.5769 176.968C48.5769 176.968 49.9915 170.793 64.8492 170.707C64.8492 170.707 66.4514 172.63 63.8409 173.724C63.8409 173.724 68.5616 174.209 70.1482 169.793L72.8446 167.691L70.539 165.948L76.135 149.222L70.4686 138.085Z" fill="#E27826"/>
<path d="M70.4686 138.085L67.1782 135.146L65.4353 136.67L70.4686 148.065L67.952 165.744C67.952 165.744 63.7003 168.488 55.9627 164.588C55.9627 164.588 53.0944 168.488 46.8184 170.801C46.8184 170.801 45.4194 171.716 45.6929 173.224C45.6929 173.224 46.24 171.669 47.5218 171.716C47.5218 171.716 46.1931 173.998 47.0216 175.553C47.0216 175.553 47.7562 172.356 49.1709 172.169C49.1709 172.169 47.4827 175.647 48.5769 176.968C48.5769 176.968 49.9915 170.793 64.8492 170.707C64.8492 170.707 66.4514 172.63 63.8409 173.724C63.8409 173.724 68.5616 174.209 70.1482 169.793L72.8446 167.691L70.539 165.948L76.135 149.222L70.4686 138.085Z" fill="url(#paint5_linear_49_41)" fill-opacity="0.8"/>
<path d="M36.363 126.201C36.0347 140.262 45.4917 151.25 46.6562 152.556C46.6719 152.571 46.6953 152.595 46.7031 152.61C48.9697 154.736 51.0643 155.549 52.9401 154.408C52.9401 154.408 60.5838 160.301 70.8771 164.975C70.8927 164.983 70.9005 164.99 70.9161 164.998C71.4242 165.155 71.8697 165.358 72.2526 165.584C73.8939 166.522 74.5192 167.804 74.5192 167.804C74.6442 168.023 74.7693 168.234 74.9021 168.437H74.91C74.9412 168.5 74.9725 168.554 75.0116 168.609C78.4505 174.401 81.0687 174.979 81.3032 175.018C81.311 175.026 81.3188 175.026 81.3188 175.026C84.4685 175.346 86.1098 174.252 86.1098 174.252C86.7195 174.221 86.9305 171.696 87.1806 171.22C87.8684 169.914 89.3533 170.086 89.3533 170.086C105.274 171.141 128.307 165.225 141.523 143.318C141.523 143.318 149.104 131.594 145.275 130.812C145.275 130.812 97.9897 115.673 85.5315 95.7747C84.4842 94.1022 83.5229 92.4218 82.7022 90.9368C81.1625 88.1466 79.9198 85.2079 78.8881 82.1911C76.8404 76.2277 72.4089 67.4741 58.966 67.4741C58.966 67.4741 52.2523 67.4819 47.4456 70.8036C45.7809 71.9447 44.3506 73.4844 43.5065 75.5634C43.5065 75.5634 41.7324 80.6826 45.2182 83.762H45.226C45.5151 83.9887 45.8434 84.1997 46.1951 84.4029C46.6328 84.6608 47.1174 84.8953 47.6645 85.1219C47.7817 85.1688 47.8989 85.2157 48.024 85.2626C54.7377 87.8262 51.9475 94.0475 51.9475 94.0475C51.9475 94.0475 49.8998 98.4008 43.9442 103.778C38.2935 109.866 36.1598 113.321 35.2766 119.05C34.2606 125.638 36.3708 126.201 36.3708 126.201H36.363Z" fill="#FFC24A"/>
<path d="M36.363 126.201C36.0347 140.262 45.4917 151.25 46.6562 152.556C46.6719 152.571 46.6953 152.595 46.7031 152.61C48.9697 154.736 51.0643 155.549 52.9401 154.408C52.9401 154.408 60.5838 160.301 70.8771 164.975C70.8927 164.983 70.9005 164.99 70.9161 164.998C71.4242 165.155 71.8697 165.358 72.2526 165.584C73.8939 166.522 74.5192 167.804 74.5192 167.804C74.6442 168.023 74.7693 168.234 74.9021 168.437H74.91C74.9412 168.5 74.9725 168.554 75.0116 168.609C78.4505 174.401 81.0687 174.979 81.3032 175.018C81.311 175.026 81.3188 175.026 81.3188 175.026C84.4685 175.346 86.1098 174.252 86.1098 174.252C86.7195 174.221 86.9305 171.696 87.1806 171.22C87.8684 169.914 89.3533 170.086 89.3533 170.086C105.274 171.141 128.307 165.225 141.523 143.318C141.523 143.318 149.104 131.594 145.275 130.812C145.275 130.812 97.9897 115.673 85.5315 95.7747C84.4842 94.1022 83.5229 92.4218 82.7022 90.9368C81.1625 88.1466 79.9198 85.2079 78.8881 82.1911C76.8404 76.2277 72.4089 67.4741 58.966 67.4741C58.966 67.4741 52.2523 67.4819 47.4456 70.8036C45.7809 71.9447 44.3506 73.4844 43.5065 75.5634C43.5065 75.5634 41.7324 80.6826 45.2182 83.762H45.226C45.5151 83.9887 45.8434 84.1997 46.1951 84.4029C46.6328 84.6608 47.1174 84.8953 47.6645 85.1219C47.7817 85.1688 47.8989 85.2157 48.024 85.2626C54.7377 87.8262 51.9475 94.0475 51.9475 94.0475C51.9475 94.0475 49.8998 98.4008 43.9442 103.778C38.2935 109.866 36.1598 113.321 35.2766 119.05C34.2606 125.638 36.3708 126.201 36.3708 126.201H36.363Z" fill="url(#paint6_linear_49_41)" fill-opacity="0.4"/>
<path d="M36.363 126.201C36.0347 140.262 45.4917 151.25 46.6562 152.556C46.6719 152.571 46.6953 152.595 46.7031 152.61C48.9697 154.736 51.0643 155.549 52.9401 154.408C52.9401 154.408 60.5838 160.301 70.8771 164.975C70.8927 164.983 70.9005 164.99 70.9161 164.998C71.4242 165.155 71.8697 165.358 72.2526 165.584C73.8939 166.522 74.5192 167.804 74.5192 167.804C74.6442 168.023 74.7693 168.234 74.9021 168.437H74.91C74.9412 168.5 74.9725 168.554 75.0116 168.609C78.4505 174.401 81.0687 174.979 81.3032 175.018C81.311 175.026 81.3188 175.026 81.3188 175.026C84.4685 175.346 86.1098 174.252 86.1098 174.252C86.7195 174.221 86.9305 171.696 87.1806 171.22C87.8684 169.914 89.3533 170.086 89.3533 170.086C105.274 171.141 128.307 165.225 141.523 143.318C141.523 143.318 149.104 131.594 145.275 130.812C145.275 130.812 97.9897 115.673 85.5315 95.7747C84.4842 94.1022 83.5229 92.4218 82.7022 90.9368C81.1625 88.1466 79.9198 85.2079 78.8881 82.1911C76.8404 76.2277 72.4089 67.4741 58.966 67.4741C58.966 67.4741 52.2523 67.4819 47.4456 70.8036C45.7809 71.9447 44.3506 73.4844 43.5065 75.5634C43.5065 75.5634 41.7324 80.6826 45.2182 83.762H45.226C45.5151 83.9887 45.8434 84.1997 46.1951 84.4029C46.6328 84.6608 47.1174 84.8953 47.6645 85.1219C47.7817 85.1688 47.8989 85.2157 48.024 85.2626C54.7377 87.8262 51.9475 94.0475 51.9475 94.0475C51.9475 94.0475 49.8998 98.4008 43.9442 103.778C38.2935 109.866 36.1598 113.321 35.2766 119.05C34.2606 125.638 36.3708 126.201 36.3708 126.201H36.363Z" fill="url(#paint7_linear_49_41)" fill-opacity="0.4"/>
<path d="M36.363 126.201C36.0347 140.262 45.4917 151.25 46.6562 152.556C46.6719 152.571 46.6953 152.595 46.7031 152.61C48.9697 154.736 51.0643 155.549 52.9401 154.408C52.9401 154.408 60.5838 160.301 70.8771 164.975C70.8927 164.983 70.9005 164.99 70.9161 164.998C71.4242 165.155 71.8697 165.358 72.2526 165.584C73.8939 166.522 74.5192 167.804 74.5192 167.804C74.6442 168.023 74.7693 168.234 74.9021 168.437H74.91C74.9412 168.5 74.9725 168.554 75.0116 168.609C78.4505 174.401 81.0687 174.979 81.3032 175.018C81.311 175.026 81.3188 175.026 81.3188 175.026C84.4685 175.346 86.1098 174.252 86.1098 174.252C86.7195 174.221 86.9305 171.696 87.1806 171.22C87.8684 169.914 89.3533 170.086 89.3533 170.086C105.274 171.141 128.307 165.225 141.523 143.318C141.523 143.318 149.104 131.594 145.275 130.812C145.275 130.812 97.9897 115.673 85.5315 95.7747C84.4842 94.1022 83.5229 92.4218 82.7022 90.9368C81.1625 88.1466 79.9198 85.2079 78.8881 82.1911C76.8404 76.2277 72.4089 67.4741 58.966 67.4741C58.966 67.4741 52.2523 67.4819 47.4456 70.8036C45.7809 71.9447 44.3506 73.4844 43.5065 75.5634C43.5065 75.5634 41.7324 80.6826 45.2182 83.762H45.226C45.5151 83.9887 45.8434 84.1997 46.1951 84.4029C46.6328 84.6608 47.1174 84.8953 47.6645 85.1219C47.7817 85.1688 47.8989 85.2157 48.024 85.2626C54.7377 87.8262 51.9475 94.0475 51.9475 94.0475C51.9475 94.0475 49.8998 98.4008 43.9442 103.778C38.2935 109.866 36.1598 113.321 35.2766 119.05C34.2606 125.638 36.3708 126.201 36.3708 126.201H36.363Z" fill="url(#paint8_radial_49_41)" fill-opacity="0.4"/>
<path d="M36.363 126.201C36.0347 140.262 45.4917 151.25 46.6562 152.556C46.6719 152.571 46.6953 152.595 46.7031 152.61C48.9697 154.736 51.0643 155.549 52.9401 154.408C52.9401 154.408 60.5838 160.301 70.8771 164.975C70.8927 164.983 70.9005 164.99 70.9161 164.998C71.4242 165.155 71.8697 165.358 72.2526 165.584C73.8939 166.522 74.5192 167.804 74.5192 167.804C74.6442 168.023 74.7693 168.234 74.9021 168.437H74.91C74.9412 168.5 74.9725 168.554 75.0116 168.609C78.4505 174.401 81.0687 174.979 81.3032 175.018C81.311 175.026 81.3188 175.026 81.3188 175.026C84.4685 175.346 86.1098 174.252 86.1098 174.252C86.7195 174.221 86.9305 171.696 87.1806 171.22C87.8684 169.914 89.3533 170.086 89.3533 170.086C105.274 171.141 128.307 165.225 141.523 143.318C141.523 143.318 149.104 131.594 145.275 130.812C145.275 130.812 97.9897 115.673 85.5315 95.7747C84.4842 94.1022 83.5229 92.4218 82.7022 90.9368C81.1625 88.1466 79.9198 85.2079 78.8881 82.1911C76.8404 76.2277 72.4089 67.4741 58.966 67.4741C58.966 67.4741 52.2523 67.4819 47.4456 70.8036C45.7809 71.9447 44.3506 73.4844 43.5065 75.5634C43.5065 75.5634 41.7324 80.6826 45.2182 83.762H45.226C45.5151 83.9887 45.8434 84.1997 46.1951 84.4029C46.6328 84.6608 47.1174 84.8953 47.6645 85.1219C47.7817 85.1688 47.8989 85.2157 48.024 85.2626C54.7377 87.8262 51.9475 94.0475 51.9475 94.0475C51.9475 94.0475 49.8998 98.4008 43.9442 103.778C38.2935 109.866 36.1598 113.321 35.2766 119.05C34.2606 125.638 36.3708 126.201 36.3708 126.201H36.363Z" fill="url(#paint9_radial_49_41)" fill-opacity="0.4"/>
<path d="M36.363 126.201C36.0347 140.262 45.4917 151.25 46.6562 152.556C46.6719 152.571 46.6953 152.595 46.7031 152.61C48.9697 154.736 51.0643 155.549 52.9401 154.408C52.9401 154.408 60.5838 160.301 70.8771 164.975C70.8927 164.983 70.9005 164.99 70.9161 164.998C71.4242 165.155 71.8697 165.358 72.2526 165.584C73.8939 166.522 74.5192 167.804 74.5192 167.804C74.6442 168.023 74.7693 168.234 74.9021 168.437H74.91C74.9412 168.5 74.9725 168.554 75.0116 168.609C78.4505 174.401 81.0687 174.979 81.3032 175.018C81.311 175.026 81.3188 175.026 81.3188 175.026C84.4685 175.346 86.1098 174.252 86.1098 174.252C86.7195 174.221 86.9305 171.696 87.1806 171.22C87.8684 169.914 89.3533 170.086 89.3533 170.086C105.274 171.141 128.307 165.225 141.523 143.318C141.523 143.318 149.104 131.594 145.275 130.812C145.275 130.812 97.9897 115.673 85.5315 95.7747C84.4842 94.1022 83.5229 92.4218 82.7022 90.9368C81.1625 88.1466 79.9198 85.2079 78.8881 82.1911C76.8404 76.2277 72.4089 67.4741 58.966 67.4741C58.966 67.4741 52.2523 67.4819 47.4456 70.8036C45.7809 71.9447 44.3506 73.4844 43.5065 75.5634C43.5065 75.5634 41.7324 80.6826 45.2182 83.762H45.226C45.5151 83.9887 45.8434 84.1997 46.1951 84.4029C46.6328 84.6608 47.1174 84.8953 47.6645 85.1219C47.7817 85.1688 47.8989 85.2157 48.024 85.2626C54.7377 87.8262 51.9475 94.0475 51.9475 94.0475C51.9475 94.0475 49.8998 98.4008 43.9442 103.778C38.2935 109.866 36.1598 113.321 35.2766 119.05C34.2606 125.638 36.3708 126.201 36.3708 126.201H36.363Z" fill="url(#paint10_radial_49_41)" fill-opacity="0.4"/>
<path d="M36.363 126.201C36.0347 140.262 45.4917 151.25 46.6562 152.556C46.6719 152.571 46.6953 152.595 46.7031 152.61C48.9697 154.736 51.0643 155.549 52.9401 154.408C52.9401 154.408 60.5838 160.301 70.8771 164.975C70.8927 164.983 70.9005 164.99 70.9161 164.998C71.4242 165.155 71.8697 165.358 72.2526 165.584C73.8939 166.522 74.5192 167.804 74.5192 167.804C74.6442 168.023 74.7693 168.234 74.9021 168.437H74.91C74.9412 168.5 74.9725 168.554 75.0116 168.609C78.4505 174.401 81.0687 174.979 81.3032 175.018C81.311 175.026 81.3188 175.026 81.3188 175.026C84.4685 175.346 86.1098 174.252 86.1098 174.252C86.7195 174.221 86.9305 171.696 87.1806 171.22C87.8684 169.914 89.3533 170.086 89.3533 170.086C105.274 171.141 128.307 165.225 141.523 143.318C141.523 143.318 149.104 131.594 145.275 130.812C145.275 130.812 97.9897 115.673 85.5315 95.7747C84.4842 94.1022 83.5229 92.4218 82.7022 90.9368C81.1625 88.1466 79.9198 85.2079 78.8881 82.1911C76.8404 76.2277 72.4089 67.4741 58.966 67.4741C58.966 67.4741 52.2523 67.4819 47.4456 70.8036C45.7809 71.9447 44.3506 73.4844 43.5065 75.5634C43.5065 75.5634 41.7324 80.6826 45.2182 83.762H45.226C45.5151 83.9887 45.8434 84.1997 46.1951 84.4029C46.6328 84.6608 47.1174 84.8953 47.6645 85.1219C47.7817 85.1688 47.8989 85.2157 48.024 85.2626C54.7377 87.8262 51.9475 94.0475 51.9475 94.0475C51.9475 94.0475 49.8998 98.4008 43.9442 103.778C38.2935 109.866 36.1598 113.321 35.2766 119.05C34.2606 125.638 36.3708 126.201 36.3708 126.201H36.363Z" fill="url(#paint11_radial_49_41)" fill-opacity="0.4"/>
<path d="M36.363 126.201C36.0347 140.262 45.4917 151.25 46.6562 152.556C46.6719 152.571 46.6953 152.595 46.7031 152.61C48.9697 154.736 51.0643 155.549 52.9401 154.408C52.9401 154.408 60.5838 160.301 70.8771 164.975C70.8927 164.983 70.9005 164.99 70.9161 164.998C71.4242 165.155 71.8697 165.358 72.2526 165.584C73.8939 166.522 74.5192 167.804 74.5192 167.804C74.6442 168.023 74.7693 168.234 74.9021 168.437H74.91C74.9412 168.5 74.9725 168.554 75.0116 168.609C78.4505 174.401 81.0687 174.979 81.3032 175.018C81.311 175.026 81.3188 175.026 81.3188 175.026C84.4685 175.346 86.1098 174.252 86.1098 174.252C86.7195 174.221 86.9305 171.696 87.1806 171.22C87.8684 169.914 89.3533 170.086 89.3533 170.086C105.274 171.141 128.307 165.225 141.523 143.318C141.523 143.318 149.104 131.594 145.275 130.812C145.275 130.812 97.9897 115.673 85.5315 95.7747C84.4842 94.1022 83.5229 92.4218 82.7022 90.9368C81.1625 88.1466 79.9198 85.2079 78.8881 82.1911C76.8404 76.2277 72.4089 67.4741 58.966 67.4741C58.966 67.4741 52.2523 67.4819 47.4456 70.8036C45.7809 71.9447 44.3506 73.4844 43.5065 75.5634C43.5065 75.5634 41.7324 80.6826 45.2182 83.762H45.226C45.5151 83.9887 45.8434 84.1997 46.1951 84.4029C46.6328 84.6608 47.1174 84.8953 47.6645 85.1219C47.7817 85.1688 47.8989 85.2157 48.024 85.2626C54.7377 87.8262 51.9475 94.0475 51.9475 94.0475C51.9475 94.0475 49.8998 98.4008 43.9442 103.778C38.2935 109.866 36.1598 113.321 35.2766 119.05C34.2606 125.638 36.3708 126.201 36.3708 126.201H36.363Z" fill="url(#paint12_radial_49_41)" fill-opacity="0.4"/>
<path d="M36.363 126.201C36.0347 140.262 45.4917 151.25 46.6562 152.556C46.6719 152.571 46.6953 152.595 46.7031 152.61C48.9697 154.736 51.0643 155.549 52.9401 154.408C52.9401 154.408 60.5838 160.301 70.8771 164.975C70.8927 164.983 70.9005 164.99 70.9161 164.998C71.4242 165.155 71.8697 165.358 72.2526 165.584C73.8939 166.522 74.5192 167.804 74.5192 167.804C74.6442 168.023 74.7693 168.234 74.9021 168.437H74.91C74.9412 168.5 74.9725 168.554 75.0116 168.609C78.4505 174.401 81.0687 174.979 81.3032 175.018C81.311 175.026 81.3188 175.026 81.3188 175.026C84.4685 175.346 86.1098 174.252 86.1098 174.252C86.7195 174.221 86.9305 171.696 87.1806 171.22C87.8684 169.914 89.3533 170.086 89.3533 170.086C105.274 171.141 128.307 165.225 141.523 143.318C141.523 143.318 149.104 131.594 145.275 130.812C145.275 130.812 97.9897 115.673 85.5315 95.7747C84.4842 94.1022 83.5229 92.4218 82.7022 90.9368C81.1625 88.1466 79.9198 85.2079 78.8881 82.1911C76.8404 76.2277 72.4089 67.4741 58.966 67.4741C58.966 67.4741 52.2523 67.4819 47.4456 70.8036C45.7809 71.9447 44.3506 73.4844 43.5065 75.5634C43.5065 75.5634 41.7324 80.6826 45.2182 83.762H45.226C45.5151 83.9887 45.8434 84.1997 46.1951 84.4029C46.6328 84.6608 47.1174 84.8953 47.6645 85.1219C47.7817 85.1688 47.8989 85.2157 48.024 85.2626C54.7377 87.8262 51.9475 94.0475 51.9475 94.0475C51.9475 94.0475 49.8998 98.4008 43.9442 103.778C38.2935 109.866 36.1598 113.321 35.2766 119.05C34.2606 125.638 36.3708 126.201 36.3708 126.201H36.363Z" fill="url(#paint13_linear_49_41)" fill-opacity="0.4"/>
<path d="M36.363 126.201C36.0347 140.262 45.4917 151.25 46.6562 152.556C46.6719 152.571 46.6953 152.595 46.7031 152.61C48.9697 154.736 51.0643 155.549 52.9401 154.408C52.9401 154.408 60.5838 160.301 70.8771 164.975C70.8927 164.983 70.9005 164.99 70.9161 164.998C71.4242 165.155 71.8697 165.358 72.2526 165.584C73.8939 166.522 74.5192 167.804 74.5192 167.804C74.6442 168.023 74.7693 168.234 74.9021 168.437H74.91C74.9412 168.5 74.9725 168.554 75.0116 168.609C78.4505 174.401 81.0687 174.979 81.3032 175.018C81.311 175.026 81.3188 175.026 81.3188 175.026C84.4685 175.346 86.1098 174.252 86.1098 174.252C86.7195 174.221 86.9305 171.696 87.1806 171.22C87.8684 169.914 89.3533 170.086 89.3533 170.086C105.274 171.141 128.307 165.225 141.523 143.318C141.523 143.318 149.104 131.594 145.275 130.812C145.275 130.812 97.9897 115.673 85.5315 95.7747C84.4842 94.1022 83.5229 92.4218 82.7022 90.9368C81.1625 88.1466 79.9198 85.2079 78.8881 82.1911C76.8404 76.2277 72.4089 67.4741 58.966 67.4741C58.966 67.4741 52.2523 67.4819 47.4456 70.8036C45.7809 71.9447 44.3506 73.4844 43.5065 75.5634C43.5065 75.5634 41.7324 80.6826 45.2182 83.762H45.226C45.5151 83.9887 45.8434 84.1997 46.1951 84.4029C46.6328 84.6608 47.1174 84.8953 47.6645 85.1219C47.7817 85.1688 47.8989 85.2157 48.024 85.2626C54.7377 87.8262 51.9475 94.0475 51.9475 94.0475C51.9475 94.0475 49.8998 98.4008 43.9442 103.778C38.2935 109.866 36.1598 113.321 35.2766 119.05C34.2606 125.638 36.3708 126.201 36.3708 126.201H36.363Z" fill="url(#paint14_linear_49_41)" fill-opacity="0.4"/>
<mask id="mask0_49_41" style="mask-type:luminance" maskUnits="userSpaceOnUse" x="35" y="67" width="112" height="109">
<path d="M36.363 126.201C36.0347 140.262 45.4917 151.25 46.6562 152.556C46.6719 152.571 46.6953 152.595 46.7031 152.61C48.9697 154.736 51.0643 155.549 52.9401 154.408C52.9401 154.408 60.5838 160.301 70.8771 164.975C70.8927 164.983 70.9005 164.99 70.9161 164.998C71.4242 165.155 71.8697 165.358 72.2526 165.584C73.8939 166.522 74.5192 167.804 74.5192 167.804C74.6442 168.023 74.7693 168.234 74.9021 168.437H74.91C74.9412 168.5 74.9725 168.554 75.0116 168.609C78.4505 174.401 81.0687 174.979 81.3032 175.018C81.311 175.026 81.3188 175.026 81.3188 175.026C84.4685 175.346 86.1098 174.252 86.1098 174.252C86.7195 174.221 86.9305 171.696 87.1806 171.22C87.8684 169.914 89.3533 170.086 89.3533 170.086C105.274 171.141 128.307 165.225 141.523 143.318C141.523 143.318 149.104 131.594 145.275 130.812C145.275 130.812 97.9897 115.673 85.5315 95.7747C84.4842 94.1022 83.5229 92.4218 82.7022 90.9368C81.1625 88.1466 79.9198 85.2079 78.8881 82.1911C76.8404 76.2277 72.4089 67.4741 58.966 67.4741C58.966 67.4741 52.2523 67.4819 47.4456 70.8036C45.7809 71.9447 44.3506 73.4844 43.5065 75.5634C43.5065 75.5634 41.7324 80.6826 45.2182 83.762H45.226C45.5151 83.9887 45.8434 84.1997 46.1951 84.4029C46.6328 84.6608 47.1174 84.8953 47.6645 85.1219C47.7817 85.1688 47.8989 85.2157 48.024 85.2626C54.7377 87.8262 51.9475 94.0475 51.9475 94.0475C51.9475 94.0475 49.8998 98.4008 43.9442 103.778C38.2935 109.866 36.1598 113.321 35.2766 119.05C34.2606 125.638 36.3708 126.201 36.3708 126.201H36.363Z" fill="white"/>
</mask>
<g mask="url(#mask0_49_41)">
<path d="M57.3422 67.5794C57.3422 67.5794 72.8563 68.658 77.2487 83.6407C81.3051 97.4822 89.535 104.243 98.4449 108.479C98.4449 108.479 85.4083 93.3321 81.4145 81.3585C81.4145 81.3585 74.7712 64.672 57.3422 67.5794Z" fill="#FFE5B3"/>
<path d="M139.055 147.081C139.055 147.081 120.031 168.457 93.1533 170.207C93.1533 170.207 127.878 171.833 139.055 147.081Z" fill="#E27826"/>
</g>
<path d="M70.9174 164.999C71.3551 165.194 71.8084 165.397 72.2539 165.585C71.8709 165.358 71.4254 165.155 70.9174 164.999Z" fill="#A3A3A3"/>
<path d="M145.407 131.852C145.407 131.852 150.464 120.41 140.351 107.373C130.237 94.3368 125.227 57.6577 163.235 49.9046C200.883 42.2218 222.298 80.7687 212.724 110.57C212.724 110.57 202.212 77.2126 167.76 95.173C167.76 95.173 189.714 89.452 187.847 114.861C187.847 114.861 177.733 100.761 164.431 105.412C164.431 105.412 169.886 106.342 169.222 114.189C169.222 114.189 164.829 109.265 158.843 110.726C158.843 110.726 163.368 125.959 145.407 131.844V131.852Z" fill="#FFC24A"/>
<path d="M145.407 131.852C145.407 131.852 150.464 120.41 140.351 107.373C130.237 94.3368 125.227 57.6577 163.235 49.9046C200.883 42.2218 222.298 80.7687 212.724 110.57C212.724 110.57 202.212 77.2126 167.76 95.173C167.76 95.173 189.714 89.452 187.847 114.861C187.847 114.861 177.733 100.761 164.431 105.412C164.431 105.412 169.886 106.342 169.222 114.189C169.222 114.189 164.829 109.265 158.843 110.726C158.843 110.726 163.368 125.959 145.407 131.844V131.852Z" fill="url(#paint15_linear_49_41)" fill-opacity="0.4"/>
<path d="M145.407 131.852C145.407 131.852 150.464 120.41 140.351 107.373C130.237 94.3368 125.227 57.6577 163.235 49.9046C200.883 42.2218 222.298 80.7687 212.724 110.57C212.724 110.57 202.212 77.2126 167.76 95.173C167.76 95.173 189.714 89.452 187.847 114.861C187.847 114.861 177.733 100.761 164.431 105.412C164.431 105.412 169.886 106.342 169.222 114.189C169.222 114.189 164.829 109.265 158.843 110.726C158.843 110.726 163.368 125.959 145.407 131.844V131.852Z" fill="url(#paint16_radial_49_41)" fill-opacity="0.4"/>
<path d="M145.407 131.852C145.407 131.852 150.464 120.41 140.351 107.373C130.237 94.3368 125.227 57.6577 163.235 49.9046C200.883 42.2218 222.298 80.7687 212.724 110.57C212.724 110.57 202.212 77.2126 167.76 95.173C167.76 95.173 189.714 89.452 187.847 114.861C187.847 114.861 177.733 100.761 164.431 105.412C164.431 105.412 169.886 106.342 169.222 114.189C169.222 114.189 164.829 109.265 158.843 110.726C158.843 110.726 163.368 125.959 145.407 131.844V131.852Z" fill="url(#paint17_linear_49_41)" fill-opacity="0.4"/>
<path d="M145.407 131.852C145.407 131.852 150.464 120.41 140.351 107.373C130.237 94.3368 125.227 57.6577 163.235 49.9046C200.883 42.2218 222.298 80.7687 212.724 110.57C212.724 110.57 202.212 77.2126 167.76 95.173C167.76 95.173 189.714 89.452 187.847 114.861C187.847 114.861 177.733 100.761 164.431 105.412C164.431 105.412 169.886 106.342 169.222 114.189C169.222 114.189 164.829 109.265 158.843 110.726C158.843 110.726 163.368 125.959 145.407 131.844V131.852Z" fill="url(#paint18_linear_49_41)" fill-opacity="0.4"/>
<path d="M145.407 131.852C145.407 131.852 150.464 120.41 140.351 107.373C130.237 94.3368 125.227 57.6577 163.235 49.9046C200.883 42.2218 222.298 80.7687 212.724 110.57C212.724 110.57 202.212 77.2126 167.76 95.173C167.76 95.173 189.714 89.452 187.847 114.861C187.847 114.861 177.733 100.761 164.431 105.412C164.431 105.412 169.886 106.342 169.222 114.189C169.222 114.189 164.829 109.265 158.843 110.726C158.843 110.726 163.368 125.959 145.407 131.844V131.852Z" fill="url(#paint19_linear_49_41)" fill-opacity="0.4"/>
<mask id="mask1_49_41" style="mask-type:luminance" maskUnits="userSpaceOnUse" x="133" y="48" width="82" height="84">
<path d="M145.407 131.852C145.407 131.852 150.464 120.41 140.351 107.373C130.237 94.3368 125.227 57.6577 163.235 49.9046C200.883 42.2218 222.298 80.7687 212.724 110.57C212.724 110.57 202.212 77.2126 167.76 95.173C167.76 95.173 189.714 89.452 187.847 114.861C187.847 114.861 177.733 100.761 164.431 105.412C164.431 105.412 169.886 106.342 169.222 114.189C169.222 114.189 164.829 109.265 158.843 110.726C158.843 110.726 163.368 125.959 145.407 131.844V131.852Z" fill="white"/>
</mask>
<g mask="url(#mask1_49_41)">
<path d="M212.723 110.572C212.723 110.572 219.82 66.3274 182.602 50.0942C182.602 50.0942 204.454 50.4928 213.896 80.2941C213.896 80.2941 220.68 99.3096 212.567 111.424" fill="#FFE5B3"/>
<path d="M187.847 114.861L190.286 110.828C190.286 110.828 189.418 91.9376 174.053 94.6653C174.053 94.6653 187.425 96.3301 187.847 114.869" fill="#E27826"/>
<path d="M169.221 114.188C169.221 114.188 168.682 107.771 164.876 105.528L169.495 106.231C169.495 106.231 171.222 111.476 169.221 114.188Z" fill="#E27826"/>
</g>
<path d="M119.75 125.073C119.75 125.073 130.723 143.83 120.555 153.522C120.555 153.522 117.765 144.479 98.0692 142.611C78.3815 140.751 66.9393 128.777 67.7365 114.139" fill="#FFC24A"/>
<path d="M119.75 125.073C119.75 125.073 130.723 143.83 120.555 153.522C120.555 153.522 117.765 144.479 98.0692 142.611C78.3815 140.751 66.9393 128.777 67.7365 114.139" fill="url(#paint20_linear_49_41)" fill-opacity="0.4"/>
<path d="M119.75 125.073C119.75 125.073 130.723 143.83 120.555 153.522C120.555 153.522 117.765 144.479 98.0692 142.611C78.3815 140.751 66.9393 128.777 67.7365 114.139" fill="url(#paint21_linear_49_41)" fill-opacity="0.4"/>
<path d="M119.75 125.073C119.75 125.073 119.75 125.073 119.75 125.073C120.64 126.518 121.43 128.057 122.149 129.635C125.486 137.034 127.928 147.338 121.113 154.108L120.188 155.014L119.782 153.76C116.888 148.061 109.534 145.495 102.991 144.264C101.345 143.961 99.6801 143.735 97.9786 143.567C84.3933 142.636 69.2042 133.807 67.7877 119.298C67.5895 117.58 67.5784 115.848 67.7365 114.139C67.7075 115.855 67.8426 117.568 68.152 119.243C70.5814 133.278 85.0307 140.748 98.1594 141.656C99.9118 141.816 101.633 142.043 103.342 142.358C110.146 143.741 117.886 146.071 121.328 153.283L119.997 152.936C126.211 147.289 124.67 137.391 121.809 129.776C121.202 128.165 120.527 126.581 119.75 125.073Z" fill="#E27826"/>
<path d="M69.7377 95.7136C69.7377 95.7136 69.7377 95.7136 69.7377 95.7136C69.9229 96.5491 70.0471 97.4136 70.1128 98.2814C70.1885 99.3779 70.1889 100.496 69.9081 101.621C69.6734 102.696 68.8245 104.052 67.3986 104.191L67.4339 104.187C65.9023 104.533 63.858 103.545 63.5046 101.818L64.9405 101.794C64.536 103.848 63.9766 105.841 63.1314 107.795C62.7009 108.766 62.2009 109.733 61.4796 110.63C60.7824 111.487 59.6485 112.508 58.0863 112.381C57.8725 112.362 57.6718 112.324 57.4637 112.259C55.9765 111.76 55.4391 110.417 55.1414 109.423C54.8478 108.378 54.7569 107.358 54.7231 106.354C54.6721 104.349 54.8656 102.4 55.2074 100.454L56.671 100.917C55.9795 102.133 55.1576 103.188 54.0429 104.049C52.9759 104.908 51.2958 105.405 49.9539 104.775L49.8846 104.742C48.4872 103.559 48.7102 101.862 49.0674 100.566C49.3162 99.7218 49.6896 98.9371 50.1203 98.1834C49.806 98.9922 49.5532 99.8145 49.427 100.646C49.2023 101.92 49.4547 103.458 50.3248 103.989L50.2554 103.957C52.488 104.637 54.2923 102.228 55.2775 100.233L57.5618 95.6347L56.7411 100.696C56.5449 102.525 56.4528 104.447 56.5633 106.269C56.6458 108.003 57.1436 110.198 58.0441 110.409C58.1095 110.429 58.1753 110.443 58.2547 110.45C59.3665 110.611 60.6946 108.711 61.483 107.035C62.3217 105.289 62.9821 103.366 63.4991 101.481L64.2004 98.4055L64.935 101.458C65.0939 102.535 66.1094 103.141 67.2583 103.075L67.2936 103.071C69.0901 103.059 69.628 100.293 69.7444 98.284C69.7952 97.4329 69.7949 96.5665 69.7377 95.7136Z" fill="#E27826"/>
<path d="M52.9319 154.419C53.3068 154.064 53.4761 153.571 53.5786 153.093C53.855 151.596 53.5014 150.084 53.0766 148.629L52.4455 146.007L54.1819 148.104C56.2003 150.118 58.7214 152.105 61.2471 152.336C61.9893 152.391 62.6973 152.258 63.3614 151.925L63.4936 151.867C64.8145 151.313 64.9993 148.32 64.4812 146.047L64.1179 145.021L65.2092 145.403C66.1966 145.894 67.335 146.295 68.4886 146.387C68.9846 146.422 69.4934 146.393 69.9858 146.235C69.548 146.512 69.0305 146.673 68.5053 146.755C67.2646 146.934 66.0194 146.766 64.7895 146.396L65.5176 145.752C65.9678 146.972 66.3122 148.249 66.3019 149.658C66.2543 151.018 65.9591 152.723 64.1135 153.64L64.2458 153.582C63.3049 154.116 62.1739 154.354 61.1072 154.27C57.4756 153.845 55.0828 151.373 53.1982 148.885L54.3035 148.36C54.5222 149.963 54.5925 151.676 53.9282 153.209C53.7039 153.693 53.3902 154.167 52.9319 154.419Z" fill="#E27826"/>
<path d="M53.2761 125.448C53.1391 125.855 52.9648 126.266 52.7773 126.663C51.7519 128.69 49.9921 131.558 46.6481 130.911C44.7336 130.44 43.6736 128.636 43.2199 127.132C42.7647 125.631 42.6458 124.16 42.7357 122.624L44.3368 123.112C42.7809 125.231 40.3059 127.114 37.618 126.651C37.1731 126.568 36.7515 126.417 36.363 126.214C36.794 126.295 37.2231 126.319 37.6386 126.284C40.0448 126.051 41.7279 124.063 42.8638 122.204L44.6479 119.416L44.4649 122.692C44.5149 123.971 44.6986 125.352 45.0704 126.555C45.4621 127.82 46.1097 128.905 47.1333 129.271C48.8096 129.973 50.9693 128.218 52.4684 126.462C52.7478 126.138 53.0246 125.795 53.2761 125.448Z" fill="#E27826"/>
<path d="M70.8625 164.976C70.8625 164.976 70.9016 164.991 70.9172 164.999C70.9016 164.991 70.8938 164.984 70.8782 164.976H70.8625Z" fill="#A3A3A3"/>
<path d="M74.901 168.437C74.9323 168.499 74.9714 168.554 75.0104 168.608C74.9714 168.554 74.9401 168.499 74.9088 168.437H74.901Z" fill="#A3A3A3"/>
<defs>
<radialGradient id="paint0_radial_49_41" cx="0" cy="0" r="1" gradientUnits="userSpaceOnUse" gradientTransform="translate(60.2407 74.5675) rotate(-88.5312) scale(30.4912 40.0951)">
<stop offset="0.288313" stop-color="#F18111"/>
<stop offset="0.615789" stop-color="#FFC24A" stop-opacity="0"/>
</radialGradient>
<linearGradient id="paint1_linear_49_41" x1="78.6076" y1="60.4992" x2="74.9091" y2="39.2745" gradientUnits="userSpaceOnUse">
<stop offset="0.515555" stop-color="#FFC24A" stop-opacity="0"/>
<stop offset="0.917186" stop-color="#FFF4C7"/>
</linearGradient>
<radialGradient id="paint2_radial_49_41" cx="0" cy="0" r="1" gradientUnits="userSpaceOnUse" gradientTransform="translate(46.1725 56.9822) rotate(-17.5256) scale(23.359 15.3818)">
<stop offset="0.175147" stop-color="#FFF4C7"/>
<stop offset="0.847097" stop-color="#FFC24A" stop-opacity="0"/>
</radialGradient>
<radialGradient id="paint3_radial_49_41" cx="0" cy="0" r="1" gradientUnits="userSpaceOnUse" gradientTransform="translate(62.5854 49.1665) rotate(-50.6307) scale(19.7143 7.35234)">
<stop offset="0.175147" stop-color="#FFF4C7"/>
<stop offset="0.717433" stop-color="#FFC24A" stop-opacity="0"/>
</radialGradient>
<linearGradient id="paint4_linear_49_41" x1="86.0324" y1="189.064" x2="84.4693" y2="176.168" gradientUnits="userSpaceOnUse">
<stop stop-color="#E27826" stop-opacity="0"/>
<stop offset="1" stop-color="#C86920"/>
</linearGradient>
<linearGradient id="paint5_linear_49_41" x1="65.3182" y1="171.874" x2="68.8349" y2="164.449" gradientUnits="userSpaceOnUse">
<stop stop-color="#E27826" stop-opacity="0"/>
<stop offset="1" stop-color="#C86920"/>
</linearGradient>
<linearGradient id="paint6_linear_49_41" x1="142.305" y1="153.892" x2="104.789" y2="94.4932" gradientUnits="userSpaceOnUse">
<stop offset="0.148414" stop-color="#F18111"/>
<stop offset="0.388438" stop-color="#FFC24A" stop-opacity="0"/>
</linearGradient>
<linearGradient id="paint7_linear_49_41" x1="78.6067" y1="176.167" x2="102.445" y2="108.171" gradientUnits="userSpaceOnUse">
<stop offset="0.148414" stop-color="#F18111"/>
<stop offset="0.388438" stop-color="#FFC24A" stop-opacity="0"/>
</linearGradient>
<radialGradient id="paint8_radial_49_41" cx="0" cy="0" r="1" gradientUnits="userSpaceOnUse" gradientTransform="translate(117.294 119.503) rotate(25.622) scale(42.4734 5.03781)">
<stop offset="0.170844" stop-color="#FFF4C7"/>
<stop offset="1" stop-color="#FFC24A" stop-opacity="0"/>
</radialGradient>
<radialGradient id="paint9_radial_49_41" cx="0" cy="0" r="1" gradientUnits="userSpaceOnUse" gradientTransform="translate(39.919 141.387) rotate(53.2858) scale(28.7618 9.46545)">
<stop offset="0.170844" stop-color="#FFF4C7"/>
<stop offset="1" stop-color="#FFC24A" stop-opacity="0"/>
</radialGradient>
<radialGradient id="paint10_radial_49_41" cx="0" cy="0" r="1" gradientUnits="userSpaceOnUse" gradientTransform="translate(36.402 113.251) rotate(105.461) scale(19.0565 6.27145)">
<stop offset="0.170844" stop-color="#FFF4C7"/>
<stop offset="1" stop-color="#FFC24A" stop-opacity="0"/>
</radialGradient>
<radialGradient id="paint11_radial_49_41" cx="0" cy="0" r="1" gradientUnits="userSpaceOnUse" gradientTransform="translate(114.168 146.858) rotate(-79.5085) scale(21.4611 43.1796)">
<stop offset="0.148414" stop-color="#F18111"/>
<stop offset="0.542189" stop-color="#FFC24A" stop-opacity="0"/>
</radialGradient>
<radialGradient id="paint12_radial_49_41" cx="0" cy="0" r="1" gradientUnits="userSpaceOnUse" gradientTransform="translate(93.0657 140.997) rotate(-68.8059) scale(20.5376 54.0043)">
<stop offset="0.148414" stop-color="#F18111"/>
<stop offset="0.542189" stop-color="#FFC24A" stop-opacity="0"/>
</radialGradient>
<linearGradient id="paint13_linear_49_41" x1="87.9855" y1="118.331" x2="33.621" y2="118.554" gradientUnits="userSpaceOnUse">
<stop offset="0.43508" stop-color="#FFC24A" stop-opacity="0"/>
<stop offset="0.917186" stop-color="#FFF4C7"/>
</linearGradient>
<linearGradient id="paint14_linear_49_41" x1="65.32" y1="95.2748" x2="52.519" y2="68.0393" gradientUnits="userSpaceOnUse">
<stop offset="0.43508" stop-color="#FFC24A" stop-opacity="0"/>
<stop offset="0.917186" stop-color="#FFF4C7"/>
</linearGradient>
<linearGradient id="paint15_linear_49_41" x1="191.543" y1="111.298" x2="159.89" y2="23.7622" gradientUnits="userSpaceOnUse">
<stop offset="0.148414" stop-color="#F18111"/>
<stop offset="0.422654" stop-color="#FFC24A" stop-opacity="0"/>
</linearGradient>
<radialGradient id="paint16_radial_49_41" cx="0" cy="0" r="1" gradientUnits="userSpaceOnUse" gradientTransform="translate(148.948 125.366) rotate(-82.0672) scale(48.1363 59.0298)">
<stop offset="0.148414" stop-color="#F18111"/>
<stop offset="0.737716" stop-color="#FFC24A" stop-opacity="0"/>
</radialGradient>
<linearGradient id="paint17_linear_49_41" x1="182.555" y1="98.402" x2="205.03" y2="61.2761" gradientUnits="userSpaceOnUse">
<stop offset="0.515555" stop-color="#FFC24A" stop-opacity="0"/>
<stop offset="0.917186" stop-color="#FFF4C7"/>
</linearGradient>
<linearGradient id="paint18_linear_49_41" x1="164.749" y1="95.9206" x2="152.761" y2="51.1025" gradientUnits="userSpaceOnUse">
<stop offset="0.515555" stop-color="#FFC24A" stop-opacity="0"/>
<stop offset="0.917186" stop-color="#FFF4C7"/>
</linearGradient>
<linearGradient id="paint19_linear_49_41" x1="164.749" y1="95.9206" x2="131.822" y2="70.7949" gradientUnits="userSpaceOnUse">
<stop offset="0.515555" stop-color="#FFC24A" stop-opacity="0"/>
<stop offset="0.917186" stop-color="#FFF4C7"/>
</linearGradient>
<linearGradient id="paint20_linear_49_41" x1="97.3657" y1="143.344" x2="105.572" y2="118.333" gradientUnits="userSpaceOnUse">
<stop offset="0.148414" stop-color="#F18111"/>
<stop offset="0.692406" stop-color="#FFC24A" stop-opacity="0"/>
</linearGradient>
<linearGradient id="paint21_linear_49_41" x1="107.917" y1="136.31" x2="125.893" y2="140.999" gradientUnits="userSpaceOnUse">
<stop offset="0.55932" stop-color="#FFC24A" stop-opacity="0"/>
<stop offset="0.917186" stop-color="#FFF4C7"/>
</linearGradient>
</defs>
</svg>
