<svg width="250" height="250" viewBox="0 0 250 250" fill="none" xmlns="http://www.w3.org/2000/svg">
<path d="M194.381 74.687C194.381 74.687 210.808 75.3518 216.542 79.0664C219.866 81.2181 223.048 83.451 225.494 86.6176C228.798 90.8905 230.726 96.1123 231.665 101.395C232.578 106.556 232.654 111.905 231.304 116.995C229.909 122.252 226.793 127.022 223.073 130.935C219.663 134.528 215.482 137.664 213.33 142.251C212.782 143.419 212.32 144.621 212.203 145.92C211.574 152.903 222.698 156.547 221.536 162.058C220.962 164.788 217.75 166.047 217.537 166.174C208.555 171.456 196.34 159.546 197.867 152.396C198.791 148.062 200.516 143.85 202.343 139.836C203.952 136.299 205.535 132.523 207.951 129.448C209.514 127.459 211.457 125.835 213.107 123.927C215.015 121.719 216.476 119.243 217.719 116.614C219.694 112.438 221.678 107.236 221.018 102.527C220.972 102.207 220.917 101.887 220.83 101.568C219.196 95.275 211.376 82.7152 200.846 83.1465C200.745 83.1465 200.643 83.1566 200.542 83.1617L194.381 74.687Z" fill="#FFC24A"/>
<path d="M194.381 74.687C194.381 74.687 210.808 75.3518 216.542 79.0664C219.866 81.2181 223.048 83.451 225.494 86.6176C228.798 90.8905 230.726 96.1123 231.665 101.395C232.578 106.556 232.654 111.905 231.304 116.995C229.909 122.252 226.793 127.022 223.073 130.935C219.663 134.528 215.482 137.664 213.33 142.251C212.782 143.419 212.32 144.621 212.203 145.92C211.574 152.903 222.698 156.547 221.536 162.058C220.962 164.788 217.75 166.047 217.537 166.174C208.555 171.456 196.34 159.546 197.867 152.396C198.791 148.062 200.516 143.85 202.343 139.836C203.952 136.299 205.535 132.523 207.951 129.448C209.514 127.459 211.457 125.835 213.107 123.927C215.015 121.719 216.476 119.243 217.719 116.614C219.694 112.438 221.678 107.236 221.018 102.527C220.972 102.207 220.917 101.887 220.83 101.568C219.196 95.275 211.376 82.7152 200.846 83.1465C200.745 83.1465 200.643 83.1566 200.542 83.1617L194.381 74.687Z" fill="url(#paint0_linear_49_244)" fill-opacity="0.8"/>
<path d="M214.309 151.178C214.309 151.178 207.458 159.632 201.511 159.551C195.563 159.47 205.586 168.143 213.401 167.757C221.221 167.371 222.145 161.916 222.145 161.916C222.155 161.058 222.043 159.8 221.373 158.536C220.531 156.943 219.364 156.395 217.511 154.71C216.674 153.949 215.522 152.797 214.304 151.173L214.309 151.178Z" fill="#E27826"/>
<path d="M214.309 151.178C214.309 151.178 207.458 159.632 201.511 159.551C195.563 159.47 205.586 168.143 213.401 167.757C221.221 167.371 222.145 161.916 222.145 161.916C222.155 161.058 222.043 159.8 221.373 158.536C220.531 156.943 219.364 156.395 217.511 154.71C216.674 153.949 215.522 152.797 214.304 151.173L214.309 151.178Z" fill="url(#paint1_linear_49_244)"/>
<path d="M206.545 84.0496C213.7 87.1299 219.475 93.656 221.338 101.283C222.317 105.165 221.409 109.296 219.892 112.884C218.516 116.523 216.532 119.943 214.076 122.927L213.883 122.785C215.979 119.557 217.669 116.122 218.887 112.514C220.226 108.976 221.023 105.272 220.145 101.552C219.278 97.8984 217.476 94.4882 215.137 91.55C212.777 88.5965 209.803 86.115 206.433 84.2728L206.54 84.0597L206.545 84.0496Z" fill="#E27826"/>
<path d="M224.215 129.752C222.013 132.893 219.343 135.72 216.527 138.303C213.467 140.876 212.208 144.327 212.487 148.295L212.381 148.31C211.498 144.261 212.827 140.424 216.045 137.791C217.461 136.491 218.866 135.223 220.216 133.873C221.561 132.523 222.86 131.122 224.129 129.686L224.21 129.752H224.215Z" fill="#E27826"/>
<path d="M205.895 132.635C207.514 134.538 209.904 135.781 212.442 136.065V136.304C209.676 136.644 206.778 135.867 204.49 134.193L205.895 132.635Z" fill="#E27826"/>
<path d="M207.524 130.123C208.605 131.397 210.199 132.224 211.894 132.411V132.569C210.052 132.797 208.118 132.28 206.591 131.163L207.53 130.123H207.524Z" fill="#E27826"/>
<path d="M229.168 122.47C229.168 122.47 225.392 122.704 223.109 121.846C220.83 120.989 225.255 123.48 226.138 123.866C227.021 124.252 228.407 123.866 228.407 123.866L229.168 122.47Z" fill="#E27826"/>
<path d="M227.854 124.663C227.854 124.663 225.017 124.845 223.302 124.175C221.586 123.505 224.915 125.454 225.58 125.759C226.24 126.058 227.285 125.759 227.285 125.759L227.854 124.668V124.663Z" fill="#E27826"/>
<path d="M218.633 96.1935C218.633 96.1935 223.083 96.5335 225.773 95.2749C228.463 94.0113 223.241 97.6855 222.206 98.2538C221.17 98.8222 219.531 98.2538 219.531 98.2538L218.638 96.1935H218.633Z" fill="#E27826"/>
<path d="M219.947 99.1318C219.947 99.1318 222.784 99.3145 224.499 98.6446C226.215 97.9747 222.886 99.9234 222.221 100.228C221.556 100.532 220.516 100.228 220.516 100.228L219.947 99.1369V99.1318Z" fill="#E27826"/>
<path d="M221.145 111.047L224.545 113.432L230.411 113.828L223.997 115.092L221.145 111.047Z" fill="#E27826"/>
<path d="M210.722 76.8286L206.844 78.351L207.393 82.9944L208.002 79.026L211.341 76.991L210.722 76.8286Z" fill="#E27826"/>
<path d="M213.096 77.5337L210.102 78.7059L210.529 82.2938L211.001 79.2286L213.574 77.6555L213.096 77.5337Z" fill="#E27826"/>
<path d="M25.6321 55.8041C26.2512 55.8193 27.19 55.9259 28.1593 56.4232C29.1742 56.9408 29.9303 57.7375 31.062 59.6608C31.8537 61.0056 32.8534 62.9493 33.711 65.4866C34.9137 65.0299 36.1215 64.5732 37.3242 64.1164C37.3242 64.1164 33.4217 53.0434 25.9366 55.7229" fill="#D36139"/>
<path d="M33.7109 65.4865C32.1936 58.9655 28.4586 55.2762 25.9314 55.7278C24.1857 56.0374 22.5923 58.392 22.0493 60.3915C21.6078 62.0103 21.8564 63.3703 22.0493 64.3599C22.5263 66.8211 23.7188 68.5414 24.4394 69.4295L33.7109 65.4814V65.4865Z" fill="#FFF4C7"/>
<path d="M33.7109 65.4865C32.1936 58.9655 28.4586 55.2762 25.9314 55.7278C24.1857 56.0374 22.5923 58.392 22.0493 60.3915C21.6078 62.0103 21.8564 63.3703 22.0493 64.3599C22.5263 66.8211 23.7188 68.5414 24.4394 69.4295L33.7109 65.4814V65.4865Z" fill="url(#paint2_linear_49_244)"/>
<path d="M48.1433 115.305L45.8749 123.526L53.2079 155.446L66.1585 165.22L75.4401 164.626L81.6718 157.562L79.0279 152.025H75.4401L72.1415 154.832L69.66 152.858L80.8193 128.073L66.3818 104.805L58.8256 110.971H54.4258L48.1433 115.305Z" fill="#FFC24A"/>
<path d="M48.1433 115.305L45.8749 123.526L53.2079 155.446L66.1585 165.22L75.4401 164.626L81.6718 157.562L79.0279 152.025H75.4401L72.1415 154.832L69.66 152.858L80.8193 128.073L66.3818 104.805L58.8256 110.971H54.4258L48.1433 115.305Z" fill="url(#paint3_linear_49_244)" fill-opacity="0.8"/>
<path d="M56.3848 49.6433L64.1998 45L89.6139 46.9537L136.215 62.3453L145.217 65.1973L194.198 74.3216L205.926 90.449L205.119 117.446L128.709 129.418L115.272 137.334L85.4628 136.629L64.8544 104.805L80.0836 93.6257L78.8606 80.9187L59.2317 66.9074L59.6021 61.6653L57.2779 60.3966L61.3174 56.2404L56.537 54.2207L58.9069 51.1861L56.3848 49.6433Z" fill="#FFC24A"/>
<path d="M56.3848 49.6433L64.1998 45L89.6139 46.9537L136.215 62.3453L145.217 65.1973L194.198 74.3216L205.926 90.449L205.119 117.446L128.709 129.418L115.272 137.334L85.4628 136.629L64.8544 104.805L80.0836 93.6257L78.8606 80.9187L59.2317 66.9074L59.6021 61.6653L57.2779 60.3966L61.3174 56.2404L56.537 54.2207L58.9069 51.1861L56.3848 49.6433Z" fill="url(#paint4_linear_49_244)"/>
<path d="M139.462 126.753V138.729L147.526 152.898L142.152 168.782L139.219 167.807L134.088 172.202L135.306 178.068H146.303L163.04 156.298L167.074 152.898L170.946 144.713L178.193 120.115L139.462 126.753Z" fill="#FFC24A"/>
<path d="M139.462 126.753V138.729L147.526 152.898L142.152 168.782L139.219 167.807L134.088 172.202L135.306 178.068H146.303L163.04 156.298L167.074 152.898L170.946 144.713L178.193 120.115L139.462 126.753Z" fill="url(#paint5_linear_49_244)"/>
<path d="M160.34 107.525L165.409 145.646L200.445 175.831L196.502 187.426H191.859L185.997 196.469L190.392 203.802L202.064 204.584L207.895 187.36L215.603 174.181L209.757 167.696L208.478 142.469L204.322 139.171L205.616 104.105L191.067 108.748L184.105 99.4614L160.34 107.525Z" fill="#FFC24A"/>
<path d="M160.34 107.525L165.409 145.646L200.445 175.831L196.502 187.426H191.859L185.997 196.469L190.392 203.802L202.064 204.584L207.895 187.36L215.603 174.181L209.757 167.696L208.478 142.469L204.322 139.171L205.616 104.105L191.067 108.748L184.105 99.4614L160.34 107.525Z" fill="url(#paint6_linear_49_244)"/>
<path d="M85.4627 136.329L74.8312 157.912L80.8194 184.798L76.3435 182.905L70.4315 191.243L77.8862 197.596L90.101 191.796L94.7443 175.668L101.341 173.227V152.944L107.451 149.686L117.225 134L85.4627 136.329Z" fill="#FFC24A"/>
<path d="M85.4627 136.329L74.8312 157.912L80.8194 184.798L76.3435 182.905L70.4315 191.243L77.8862 197.596L90.101 191.796L94.7443 175.668L101.341 173.227V152.944L107.451 149.686L117.225 134L85.4627 136.329Z" fill="url(#paint7_linear_49_244)"/>
<path d="M78.8605 80.9186L80.0835 93.6257L58.8256 110.971H54.4259L40.2573 120.745L24.8607 114.884L17.5328 99.7305L23.8813 69.4346L43.6777 61.8581L47.3416 55.0174L56.3847 49.6433L58.9068 51.186L56.5369 54.2207L61.0889 56.281L57.2778 60.3966L59.6173 61.5739L59.2316 66.9074L78.8605 80.9186Z" fill="#FFC24A"/>
<path d="M78.8605 80.9186L80.0835 93.6257L58.8256 110.971H54.4259L40.2573 120.745L24.8607 114.884L17.5328 99.7305L23.8813 69.4346L43.6777 61.8581L47.3416 55.0174L56.3847 49.6433L58.9068 51.186L56.5369 54.2207L61.0889 56.281L57.2778 60.3966L59.6173 61.5739L59.2316 66.9074L78.8605 80.9186Z" fill="url(#paint8_linear_49_244)"/>
<path d="M56.3847 72.3679C56.542 72.1547 59.2417 68.6227 62.86 68.9171C64.697 69.0642 66.0418 70.0487 66.0418 70.0487C66.0418 70.0487 66.9299 70.7389 67.6251 71.7944C69.0917 74.0121 67.8687 80.6701 67.1329 81.1623C66.4021 81.6495 61.0838 73.1595 56.3796 72.3679H56.3847Z" fill="#FFF4C7"/>
<path d="M56.3847 72.3679C56.542 72.1547 59.2417 68.6227 62.86 68.9171C64.697 69.0642 66.0418 70.0487 66.0418 70.0487C66.0418 70.0487 66.9299 70.7389 67.6251 71.7944C69.0917 74.0121 67.8687 80.6701 67.1329 81.1623C66.4021 81.6495 61.0838 73.1595 56.3796 72.3679H56.3847Z" fill="url(#paint9_linear_49_244)"/>
<path d="M65.5649 69.8101C65.5649 69.8101 73.2429 72.1647 68.7619 81.8168C68.7619 81.8168 68.3509 81.8675 67.8789 81.7864C67.8789 81.7864 67.1786 81.6087 66.6509 80.9592C65.5192 79.5738 68.6249 75.8642 67.681 72.6113C67.4577 71.8349 66.9249 70.8199 65.5649 69.8101Z" fill="#D36139"/>
<path d="M152.301 99.6746L153.387 107.738L153.484 108.449L152.849 108.743L146.384 111.747L146.247 111.549L151.51 106.733L150.972 107.738L152.058 99.6746H152.301Z" fill="#E27826"/>
<path d="M173.798 86.2827C174.011 86.506 178.396 91.2609 178.446 91.3117C178.299 91.5045 174.798 96.0768 174.524 96.4321L174.63 95.2496L176.528 99.2891L176.878 100.035C176.589 100.177 173.255 101.882 172.864 102.07L172.717 101.882L175.305 99.0252L175.082 100.066C174.823 99.6494 172.55 95.9499 172.367 95.6556C172.478 95.5287 176.264 91.0782 176.523 90.7788L176.487 91.8902L173.6 86.4146L173.793 86.2776L173.798 86.2827Z" fill="#E27826"/>
<path d="M164.486 84.0752C164.679 84.2427 171.722 90.2714 171.677 90.2308C171.55 90.4845 168.657 96.2392 168.424 96.701L168.373 95.4729C168.632 95.95 170.971 100.284 171.159 100.629C171.002 100.74 166.475 104.186 166.181 104.399L166.013 104.232L169.368 99.7509L169.246 100.862C169.002 100.527 166.008 96.4067 165.876 96.224C165.998 95.9957 169.048 90.3678 169.256 89.9821L169.429 91.2812L164.313 84.2376L164.491 84.0752H164.486Z" fill="#E27826"/>
<path d="M204.982 105.906L192.869 110.093L192.153 110.342L191.717 109.758L185.688 101.715L185.871 101.542L193.437 108.165L192.285 107.825L204.916 105.663L204.982 105.906Z" fill="#E27826"/>
<path d="M204.261 120.527L195.533 124.779L194.868 125.104C194.802 124.998 190.991 119.598 190.798 119.314L190.996 119.131L195.903 123.201L194.832 122.953L204.165 120.278L204.261 120.527Z" fill="#E27826"/>
<path d="M185.896 163.438L193.3 162.129L192.295 163.184C192.321 162.829 192.752 156.953 192.767 156.785C193.102 156.795 196 156.846 196.411 156.851L195.837 157.364L196.771 153.172L197.025 153.202C197.025 153.512 196.979 157.82 196.979 157.998L196.411 158.008L193.356 158.064L193.99 157.43C194.051 158.242 194.447 163.646 194.498 164.316L193.412 164.235L185.911 163.687L185.896 163.428V163.438Z" fill="#E27826"/>
<path d="M173.996 152.609L182.547 151.086L181.014 152.086C181.557 150.863 185.8 141.338 186.221 140.394C187.18 141.039 191.838 144.17 192.894 144.88L191.372 145.423L194.051 141.155L194.33 141.267C194.168 142.119 193.29 146.605 193.153 147.341C192.356 146.986 187.053 144.596 186.129 144.18L188.377 143.424C188.073 144.129 183.744 154.192 183.567 154.608C183.186 154.552 174.61 153.01 173.991 152.908V152.609H173.996Z" fill="#E27826"/>
<path d="M146.034 147.56C146.329 147.418 150.16 145.57 150.302 145.499C150.465 145.677 153.692 149.194 153.966 149.493L153.21 149.351L160.878 146.859L160.979 147.108L153.748 150.67L153.388 150.848C153.347 150.818 149.48 147.707 149.302 147.565L150.272 147.829L146.095 147.813L146.034 147.555V147.56Z" fill="#E27826"/>
<path d="M84.9907 167.396L86.6501 169.37L85.9803 169.167L89.1976 167.269L90.0654 166.757C90.2785 167.391 91.2884 170.446 91.5218 171.146L90.7657 170.766L96.0586 169.436L96.5356 169.314L96.7234 169.705L98.9563 174.323L98.7533 174.445L95.6882 170.329L96.358 170.598C96.155 170.654 90.5932 172.131 90.583 172.136L90.3344 171.623L88.7561 168.391L89.9487 168.858C89.6391 168.964 86.1021 170.218 85.9143 170.284L85.757 169.898L84.7877 167.508L84.9907 167.386V167.396Z" fill="#E27826"/>
<path d="M76.653 158.978C76.8408 158.897 80.2408 157.521 80.3119 157.491L80.5605 157.892L82.6665 161.241L81.6567 160.987C81.8901 160.845 85.5845 158.607 85.6606 158.557C85.7976 158.704 88.538 161.591 88.7663 161.84L87.66 161.581L91.1514 160.896L91.2478 161.114C90.8013 161.464 88.2081 163.449 87.8275 163.743L87.32 163.022L85.0516 159.785L85.894 159.922C85.4221 160.231 82.1438 162.383 81.7632 162.637C81.5653 162.241 79.8704 158.902 79.6268 158.42L80.2358 158.673L76.7139 159.206L76.653 158.978Z" fill="#E27826"/>
<path d="M82.4229 144.515C82.8847 144.271 86.6958 142.337 87.0409 142.155L87.5585 143.124C87.8325 144.083 88.3603 145.682 88.5531 146.651C88.5531 146.692 88.5684 146.788 88.5684 146.829C88.5836 146.443 88.2537 146.017 87.8579 145.951C87.7919 145.935 87.7209 145.935 87.7057 145.935C87.7513 145.935 87.9442 145.9 88.0913 145.869C89.2332 145.621 90.9535 145.103 92.1105 144.773L93.0442 144.712C93.0899 144.946 93.8714 148.239 93.9425 148.574L93.7141 148.686L91.5777 146.001L92.6332 146.458C91.1209 146.895 89.4108 147.534 87.8427 147.783C87.5179 147.823 87.0967 147.686 86.8988 147.392C86.7871 147.255 86.711 146.991 86.7161 146.844C86.7059 146.864 86.7313 146.976 86.7161 146.91L86.6603 146.697C86.4827 146.062 85.9346 144.352 85.7265 143.703L86.9089 144.332L82.494 144.758L82.4229 144.515Z" fill="#E27826"/>
<path d="M24.8658 114.706L38.9531 112.544L38.0904 112.955L45.1443 105.825L45.738 105.221L46.352 105.612L54.4918 110.808L54.3853 111.022L45.4234 107.419L46.6311 107.21L40.0036 114.741L39.6331 115.157L39.1358 115.152L24.881 114.944L24.8658 114.706Z" fill="#E27826"/>
<path d="M74.6536 118.04C74.6739 117.659 74.8921 113.635 74.9074 113.397L75.5874 113.518L84.9654 115.173L83.7323 115.995L86.092 107.718L86.3254 107.759C86.2848 108.398 85.6911 117.198 85.6759 117.482L84.5188 117.167L75.3286 114.665L76.039 114.188L74.8921 118.075L74.6587 118.035L74.6536 118.04Z" fill="#E27826"/>
<path d="M93.7547 48.6689C94.4144 49.7701 100.042 59.1126 100.524 59.9093C99.4536 59.7622 90.4663 58.3819 89.1571 58.1941L90.2481 56.8797C90.6135 57.8693 96.5204 73.8901 96.698 74.3722L94.8356 74.0779L86.3 72.7331L87.4215 71.4949C87.5484 72.0429 90.5171 84.5774 90.5526 84.75L89.4057 84.7043L84.4376 84.5013L85.0009 83.7756L86.0666 90.6011L85.8331 90.6518L83.8439 84.0344L83.6459 83.3747C83.9403 83.3595 88.9033 82.9028 89.36 82.8673L88.4923 83.9989L85.4576 71.9668L85.0973 70.5357C85.8433 70.6322 94.1607 71.7334 95.1503 71.8653L93.9425 73.3471L88.3756 57.5445L87.8123 55.946C88.6547 56.1135 97.8145 57.646 98.9208 57.8541L97.9819 59.1431L93.5416 48.7704L93.7547 48.6638V48.6689Z" fill="#E27826"/>
<path d="M140.873 64.634L148.795 69.2013L149.074 69.3636L149.206 69.795L153.636 84.3035L153.844 84.9886L153.428 85.4606L144.263 95.955L144.07 95.8129L151.276 83.8874L151.073 85.0444L147.059 70.4141L147.47 71.0078L140.731 64.8268L140.873 64.634Z" fill="#E27826"/>
<path d="M125.883 59.7673C126.309 60.1479 134.946 68.2776 135.103 68.4197C135.012 68.5516 128.151 78.6147 127.821 79.1019L127.684 77.5592L132.246 82.8826L132.906 83.6539C132.784 83.7097 126.213 89.0128 125.872 89.2564L125.705 89.0838L130.902 82.8521L130.871 84.1715C130.475 83.7909 125.365 78.8076 125.167 78.6148L125.71 77.7318L131.82 67.7955L131.927 69.6072L125.69 59.9196L125.872 59.7673H125.883Z" fill="#E27826"/>
<path d="M119.859 57.1689L125.7 66.9225L126.202 67.7649L125.375 68.5312L109.857 82.852L109.771 80.7409L115.185 85.4806L116.058 86.2419C115.672 86.6022 108.385 93.113 107.791 93.656L107.619 93.4936L113.866 85.5821L113.977 87.0284L108.06 82.9332L106.705 81.9943L107.974 80.8221L123.477 66.4861L123.152 68.0947L119.641 57.2806L119.859 57.1791V57.1689Z" fill="#E27826"/>
<path d="M43.7335 61.9138C38.1665 64.0148 29.9354 67.6381 24.3532 69.9217L24.7135 69.4954L18.9944 99.8725L18.9284 99.2737L24.9825 114.777C24.5664 114.579 40.7343 119.775 40.6328 119.74L39.689 119.852L54.37 110.819L54.3903 110.803L54.436 110.793L58.8358 110.017L58.2725 110.22L79.2056 92.4686L78.693 93.6966L78.759 80.8678L78.9975 80.8424L81.5044 93.4226L81.6465 94.1381L80.9919 94.6507L59.4041 111.6L59.0895 111.844L58.8358 111.798L54.436 111.022L54.502 111.001L40.8409 121.516L40.4045 121.851L39.9021 121.628L24.8303 114.924C24.7085 114.944 17.2182 100.111 17.137 100.065L17 99.7964L17.071 99.4666L23.5717 69.2468L23.6428 68.922L23.932 68.8205C27.2154 67.6483 35.5734 64.6643 38.7451 63.5327C40.3893 62.9491 42.0335 62.3452 43.6472 61.6804L43.7335 61.9037V61.9138Z" fill="#E27826"/>
<path d="M200.673 175.46L196.857 187.792L196.766 188.081L196.406 188.112L191.762 188.528L192.513 188.122L186.571 197.114V196.251L190.773 203.554L190.402 203.346L201.8 203.056L200.887 203.691C201.546 202.437 202.14 201.154 202.718 199.87C204.434 196.013 205.921 192.07 207.291 188.081C209.376 183.438 211.274 178.678 212.376 173.684L212.492 175.298L207.925 168.549L207.641 168.132C207.585 159.658 207.362 151.193 207.093 142.723L207.55 143.657C207.068 142.911 206.57 142.18 206.053 141.465L205.261 140.42L204.424 139.43L204.515 139.318C205.073 139.663 206.21 140.298 206.799 140.577C207.722 141.029 208.671 141.475 209.63 141.851L209.666 142.617C210.057 150.924 210.488 159.226 211.077 167.524L210.792 166.64C211.183 167.239 215.644 174.095 215.877 174.445C214.05 176.633 212.528 179.028 211.082 181.459C209.047 184.935 207.265 188.274 206.113 192.131C204.703 196.353 203.388 200.621 202.541 205L201.764 204.949L190.387 204.239L190.148 204.224L190.011 204.031L185.221 197.099L184.937 196.688L185.226 196.236L191.011 187.142L191.295 186.696L191.757 186.736L196.4 187.152L195.949 187.477L200.44 175.374L200.668 175.45L200.673 175.46Z" fill="#E27826"/>
<path d="M162.613 157.054C158.472 163.103 153.397 170.071 148.993 175.937C148.754 176.242 146.79 178.814 146.597 179.063L146.07 179.012L135.316 177.987H135.245L135.205 177.906C134.799 177.196 131.86 171.705 131.551 171.157C132.119 170.913 138.473 167.904 139.234 167.604L143.192 166.985L141.771 167.858L147.399 151.594L147.536 152.624L138.676 138.415L138.554 138.217L138.564 138.044L139.112 128.271H139.351L139.899 138.044L139.787 137.674L149.495 151.32L149.82 151.776C149.439 152.923 144.096 169.142 143.801 170.035L142.822 169.568L139.204 167.848L139.29 167.828L134.109 172.852L134.616 171.36L135.438 177.84L135.326 177.759L146.08 176.734L145.182 177.17L147.272 174.587C150.302 170.898 154.874 165.514 158.02 161.901C159.101 160.647 161.329 158.145 162.435 156.917L162.623 157.064L162.613 157.054Z" fill="#E27826"/>
<path d="M129.151 129.605C136.118 127.078 143.314 125.408 150.556 123.911C154.905 123.028 159.259 122.242 163.679 121.729L163.73 121.963C155.321 124.805 146.699 126.89 137.991 128.565C135.083 129.093 132.165 129.565 129.201 129.839L129.151 129.605Z" fill="#E27826"/>
<path d="M136.661 102.852C136.732 103.314 138.006 113.143 138.031 113.306C137.544 113.488 132.109 115.391 131.46 115.63L131.967 113.93C132.267 114.331 136.874 120.547 136.981 120.689C136.585 121.212 128.156 132.457 127.644 133.137L127.354 133.229L116.794 136.568L116.697 136.35L126.177 130.62L125.629 131.057L134.256 119.872L134.225 121.445C133.698 120.649 129.785 114.716 129.369 114.082C130.171 113.727 135.119 111.504 136.032 111.098L135.169 112.372L136.423 102.842H136.661V102.852Z" fill="#E27826"/>
<path d="M83.7119 186.528L74.7398 184.026L76.9067 183.341L71.5123 191.795L71.2535 190.293L77.9623 197.504L77.8354 197.484L89.5732 190.846L88.8576 191.679L94.6428 175.881L94.658 175.835L94.7138 175.805L100.925 172.319L100.123 173.471L101.235 146.103H101.473L102.585 173.471L102.625 174.455L101.783 174.623L94.8001 176.023C95.0741 175.551 91.2935 192.501 91.3747 192.399L91.2427 193.023L90.6591 193.226C90.5881 193.226 77.9318 197.717 77.8709 197.723L77.81 197.682L69.6956 192.105L68.9395 191.582C69.8986 189.705 73.8974 181.879 74.8312 180.058C75.5061 180.514 82.9253 185.696 83.8185 186.31L83.717 186.528H83.7119Z" fill="#E27826"/>
<path d="M69.2034 109.631L87.3353 135.436L88.0305 136.431L87.4216 137.547L76.6429 157.201L76.7596 156.359L80.9361 184.772L80.6976 184.818L74.1512 156.856L74.0599 156.471L74.268 156.014L83.5242 135.598L83.6105 137.704L69.0004 109.753L69.2034 109.631Z" fill="#FFE5B3"/>
<path d="M76.7545 163.169L73.4306 166.382L73.253 166.559L72.9282 166.524L66.1078 165.793L65.9556 165.778L65.7831 165.671L52.1271 156.836L51.5942 156.491L51.4521 155.791L44.8296 123.714L44.7637 123.379L44.8398 123.181L48.0419 115.219L48.2703 115.279L46.9306 123.759L46.9458 123.226L54.9841 154.979L54.3092 153.938L66.5493 164.651L66.2296 164.529L73.0652 165.072L72.5628 165.209L76.6125 162.976L76.7545 163.169Z" fill="#FFE5B3"/>
<path d="M81.7024 127.778L92.1156 128.377L90.8672 129.179C91.0296 128.58 93.4959 119.446 93.5822 119.126C93.9831 119.182 100.722 120.08 101.352 120.166L100.392 121.07L100.864 108.956H101.103L102.164 121.024L102.245 121.958L101.204 121.927L94.3942 121.734L95.6882 120.836C95.5106 121.43 92.8058 130.498 92.7043 130.823L91.7655 130.585L81.6567 128.007L81.6922 127.768L81.7024 127.778Z" fill="#E27826"/>
<path d="M52.5076 147.382C52.7563 146.844 55.1718 141.673 55.3444 141.307C55.7757 141.622 60.2719 144.87 60.8352 145.276L59.2671 145.595L62.0379 142.5L62.246 142.617C61.9719 143.581 60.9824 147.037 60.7236 147.935L59.5361 146.93L55.1515 143.21L56.3644 142.997L52.7106 147.509L52.5076 147.382Z" fill="#E27826"/>
<path d="M47.0067 125.459C47.6359 125.089 52.127 122.526 52.6243 122.232L53.0608 123.343L55.2987 129.072L53.7459 128.306C54.8471 127.9 59.7188 126.109 60.7185 125.738C60.9265 126.718 62.0125 131.767 62.246 132.853L61.1803 132.158L66.9959 132.285L67.0263 132.528C66.6305 132.64 60.8555 134.269 60.7033 134.309L60.3582 133.411L58.2979 128.047L60.1146 128.996C59.2316 129.255 54.0656 130.777 53.3094 131.001C53.1166 130.366 51.3912 124.784 51.1527 123.998L52.4569 124.612L47.0879 125.677L47.0016 125.449L47.0067 125.459Z" fill="#E27826"/>
<path d="M68.3915 81.1216C69.3455 78.1529 69.178 75.0929 68.0159 72.2054L68.2138 72.0684C70.7004 74.3621 70.8578 78.7365 68.5995 81.2383L68.3915 81.1216Z" fill="#E27826"/>
<path d="M52.7512 76.1584C53.9539 77.7163 54.9435 79.3199 55.5626 81.228C55.6286 81.4817 55.6844 81.7761 55.6996 82.04C55.6793 81.771 55.2886 81.4818 54.9638 81.5985C54.8065 81.6492 54.7405 81.7 54.6492 81.8218C55.1262 80.477 55.5778 78.8328 56.2731 77.493L56.5065 77.5438C56.5217 79.0154 56.3086 80.4161 55.933 81.8319C55.8214 82.1719 55.7301 82.649 55.2987 82.7758C55.0298 82.8519 54.7709 82.7454 54.6187 82.5373C54.5121 82.4104 54.4817 82.1415 54.4868 82.1262C54.4868 82.04 54.4766 81.9131 54.4715 81.8268C54.025 79.9695 53.1115 78.1426 52.5432 76.2701L52.7512 76.1533V76.1584Z" fill="#E27826"/>
<path d="M57.9933 83.1364C58.3942 85.0648 58.582 86.9374 58.313 88.9267C58.2623 89.1855 58.1862 89.4747 58.0796 89.7183C58.176 89.4697 57.9527 89.0383 57.6127 89.0028C57.4453 88.9825 57.3641 88.9977 57.2372 89.0637C58.2521 88.064 59.3787 86.7801 60.5865 85.8768L60.7743 86.0239C60.145 87.3535 59.3432 88.5207 58.3841 89.627C58.1303 89.8858 57.8411 90.2765 57.3996 90.2004C57.1256 90.1496 56.9378 89.9416 56.8921 89.6879C56.8515 89.5255 56.9429 89.2717 56.953 89.2616C56.9936 89.1855 57.0342 89.0637 57.0697 88.9825C57.4808 87.115 57.4554 85.0699 57.7599 83.1415L57.9984 83.1313L57.9933 83.1364Z" fill="#E27826"/>
<path d="M41.7594 65.8469C45.7633 64.1468 50.9598 67.0293 51.7362 71.2869L51.5231 71.3935C49.5237 69.323 47.3314 67.7042 44.6012 66.8313C43.7182 66.537 42.7946 66.3137 41.7898 66.0854L41.7645 65.8469H41.7594Z" fill="#E27826"/>
<path d="M42.0538 68.5213C44.5252 67.3744 47.8998 69.0085 48.5139 71.6676L48.316 71.8046C46.9103 70.9064 45.3473 69.9422 43.7741 69.384C43.2413 69.1759 42.683 68.9932 42.0639 68.7649L42.0487 68.5264L42.0538 68.5213Z" fill="#E27826"/>
<path d="M44.7129 77.1025L39.2576 79.9596L39.146 78.9599C40.44 79.239 44.3171 80.0712 45.5553 80.3402C44.3932 80.6345 37.7048 82.3193 36.3904 82.6492L36.3245 82.4208L43.4798 79.9545L43.5204 80.8121C42.1908 80.5736 38.2934 79.8835 37.0248 79.6602C38.2173 79.2238 43.3225 77.3614 44.6165 76.8894L44.7129 77.1076V77.1025Z" fill="#E27826"/>
<path d="M25.4342 73.5144C27.6975 74.9607 30.3567 76.9195 32.5591 78.4724L30.4125 78.0816L25.287 77.1479L25.693 76.407L28.7937 80.2942L28.616 80.4566C27.8701 79.736 24.7034 76.6911 24.0234 76.0365C24.947 76.1888 29.5599 76.9601 30.5799 77.1276L30.1841 77.9801L27.7686 75.8183C26.9718 75.0825 26.1193 74.4177 25.2921 73.7123L25.4342 73.5195V73.5144Z" fill="#E27826"/>
<path d="M21.9884 80.8171L27.4843 84.5572L27.3726 84.7703L21.217 82.2431L21.9884 80.8171Z" fill="#E27826"/>
<path d="M39.1662 95.9297L39.6077 102.121L38.5979 101.786C38.8313 101.461 42.6424 96.1174 42.7084 96.0261L43.297 96.6097L45.9612 99.2536L44.652 99.2891C44.8905 99.0202 48.2601 95.2395 48.3971 95.0822C48.7016 95.2953 50.8736 96.8076 51.2339 97.0562L49.9347 97.3353L52.3351 93.5902L52.5279 93.2857L52.8476 93.4228L56.0244 94.7726L55.116 95.2446L56.2832 90.6165L56.5217 90.652L56.3644 95.4222L56.3288 96.427L55.4509 95.8941L52.5076 94.0977L53.0201 93.9302C52.7106 94.7625 51.3252 98.4619 51.0461 99.213C50.4777 98.67 48.6965 96.9852 48.1028 96.4168L49.001 96.3255C48.5392 96.9446 45.7583 100.71 45.3675 101.238L44.6926 100.416L42.3075 97.5181L43.3529 97.4673L39.5113 102.446L38.3695 103.922L38.4964 102.111L38.9379 95.9195H39.1764L39.1662 95.9297Z" fill="#E27826"/>
<path d="M37.3799 86.3639C38.2883 85.9731 47.169 82.1823 47.7881 81.9185C47.7069 83.2683 47.3365 89.7944 47.2502 91.2407L46.8392 91.3523L42.2161 92.5804L41.6884 92.7225L41.5006 92.2911L40.0036 88.9063L40.2065 88.7794L42.6221 91.5857L41.9015 91.2965L46.5651 90.2409L46.1287 90.7992L45.7075 83.4662L47.0117 84.4152L37.4561 86.5922L37.3799 86.3639Z" fill="#E27826"/>
<path d="M29.8542 86.5516L21.1106 100.832L21.3592 99.3754L23.5718 111.661L23.3891 111.6L29.1235 106.419L28.6515 107.449L29.0677 101.811L29.3062 101.786L30.8641 107.221L31.062 107.906C30.9859 107.962 23.8255 111.636 23.5261 111.803L23.3992 111.869L23.3434 111.742L18.2383 100.35L17.8881 99.5631L18.492 98.8933L29.6614 86.4197L29.8542 86.5618V86.5516Z" fill="#E27826"/>
<path d="M71.9031 46.3601C72.715 47.0401 78.9214 52.3635 79.5456 52.8862L78.0333 53.15L68.5081 54.8044L68.8126 53.8098L75.5975 60.9245L75.8411 61.1833L75.5518 61.4116L71.7356 64.4311L71.8118 63.472L75.699 67.9072L75.5315 68.0798L70.9491 64.3702L70.3046 63.8475C70.6547 63.6293 74.7196 61.1833 75.1915 60.894L75.1509 61.3761L67.9804 54.6471L67.1633 53.8808C67.5287 53.8098 77.125 51.8509 77.7644 51.7241L77.3888 52.9572L71.7356 46.5326L71.9031 46.3601Z" fill="#E27826"/>
<path d="M57.1205 49.8463C57.4301 49.9884 59.2773 50.8815 59.5361 51.0033C59.4752 51.0642 56.8719 54.1445 56.7044 54.3323L56.5623 53.6878C56.8668 53.8249 61.6675 55.9816 61.8248 56.0526C61.7385 56.1491 57.9883 60.6554 57.7752 60.8939L57.5214 59.4273C58.3841 60.082 59.6071 61.0867 60.4851 61.6805L60.4089 61.9088C60.0842 61.8581 59.7797 61.787 59.4701 61.7211C58.8865 61.5942 57.3185 61.2187 56.7146 61.0715L55.182 60.7061C56.0193 59.9855 59.8507 56.687 60.7642 55.9004L60.8961 56.6261L56.2071 54.4287L55.7098 54.1953L56.065 53.7843L58.6074 50.8663L58.6937 51.4448L56.9734 50.0341L57.1002 49.8311L57.1205 49.8463Z" fill="#E27826"/>
<path d="M139.452 137.689C139.934 137.009 144.025 131.341 144.385 130.838L145.435 131.757L151.312 136.908L149.972 136.695L157.432 134.787L157.523 135.005L150.972 139.044L150.327 139.44L149.627 138.831L143.741 133.685L145.491 133.629L139.62 137.857L139.452 137.689Z" fill="#E27826"/>
<path d="M20.5726 87.1555L24.3685 87.6427L23.8407 87.8L26.1192 85.968L26.2969 86.1304C26.1801 86.2979 24.5106 88.7236 24.4497 88.82C24.4497 88.82 20.6538 87.4346 20.5219 87.3889L20.5777 87.1555H20.5726Z" fill="#E27826"/>
<path d="M164.42 126.256C165.029 125.86 173.199 120.532 173.478 120.349C173.737 120.714 180.025 129.565 180.512 130.255L178.426 129.793L185.13 126.286L186.048 125.804L186.601 126.398L192.077 132.3L191.93 132.488L184.967 128.453L186.439 128.57L180.009 132.559L178.781 133.32L177.919 132.097L171.788 123.378L173.712 123.901L164.521 126.479L164.425 126.261L164.42 126.256Z" fill="#E27826"/>
<path d="M160.426 100.253L167.449 144.992L166.744 143.642C166.617 143.794 203.069 177.592 202.297 177.749L163.968 146.809L163.319 146.286L163.263 145.459C163.481 145.433 159.736 99.8473 160.426 100.248V100.253Z" fill="#FFE5B3"/>
<defs>
<linearGradient id="paint0_linear_49_244" x1="260.5" y1="75" x2="194" y2="75" gradientUnits="userSpaceOnUse">
<stop stop-color="#FFC24A" stop-opacity="0"/>
<stop offset="1" stop-color="#F18111"/>
</linearGradient>
<linearGradient id="paint1_linear_49_244" x1="228" y1="148.5" x2="209.5" y2="163.5" gradientUnits="userSpaceOnUse">
<stop stop-color="#E27826" stop-opacity="0"/>
<stop offset="1" stop-color="#BE6622"/>
</linearGradient>
<linearGradient id="paint2_linear_49_244" x1="22" y1="52.5" x2="30" y2="66.5" gradientUnits="userSpaceOnUse">
<stop stop-color="#FFF4C7" stop-opacity="0"/>
<stop offset="1" stop-color="#FFC24A"/>
</linearGradient>
<linearGradient id="paint3_linear_49_244" x1="86" y1="128.5" x2="10.5" y2="145" gradientUnits="userSpaceOnUse">
<stop stop-color="#F18111"/>
<stop offset="1" stop-color="#FFC24A" stop-opacity="0"/>
</linearGradient>
<linearGradient id="paint4_linear_49_244" x1="65.4482" y1="106.434" x2="194.614" y2="59.3867" gradientUnits="userSpaceOnUse">
<stop stop-color="#FFC24A" stop-opacity="0"/>
<stop offset="1" stop-color="#F18111"/>
</linearGradient>
<linearGradient id="paint5_linear_49_244" x1="125.5" y1="138" x2="156" y2="122.5" gradientUnits="userSpaceOnUse">
<stop stop-color="#FFC24A" stop-opacity="0"/>
<stop offset="1" stop-color="#F18111"/>
</linearGradient>
<linearGradient id="paint6_linear_49_244" x1="140" y1="129" x2="204" y2="97" gradientUnits="userSpaceOnUse">
<stop stop-color="#FFC24A"/>
<stop offset="1" stop-color="#F18111"/>
</linearGradient>
<linearGradient id="paint7_linear_49_244" x1="88.5" y1="143.5" x2="109" y2="185" gradientUnits="userSpaceOnUse">
<stop stop-color="#FFC24A" stop-opacity="0"/>
<stop offset="1" stop-color="#F18111"/>
</linearGradient>
<linearGradient id="paint8_linear_49_244" x1="55" y1="90.5" x2="11" y2="91.5" gradientUnits="userSpaceOnUse">
<stop stop-color="#FFC24A" stop-opacity="0"/>
<stop offset="1" stop-color="#FFF4C7"/>
</linearGradient>
<linearGradient id="paint9_linear_49_244" x1="70" y1="66" x2="60.5" y2="76.5" gradientUnits="userSpaceOnUse">
<stop stop-color="#FFF4C7" stop-opacity="0"/>
<stop offset="1" stop-color="#FFC24A"/>
</linearGradient>
</defs>
</svg>
